<svg width="87" height="22" viewBox="0 0 87 22" fill="none" xmlns="http://www.w3.org/2000/svg">
<g clip-path="url(#clip0_40000187_31764)">
<path d="M72.1113 10.1112C72.1113 5.39303 74.5099 2.14515 78.1543 1.44015V7.62945L75.7554 9.98895L78.1543 12.3786V19.0887C74.2912 18.1694 72.1113 14.5849 72.1113 10.1112ZM10.4351 11.4902L16.1043 5.60738C16.0421 6.49576 15.98 8.12013 15.9485 9.80474L15.917 12.3175C15.7297 12.4707 15.3561 12.624 15.0445 12.624C14.6708 12.624 14.2035 12.5929 12.6772 12.1333C11.9606 11.9189 11.2446 11.7046 10.4343 11.4902H10.4351ZM22.5208 21.7856L22.4893 21.7246L33.8591 0.981289H28.8752C25.5112 0.981289 24.265 2.57467 23.5176 7.38496H23.1746V0.33742H38.002V0.459674L26.6637 21.1418H31.2117C34.8252 21.1418 36.5694 19.2118 37.161 13.8188H37.504V21.7848H22.5208V21.7856ZM79.1194 22C82.0782 22 85.1314 20.4678 87 18.0781V16.5458C85.0064 18.4457 82.8255 19.3031 80.1159 19.3031C79.6489 19.3031 79.2131 19.2721 78.8079 19.211V12.3476L81.1442 9.98815L78.8079 7.65959V1.34805C79.1194 1.31708 79.3685 1.31708 79.6489 1.31708C82.5771 1.31708 84.3528 2.29756 86.533 5.20802V1.89901C84.3521 0.765307 82.1094 0.183381 79.8355 0.183381C73.8546 0.183381 69.4001 4.99366 69.4001 11.2751C69.4001 17.219 73.5116 21.9992 79.1187 21.9992L79.1194 22ZM57.7511 3.00337H68.7157C69.4631 3.00337 70.0862 2.39047 70.0862 1.62435C70.0862 0.919351 69.4631 0.33742 68.7157 0.33742H57.7511C57.0037 0.33742 56.4113 0.919351 56.4113 1.62435C56.4113 2.39047 57.0029 3.00337 57.7511 3.00337ZM57.689 6.0369C58.3743 6.0369 58.9659 5.5161 58.9659 4.84207C58.9659 4.16805 58.3743 3.6774 57.689 3.6774C57.0037 3.6774 56.4121 4.16805 56.4121 4.84207C56.4121 5.5161 56.9731 6.0369 57.689 6.0369ZM57.6269 12.3183H65.7254C66.3791 12.3183 66.9095 11.7364 66.9095 11.0004C66.9095 10.2645 66.38 9.65235 65.7254 9.65235H57.6269C56.9731 9.65235 56.4121 10.2653 56.4121 11.0004C56.4121 11.7355 56.9731 12.3183 57.6269 12.3183ZM57.689 9.03943C58.3743 9.03943 58.9659 8.48767 58.9659 7.84461C58.9659 7.13963 58.3743 6.67996 57.689 6.67996C57.0037 6.67996 56.4121 7.13963 56.4121 7.84461C56.4121 8.48767 56.9731 9.03943 57.689 9.03943ZM57.6575 15.351C58.3742 15.351 58.9659 14.8302 58.9659 14.1562C58.9659 13.4822 58.3742 12.9304 57.6575 12.9304C56.9408 12.9304 56.4113 13.4512 56.4113 14.1562C56.4113 14.8612 56.9723 15.351 57.6575 15.351ZM57.7511 21.7856H68.7157C69.4631 21.7856 70.0862 21.1727 70.0862 20.4376C70.0862 19.7025 69.4631 19.1197 68.7157 19.1197H57.7511C57.0037 19.1197 56.4113 19.7017 56.4113 20.4376C56.4113 21.1735 57.0029 21.7856 57.7511 21.7856ZM57.6575 18.4457C58.3742 18.4457 58.9659 17.9249 58.9659 17.2509C58.9659 16.5769 58.3742 16.025 57.6575 16.025C56.9408 16.025 56.4113 16.5458 56.4113 17.2509C56.4113 17.9558 56.9723 18.4457 57.6575 18.4457ZM45.2288 21.7856H48.6865L48.2192 2.51272L54.8851 3.5853H54.9473L54.3557 0.33742H39.5282L38.9051 3.5853H38.9672L45.6332 2.51272L45.228 21.7856H45.2288ZM12.2729 14.9533C13.176 14.9533 14.3286 14.4015 15.917 12.9614L15.8234 19.2118C15.8234 20.3145 17.256 21.9388 18.1907 21.9388C18.7823 21.9388 19.6547 21.326 20.7451 19.9779L21.8041 18.66L21.4304 18.3226L21.181 18.5981C20.8694 18.9355 20.5894 19.0887 20.3399 19.0887C19.8105 19.0887 19.1559 18.1083 19.1559 17.2501L19.2802 2.32852L21.2116 0.306448L20.9001 0L18.7193 2.02208L15.8225 1.1337C14.109 0.6129 12.8322 0.245321 12.2712 0.245321C11.5239 0.245321 10.0598 1.07257 8.75146 2.3595L5.51171 5.51528L8.15904 8.18121L10.8378 5.51528L9.18727 3.95288C8.09687 2.94143 10.1219 2.3595 11.1494 2.69692L16.3205 4.41255L9.65462 11.3068C8.43989 11.0004 7.3495 10.7551 6.72641 10.7551C5.51171 10.7551 3.51815 11.8276 1.43096 13.6354L0.372032 14.5548L0.777207 15.0144L1.36881 14.4936C2.24131 13.7275 3.08231 13.2376 3.92332 13.2376C4.42213 13.2376 5.20016 13.3599 6.63361 13.7584C6.85153 13.8196 7.10093 13.8807 7.35033 13.9426L0 21.5705L0.435833 21.9992L1.33898 21.0798C1.68201 20.7424 2.08636 20.5281 2.58516 20.5281C3.7692 20.5281 6.69658 21.9372 8.03642 21.9372C8.72164 21.9372 9.46902 21.4466 10.3415 20.2828L11.7434 18.4441L11.3698 18.1376L10.7467 18.8116C10.4036 19.1792 10.0929 19.3634 9.71842 19.3634C8.75309 19.3634 6.448 18.1987 5.41974 18.1987C4.95242 18.1987 4.42295 18.352 3.67558 18.7505L8.09851 14.1546C9.6248 14.5531 11.4626 14.9508 12.2729 14.9508V14.9533Z" fill="#F2EEE1"/>
</g>
<defs>
<clipPath id="clip0_40000187_31764">
<rect width="87" height="22" fill="white"/>
</clipPath>
</defs>
</svg>
