<svg width="402" height="874" viewBox="0 0 402 874" fill="none" xmlns="http://www.w3.org/2000/svg">
<g clip-path="url(#clip0_1178_4468)">
<rect width="402" height="874" rx="16" fill="black"/>
<rect x="0.5" y="102.493" width="401" height="771.007" rx="15.5" fill="white" stroke="black"/>
<path d="M373.405 137.648L372.342 136.585L376.115 132.812L372.342 129.064L373.405 128L377.178 131.773L380.926 128L381.99 129.064L378.217 132.812L381.99 136.585L380.926 137.648L377.178 133.875L373.405 137.648Z" fill="#1C1B1F"/>
<mask id="mask0_1178_4468" style="mask-type:alpha" maskUnits="userSpaceOnUse" x="80" y="278" width="243" height="243">
<rect x="80.3839" y="278.718" width="242.212" height="242.212" fill="#606060"/>
</mask>
<g mask="url(#mask0_1178_4468)">
<path d="M186.972 439.262L251.524 374.71L244.382 367.567L186.972 424.976L158.21 396.214L151.067 403.356L186.972 439.262ZM201.523 490.653C188.963 490.653 177.154 488.27 166.097 483.503C155.041 478.736 145.423 472.267 137.243 464.096C129.063 455.925 122.588 446.315 117.818 435.268C113.046 424.222 110.66 412.418 110.66 399.857C110.66 387.297 113.044 375.488 117.811 364.431C122.578 353.375 129.047 343.757 137.218 335.577C145.389 327.398 154.999 320.923 166.046 316.152C177.092 311.38 188.896 308.995 201.457 308.995C214.017 308.995 225.825 311.378 236.883 316.145C247.939 320.912 257.557 327.381 265.737 335.552C273.916 343.723 280.391 353.333 285.161 364.38C289.933 375.426 292.319 387.23 292.319 399.791C292.319 412.351 289.936 424.16 285.169 435.217C280.402 446.273 273.933 455.891 265.762 464.071C257.591 472.25 247.981 478.725 236.934 483.496C225.888 488.267 214.084 490.653 201.523 490.653ZM201.49 480.561C224.029 480.561 243.12 472.74 258.763 457.097C274.406 441.454 282.227 422.363 282.227 399.824C282.227 377.285 274.406 358.194 258.763 342.551C243.12 326.908 224.029 319.087 201.49 319.087C178.951 319.087 159.86 326.908 144.217 342.551C128.574 358.194 120.753 377.285 120.753 399.824C120.753 422.363 128.574 441.454 144.217 457.097C159.86 472.74 178.951 480.561 201.49 480.561Z" fill="#606060"/>
</g>
<path d="M177.954 661H176.477L180.75 649.364H182.204L186.477 661H185L181.523 651.205H181.432L177.954 661ZM178.5 656.455H184.454V657.705H178.5V656.455ZM189.449 649.364V661H188.108V649.364H189.449ZM193.246 649.364V661H191.905V649.364H193.246ZM206.383 654.227L205.179 654.568C205.103 654.367 204.991 654.172 204.844 653.983C204.7 653.79 204.503 653.631 204.253 653.506C204.003 653.381 203.683 653.318 203.292 653.318C202.758 653.318 202.313 653.441 201.957 653.688C201.605 653.93 201.429 654.239 201.429 654.614C201.429 654.947 201.55 655.21 201.792 655.403C202.035 655.597 202.414 655.758 202.929 655.886L204.224 656.205C205.005 656.394 205.586 656.684 205.969 657.074C206.351 657.46 206.542 657.958 206.542 658.568C206.542 659.068 206.398 659.515 206.111 659.909C205.827 660.303 205.429 660.614 204.917 660.841C204.406 661.068 203.811 661.182 203.133 661.182C202.243 661.182 201.506 660.989 200.923 660.602C200.34 660.216 199.97 659.652 199.815 658.909L201.088 658.591C201.209 659.061 201.438 659.413 201.775 659.648C202.116 659.883 202.561 660 203.111 660C203.736 660 204.232 659.867 204.599 659.602C204.97 659.333 205.156 659.011 205.156 658.636C205.156 658.333 205.05 658.08 204.838 657.875C204.626 657.667 204.3 657.511 203.861 657.409L202.406 657.068C201.607 656.879 201.02 656.585 200.645 656.188C200.273 655.786 200.088 655.284 200.088 654.682C200.088 654.189 200.226 653.754 200.503 653.375C200.783 652.996 201.164 652.699 201.645 652.483C202.13 652.267 202.679 652.159 203.292 652.159C204.156 652.159 204.834 652.348 205.327 652.727C205.823 653.106 206.175 653.606 206.383 654.227ZM212.22 661.182C211.379 661.182 210.654 660.996 210.044 660.625C209.438 660.25 208.97 659.727 208.64 659.057C208.315 658.383 208.152 657.598 208.152 656.705C208.152 655.811 208.315 655.023 208.64 654.341C208.97 653.655 209.428 653.121 210.015 652.739C210.606 652.352 211.296 652.159 212.084 652.159C212.538 652.159 212.987 652.235 213.43 652.386C213.873 652.538 214.277 652.784 214.64 653.125C215.004 653.462 215.294 653.909 215.51 654.466C215.726 655.023 215.834 655.708 215.834 656.523V657.091H209.106V655.932H214.47C214.47 655.439 214.371 655 214.175 654.614C213.981 654.227 213.705 653.922 213.345 653.699C212.989 653.475 212.568 653.364 212.084 653.364C211.55 653.364 211.087 653.496 210.697 653.761C210.311 654.023 210.014 654.364 209.805 654.784C209.597 655.205 209.493 655.655 209.493 656.136V656.909C209.493 657.568 209.606 658.127 209.834 658.585C210.065 659.04 210.385 659.386 210.794 659.625C211.203 659.86 211.678 659.977 212.22 659.977C212.572 659.977 212.89 659.928 213.175 659.83C213.462 659.727 213.711 659.576 213.919 659.375C214.127 659.17 214.288 658.917 214.402 658.614L215.697 658.977C215.561 659.417 215.332 659.803 215.01 660.136C214.688 660.466 214.29 660.723 213.817 660.909C213.343 661.091 212.811 661.182 212.22 661.182ZM221.669 652.273V653.409H217.146V652.273H221.669ZM218.464 650.182H219.805V658.5C219.805 658.879 219.86 659.163 219.97 659.352C220.084 659.538 220.228 659.663 220.402 659.727C220.58 659.788 220.767 659.818 220.964 659.818C221.112 659.818 221.233 659.811 221.328 659.795C221.423 659.777 221.498 659.761 221.555 659.75L221.828 660.955C221.737 660.989 221.61 661.023 221.447 661.057C221.284 661.095 221.078 661.114 220.828 661.114C220.449 661.114 220.078 661.032 219.714 660.869C219.354 660.706 219.055 660.458 218.817 660.125C218.582 659.792 218.464 659.371 218.464 658.864V650.182ZM225.459 649.364L225.345 657.727H224.027L223.913 649.364H225.459ZM224.686 661.091C224.406 661.091 224.165 660.991 223.964 660.79C223.764 660.589 223.663 660.348 223.663 660.068C223.663 659.788 223.764 659.547 223.964 659.347C224.165 659.146 224.406 659.045 224.686 659.045C224.966 659.045 225.207 659.146 225.407 659.347C225.608 659.547 225.709 659.788 225.709 660.068C225.709 660.254 225.661 660.424 225.567 660.58C225.476 660.735 225.353 660.86 225.197 660.955C225.046 661.045 224.875 661.091 224.686 661.091Z" fill="black"/>
<rect x="20.9899" y="697" width="361" height="51" rx="8" fill="#606060"/>
<path d="M183.841 728H180.251V716.364H184.001C185.129 716.364 186.095 716.597 186.898 717.062C187.701 717.525 188.317 718.189 188.745 719.057C189.173 719.92 189.387 720.955 189.387 722.159C189.387 723.371 189.171 724.415 188.739 725.29C188.307 726.161 187.679 726.831 186.853 727.301C186.027 727.767 185.023 728 183.841 728ZM181.66 726.75H183.751C184.713 726.75 185.51 726.564 186.143 726.193C186.775 725.822 187.247 725.294 187.557 724.608C187.868 723.922 188.023 723.106 188.023 722.159C188.023 721.22 187.87 720.411 187.563 719.733C187.256 719.051 186.798 718.528 186.188 718.165C185.578 717.797 184.819 717.614 183.91 717.614H181.66V726.75ZM201.569 722.182C201.569 723.409 201.347 724.47 200.904 725.364C200.461 726.258 199.853 726.947 199.08 727.432C198.307 727.917 197.425 728.159 196.432 728.159C195.44 728.159 194.557 727.917 193.785 727.432C193.012 726.947 192.404 726.258 191.961 725.364C191.518 724.47 191.296 723.409 191.296 722.182C191.296 720.955 191.518 719.894 191.961 719C192.404 718.106 193.012 717.417 193.785 716.932C194.557 716.447 195.44 716.205 196.432 716.205C197.425 716.205 198.307 716.447 199.08 716.932C199.853 717.417 200.461 718.106 200.904 719C201.347 719.894 201.569 720.955 201.569 722.182ZM200.205 722.182C200.205 721.174 200.037 720.324 199.699 719.631C199.366 718.938 198.913 718.413 198.341 718.057C197.773 717.701 197.137 717.523 196.432 717.523C195.728 717.523 195.09 717.701 194.518 718.057C193.949 718.413 193.497 718.938 193.16 719.631C192.826 720.324 192.66 721.174 192.66 722.182C192.66 723.189 192.826 724.04 193.16 724.733C193.497 725.426 193.949 725.951 194.518 726.307C195.09 726.663 195.728 726.841 196.432 726.841C197.137 726.841 197.773 726.663 198.341 726.307C198.913 725.951 199.366 725.426 199.699 724.733C200.037 724.04 200.205 723.189 200.205 722.182ZM213.165 716.364V728H211.802L205.461 718.864H205.347V728H203.938V716.364H205.302L211.665 725.523H211.779V716.364H213.165ZM215.985 728V716.364H223.008V717.614H217.394V721.545H222.644V722.795H217.394V726.75H223.099V728H215.985Z" fill="white"/>
</g>
<defs>
<clipPath id="clip0_1178_4468">
<rect width="402" height="874" rx="16" fill="white"/>
</clipPath>
</defs>
</svg>
