<svg width="402" height="874" viewBox="0 0 402 874" fill="none" xmlns="http://www.w3.org/2000/svg">
<g clip-path="url(#clip0_1178_4411)">
<rect width="402" height="874" rx="16" fill="black"/>
<rect x="0.5" y="102.493" width="401" height="771.007" rx="15.5" fill="white" stroke="black"/>
<path d="M376.915 137.648L375.852 136.585L379.625 132.812L375.852 129.064L376.915 128L380.688 131.773L384.436 128L385.5 129.064L381.727 132.812L385.5 136.585L384.436 137.648L380.688 133.875L376.915 137.648Z" fill="#1C1B1F"/>
<path d="M45.9489 194.648L39.2898 171.375H44.6648L48.517 187.546H48.7102L52.9602 171.375H57.5625L61.8011 187.58H62.0057L65.858 171.375H71.233L64.5739 194.648H59.7784L55.3466 179.432H55.1648L50.7443 194.648H45.9489ZM79.8551 194.989C78.0597 194.989 76.5142 194.625 75.2188 193.898C73.9309 193.163 72.9384 192.125 72.2415 190.784C71.5445 189.436 71.196 187.841 71.196 186C71.196 184.205 71.5445 182.629 72.2415 181.273C72.9384 179.917 73.9195 178.86 75.1847 178.102C76.4574 177.345 77.9498 176.966 79.6619 176.966C80.8134 176.966 81.8854 177.152 82.8778 177.523C83.8778 177.887 84.7491 178.436 85.4915 179.171C86.2415 179.906 86.8248 180.83 87.2415 181.943C87.6581 183.049 87.8665 184.345 87.8665 185.83V187.159H73.1278V184.159H83.3097C83.3097 183.462 83.1581 182.845 82.8551 182.307C82.5521 181.769 82.1316 181.349 81.5938 181.046C81.0634 180.735 80.446 180.58 79.7415 180.58C79.0066 180.58 78.3551 180.75 77.7869 181.091C77.2263 181.424 76.7869 181.875 76.4688 182.443C76.1506 183.004 75.9877 183.629 75.9801 184.318V187.171C75.9801 188.034 76.1392 188.781 76.4574 189.409C76.7831 190.038 77.2415 190.523 77.8324 190.864C78.4233 191.205 79.1241 191.375 79.9347 191.375C80.4725 191.375 80.965 191.299 81.4119 191.148C81.8589 190.996 82.2415 190.769 82.5597 190.466C82.8778 190.163 83.1203 189.792 83.2869 189.352L87.7642 189.648C87.5369 190.724 87.071 191.663 86.3665 192.466C85.6695 193.262 84.768 193.883 83.6619 194.33C82.5634 194.769 81.2945 194.989 79.8551 194.989ZM95.8665 171.375V194.648H91.0256V171.375H95.8665ZM107.631 194.989C105.843 194.989 104.305 194.61 103.017 193.852C101.737 193.087 100.752 192.027 100.062 190.671C99.3807 189.315 99.0398 187.754 99.0398 185.989C99.0398 184.201 99.3845 182.633 100.074 181.284C100.771 179.928 101.759 178.871 103.04 178.114C104.32 177.349 105.843 176.966 107.608 176.966C109.131 176.966 110.464 177.243 111.608 177.796C112.752 178.349 113.657 179.125 114.324 180.125C114.991 181.125 115.358 182.299 115.426 183.648H110.858C110.729 182.777 110.388 182.076 109.835 181.546C109.29 181.008 108.574 180.739 107.688 180.739C106.938 180.739 106.282 180.943 105.722 181.352C105.169 181.754 104.737 182.341 104.426 183.114C104.116 183.887 103.96 184.822 103.96 185.921C103.96 187.034 104.112 187.981 104.415 188.762C104.725 189.542 105.161 190.137 105.722 190.546C106.282 190.955 106.938 191.159 107.688 191.159C108.241 191.159 108.737 191.046 109.176 190.818C109.623 190.591 109.991 190.262 110.278 189.83C110.574 189.39 110.767 188.864 110.858 188.25H115.426C115.35 189.584 114.987 190.758 114.335 191.773C113.691 192.781 112.801 193.568 111.665 194.137C110.528 194.705 109.184 194.989 107.631 194.989ZM126.412 194.989C124.647 194.989 123.12 194.614 121.832 193.864C120.552 193.106 119.563 192.053 118.866 190.705C118.17 189.349 117.821 187.777 117.821 185.989C117.821 184.186 118.17 182.61 118.866 181.262C119.563 179.906 120.552 178.852 121.832 178.102C123.12 177.345 124.647 176.966 126.412 176.966C128.177 176.966 129.7 177.345 130.98 178.102C132.268 178.852 133.26 179.906 133.957 181.262C134.654 182.61 135.003 184.186 135.003 185.989C135.003 187.777 134.654 189.349 133.957 190.705C133.26 192.053 132.268 193.106 130.98 193.864C129.7 194.614 128.177 194.989 126.412 194.989ZM126.435 191.239C127.238 191.239 127.908 191.012 128.446 190.557C128.984 190.095 129.389 189.466 129.662 188.671C129.942 187.875 130.082 186.97 130.082 185.955C130.082 184.94 129.942 184.034 129.662 183.239C129.389 182.443 128.984 181.815 128.446 181.352C127.908 180.89 127.238 180.659 126.435 180.659C125.624 180.659 124.942 180.89 124.389 181.352C123.844 181.815 123.431 182.443 123.151 183.239C122.878 184.034 122.741 184.94 122.741 185.955C122.741 186.97 122.878 187.875 123.151 188.671C123.431 189.466 123.844 190.095 124.389 190.557C124.942 191.012 125.624 191.239 126.435 191.239ZM138.151 194.648V177.193H142.764V180.273H142.969C143.332 179.25 143.938 178.443 144.787 177.852C145.635 177.262 146.651 176.966 147.832 176.966C149.029 176.966 150.048 177.265 150.889 177.864C151.73 178.455 152.291 179.258 152.571 180.273H152.753C153.109 179.273 153.753 178.474 154.685 177.875C155.624 177.269 156.734 176.966 158.014 176.966C159.643 176.966 160.965 177.485 161.98 178.523C163.003 179.553 163.514 181.015 163.514 182.909V194.648H158.685V183.864C158.685 182.894 158.427 182.167 157.912 181.682C157.397 181.197 156.753 180.955 155.98 180.955C155.101 180.955 154.416 181.235 153.923 181.796C153.431 182.349 153.185 183.08 153.185 183.989V194.648H148.491V183.762C148.491 182.906 148.245 182.224 147.753 181.716C147.268 181.209 146.628 180.955 145.832 180.955C145.295 180.955 144.81 181.091 144.378 181.364C143.954 181.629 143.616 182.004 143.366 182.489C143.116 182.966 142.991 183.527 142.991 184.171V194.648H138.151ZM175.293 194.989C173.497 194.989 171.952 194.625 170.656 193.898C169.368 193.163 168.376 192.125 167.679 190.784C166.982 189.436 166.634 187.841 166.634 186C166.634 184.205 166.982 182.629 167.679 181.273C168.376 179.917 169.357 178.86 170.622 178.102C171.895 177.345 173.387 176.966 175.099 176.966C176.251 176.966 177.323 177.152 178.315 177.523C179.315 177.887 180.187 178.436 180.929 179.171C181.679 179.906 182.262 180.83 182.679 181.943C183.096 183.049 183.304 184.345 183.304 185.83V187.159H168.565V184.159H178.747C178.747 183.462 178.596 182.845 178.293 182.307C177.99 181.769 177.569 181.349 177.031 181.046C176.501 180.735 175.884 180.58 175.179 180.58C174.444 180.58 173.793 180.75 173.224 181.091C172.664 181.424 172.224 181.875 171.906 182.443C171.588 183.004 171.425 183.629 171.418 184.318V187.171C171.418 188.034 171.577 188.781 171.895 189.409C172.221 190.038 172.679 190.523 173.27 190.864C173.861 191.205 174.562 191.375 175.372 191.375C175.91 191.375 176.402 191.299 176.849 191.148C177.296 190.996 177.679 190.769 177.997 190.466C178.315 190.163 178.558 189.792 178.724 189.352L183.202 189.648C182.974 190.724 182.509 191.663 181.804 192.466C181.107 193.262 180.205 193.883 179.099 194.33C178.001 194.769 176.732 194.989 175.293 194.989ZM203.153 177.193V180.83H192.642V177.193H203.153ZM195.028 173.012H199.869V189.284C199.869 189.731 199.938 190.08 200.074 190.33C200.21 190.572 200.4 190.743 200.642 190.841C200.892 190.94 201.18 190.989 201.506 190.989C201.733 190.989 201.96 190.97 202.188 190.932C202.415 190.887 202.589 190.852 202.71 190.83L203.472 194.432C203.229 194.508 202.888 194.595 202.449 194.693C202.009 194.799 201.475 194.864 200.847 194.887C199.68 194.932 198.657 194.777 197.778 194.421C196.907 194.065 196.229 193.512 195.744 192.762C195.259 192.012 195.021 191.065 195.028 189.921V173.012ZM214.006 194.989C212.241 194.989 210.714 194.614 209.426 193.864C208.146 193.106 207.157 192.053 206.46 190.705C205.763 189.349 205.415 187.777 205.415 185.989C205.415 184.186 205.763 182.61 206.46 181.262C207.157 179.906 208.146 178.852 209.426 178.102C210.714 177.345 212.241 176.966 214.006 176.966C215.771 176.966 217.294 177.345 218.574 178.102C219.862 178.852 220.854 179.906 221.551 181.262C222.248 182.61 222.597 184.186 222.597 185.989C222.597 187.777 222.248 189.349 221.551 190.705C220.854 192.053 219.862 193.106 218.574 193.864C217.294 194.614 215.771 194.989 214.006 194.989ZM214.028 191.239C214.831 191.239 215.502 191.012 216.04 190.557C216.578 190.095 216.983 189.466 217.256 188.671C217.536 187.875 217.676 186.97 217.676 185.955C217.676 184.94 217.536 184.034 217.256 183.239C216.983 182.443 216.578 181.815 216.04 181.352C215.502 180.89 214.831 180.659 214.028 180.659C213.218 180.659 212.536 180.89 211.983 181.352C211.438 181.815 211.025 182.443 210.744 183.239C210.472 184.034 210.335 184.94 210.335 185.955C210.335 186.97 210.472 187.875 210.744 188.671C211.025 189.466 211.438 190.095 211.983 190.557C212.536 191.012 213.218 191.239 214.028 191.239ZM233.241 194.648V171.375H242.423C244.188 171.375 245.692 171.712 246.935 172.387C248.177 173.053 249.124 173.981 249.776 175.171C250.435 176.352 250.764 177.716 250.764 179.262C250.764 180.807 250.431 182.171 249.764 183.352C249.098 184.534 248.132 185.455 246.866 186.114C245.609 186.773 244.086 187.102 242.298 187.102H236.446V183.159H241.503C242.45 183.159 243.23 182.996 243.844 182.671C244.465 182.337 244.927 181.879 245.23 181.296C245.541 180.705 245.696 180.027 245.696 179.262C245.696 178.489 245.541 177.815 245.23 177.239C244.927 176.656 244.465 176.205 243.844 175.887C243.223 175.561 242.435 175.398 241.48 175.398H238.162V194.648H233.241ZM258.165 171.375L263.79 189.057H264.006L269.642 171.375H275.097L267.074 194.648H260.733L252.699 171.375H258.165ZM290.523 178.068C290.432 177.152 290.042 176.44 289.352 175.932C288.663 175.424 287.727 175.171 286.545 175.171C285.742 175.171 285.064 175.284 284.511 175.512C283.958 175.731 283.534 176.038 283.239 176.432C282.951 176.826 282.807 177.273 282.807 177.773C282.792 178.19 282.879 178.553 283.068 178.864C283.265 179.174 283.534 179.443 283.875 179.671C284.216 179.89 284.61 180.084 285.057 180.25C285.504 180.409 285.981 180.546 286.489 180.659L288.58 181.159C289.595 181.387 290.527 181.69 291.375 182.068C292.223 182.447 292.958 182.913 293.58 183.466C294.201 184.019 294.682 184.671 295.023 185.421C295.371 186.171 295.549 187.031 295.557 188C295.549 189.424 295.186 190.659 294.466 191.705C293.754 192.743 292.723 193.549 291.375 194.125C290.034 194.693 288.417 194.977 286.523 194.977C284.644 194.977 283.008 194.69 281.614 194.114C280.227 193.538 279.144 192.686 278.364 191.557C277.591 190.421 277.186 189.015 277.148 187.341H281.909C281.962 188.121 282.186 188.773 282.58 189.296C282.981 189.811 283.515 190.201 284.182 190.466C284.856 190.724 285.617 190.852 286.466 190.852C287.299 190.852 288.023 190.731 288.636 190.489C289.258 190.246 289.739 189.909 290.08 189.477C290.42 189.046 290.591 188.549 290.591 187.989C290.591 187.466 290.436 187.027 290.125 186.671C289.822 186.315 289.375 186.012 288.784 185.762C288.201 185.512 287.485 185.284 286.636 185.08L284.102 184.443C282.14 183.966 280.591 183.22 279.455 182.205C278.318 181.19 277.754 179.822 277.761 178.102C277.754 176.693 278.129 175.462 278.886 174.409C279.652 173.356 280.701 172.534 282.034 171.943C283.367 171.352 284.883 171.057 286.58 171.057C288.307 171.057 289.814 171.352 291.102 171.943C292.398 172.534 293.405 173.356 294.125 174.409C294.845 175.462 295.216 176.682 295.239 178.068H290.523ZM311.159 194.977C310.045 194.977 309.053 194.784 308.182 194.398C307.311 194.004 306.621 193.424 306.114 192.659C305.614 191.887 305.364 190.924 305.364 189.773C305.364 188.803 305.542 187.989 305.898 187.33C306.254 186.671 306.739 186.14 307.352 185.739C307.966 185.337 308.663 185.034 309.443 184.83C310.231 184.625 311.057 184.481 311.92 184.398C312.936 184.292 313.754 184.193 314.375 184.102C314.996 184.004 315.447 183.86 315.727 183.671C316.008 183.481 316.148 183.201 316.148 182.83V182.762C316.148 182.042 315.92 181.485 315.466 181.091C315.019 180.697 314.383 180.5 313.557 180.5C312.686 180.5 311.992 180.693 311.477 181.08C310.962 181.459 310.621 181.936 310.455 182.512L305.977 182.148C306.205 181.087 306.652 180.171 307.318 179.398C307.985 178.618 308.845 178.019 309.898 177.602C310.958 177.178 312.186 176.966 313.58 176.966C314.549 176.966 315.477 177.08 316.364 177.307C317.258 177.534 318.049 177.887 318.739 178.364C319.436 178.841 319.985 179.455 320.386 180.205C320.788 180.947 320.989 181.837 320.989 182.875V194.648H316.398V192.227H316.261C315.981 192.773 315.606 193.254 315.136 193.671C314.667 194.08 314.102 194.402 313.443 194.637C312.784 194.864 312.023 194.977 311.159 194.977ZM312.545 191.637C313.258 191.637 313.886 191.496 314.432 191.216C314.977 190.928 315.405 190.542 315.716 190.057C316.027 189.572 316.182 189.023 316.182 188.409V186.557C316.03 186.656 315.822 186.746 315.557 186.83C315.299 186.906 315.008 186.977 314.682 187.046C314.356 187.106 314.03 187.163 313.705 187.216C313.379 187.262 313.083 187.303 312.818 187.341C312.25 187.424 311.754 187.557 311.33 187.739C310.905 187.921 310.576 188.167 310.341 188.477C310.106 188.781 309.989 189.159 309.989 189.614C309.989 190.273 310.227 190.777 310.705 191.125C311.189 191.466 311.803 191.637 312.545 191.637ZM324.744 201.193V177.193H329.517V180.125H329.733C329.945 179.656 330.252 179.178 330.653 178.693C331.063 178.201 331.593 177.792 332.244 177.466C332.903 177.133 333.722 176.966 334.699 176.966C335.972 176.966 337.146 177.299 338.222 177.966C339.297 178.625 340.157 179.621 340.801 180.955C341.445 182.281 341.767 183.943 341.767 185.943C341.767 187.89 341.453 189.534 340.824 190.875C340.203 192.209 339.354 193.22 338.278 193.909C337.21 194.591 336.013 194.932 334.688 194.932C333.748 194.932 332.949 194.777 332.29 194.466C331.638 194.156 331.104 193.765 330.688 193.296C330.271 192.818 329.953 192.337 329.733 191.852H329.585V201.193H324.744ZM329.483 185.921C329.483 186.959 329.627 187.864 329.915 188.637C330.203 189.409 330.619 190.012 331.165 190.443C331.71 190.868 332.373 191.08 333.153 191.08C333.941 191.08 334.608 190.864 335.153 190.432C335.699 189.993 336.112 189.387 336.392 188.614C336.68 187.834 336.824 186.936 336.824 185.921C336.824 184.913 336.684 184.027 336.403 183.262C336.123 182.496 335.71 181.898 335.165 181.466C334.619 181.034 333.949 180.818 333.153 180.818C332.366 180.818 331.699 181.027 331.153 181.443C330.616 181.86 330.203 182.451 329.915 183.216C329.627 183.981 329.483 184.883 329.483 185.921ZM344.994 201.193V177.193H349.767V180.125H349.983C350.195 179.656 350.502 179.178 350.903 178.693C351.313 178.201 351.843 177.792 352.494 177.466C353.153 177.133 353.972 176.966 354.949 176.966C356.222 176.966 357.396 177.299 358.472 177.966C359.547 178.625 360.407 179.621 361.051 180.955C361.695 182.281 362.017 183.943 362.017 185.943C362.017 187.89 361.703 189.534 361.074 190.875C360.453 192.209 359.604 193.22 358.528 193.909C357.46 194.591 356.263 194.932 354.938 194.932C353.998 194.932 353.199 194.777 352.54 194.466C351.888 194.156 351.354 193.765 350.938 193.296C350.521 192.818 350.203 192.337 349.983 191.852H349.835V201.193H344.994ZM349.733 185.921C349.733 186.959 349.877 187.864 350.165 188.637C350.453 189.409 350.869 190.012 351.415 190.443C351.96 190.868 352.623 191.08 353.403 191.08C354.191 191.08 354.858 190.864 355.403 190.432C355.949 189.993 356.362 189.387 356.642 188.614C356.93 187.834 357.074 186.936 357.074 185.921C357.074 184.913 356.934 184.027 356.653 183.262C356.373 182.496 355.96 181.898 355.415 181.466C354.869 181.034 354.199 180.818 353.403 180.818C352.616 180.818 351.949 181.027 351.403 181.443C350.866 181.86 350.453 182.451 350.165 183.216C349.877 183.981 349.733 184.883 349.733 185.921Z" fill="black"/>
<path d="M27.1868 217.262V216.012H35.9141V217.262H32.255V227.648H30.8459V217.262H27.1868ZM40.1868 227.83C39.3989 227.83 38.7076 227.642 38.1129 227.267C37.522 226.892 37.0599 226.368 36.7266 225.693C36.397 225.019 36.2322 224.231 36.2322 223.33C36.2322 222.421 36.397 221.627 36.7266 220.949C37.0599 220.271 37.522 219.745 38.1129 219.37C38.7076 218.995 39.3989 218.807 40.1868 218.807C40.9747 218.807 41.6641 218.995 42.255 219.37C42.8497 219.745 43.3118 220.271 43.6413 220.949C43.9747 221.627 44.1413 222.421 44.1413 223.33C44.1413 224.231 43.9747 225.019 43.6413 225.693C43.3118 226.368 42.8497 226.892 42.255 227.267C41.6641 227.642 40.9747 227.83 40.1868 227.83ZM40.1868 226.625C40.7853 226.625 41.2777 226.472 41.6641 226.165C42.0504 225.858 42.3364 225.455 42.522 224.955C42.7076 224.455 42.8004 223.913 42.8004 223.33C42.8004 222.746 42.7076 222.203 42.522 221.699C42.3364 221.195 42.0504 220.788 41.6641 220.477C41.2777 220.167 40.7853 220.012 40.1868 220.012C39.5883 220.012 39.0959 220.167 38.7095 220.477C38.3232 220.788 38.0372 221.195 37.8516 221.699C37.666 222.203 37.5732 222.746 37.5732 223.33C37.5732 223.913 37.666 224.455 37.8516 224.955C38.0372 225.455 38.3232 225.858 38.7095 226.165C39.0959 226.472 39.5883 226.625 40.1868 226.625ZM56.87 220.875L55.6655 221.216C55.5897 221.015 55.478 220.82 55.3303 220.631C55.1863 220.438 54.9893 220.279 54.7393 220.154C54.4893 220.029 54.1693 219.966 53.7791 219.966C53.245 219.966 52.8 220.089 52.4439 220.335C52.0916 220.578 51.9155 220.887 51.9155 221.262C51.9155 221.595 52.0367 221.858 52.2791 222.051C52.5215 222.245 52.9003 222.406 53.4155 222.534L54.7109 222.852C55.4912 223.042 56.0727 223.332 56.4553 223.722C56.8378 224.108 57.0291 224.606 57.0291 225.216C57.0291 225.716 56.8852 226.163 56.5973 226.557C56.3132 226.951 55.9155 227.262 55.4041 227.489C54.8928 227.716 54.2981 227.83 53.62 227.83C52.7299 227.83 51.9931 227.637 51.4098 227.25C50.8265 226.864 50.4571 226.299 50.3018 225.557L51.5746 225.239C51.6958 225.709 51.925 226.061 52.2621 226.296C52.603 226.531 53.0481 226.648 53.5973 226.648C54.2223 226.648 54.7185 226.515 55.0859 226.25C55.4571 225.981 55.6428 225.659 55.6428 225.284C55.6428 224.981 55.5367 224.727 55.3246 224.523C55.1125 224.315 54.7867 224.159 54.3473 224.057L52.8928 223.716C52.0935 223.527 51.5064 223.233 51.1314 222.835C50.7602 222.434 50.5746 221.932 50.5746 221.33C50.5746 220.837 50.7128 220.402 50.9893 220.023C51.2696 219.644 51.6503 219.347 52.1314 219.131C52.6162 218.915 53.1655 218.807 53.7791 218.807C54.6428 218.807 55.3208 218.996 55.8132 219.375C56.3094 219.754 56.6617 220.254 56.87 220.875ZM62.843 218.921V220.057H58.3203V218.921H62.843ZM59.6385 216.83H60.9794V225.148C60.9794 225.527 61.0343 225.811 61.1442 226C61.2578 226.186 61.4018 226.311 61.576 226.375C61.754 226.436 61.9415 226.466 62.1385 226.466C62.2862 226.466 62.4074 226.459 62.5021 226.443C62.5968 226.424 62.6726 226.409 62.7294 226.398L63.0021 227.602C62.9112 227.637 62.7843 227.671 62.6214 227.705C62.4586 227.743 62.2521 227.762 62.0021 227.762C61.6233 227.762 61.2521 227.68 60.8885 227.517C60.5286 227.354 60.2294 227.106 59.9908 226.773C59.7559 226.44 59.6385 226.019 59.6385 225.512V216.83ZM67.4283 227.852C66.8752 227.852 66.3733 227.748 65.9226 227.54C65.4718 227.328 65.1139 227.023 64.8487 226.625C64.5836 226.224 64.451 225.739 64.451 225.171C64.451 224.671 64.5495 224.265 64.7464 223.955C64.9434 223.64 65.2067 223.394 65.5362 223.216C65.8658 223.038 66.2294 222.906 66.6271 222.818C67.0286 222.727 67.4321 222.656 67.8374 222.602C68.3677 222.534 68.7976 222.483 69.1271 222.449C69.4605 222.411 69.7029 222.349 69.8544 222.262C70.0097 222.174 70.0874 222.023 70.0874 221.807V221.762C70.0874 221.201 69.9339 220.765 69.6271 220.455C69.3241 220.144 68.8639 219.989 68.2464 219.989C67.6063 219.989 67.1044 220.129 66.7408 220.409C66.3771 220.69 66.1214 220.989 65.9737 221.307L64.701 220.852C64.9283 220.322 65.2313 219.909 65.6101 219.614C65.9927 219.315 66.4093 219.106 66.8601 218.989C67.3146 218.868 67.7616 218.807 68.201 218.807C68.4813 218.807 68.8033 218.841 69.1669 218.909C69.5343 218.974 69.8885 219.108 70.2294 219.313C70.5741 219.517 70.8601 219.826 71.0874 220.239C71.3146 220.652 71.4283 221.205 71.4283 221.898V227.648H70.0874V226.466H70.0192C69.9283 226.656 69.7768 226.858 69.5646 227.074C69.3525 227.29 69.0703 227.474 68.718 227.625C68.3658 227.777 67.9358 227.852 67.4283 227.852ZM67.6328 226.648C68.1631 226.648 68.6101 226.544 68.9737 226.335C69.3411 226.127 69.6177 225.858 69.8033 225.529C69.9927 225.199 70.0874 224.852 70.0874 224.489V223.262C70.0305 223.33 69.9055 223.392 69.7124 223.449C69.523 223.502 69.3033 223.549 69.0533 223.591C68.8071 223.629 68.5665 223.663 68.3317 223.693C68.1006 223.72 67.9131 223.743 67.7692 223.762C67.4207 223.807 67.0949 223.881 66.7919 223.983C66.4927 224.082 66.2502 224.231 66.0646 224.432C65.8828 224.629 65.7919 224.898 65.7919 225.239C65.7919 225.705 65.9643 226.057 66.3089 226.296C66.6574 226.531 67.0987 226.648 67.6328 226.648ZM73.8757 227.648V218.921H75.1712V220.239H75.2621C75.4212 219.807 75.709 219.457 76.1257 219.188C76.5424 218.919 77.0121 218.784 77.5348 218.784C77.6333 218.784 77.7564 218.786 77.9041 218.79C78.0518 218.794 78.1636 218.799 78.2393 218.807V220.171C78.1939 220.159 78.0897 220.142 77.9268 220.12C77.7678 220.093 77.5992 220.08 77.4212 220.08C76.9969 220.08 76.6181 220.169 76.2848 220.347C75.9553 220.521 75.6939 220.763 75.5007 221.074C75.3113 221.381 75.2166 221.731 75.2166 222.125V227.648H73.8757ZM84.1712 218.921V220.057H79.6484V218.921H84.1712ZM80.9666 216.83H82.3075V225.148C82.3075 225.527 82.3625 225.811 82.4723 226C82.5859 226.186 82.7299 226.311 82.9041 226.375C83.0821 226.436 83.2696 226.466 83.4666 226.466C83.6143 226.466 83.7356 226.459 83.8303 226.443C83.925 226.424 84.0007 226.409 84.0575 226.398L84.3303 227.602C84.2393 227.637 84.1125 227.671 83.9496 227.705C83.7867 227.743 83.5803 227.762 83.3303 227.762C82.9515 227.762 82.5803 227.68 82.2166 227.517C81.8568 227.354 81.5575 227.106 81.3189 226.773C81.084 226.44 80.9666 226.019 80.9666 225.512V216.83ZM96.1882 224.08V218.921H97.5291V227.648H96.1882V226.171H96.0973C95.8928 226.614 95.5746 226.991 95.1428 227.301C94.7109 227.608 94.1655 227.762 93.5064 227.762C92.9609 227.762 92.4761 227.642 92.0518 227.404C91.6276 227.161 91.2943 226.798 91.0518 226.313C90.8094 225.824 90.6882 225.209 90.6882 224.466V218.921H92.0291V224.375C92.0291 225.012 92.2071 225.519 92.5632 225.898C92.9231 226.277 93.3814 226.466 93.9382 226.466C94.2715 226.466 94.6106 226.381 94.9553 226.21C95.3037 226.04 95.5954 225.779 95.8303 225.426C96.0689 225.074 96.1882 224.625 96.1882 224.08ZM106.167 220.875L104.962 221.216C104.887 221.015 104.775 220.82 104.627 220.631C104.483 220.438 104.286 220.279 104.036 220.154C103.786 220.029 103.466 219.966 103.076 219.966C102.542 219.966 102.097 220.089 101.741 220.335C101.388 220.578 101.212 220.887 101.212 221.262C101.212 221.595 101.334 221.858 101.576 222.051C101.818 222.245 102.197 222.406 102.712 222.534L104.008 222.852C104.788 223.042 105.37 223.332 105.752 223.722C106.135 224.108 106.326 224.606 106.326 225.216C106.326 225.716 106.182 226.163 105.894 226.557C105.61 226.951 105.212 227.262 104.701 227.489C104.19 227.716 103.595 227.83 102.917 227.83C102.027 227.83 101.29 227.637 100.707 227.25C100.123 226.864 99.754 226.299 99.5987 225.557L100.871 225.239C100.993 225.709 101.222 226.061 101.559 226.296C101.9 226.531 102.345 226.648 102.894 226.648C103.519 226.648 104.015 226.515 104.383 226.25C104.754 225.981 104.94 225.659 104.94 225.284C104.94 224.981 104.834 224.727 104.621 224.523C104.409 224.315 104.084 224.159 103.644 224.057L102.19 223.716C101.39 223.527 100.803 223.233 100.428 222.835C100.057 222.434 99.8714 221.932 99.8714 221.33C99.8714 220.837 100.01 220.402 100.286 220.023C100.567 219.644 100.947 219.347 101.428 219.131C101.913 218.915 102.462 218.807 103.076 218.807C103.94 218.807 104.618 218.996 105.11 219.375C105.606 219.754 105.959 220.254 106.167 220.875ZM108.344 227.648V218.921H109.685V227.648H108.344ZM109.026 217.466C108.765 217.466 108.54 217.377 108.35 217.199C108.165 217.021 108.072 216.807 108.072 216.557C108.072 216.307 108.165 216.093 108.35 215.915C108.54 215.737 108.765 215.648 109.026 215.648C109.288 215.648 109.511 215.737 109.697 215.915C109.886 216.093 109.981 216.307 109.981 216.557C109.981 216.807 109.886 217.021 109.697 217.199C109.511 217.377 109.288 217.466 109.026 217.466ZM113.482 222.398V227.648H112.141V218.921H113.437V220.284H113.55C113.755 219.841 114.066 219.485 114.482 219.216C114.899 218.943 115.437 218.807 116.096 218.807C116.687 218.807 117.204 218.928 117.647 219.171C118.09 219.409 118.435 219.773 118.681 220.262C118.927 220.746 119.05 221.36 119.05 222.102V227.648H117.71V222.193C117.71 221.508 117.531 220.974 117.175 220.591C116.819 220.205 116.331 220.012 115.71 220.012C115.281 220.012 114.899 220.104 114.562 220.29C114.228 220.476 113.965 220.746 113.772 221.102C113.579 221.459 113.482 221.89 113.482 222.398ZM125.023 231.102C124.376 231.102 123.819 231.019 123.353 230.852C122.887 230.69 122.499 230.474 122.188 230.205C121.881 229.94 121.637 229.656 121.455 229.352L122.523 228.602C122.645 228.762 122.798 228.943 122.984 229.148C123.169 229.356 123.423 229.536 123.745 229.688C124.071 229.843 124.497 229.921 125.023 229.921C125.728 229.921 126.309 229.75 126.768 229.409C127.226 229.068 127.455 228.534 127.455 227.807V226.034H127.342C127.243 226.193 127.103 226.39 126.921 226.625C126.743 226.856 126.486 227.063 126.148 227.245C125.815 227.423 125.364 227.512 124.796 227.512C124.092 227.512 123.459 227.345 122.898 227.012C122.342 226.678 121.9 226.193 121.575 225.557C121.253 224.921 121.092 224.148 121.092 223.239C121.092 222.345 121.249 221.567 121.563 220.904C121.878 220.237 122.315 219.722 122.876 219.358C123.436 218.991 124.084 218.807 124.819 218.807C125.387 218.807 125.838 218.902 126.171 219.091C126.508 219.277 126.766 219.489 126.944 219.727C127.126 219.962 127.266 220.156 127.364 220.307H127.501V218.921H128.796V227.898C128.796 228.648 128.626 229.258 128.285 229.727C127.948 230.201 127.493 230.548 126.921 230.767C126.353 230.991 125.72 231.102 125.023 231.102ZM124.978 226.307C125.516 226.307 125.97 226.184 126.342 225.938C126.713 225.692 126.995 225.337 127.188 224.875C127.381 224.413 127.478 223.86 127.478 223.216C127.478 222.587 127.383 222.032 127.194 221.551C127.004 221.07 126.724 220.693 126.353 220.421C125.982 220.148 125.523 220.012 124.978 220.012C124.41 220.012 123.936 220.156 123.558 220.443C123.183 220.731 122.9 221.118 122.711 221.602C122.525 222.087 122.433 222.625 122.433 223.216C122.433 223.822 122.527 224.358 122.717 224.824C122.91 225.286 123.194 225.65 123.569 225.915C123.948 226.176 124.417 226.307 124.978 226.307ZM138.319 227.852C137.766 227.852 137.264 227.748 136.813 227.54C136.362 227.328 136.004 227.023 135.739 226.625C135.474 226.224 135.342 225.739 135.342 225.171C135.342 224.671 135.44 224.265 135.637 223.955C135.834 223.64 136.097 223.394 136.427 223.216C136.756 223.038 137.12 222.906 137.518 222.818C137.919 222.727 138.323 222.656 138.728 222.602C139.258 222.534 139.688 222.483 140.018 222.449C140.351 222.411 140.594 222.349 140.745 222.262C140.9 222.174 140.978 222.023 140.978 221.807V221.762C140.978 221.201 140.825 220.765 140.518 220.455C140.215 220.144 139.754 219.989 139.137 219.989C138.497 219.989 137.995 220.129 137.631 220.409C137.268 220.69 137.012 220.989 136.864 221.307L135.592 220.852C135.819 220.322 136.122 219.909 136.501 219.614C136.883 219.315 137.3 219.106 137.751 218.989C138.205 218.868 138.652 218.807 139.092 218.807C139.372 218.807 139.694 218.841 140.058 218.909C140.425 218.974 140.779 219.108 141.12 219.313C141.465 219.517 141.751 219.826 141.978 220.239C142.205 220.652 142.319 221.205 142.319 221.898V227.648H140.978V226.466H140.91C140.819 226.656 140.667 226.858 140.455 227.074C140.243 227.29 139.961 227.474 139.609 227.625C139.256 227.777 138.826 227.852 138.319 227.852ZM138.523 226.648C139.054 226.648 139.501 226.544 139.864 226.335C140.232 226.127 140.508 225.858 140.694 225.529C140.883 225.199 140.978 224.852 140.978 224.489V223.262C140.921 223.33 140.796 223.392 140.603 223.449C140.414 223.502 140.194 223.549 139.944 223.591C139.698 223.629 139.457 223.663 139.222 223.693C138.991 223.72 138.804 223.743 138.66 223.762C138.311 223.807 137.986 223.881 137.683 223.983C137.383 224.082 137.141 224.231 136.955 224.432C136.773 224.629 136.683 224.898 136.683 225.239C136.683 225.705 136.855 226.057 137.2 226.296C137.548 226.531 137.989 226.648 138.523 226.648ZM146.107 216.012V227.648H144.766V216.012H146.107ZM149.904 216.012V227.648H148.563V216.012H149.904ZM160.746 218.921V220.057H156.042V218.921H160.746ZM157.451 227.648V217.716C157.451 217.216 157.568 216.799 157.803 216.466C158.038 216.133 158.343 215.883 158.718 215.716C159.093 215.549 159.489 215.466 159.906 215.466C160.235 215.466 160.504 215.493 160.712 215.546C160.921 215.599 161.076 215.648 161.178 215.693L160.792 216.852C160.724 216.83 160.629 216.801 160.508 216.767C160.39 216.733 160.235 216.716 160.042 216.716C159.599 216.716 159.279 216.828 159.082 217.051C158.888 217.275 158.792 217.602 158.792 218.034V227.648H157.451ZM165.925 227.83C165.085 227.83 164.359 227.644 163.749 227.273C163.143 226.898 162.675 226.375 162.346 225.705C162.02 225.031 161.857 224.246 161.857 223.352C161.857 222.459 162.02 221.671 162.346 220.989C162.675 220.303 163.134 219.769 163.721 219.387C164.312 219 165.001 218.807 165.789 218.807C166.244 218.807 166.692 218.883 167.136 219.034C167.579 219.186 167.982 219.432 168.346 219.773C168.71 220.11 168.999 220.557 169.215 221.114C169.431 221.671 169.539 222.356 169.539 223.171V223.739H162.812V222.58H168.175C168.175 222.087 168.077 221.648 167.88 221.262C167.687 220.875 167.41 220.57 167.05 220.347C166.694 220.123 166.274 220.012 165.789 220.012C165.255 220.012 164.793 220.144 164.403 220.409C164.016 220.671 163.719 221.012 163.511 221.432C163.302 221.852 163.198 222.303 163.198 222.784V223.557C163.198 224.216 163.312 224.775 163.539 225.233C163.77 225.688 164.09 226.034 164.499 226.273C164.908 226.508 165.384 226.625 165.925 226.625C166.278 226.625 166.596 226.576 166.88 226.477C167.168 226.375 167.416 226.224 167.624 226.023C167.833 225.818 167.994 225.565 168.107 225.262L169.403 225.625C169.266 226.065 169.037 226.451 168.715 226.784C168.393 227.114 167.996 227.371 167.522 227.557C167.049 227.739 166.516 227.83 165.925 227.83ZM174.147 227.852C173.594 227.852 173.092 227.748 172.641 227.54C172.191 227.328 171.833 227.023 171.567 226.625C171.302 226.224 171.17 225.739 171.17 225.171C171.17 224.671 171.268 224.265 171.465 223.955C171.662 223.64 171.925 223.394 172.255 223.216C172.585 223.038 172.948 222.906 173.346 222.818C173.747 222.727 174.151 222.656 174.556 222.602C175.086 222.534 175.516 222.483 175.846 222.449C176.179 222.411 176.422 222.349 176.573 222.262C176.728 222.174 176.806 222.023 176.806 221.807V221.762C176.806 221.201 176.653 220.765 176.346 220.455C176.043 220.144 175.583 219.989 174.965 219.989C174.325 219.989 173.823 220.129 173.46 220.409C173.096 220.69 172.84 220.989 172.692 221.307L171.42 220.852C171.647 220.322 171.95 219.909 172.329 219.614C172.711 219.315 173.128 219.106 173.579 218.989C174.033 218.868 174.48 218.807 174.92 218.807C175.2 218.807 175.522 218.841 175.886 218.909C176.253 218.974 176.607 219.108 176.948 219.313C177.293 219.517 177.579 219.826 177.806 220.239C178.033 220.652 178.147 221.205 178.147 221.898V227.648H176.806V226.466H176.738C176.647 226.656 176.496 226.858 176.283 227.074C176.071 227.29 175.789 227.474 175.437 227.625C175.085 227.777 174.655 227.852 174.147 227.852ZM174.352 226.648C174.882 226.648 175.329 226.544 175.692 226.335C176.06 226.127 176.336 225.858 176.522 225.529C176.711 225.199 176.806 224.852 176.806 224.489V223.262C176.749 223.33 176.624 223.392 176.431 223.449C176.242 223.502 176.022 223.549 175.772 223.591C175.526 223.629 175.285 223.663 175.05 223.693C174.819 223.72 174.632 223.743 174.488 223.762C174.139 223.807 173.814 223.881 173.511 223.983C173.211 224.082 172.969 224.231 172.783 224.432C172.602 224.629 172.511 224.898 172.511 225.239C172.511 225.705 172.683 226.057 173.028 226.296C173.376 226.531 173.817 226.648 174.352 226.648ZM184.39 218.921V220.057H179.867V218.921H184.39ZM181.185 216.83H182.526V225.148C182.526 225.527 182.581 225.811 182.691 226C182.805 226.186 182.949 226.311 183.123 226.375C183.301 226.436 183.488 226.466 183.685 226.466C183.833 226.466 183.954 226.459 184.049 226.443C184.144 226.424 184.219 226.409 184.276 226.398L184.549 227.602C184.458 227.637 184.331 227.671 184.168 227.705C184.005 227.743 183.799 227.762 183.549 227.762C183.17 227.762 182.799 227.68 182.435 227.517C182.076 227.354 181.776 227.106 181.538 226.773C181.303 226.44 181.185 226.019 181.185 225.512V216.83ZM191.907 224.08V218.921H193.248V227.648H191.907V226.171H191.816C191.612 226.614 191.293 226.991 190.862 227.301C190.43 227.608 189.884 227.762 189.225 227.762C188.68 227.762 188.195 227.642 187.771 227.404C187.346 227.161 187.013 226.798 186.771 226.313C186.528 225.824 186.407 225.209 186.407 224.466V218.921H187.748V224.375C187.748 225.012 187.926 225.519 188.282 225.898C188.642 226.277 189.1 226.466 189.657 226.466C189.99 226.466 190.329 226.381 190.674 226.21C191.022 226.04 191.314 225.779 191.549 225.426C191.788 225.074 191.907 224.625 191.907 224.08ZM195.704 227.648V218.921H196.999V220.239H197.09C197.249 219.807 197.537 219.457 197.954 219.188C198.371 218.919 198.84 218.784 199.363 218.784C199.461 218.784 199.585 218.786 199.732 218.79C199.88 218.794 199.992 218.799 200.067 218.807V220.171C200.022 220.159 199.918 220.142 199.755 220.12C199.596 220.093 199.427 220.08 199.249 220.08C198.825 220.08 198.446 220.169 198.113 220.347C197.783 220.521 197.522 220.763 197.329 221.074C197.139 221.381 197.045 221.731 197.045 222.125V227.648H195.704ZM205.05 227.83C204.21 227.83 203.484 227.644 202.874 227.273C202.268 226.898 201.8 226.375 201.471 225.705C201.145 225.031 200.982 224.246 200.982 223.352C200.982 222.459 201.145 221.671 201.471 220.989C201.8 220.303 202.259 219.769 202.846 219.387C203.437 219 204.126 218.807 204.914 218.807C205.369 218.807 205.817 218.883 206.261 219.034C206.704 219.186 207.107 219.432 207.471 219.773C207.835 220.11 208.124 220.557 208.34 221.114C208.556 221.671 208.664 222.356 208.664 223.171V223.739H201.937V222.58H207.3C207.3 222.087 207.202 221.648 207.005 221.262C206.812 220.875 206.535 220.57 206.175 220.347C205.819 220.123 205.399 220.012 204.914 220.012C204.38 220.012 203.918 220.144 203.528 220.409C203.141 220.671 202.844 221.012 202.636 221.432C202.427 221.852 202.323 222.303 202.323 222.784V223.557C202.323 224.216 202.437 224.775 202.664 225.233C202.895 225.688 203.215 226.034 203.624 226.273C204.033 226.508 204.509 226.625 205.05 226.625C205.403 226.625 205.721 226.576 206.005 226.477C206.293 226.375 206.541 226.224 206.749 226.023C206.958 225.818 207.119 225.565 207.232 225.262L208.528 225.625C208.391 226.065 208.162 226.451 207.84 226.784C207.518 227.114 207.121 227.371 206.647 227.557C206.174 227.739 205.641 227.83 205.05 227.83ZM216.886 220.875L215.681 221.216C215.605 221.015 215.494 220.82 215.346 220.631C215.202 220.438 215.005 220.279 214.755 220.154C214.505 220.029 214.185 219.966 213.795 219.966C213.261 219.966 212.816 220.089 212.46 220.335C212.107 220.578 211.931 220.887 211.931 221.262C211.931 221.595 212.052 221.858 212.295 222.051C212.537 222.245 212.916 222.406 213.431 222.534L214.727 222.852C215.507 223.042 216.088 223.332 216.471 223.722C216.853 224.108 217.045 224.606 217.045 225.216C217.045 225.716 216.901 226.163 216.613 226.557C216.329 226.951 215.931 227.262 215.42 227.489C214.908 227.716 214.314 227.83 213.636 227.83C212.746 227.83 212.009 227.637 211.425 227.25C210.842 226.864 210.473 226.299 210.317 225.557L211.59 225.239C211.711 225.709 211.941 226.061 212.278 226.296C212.619 226.531 213.064 226.648 213.613 226.648C214.238 226.648 214.734 226.515 215.102 226.25C215.473 225.981 215.658 225.659 215.658 225.284C215.658 224.981 215.552 224.727 215.34 224.523C215.128 224.315 214.802 224.159 214.363 224.057L212.908 223.716C212.109 223.527 211.522 223.233 211.147 222.835C210.776 222.434 210.59 221.932 210.59 221.33C210.59 220.837 210.728 220.402 211.005 220.023C211.285 219.644 211.666 219.347 212.147 219.131C212.632 218.915 213.181 218.807 213.795 218.807C214.658 218.807 215.336 218.996 215.829 219.375C216.325 219.754 216.677 220.254 216.886 220.875ZM221.063 226.057L220.972 226.671C220.908 227.102 220.809 227.565 220.677 228.057C220.548 228.549 220.414 229.013 220.273 229.449C220.133 229.885 220.018 230.231 219.927 230.489H218.904C218.953 230.246 219.018 229.926 219.097 229.529C219.177 229.131 219.256 228.686 219.336 228.193C219.419 227.705 219.487 227.205 219.54 226.693L219.609 226.057H221.063ZM233.548 224.08V218.921H234.888V227.648H233.548V226.171H233.457C233.252 226.614 232.934 226.991 232.502 227.301C232.07 227.608 231.525 227.762 230.866 227.762C230.32 227.762 229.835 227.642 229.411 227.404C228.987 227.161 228.654 226.798 228.411 226.313C228.169 225.824 228.048 225.209 228.048 224.466V218.921H229.388V224.375C229.388 225.012 229.567 225.519 229.923 225.898C230.282 226.277 230.741 226.466 231.298 226.466C231.631 226.466 231.97 226.381 232.315 226.21C232.663 226.04 232.955 225.779 233.19 225.426C233.428 225.074 233.548 224.625 233.548 224.08ZM238.685 222.398V227.648H237.344V218.921H238.64V220.284H238.754C238.958 219.841 239.269 219.485 239.685 219.216C240.102 218.943 240.64 218.807 241.299 218.807C241.89 218.807 242.407 218.928 242.85 219.171C243.293 219.409 243.638 219.773 243.884 220.262C244.13 220.746 244.254 221.36 244.254 222.102V227.648H242.913V222.193C242.913 221.508 242.735 220.974 242.379 220.591C242.022 220.205 241.534 220.012 240.913 220.012C240.485 220.012 240.102 220.104 239.765 220.29C239.432 220.476 239.168 220.746 238.975 221.102C238.782 221.459 238.685 221.89 238.685 222.398ZM248.045 216.012V227.648H246.704V216.012H248.045ZM254.046 227.83C253.258 227.83 252.567 227.642 251.972 227.267C251.381 226.892 250.919 226.368 250.586 225.693C250.256 225.019 250.092 224.231 250.092 223.33C250.092 222.421 250.256 221.627 250.586 220.949C250.919 220.271 251.381 219.745 251.972 219.37C252.567 218.995 253.258 218.807 254.046 218.807C254.834 218.807 255.523 218.995 256.114 219.37C256.709 219.745 257.171 220.271 257.501 220.949C257.834 221.627 258.001 222.421 258.001 223.33C258.001 224.231 257.834 225.019 257.501 225.693C257.171 226.368 256.709 226.892 256.114 227.267C255.523 227.642 254.834 227.83 254.046 227.83ZM254.046 226.625C254.645 226.625 255.137 226.472 255.523 226.165C255.91 225.858 256.196 225.455 256.381 224.955C256.567 224.455 256.66 223.913 256.66 223.33C256.66 222.746 256.567 222.203 256.381 221.699C256.196 221.195 255.91 220.788 255.523 220.477C255.137 220.167 254.645 220.012 254.046 220.012C253.448 220.012 252.955 220.167 252.569 220.477C252.183 220.788 251.897 221.195 251.711 221.699C251.525 222.203 251.433 222.746 251.433 223.33C251.433 223.913 251.525 224.455 251.711 224.955C251.897 225.455 252.183 225.858 252.569 226.165C252.955 226.472 253.448 226.625 254.046 226.625ZM263.593 227.83C262.775 227.83 262.07 227.637 261.479 227.25C260.888 226.864 260.434 226.332 260.116 225.654C259.798 224.976 259.638 224.201 259.638 223.33C259.638 222.443 259.801 221.661 260.127 220.983C260.457 220.301 260.915 219.769 261.502 219.387C262.093 219 262.782 218.807 263.57 218.807C264.184 218.807 264.737 218.921 265.229 219.148C265.722 219.375 266.125 219.693 266.44 220.102C266.754 220.512 266.949 220.989 267.025 221.534H265.684C265.582 221.137 265.354 220.784 265.002 220.477C264.654 220.167 264.184 220.012 263.593 220.012C263.07 220.012 262.612 220.148 262.218 220.421C261.828 220.69 261.523 221.07 261.303 221.563C261.087 222.051 260.979 222.625 260.979 223.284C260.979 223.959 261.085 224.546 261.298 225.046C261.513 225.546 261.817 225.934 262.207 226.21C262.601 226.487 263.063 226.625 263.593 226.625C263.942 226.625 264.258 226.565 264.542 226.443C264.826 226.322 265.067 226.148 265.263 225.921C265.46 225.693 265.601 225.421 265.684 225.102H267.025C266.949 225.618 266.762 226.082 266.462 226.495C266.167 226.904 265.775 227.229 265.286 227.472C264.801 227.71 264.237 227.83 263.593 227.83ZM270.235 224.466L270.212 222.807H270.485L274.303 218.921H275.962L271.894 223.034H271.781L270.235 224.466ZM268.985 227.648V216.012H270.326V227.648H268.985ZM274.531 227.648L271.121 223.33L272.076 222.398L276.235 227.648H274.531ZM283.052 230.921C282.825 230.921 282.622 230.902 282.444 230.864C282.266 230.83 282.143 230.796 282.075 230.762L282.415 229.58C282.741 229.663 283.029 229.693 283.279 229.671C283.529 229.648 283.751 229.536 283.944 229.335C284.141 229.138 284.321 228.818 284.484 228.375L284.734 227.693L281.506 218.921H282.961L285.37 225.875H285.461L287.87 218.921H289.325L285.62 228.921C285.453 229.371 285.247 229.745 285.001 230.04C284.754 230.339 284.469 230.561 284.143 230.705C283.821 230.849 283.457 230.921 283.052 230.921ZM294.327 227.83C293.54 227.83 292.848 227.642 292.254 227.267C291.663 226.892 291.201 226.368 290.867 225.693C290.538 225.019 290.373 224.231 290.373 223.33C290.373 222.421 290.538 221.627 290.867 220.949C291.201 220.271 291.663 219.745 292.254 219.37C292.848 218.995 293.54 218.807 294.327 218.807C295.115 218.807 295.805 218.995 296.396 219.37C296.99 219.745 297.452 220.271 297.782 220.949C298.115 221.627 298.282 222.421 298.282 223.33C298.282 224.231 298.115 225.019 297.782 225.693C297.452 226.368 296.99 226.892 296.396 227.267C295.805 227.642 295.115 227.83 294.327 227.83ZM294.327 226.625C294.926 226.625 295.418 226.472 295.805 226.165C296.191 225.858 296.477 225.455 296.663 224.955C296.848 224.455 296.941 223.913 296.941 223.33C296.941 222.746 296.848 222.203 296.663 221.699C296.477 221.195 296.191 220.788 295.805 220.477C295.418 220.167 294.926 220.012 294.327 220.012C293.729 220.012 293.237 220.167 292.85 220.477C292.464 220.788 292.178 221.195 291.992 221.699C291.807 222.203 291.714 222.746 291.714 223.33C291.714 223.913 291.807 224.455 291.992 224.955C292.178 225.455 292.464 225.858 292.85 226.165C293.237 226.472 293.729 226.625 294.327 226.625ZM305.829 224.08V218.921H307.17V227.648H305.829V226.171H305.738C305.533 226.614 305.215 226.991 304.783 227.301C304.352 227.608 303.806 227.762 303.147 227.762C302.602 227.762 302.117 227.642 301.692 227.404C301.268 227.161 300.935 226.798 300.692 226.313C300.45 225.824 300.329 225.209 300.329 224.466V218.921H301.67V224.375C301.67 225.012 301.848 225.519 302.204 225.898C302.564 226.277 303.022 226.466 303.579 226.466C303.912 226.466 304.251 226.381 304.596 226.21C304.944 226.04 305.236 225.779 305.471 225.426C305.71 225.074 305.829 224.625 305.829 224.08ZM309.626 227.648V218.921H310.921V220.239H311.012C311.171 219.807 311.459 219.457 311.876 219.188C312.292 218.919 312.762 218.784 313.285 218.784C313.383 218.784 313.506 218.786 313.654 218.79C313.802 218.794 313.914 218.799 313.989 218.807V220.171C313.944 220.159 313.84 220.142 313.677 220.12C313.518 220.093 313.349 220.08 313.171 220.08C312.747 220.08 312.368 220.169 312.035 220.347C311.705 220.521 311.444 220.763 311.251 221.074C311.061 221.381 310.967 221.731 310.967 222.125V227.648H309.626ZM320.079 227.648V218.921H321.42V227.648H320.079ZM320.761 217.466C320.499 217.466 320.274 217.377 320.085 217.199C319.899 217.021 319.806 216.807 319.806 216.557C319.806 216.307 319.899 216.093 320.085 215.915C320.274 215.737 320.499 215.648 320.761 215.648C321.022 215.648 321.246 215.737 321.431 215.915C321.621 216.093 321.715 216.307 321.715 216.557C321.715 216.807 321.621 217.021 321.431 217.199C321.246 217.377 321.022 217.466 320.761 217.466ZM327.171 227.83C326.444 227.83 325.802 227.646 325.245 227.279C324.688 226.907 324.253 226.385 323.938 225.71C323.624 225.032 323.467 224.231 323.467 223.307C323.467 222.39 323.624 221.595 323.938 220.921C324.253 220.246 324.69 219.726 325.251 219.358C325.811 218.991 326.459 218.807 327.194 218.807C327.762 218.807 328.211 218.902 328.54 219.091C328.874 219.277 329.128 219.489 329.302 219.727C329.48 219.962 329.618 220.156 329.717 220.307H329.83V216.012H331.171V227.648H329.876V226.307H329.717C329.618 226.466 329.478 226.667 329.296 226.909C329.114 227.148 328.855 227.362 328.518 227.551C328.181 227.737 327.732 227.83 327.171 227.83ZM327.353 226.625C327.891 226.625 328.345 226.485 328.717 226.205C329.088 225.921 329.37 225.529 329.563 225.029C329.756 224.525 329.853 223.943 329.853 223.284C329.853 222.633 329.758 222.063 329.569 221.574C329.379 221.082 329.099 220.699 328.728 220.426C328.357 220.15 327.898 220.012 327.353 220.012C326.785 220.012 326.311 220.157 325.933 220.449C325.558 220.737 325.275 221.129 325.086 221.625C324.9 222.118 324.808 222.671 324.808 223.284C324.808 223.906 324.902 224.47 325.092 224.977C325.285 225.481 325.569 225.883 325.944 226.182C326.323 226.477 326.792 226.625 327.353 226.625ZM337.472 227.83C336.631 227.83 335.906 227.644 335.296 227.273C334.69 226.898 334.222 226.375 333.893 225.705C333.567 225.031 333.404 224.246 333.404 223.352C333.404 222.459 333.567 221.671 333.893 220.989C334.222 220.303 334.681 219.769 335.268 219.387C335.859 219 336.548 218.807 337.336 218.807C337.79 218.807 338.239 218.883 338.683 219.034C339.126 219.186 339.529 219.432 339.893 219.773C340.256 220.11 340.546 220.557 340.762 221.114C340.978 221.671 341.086 222.356 341.086 223.171V223.739H334.359V222.58H339.722C339.722 222.087 339.624 221.648 339.427 221.262C339.234 220.875 338.957 220.57 338.597 220.347C338.241 220.123 337.821 220.012 337.336 220.012C336.802 220.012 336.34 220.144 335.95 220.409C335.563 220.671 335.266 221.012 335.058 221.432C334.849 221.852 334.745 222.303 334.745 222.784V223.557C334.745 224.216 334.859 224.775 335.086 225.233C335.317 225.688 335.637 226.034 336.046 226.273C336.455 226.508 336.931 226.625 337.472 226.625C337.825 226.625 338.143 226.576 338.427 226.477C338.715 226.375 338.963 226.224 339.171 226.023C339.379 225.818 339.54 225.565 339.654 225.262L340.95 225.625C340.813 226.065 340.584 226.451 340.262 226.784C339.94 227.114 339.542 227.371 339.069 227.557C338.595 227.739 338.063 227.83 337.472 227.83ZM344.467 222.398V227.648H343.126V218.921H344.421V220.284H344.535C344.739 219.841 345.05 219.485 345.467 219.216C345.883 218.943 346.421 218.807 347.08 218.807C347.671 218.807 348.188 218.928 348.631 219.171C349.075 219.409 349.419 219.773 349.665 220.262C349.912 220.746 350.035 221.36 350.035 222.102V227.648H348.694V222.193C348.694 221.508 348.516 220.974 348.16 220.591C347.804 220.205 347.315 220.012 346.694 220.012C346.266 220.012 345.883 220.104 345.546 220.29C345.213 220.476 344.95 220.746 344.756 221.102C344.563 221.459 344.467 221.89 344.467 222.398ZM356.281 218.921V220.057H351.758V218.921H356.281ZM353.076 216.83H354.417V225.148C354.417 225.527 354.472 225.811 354.582 226C354.695 226.186 354.839 226.311 355.013 226.375C355.192 226.436 355.379 226.466 355.576 226.466C355.724 226.466 355.845 226.459 355.94 226.443C356.034 226.424 356.11 226.409 356.167 226.398L356.44 227.602C356.349 227.637 356.222 227.671 356.059 227.705C355.896 227.743 355.69 227.762 355.44 227.762C355.061 227.762 354.69 227.68 354.326 227.517C353.966 227.354 353.667 227.106 353.428 226.773C353.193 226.44 353.076 226.019 353.076 225.512V216.83ZM358.298 227.648V218.921H359.638V227.648H358.298ZM358.979 217.466C358.718 217.466 358.493 217.377 358.303 217.199C358.118 217.021 358.025 216.807 358.025 216.557C358.025 216.307 358.118 216.093 358.303 215.915C358.493 215.737 358.718 215.648 358.979 215.648C359.241 215.648 359.464 215.737 359.65 215.915C359.839 216.093 359.934 216.307 359.934 216.557C359.934 216.807 359.839 217.021 359.65 217.199C359.464 217.377 359.241 217.466 358.979 217.466ZM365.89 218.921V220.057H361.367V218.921H365.89ZM362.685 216.83H364.026V225.148C364.026 225.527 364.081 225.811 364.191 226C364.305 226.186 364.449 226.311 364.623 226.375C364.801 226.436 364.988 226.466 365.185 226.466C365.333 226.466 365.454 226.459 365.549 226.443C365.644 226.424 365.719 226.409 365.776 226.398L366.049 227.602C365.958 227.637 365.831 227.671 365.668 227.705C365.505 227.743 365.299 227.762 365.049 227.762C364.67 227.762 364.299 227.68 363.935 227.517C363.576 227.354 363.276 227.106 363.038 226.773C362.803 226.44 362.685 226.019 362.685 225.512V216.83ZM368.771 230.921C368.543 230.921 368.341 230.902 368.163 230.864C367.985 230.83 367.862 230.796 367.793 230.762L368.134 229.58C368.46 229.663 368.748 229.693 368.998 229.671C369.248 229.648 369.469 229.536 369.663 229.335C369.86 229.138 370.04 228.818 370.202 228.375L370.452 227.693L367.225 218.921H368.68L371.089 225.875H371.18L373.589 218.921H375.043L371.339 228.921C371.172 229.371 370.966 229.745 370.719 230.04C370.473 230.339 370.187 230.561 369.862 230.705C369.54 230.849 369.176 230.921 368.771 230.921ZM116.643 246.648V235.012H117.984V239.307H118.098C118.196 239.156 118.333 238.962 118.507 238.727C118.685 238.489 118.939 238.277 119.268 238.091C119.602 237.902 120.053 237.807 120.621 237.807C121.356 237.807 122.003 237.991 122.564 238.358C123.125 238.726 123.562 239.246 123.876 239.921C124.191 240.595 124.348 241.39 124.348 242.307C124.348 243.231 124.191 244.032 123.876 244.71C123.562 245.385 123.126 245.907 122.57 246.279C122.013 246.646 121.371 246.83 120.643 246.83C120.083 246.83 119.634 246.737 119.297 246.551C118.96 246.362 118.7 246.148 118.518 245.909C118.337 245.667 118.196 245.466 118.098 245.307H117.939V246.648H116.643ZM117.962 242.284C117.962 242.943 118.058 243.525 118.251 244.029C118.445 244.529 118.727 244.921 119.098 245.205C119.469 245.485 119.924 245.625 120.462 245.625C121.022 245.625 121.49 245.477 121.865 245.182C122.244 244.883 122.528 244.481 122.717 243.977C122.911 243.47 123.007 242.906 123.007 242.284C123.007 241.671 122.912 241.118 122.723 240.625C122.537 240.129 122.255 239.737 121.876 239.449C121.501 239.157 121.03 239.012 120.462 239.012C119.916 239.012 119.458 239.15 119.087 239.426C118.715 239.699 118.435 240.082 118.246 240.574C118.056 241.063 117.962 241.633 117.962 242.284ZM126.95 249.921C126.723 249.921 126.52 249.902 126.342 249.864C126.164 249.83 126.041 249.796 125.973 249.762L126.314 248.58C126.64 248.663 126.928 248.693 127.178 248.671C127.428 248.648 127.649 248.536 127.842 248.335C128.039 248.138 128.219 247.818 128.382 247.375L128.632 246.693L125.405 237.921H126.859L129.268 244.875H129.359L131.768 237.921H133.223L129.518 247.921C129.352 248.371 129.145 248.745 128.899 249.04C128.653 249.339 128.367 249.561 128.041 249.705C127.719 249.849 127.356 249.921 126.95 249.921ZM146.629 237.921L143.402 246.648H142.038L138.811 237.921H140.266L142.675 244.875H142.766L145.175 237.921H146.629ZM151.746 246.83C150.905 246.83 150.179 246.644 149.57 246.273C148.964 245.898 148.496 245.375 148.166 244.705C147.84 244.031 147.678 243.246 147.678 242.352C147.678 241.459 147.84 240.671 148.166 239.989C148.496 239.303 148.954 238.769 149.541 238.387C150.132 238 150.821 237.807 151.609 237.807C152.064 237.807 152.513 237.883 152.956 238.034C153.399 238.186 153.803 238.432 154.166 238.773C154.53 239.11 154.82 239.557 155.036 240.114C155.251 240.671 155.359 241.356 155.359 242.171V242.739H148.632V241.58H153.996C153.996 241.087 153.897 240.648 153.7 240.262C153.507 239.875 153.231 239.57 152.871 239.347C152.515 239.123 152.094 239.012 151.609 239.012C151.075 239.012 150.613 239.144 150.223 239.409C149.837 239.671 149.539 240.012 149.331 240.432C149.123 240.852 149.018 241.303 149.018 241.784V242.557C149.018 243.216 149.132 243.775 149.359 244.233C149.59 244.688 149.911 245.034 150.32 245.273C150.729 245.508 151.204 245.625 151.746 245.625C152.098 245.625 152.416 245.576 152.7 245.477C152.988 245.375 153.236 245.224 153.445 245.023C153.653 244.818 153.814 244.565 153.928 244.262L155.223 244.625C155.087 245.065 154.857 245.451 154.536 245.784C154.214 246.114 153.816 246.371 153.342 246.557C152.869 246.739 152.337 246.83 151.746 246.83ZM157.399 246.648V237.921H158.695V239.239H158.786C158.945 238.807 159.232 238.457 159.649 238.188C160.066 237.919 160.536 237.784 161.058 237.784C161.157 237.784 161.28 237.786 161.428 237.79C161.575 237.794 161.687 237.799 161.763 237.807V239.171C161.717 239.159 161.613 239.142 161.45 239.12C161.291 239.093 161.123 239.08 160.945 239.08C160.52 239.08 160.142 239.169 159.808 239.347C159.479 239.521 159.217 239.763 159.024 240.074C158.835 240.381 158.74 240.731 158.74 241.125V246.648H157.399ZM163.352 246.648V237.921H164.693V246.648H163.352ZM164.034 236.466C163.773 236.466 163.547 236.377 163.358 236.199C163.172 236.021 163.08 235.807 163.08 235.557C163.08 235.307 163.172 235.093 163.358 234.915C163.547 234.737 163.773 234.648 164.034 234.648C164.295 234.648 164.519 234.737 164.705 234.915C164.894 235.093 164.989 235.307 164.989 235.557C164.989 235.807 164.894 236.021 164.705 236.199C164.519 236.377 164.295 236.466 164.034 236.466ZM171.036 237.921V239.057H166.331V237.921H171.036ZM167.74 246.648V236.716C167.74 236.216 167.857 235.799 168.092 235.466C168.327 235.133 168.632 234.883 169.007 234.716C169.382 234.549 169.778 234.466 170.195 234.466C170.524 234.466 170.793 234.493 171.001 234.546C171.21 234.599 171.365 234.648 171.467 234.693L171.081 235.852C171.013 235.83 170.918 235.801 170.797 235.767C170.679 235.733 170.524 235.716 170.331 235.716C169.888 235.716 169.568 235.828 169.371 236.051C169.178 236.275 169.081 236.602 169.081 237.034V246.648H167.74ZM173.778 249.921C173.551 249.921 173.348 249.902 173.17 249.864C172.992 249.83 172.869 249.796 172.801 249.762L173.142 248.58C173.468 248.663 173.756 248.693 174.006 248.671C174.256 248.648 174.477 248.536 174.67 248.335C174.867 248.138 175.047 247.818 175.21 247.375L175.46 246.693L172.233 237.921H173.688L176.097 244.875H176.188L178.597 237.921H180.051L176.347 247.921C176.18 248.371 175.973 248.745 175.727 249.04C175.481 249.339 175.195 249.561 174.869 249.705C174.547 249.849 174.184 249.921 173.778 249.921ZM181.821 246.648V237.921H183.162V246.648H181.821ZM182.503 236.466C182.241 236.466 182.016 236.377 181.827 236.199C181.641 236.021 181.548 235.807 181.548 235.557C181.548 235.307 181.641 235.093 181.827 234.915C182.016 234.737 182.241 234.648 182.503 234.648C182.764 234.648 182.988 234.737 183.173 234.915C183.363 235.093 183.457 235.307 183.457 235.557C183.457 235.807 183.363 236.021 183.173 236.199C182.988 236.377 182.764 236.466 182.503 236.466ZM186.959 241.398V246.648H185.618V237.921H186.913V239.284H187.027C187.232 238.841 187.542 238.485 187.959 238.216C188.375 237.943 188.913 237.807 189.572 237.807C190.163 237.807 190.68 237.928 191.124 238.171C191.567 238.409 191.911 238.773 192.158 239.262C192.404 239.746 192.527 240.36 192.527 241.102V246.648H191.186V241.193C191.186 240.508 191.008 239.974 190.652 239.591C190.296 239.205 189.807 239.012 189.186 239.012C188.758 239.012 188.375 239.104 188.038 239.29C187.705 239.476 187.442 239.746 187.249 240.102C187.055 240.459 186.959 240.89 186.959 241.398ZM198.5 250.102C197.852 250.102 197.295 250.019 196.83 249.852C196.364 249.69 195.975 249.474 195.665 249.205C195.358 248.94 195.114 248.656 194.932 248.352L196 247.602C196.121 247.762 196.275 247.943 196.46 248.148C196.646 248.356 196.9 248.536 197.222 248.688C197.547 248.843 197.973 248.921 198.5 248.921C199.205 248.921 199.786 248.75 200.244 248.409C200.703 248.068 200.932 247.534 200.932 246.807V245.034H200.818C200.72 245.193 200.58 245.39 200.398 245.625C200.22 245.856 199.962 246.063 199.625 246.245C199.292 246.423 198.841 246.512 198.273 246.512C197.568 246.512 196.936 246.345 196.375 246.012C195.818 245.678 195.377 245.193 195.051 244.557C194.729 243.921 194.568 243.148 194.568 242.239C194.568 241.345 194.725 240.567 195.04 239.904C195.354 239.237 195.792 238.722 196.352 238.358C196.913 237.991 197.561 237.807 198.295 237.807C198.864 237.807 199.314 237.902 199.648 238.091C199.985 238.277 200.242 238.489 200.42 238.727C200.602 238.962 200.742 239.156 200.841 239.307H200.977V237.921H202.273V246.898C202.273 247.648 202.102 248.258 201.761 248.727C201.424 249.201 200.97 249.548 200.398 249.767C199.83 249.991 199.197 250.102 198.5 250.102ZM198.455 245.307C198.992 245.307 199.447 245.184 199.818 244.938C200.189 244.692 200.472 244.337 200.665 243.875C200.858 243.413 200.955 242.86 200.955 242.216C200.955 241.587 200.86 241.032 200.67 240.551C200.481 240.07 200.201 239.693 199.83 239.421C199.458 239.148 199 239.012 198.455 239.012C197.886 239.012 197.413 239.156 197.034 239.443C196.659 239.731 196.377 240.118 196.188 240.602C196.002 241.087 195.909 241.625 195.909 242.216C195.909 242.822 196.004 243.358 196.193 243.824C196.386 244.286 196.67 244.65 197.045 244.915C197.424 245.176 197.894 245.307 198.455 245.307ZM210.091 249.921C209.864 249.921 209.661 249.902 209.483 249.864C209.305 249.83 209.182 249.796 209.114 249.762L209.455 248.58C209.78 248.663 210.068 248.693 210.318 248.671C210.568 248.648 210.79 248.536 210.983 248.335C211.18 248.138 211.36 247.818 211.523 247.375L211.773 246.693L208.545 237.921H210L212.409 244.875H212.5L214.909 237.921H216.364L212.659 247.921C212.492 248.371 212.286 248.745 212.04 249.04C211.794 249.339 211.508 249.561 211.182 249.705C210.86 249.849 210.496 249.921 210.091 249.921ZM221.366 246.83C220.579 246.83 219.887 246.642 219.293 246.267C218.702 245.892 218.24 245.368 217.906 244.693C217.577 244.019 217.412 243.231 217.412 242.33C217.412 241.421 217.577 240.627 217.906 239.949C218.24 239.271 218.702 238.745 219.293 238.37C219.887 237.995 220.579 237.807 221.366 237.807C222.154 237.807 222.844 237.995 223.435 238.37C224.029 238.745 224.491 239.271 224.821 239.949C225.154 240.627 225.321 241.421 225.321 242.33C225.321 243.231 225.154 244.019 224.821 244.693C224.491 245.368 224.029 245.892 223.435 246.267C222.844 246.642 222.154 246.83 221.366 246.83ZM221.366 245.625C221.965 245.625 222.457 245.472 222.844 245.165C223.23 244.858 223.516 244.455 223.702 243.955C223.887 243.455 223.98 242.913 223.98 242.33C223.98 241.746 223.887 241.203 223.702 240.699C223.516 240.195 223.23 239.788 222.844 239.477C222.457 239.167 221.965 239.012 221.366 239.012C220.768 239.012 220.276 239.167 219.889 239.477C219.503 239.788 219.217 240.195 219.031 240.699C218.846 241.203 218.753 241.746 218.753 242.33C218.753 242.913 218.846 243.455 219.031 243.955C219.217 244.455 219.503 244.858 219.889 245.165C220.276 245.472 220.768 245.625 221.366 245.625ZM232.868 243.08V237.921H234.209V246.648H232.868V245.171H232.777C232.572 245.614 232.254 245.991 231.822 246.301C231.391 246.608 230.845 246.762 230.186 246.762C229.641 246.762 229.156 246.642 228.732 246.404C228.307 246.161 227.974 245.798 227.732 245.313C227.489 244.824 227.368 244.209 227.368 243.466V237.921H228.709V243.375C228.709 244.012 228.887 244.519 229.243 244.898C229.603 245.277 230.061 245.466 230.618 245.466C230.951 245.466 231.29 245.381 231.635 245.21C231.983 245.04 232.275 244.779 232.51 244.426C232.749 244.074 232.868 243.625 232.868 243.08ZM236.665 246.648V237.921H237.96V239.239H238.051C238.21 238.807 238.498 238.457 238.915 238.188C239.331 237.919 239.801 237.784 240.324 237.784C240.422 237.784 240.545 237.786 240.693 237.79C240.841 237.794 240.953 237.799 241.028 237.807V239.171C240.983 239.159 240.879 239.142 240.716 239.12C240.557 239.093 240.388 239.08 240.21 239.08C239.786 239.08 239.407 239.169 239.074 239.347C238.744 239.521 238.483 239.763 238.29 240.074C238.1 240.381 238.006 240.731 238.006 241.125V246.648H236.665ZM247.118 249.921V237.921H248.413V239.307H248.572C248.671 239.156 248.807 238.962 248.982 238.727C249.16 238.489 249.413 238.277 249.743 238.091C250.076 237.902 250.527 237.807 251.095 237.807C251.83 237.807 252.478 237.991 253.038 238.358C253.599 238.726 254.036 239.246 254.351 239.921C254.665 240.595 254.822 241.39 254.822 242.307C254.822 243.231 254.665 244.032 254.351 244.71C254.036 245.385 253.601 245.907 253.044 246.279C252.487 246.646 251.845 246.83 251.118 246.83C250.557 246.83 250.108 246.737 249.771 246.551C249.434 246.362 249.175 246.148 248.993 245.909C248.811 245.667 248.671 245.466 248.572 245.307H248.459V249.921H247.118ZM248.436 242.284C248.436 242.943 248.533 243.525 248.726 244.029C248.919 244.529 249.201 244.921 249.572 245.205C249.944 245.485 250.398 245.625 250.936 245.625C251.497 245.625 251.964 245.477 252.339 245.182C252.718 244.883 253.002 244.481 253.192 243.977C253.385 243.47 253.482 242.906 253.482 242.284C253.482 241.671 253.387 241.118 253.197 240.625C253.012 240.129 252.73 239.737 252.351 239.449C251.976 239.157 251.504 239.012 250.936 239.012C250.391 239.012 249.932 239.15 249.561 239.426C249.19 239.699 248.91 240.082 248.72 240.574C248.531 241.063 248.436 241.633 248.436 242.284ZM259.436 246.852C258.883 246.852 258.381 246.748 257.93 246.54C257.48 246.328 257.122 246.023 256.857 245.625C256.591 245.224 256.459 244.739 256.459 244.171C256.459 243.671 256.557 243.265 256.754 242.955C256.951 242.64 257.214 242.394 257.544 242.216C257.874 242.038 258.237 241.906 258.635 241.818C259.036 241.727 259.44 241.656 259.845 241.602C260.375 241.534 260.805 241.483 261.135 241.449C261.468 241.411 261.711 241.349 261.862 241.262C262.018 241.174 262.095 241.023 262.095 240.807V240.762C262.095 240.201 261.942 239.765 261.635 239.455C261.332 239.144 260.872 238.989 260.254 238.989C259.614 238.989 259.112 239.129 258.749 239.409C258.385 239.69 258.129 239.989 257.982 240.307L256.709 239.852C256.936 239.322 257.239 238.909 257.618 238.614C258 238.315 258.417 238.106 258.868 237.989C259.322 237.868 259.769 237.807 260.209 237.807C260.489 237.807 260.811 237.841 261.175 237.909C261.542 237.974 261.896 238.108 262.237 238.313C262.582 238.517 262.868 238.826 263.095 239.239C263.322 239.652 263.436 240.205 263.436 240.898V246.648H262.095V245.466H262.027C261.936 245.656 261.785 245.858 261.572 246.074C261.36 246.29 261.078 246.474 260.726 246.625C260.374 246.777 259.944 246.852 259.436 246.852ZM259.641 245.648C260.171 245.648 260.618 245.544 260.982 245.335C261.349 245.127 261.625 244.858 261.811 244.529C262 244.199 262.095 243.852 262.095 243.489V242.262C262.038 242.33 261.913 242.392 261.72 242.449C261.531 242.502 261.311 242.549 261.061 242.591C260.815 242.629 260.574 242.663 260.339 242.693C260.108 242.72 259.921 242.743 259.777 242.762C259.429 242.807 259.103 242.881 258.8 242.983C258.5 243.082 258.258 243.231 258.072 243.432C257.891 243.629 257.8 243.898 257.8 244.239C257.8 244.705 257.972 245.057 258.317 245.296C258.665 245.531 259.107 245.648 259.641 245.648ZM267.224 235.012V246.648H265.884V235.012H267.224ZM269.68 246.648V237.921H270.976V239.284H271.089C271.271 238.818 271.565 238.457 271.97 238.199C272.375 237.938 272.862 237.807 273.43 237.807C274.006 237.807 274.485 237.938 274.868 238.199C275.254 238.457 275.555 238.818 275.771 239.284H275.862C276.086 238.834 276.421 238.476 276.868 238.21C277.315 237.942 277.851 237.807 278.476 237.807C279.256 237.807 279.894 238.051 280.391 238.54C280.887 239.025 281.135 239.781 281.135 240.807V246.648H279.794V240.807C279.794 240.163 279.618 239.703 279.266 239.426C278.913 239.15 278.499 239.012 278.021 239.012C277.408 239.012 276.932 239.197 276.595 239.568C276.258 239.936 276.089 240.402 276.089 240.966V246.648H274.726V240.671C274.726 240.174 274.565 239.775 274.243 239.472C273.921 239.165 273.506 239.012 272.999 239.012C272.65 239.012 272.324 239.104 272.021 239.29C271.722 239.476 271.48 239.733 271.294 240.063C271.112 240.388 271.021 240.765 271.021 241.193V246.648H269.68ZM284.564 246.739C284.284 246.739 284.043 246.638 283.842 246.438C283.642 246.237 283.541 245.996 283.541 245.716C283.541 245.436 283.642 245.195 283.842 244.995C284.043 244.794 284.284 244.693 284.564 244.693C284.844 244.693 285.085 244.794 285.286 244.995C285.486 245.195 285.587 245.436 285.587 245.716C285.587 245.902 285.539 246.072 285.445 246.227C285.354 246.383 285.231 246.508 285.075 246.602C284.924 246.693 284.753 246.739 284.564 246.739Z" fill="black"/>
<rect x="32.5" y="550" width="337" height="51" rx="8" fill="#606060"/>
<path d="M113.452 573H112.043C111.96 572.595 111.814 572.239 111.606 571.932C111.401 571.625 111.151 571.367 110.856 571.159C110.564 570.947 110.24 570.788 109.884 570.682C109.528 570.576 109.157 570.523 108.771 570.523C108.066 570.523 107.428 570.701 106.856 571.057C106.288 571.413 105.835 571.938 105.498 572.631C105.165 573.324 104.998 574.174 104.998 575.182C104.998 576.189 105.165 577.04 105.498 577.733C105.835 578.426 106.288 578.951 106.856 579.307C107.428 579.663 108.066 579.841 108.771 579.841C109.157 579.841 109.528 579.788 109.884 579.682C110.24 579.576 110.564 579.419 110.856 579.21C111.151 578.998 111.401 578.739 111.606 578.432C111.814 578.121 111.96 577.765 112.043 577.364H113.452C113.346 577.958 113.153 578.491 112.873 578.96C112.593 579.43 112.244 579.83 111.827 580.159C111.411 580.485 110.943 580.733 110.424 580.903C109.909 581.074 109.358 581.159 108.771 581.159C107.778 581.159 106.896 580.917 106.123 580.432C105.35 579.947 104.742 579.258 104.299 578.364C103.856 577.47 103.634 576.409 103.634 575.182C103.634 573.955 103.856 572.894 104.299 572C104.742 571.106 105.35 570.417 106.123 569.932C106.896 569.447 107.778 569.205 108.771 569.205C109.358 569.205 109.909 569.29 110.424 569.46C110.943 569.631 111.411 569.881 111.827 570.21C112.244 570.536 112.593 570.934 112.873 571.403C113.153 571.869 113.346 572.402 113.452 573ZM125.548 575.182C125.548 576.409 125.326 577.47 124.883 578.364C124.44 579.258 123.832 579.947 123.059 580.432C122.286 580.917 121.404 581.159 120.411 581.159C119.419 581.159 118.536 580.917 117.763 580.432C116.991 579.947 116.383 579.258 115.94 578.364C115.496 577.47 115.275 576.409 115.275 575.182C115.275 573.955 115.496 572.894 115.94 572C116.383 571.106 116.991 570.417 117.763 569.932C118.536 569.447 119.419 569.205 120.411 569.205C121.404 569.205 122.286 569.447 123.059 569.932C123.832 570.417 124.44 571.106 124.883 572C125.326 572.894 125.548 573.955 125.548 575.182ZM124.184 575.182C124.184 574.174 124.015 573.324 123.678 572.631C123.345 571.938 122.892 571.413 122.32 571.057C121.752 570.701 121.116 570.523 120.411 570.523C119.707 570.523 119.068 570.701 118.496 571.057C117.928 571.413 117.476 571.938 117.138 572.631C116.805 573.324 116.638 574.174 116.638 575.182C116.638 576.189 116.805 577.04 117.138 577.733C117.476 578.426 117.928 578.951 118.496 579.307C119.068 579.663 119.707 579.841 120.411 579.841C121.116 579.841 121.752 579.663 122.32 579.307C122.892 578.951 123.345 578.426 123.678 577.733C124.015 577.04 124.184 576.189 124.184 575.182ZM137.144 569.364V581H135.781L129.44 571.864H129.326V581H127.917V569.364H129.281L135.644 578.523H135.758V569.364H137.144ZM139.327 570.614V569.364H148.055V570.614H144.396V581H142.987V570.614H139.327ZM151.638 569.364V581H150.229V569.364H151.638ZM163.691 569.364V581H162.327L155.987 571.864H155.873V581H154.464V569.364H155.827L162.191 578.523H162.305V569.364H163.691ZM174.147 569.364H175.556V577.068C175.556 577.864 175.369 578.574 174.994 579.199C174.622 579.82 174.098 580.311 173.42 580.67C172.742 581.027 171.946 581.205 171.033 581.205C170.121 581.205 169.325 581.027 168.647 580.67C167.969 580.311 167.442 579.82 167.067 579.199C166.696 578.574 166.511 577.864 166.511 577.068V569.364H167.92V576.955C167.92 577.523 168.045 578.028 168.295 578.472C168.545 578.911 168.901 579.258 169.363 579.511C169.829 579.761 170.386 579.886 171.033 579.886C171.681 579.886 172.238 579.761 172.704 579.511C173.17 579.258 173.526 578.911 173.772 578.472C174.022 578.028 174.147 577.523 174.147 576.955V569.364ZM178.37 581V569.364H185.393V570.614H179.779V574.545H185.029V575.795H179.779V579.75H185.484V581H178.37ZM192.91 569.364L196.364 579.159H196.501L199.955 569.364H201.433L197.16 581H195.705L191.433 569.364H192.91ZM203.245 581V569.364H210.268V570.614H204.654V574.545H209.904V575.795H204.654V579.75H210.359V581H203.245ZM212.808 581V569.364H216.739C217.648 569.364 218.395 569.519 218.978 569.83C219.561 570.136 219.993 570.559 220.273 571.097C220.554 571.634 220.694 572.246 220.694 572.932C220.694 573.617 220.554 574.225 220.273 574.756C219.993 575.286 219.563 575.703 218.984 576.006C218.404 576.305 217.664 576.455 216.762 576.455H213.58V575.182H216.717C217.338 575.182 217.838 575.091 218.217 574.909C218.599 574.727 218.876 574.47 219.046 574.136C219.22 573.799 219.308 573.398 219.308 572.932C219.308 572.466 219.22 572.059 219.046 571.71C218.872 571.362 218.594 571.093 218.211 570.903C217.828 570.71 217.323 570.614 216.694 570.614H214.217V581H212.808ZM218.285 575.773L221.148 581H219.512L216.694 575.773H218.285ZM224.451 569.364V581H223.042V569.364H224.451ZM227.276 581V569.364H234.254V570.614H228.685V574.545H233.731V575.795H228.685V581H227.276ZM238.076 569.364V581H236.667V569.364H238.076ZM250.265 573H248.856C248.772 572.595 248.627 572.239 248.418 571.932C248.214 571.625 247.964 571.367 247.668 571.159C247.377 570.947 247.053 570.788 246.697 570.682C246.341 570.576 245.969 570.523 245.583 570.523C244.879 570.523 244.24 570.701 243.668 571.057C243.1 571.413 242.647 571.938 242.31 572.631C241.977 573.324 241.81 574.174 241.81 575.182C241.81 576.189 241.977 577.04 242.31 577.733C242.647 578.426 243.1 578.951 243.668 579.307C244.24 579.663 244.879 579.841 245.583 579.841C245.969 579.841 246.341 579.788 246.697 579.682C247.053 579.576 247.377 579.419 247.668 579.21C247.964 578.998 248.214 578.739 248.418 578.432C248.627 578.121 248.772 577.765 248.856 577.364H250.265C250.159 577.958 249.966 578.491 249.685 578.96C249.405 579.43 249.057 579.83 248.64 580.159C248.223 580.485 247.755 580.733 247.237 580.903C246.721 581.074 246.17 581.159 245.583 581.159C244.591 581.159 243.708 580.917 242.935 580.432C242.163 579.947 241.555 579.258 241.112 578.364C240.668 577.47 240.447 576.409 240.447 575.182C240.447 573.955 240.668 572.894 241.112 572C241.555 571.106 242.163 570.417 242.935 569.932C243.708 569.447 244.591 569.205 245.583 569.205C246.17 569.205 246.721 569.29 247.237 569.46C247.755 569.631 248.223 569.881 248.64 570.21C249.057 570.536 249.405 570.934 249.685 571.403C249.966 571.869 250.159 572.402 250.265 573ZM253.019 581H251.542L255.815 569.364H257.269L261.542 581H260.065L256.587 571.205H256.496L253.019 581ZM253.565 576.455H259.519V577.705H253.565V576.455ZM261.359 570.614V569.364H270.086V570.614H266.427V581H265.018V570.614H261.359ZM273.67 569.364V581H272.261V569.364H273.67ZM286.313 575.182C286.313 576.409 286.092 577.47 285.648 578.364C285.205 579.258 284.597 579.947 283.825 580.432C283.052 580.917 282.169 581.159 281.177 581.159C280.184 581.159 279.302 580.917 278.529 580.432C277.756 579.947 277.148 579.258 276.705 578.364C276.262 577.47 276.04 576.409 276.04 575.182C276.04 573.955 276.262 572.894 276.705 572C277.148 571.106 277.756 570.417 278.529 569.932C279.302 569.447 280.184 569.205 281.177 569.205C282.169 569.205 283.052 569.447 283.825 569.932C284.597 570.417 285.205 571.106 285.648 572C286.092 572.894 286.313 573.955 286.313 575.182ZM284.95 575.182C284.95 574.174 284.781 573.324 284.444 572.631C284.111 571.938 283.658 571.413 283.086 571.057C282.518 570.701 281.881 570.523 281.177 570.523C280.472 570.523 279.834 570.701 279.262 571.057C278.694 571.413 278.241 571.938 277.904 572.631C277.571 573.324 277.404 574.174 277.404 575.182C277.404 576.189 277.571 577.04 277.904 577.733C278.241 578.426 278.694 578.951 279.262 579.307C279.834 579.663 280.472 579.841 281.177 579.841C281.881 579.841 282.518 579.663 283.086 579.307C283.658 578.951 284.111 578.426 284.444 577.733C284.781 577.04 284.95 576.189 284.95 575.182ZM297.91 569.364V581H296.546L290.205 571.864H290.092V581H288.683V569.364H290.046L296.41 578.523H296.523V569.364H297.91Z" fill="white"/>
<path d="M151.14 655.273C151.072 654.697 150.795 654.25 150.31 653.932C149.826 653.614 149.231 653.455 148.526 653.455C148.011 653.455 147.56 653.538 147.174 653.705C146.791 653.871 146.492 654.1 146.276 654.392C146.064 654.684 145.958 655.015 145.958 655.386C145.958 655.697 146.032 655.964 146.18 656.188C146.331 656.407 146.524 656.591 146.759 656.739C146.994 656.883 147.24 657.002 147.498 657.097C147.755 657.187 147.992 657.261 148.208 657.318L149.39 657.636C149.693 657.716 150.03 657.826 150.401 657.966C150.776 658.106 151.134 658.297 151.475 658.54C151.82 658.778 152.104 659.085 152.327 659.46C152.551 659.835 152.663 660.295 152.663 660.841C152.663 661.47 152.498 662.038 152.168 662.545C151.843 663.053 151.365 663.456 150.737 663.756C150.112 664.055 149.352 664.205 148.458 664.205C147.625 664.205 146.903 664.07 146.293 663.801C145.687 663.532 145.21 663.157 144.862 662.676C144.517 662.195 144.322 661.636 144.276 661H145.731C145.769 661.439 145.916 661.803 146.174 662.091C146.435 662.375 146.765 662.587 147.163 662.727C147.564 662.864 147.996 662.932 148.458 662.932C148.996 662.932 149.479 662.845 149.907 662.67C150.335 662.492 150.674 662.246 150.924 661.932C151.174 661.614 151.299 661.242 151.299 660.818C151.299 660.432 151.191 660.117 150.975 659.875C150.759 659.633 150.475 659.436 150.123 659.284C149.771 659.133 149.39 659 148.981 658.886L147.549 658.477C146.64 658.216 145.92 657.843 145.39 657.358C144.86 656.873 144.594 656.239 144.594 655.455C144.594 654.803 144.771 654.235 145.123 653.75C145.479 653.261 145.956 652.883 146.555 652.614C147.157 652.341 147.829 652.205 148.572 652.205C149.322 652.205 149.988 652.339 150.572 652.608C151.155 652.873 151.617 653.237 151.958 653.699C152.303 654.161 152.485 654.686 152.504 655.273H151.14ZM154.979 664V652.364H156.388V658.136H156.525L161.752 652.364H163.593L158.707 657.614L163.593 664H161.888L157.843 658.591L156.388 660.227V664H154.979ZM166.826 652.364V664H165.417V652.364H166.826ZM169.651 664V652.364H173.583C174.496 652.364 175.242 652.528 175.822 652.858C176.405 653.184 176.837 653.625 177.117 654.182C177.397 654.739 177.538 655.36 177.538 656.045C177.538 656.731 177.397 657.354 177.117 657.915C176.841 658.475 176.413 658.922 175.833 659.256C175.254 659.585 174.511 659.75 173.606 659.75H170.788V658.5H173.56C174.185 658.5 174.687 658.392 175.066 658.176C175.445 657.96 175.719 657.669 175.89 657.301C176.064 656.93 176.151 656.511 176.151 656.045C176.151 655.58 176.064 655.163 175.89 654.795C175.719 654.428 175.443 654.14 175.06 653.932C174.678 653.72 174.17 653.614 173.538 653.614H171.06V664H169.651ZM184.308 664V652.364H191.285V653.614H185.717V657.545H190.762V658.795H185.717V664H184.308ZM203.516 658.182C203.516 659.409 203.295 660.47 202.852 661.364C202.408 662.258 201.8 662.947 201.028 663.432C200.255 663.917 199.372 664.159 198.38 664.159C197.388 664.159 196.505 663.917 195.732 663.432C194.96 662.947 194.352 662.258 193.908 661.364C193.465 660.47 193.244 659.409 193.244 658.182C193.244 656.955 193.465 655.894 193.908 655C194.352 654.106 194.96 653.417 195.732 652.932C196.505 652.447 197.388 652.205 198.38 652.205C199.372 652.205 200.255 652.447 201.028 652.932C201.8 653.417 202.408 654.106 202.852 655C203.295 655.894 203.516 656.955 203.516 658.182ZM202.153 658.182C202.153 657.174 201.984 656.324 201.647 655.631C201.314 654.938 200.861 654.413 200.289 654.057C199.721 653.701 199.085 653.523 198.38 653.523C197.675 653.523 197.037 653.701 196.465 654.057C195.897 654.413 195.444 654.938 195.107 655.631C194.774 656.324 194.607 657.174 194.607 658.182C194.607 659.189 194.774 660.04 195.107 660.733C195.444 661.426 195.897 661.951 196.465 662.307C197.037 662.663 197.675 662.841 198.38 662.841C199.085 662.841 199.721 662.663 200.289 662.307C200.861 661.951 201.314 661.426 201.647 660.733C201.984 660.04 202.153 659.189 202.153 658.182ZM205.886 664V652.364H209.817C210.727 652.364 211.473 652.519 212.056 652.83C212.639 653.136 213.071 653.559 213.352 654.097C213.632 654.634 213.772 655.246 213.772 655.932C213.772 656.617 213.632 657.225 213.352 657.756C213.071 658.286 212.641 658.703 212.062 659.006C211.482 659.305 210.742 659.455 209.84 659.455H206.658V658.182H209.795C210.416 658.182 210.916 658.091 211.295 657.909C211.677 657.727 211.954 657.47 212.124 657.136C212.299 656.799 212.386 656.398 212.386 655.932C212.386 655.466 212.299 655.059 212.124 654.71C211.95 654.362 211.672 654.093 211.289 653.903C210.906 653.71 210.401 653.614 209.772 653.614H207.295V664H205.886ZM211.363 658.773L214.227 664H212.59L209.772 658.773H211.363ZM229.847 652.364V664H228.484L222.143 654.864H222.029V664H220.62V652.364H221.984L228.347 661.523H228.461V652.364H229.847ZM242.485 658.182C242.485 659.409 242.263 660.47 241.82 661.364C241.377 662.258 240.769 662.947 239.996 663.432C239.224 663.917 238.341 664.159 237.349 664.159C236.356 664.159 235.474 663.917 234.701 663.432C233.928 662.947 233.32 662.258 232.877 661.364C232.434 660.47 232.212 659.409 232.212 658.182C232.212 656.955 232.434 655.894 232.877 655C233.32 654.106 233.928 653.417 234.701 652.932C235.474 652.447 236.356 652.205 237.349 652.205C238.341 652.205 239.224 652.447 239.996 652.932C240.769 653.417 241.377 654.106 241.82 655C242.263 655.894 242.485 656.955 242.485 658.182ZM241.121 658.182C241.121 657.174 240.953 656.324 240.616 655.631C240.282 654.938 239.83 654.413 239.258 654.057C238.69 653.701 238.053 653.523 237.349 653.523C236.644 653.523 236.006 653.701 235.434 654.057C234.866 654.413 234.413 654.938 234.076 655.631C233.743 656.324 233.576 657.174 233.576 658.182C233.576 659.189 233.743 660.04 234.076 660.733C234.413 661.426 234.866 661.951 235.434 662.307C236.006 662.663 236.644 662.841 237.349 662.841C238.053 662.841 238.69 662.663 239.258 662.307C239.83 661.951 240.282 661.426 240.616 660.733C240.953 660.04 241.121 659.189 241.121 658.182ZM246.968 664L243.786 652.364H245.218L247.65 661.841H247.763L250.241 652.364H251.832L254.309 661.841H254.423L256.854 652.364H258.286L255.104 664H253.65L251.082 654.727H250.991L248.423 664H246.968Z" fill="#606060"/>
<path d="M143.367 667.182H258.627V668.273H143.367V667.182Z" fill="#606060"/>
</g>
<defs>
<clipPath id="clip0_1178_4411">
<rect width="402" height="874" rx="16" fill="white"/>
</clipPath>
</defs>
</svg>
