<svg width="402" height="874" viewBox="0 0 402 874" fill="none" xmlns="http://www.w3.org/2000/svg">
<g clip-path="url(#clip0_1178_4425)">
<rect width="402" height="874" rx="16" fill="black"/>
<rect x="0.5" y="102.493" width="401" height="771.007" rx="15.5" fill="white" stroke="black"/>
<path d="M376.915 137.648L375.852 136.585L379.625 132.812L375.852 129.064L376.915 128L380.688 131.773L384.436 128L385.5 129.064L381.727 132.812L385.5 136.585L384.436 137.648L380.688 133.875L376.915 137.648Z" fill="#1C1B1F"/>
<rect x="13" y="176.148" width="376" height="277" rx="7.5" fill="#D9D9D9" stroke="black"/>
<path d="M28.343 481.921C28.2749 481.345 27.9983 480.898 27.5135 480.58C27.0286 480.262 26.4339 480.103 25.7294 480.103C25.2143 480.103 24.7635 480.186 24.3771 480.353C23.9946 480.519 23.6953 480.748 23.4794 481.04C23.2673 481.332 23.1612 481.663 23.1612 482.034C23.1612 482.345 23.2351 482.612 23.3828 482.836C23.5343 483.055 23.7275 483.239 23.9624 483.387C24.1972 483.531 24.4434 483.65 24.701 483.745C24.9586 483.836 25.1953 483.909 25.4112 483.966L26.593 484.284C26.8961 484.364 27.2332 484.474 27.6044 484.614C27.9794 484.754 28.3374 484.945 28.6783 485.188C29.023 485.426 29.3071 485.733 29.5305 486.108C29.754 486.483 29.8658 486.943 29.8658 487.489C29.8658 488.118 29.701 488.686 29.3714 489.193C29.0457 489.701 28.5684 490.104 27.9396 490.404C27.3146 490.703 26.5552 490.853 25.6612 490.853C24.8279 490.853 24.1063 490.718 23.4964 490.449C22.8904 490.18 22.4131 489.805 22.0646 489.324C21.7199 488.843 21.5249 488.284 21.4794 487.648H22.9339C22.9718 488.087 23.1196 488.451 23.3771 488.739C23.6385 489.023 23.968 489.235 24.3658 489.375C24.7673 489.512 25.1991 489.58 25.6612 489.58C26.1991 489.58 26.6821 489.493 27.1101 489.318C27.5381 489.14 27.8771 488.894 28.1271 488.58C28.3771 488.262 28.5021 487.89 28.5021 487.466C28.5021 487.08 28.3942 486.765 28.1783 486.523C27.9624 486.281 27.6783 486.084 27.326 485.932C26.9737 485.781 26.593 485.648 26.1839 485.534L24.7521 485.125C23.843 484.864 23.1233 484.491 22.593 484.006C22.0627 483.521 21.7976 482.887 21.7976 482.103C21.7976 481.451 21.9737 480.883 22.326 480.398C22.6821 479.909 23.1593 479.531 23.7578 479.262C24.3601 478.989 25.0324 478.853 25.7749 478.853C26.5249 478.853 27.1915 478.987 27.7749 479.256C28.3582 479.521 28.8203 479.885 29.1612 480.347C29.5059 480.809 29.6877 481.334 29.7067 481.921H28.343ZM35.5462 490.83C34.728 490.83 34.0234 490.637 33.4325 490.25C32.8416 489.864 32.3871 489.332 32.0689 488.654C31.7507 487.976 31.5916 487.201 31.5916 486.33C31.5916 485.443 31.7545 484.661 32.0803 483.983C32.4098 483.301 32.8681 482.769 33.4553 482.387C34.0462 482 34.7356 481.807 35.5234 481.807C36.1371 481.807 36.6901 481.921 37.1825 482.148C37.675 482.375 38.0784 482.693 38.3928 483.103C38.7071 483.512 38.9022 483.989 38.978 484.534H37.6371C37.5348 484.137 37.3075 483.784 36.9553 483.478C36.6068 483.167 36.1371 483.012 35.5462 483.012C35.0234 483.012 34.5651 483.148 34.1712 483.421C33.781 483.69 33.4761 484.07 33.2564 484.563C33.0405 485.051 32.9325 485.625 32.9325 486.284C32.9325 486.959 33.0386 487.546 33.2507 488.046C33.4666 488.546 33.7696 488.934 34.1598 489.211C34.5537 489.487 35.0159 489.625 35.5462 489.625C35.8946 489.625 36.2109 489.565 36.495 489.443C36.7791 489.322 37.0196 489.148 37.2166 488.921C37.4136 488.693 37.5537 488.421 37.6371 488.103H38.978C38.9022 488.618 38.7147 489.082 38.4155 489.495C38.12 489.904 37.728 490.229 37.2393 490.472C36.7545 490.711 36.1901 490.83 35.5462 490.83ZM43.5064 490.853C42.9534 490.853 42.4515 490.748 42.0007 490.54C41.55 490.328 41.192 490.023 40.9268 489.625C40.6617 489.224 40.5291 488.739 40.5291 488.171C40.5291 487.671 40.6276 487.265 40.8246 486.955C41.0215 486.64 41.2848 486.394 41.6143 486.216C41.9439 486.038 42.3075 485.906 42.7053 485.818C43.1068 485.728 43.5102 485.656 43.9155 485.603C44.4458 485.534 44.8757 485.483 45.2053 485.449C45.5386 485.411 45.781 485.349 45.9325 485.262C46.0878 485.175 46.1655 485.023 46.1655 484.807V484.762C46.1655 484.201 46.0121 483.765 45.7053 483.455C45.4022 483.144 44.942 482.989 44.3246 482.989C43.6844 482.989 43.1825 483.129 42.8189 483.409C42.4553 483.69 42.1996 483.989 42.0518 484.307L40.7791 483.853C41.0064 483.322 41.3094 482.909 41.6882 482.614C42.0708 482.315 42.4875 482.106 42.9382 481.989C43.3928 481.868 43.8397 481.807 44.2791 481.807C44.5594 481.807 44.8814 481.841 45.245 481.909C45.6125 481.974 45.9666 482.108 46.3075 482.313C46.6522 482.517 46.9382 482.826 47.1655 483.239C47.3928 483.652 47.5064 484.205 47.5064 484.898V490.648H46.1655V489.466H46.0973C46.0064 489.656 45.8549 489.858 45.6428 490.074C45.4306 490.29 45.1484 490.474 44.7962 490.625C44.4439 490.777 44.014 490.853 43.5064 490.853ZM43.7109 489.648C44.2412 489.648 44.6882 489.544 45.0518 489.336C45.4193 489.127 45.6958 488.858 45.8814 488.529C46.0708 488.199 46.1655 487.853 46.1655 487.489V486.262C46.1087 486.33 45.9837 486.392 45.7905 486.449C45.6011 486.502 45.3814 486.55 45.1314 486.591C44.8852 486.629 44.6446 486.663 44.4098 486.693C44.1787 486.72 43.9912 486.743 43.8473 486.762C43.4988 486.807 43.1731 486.881 42.87 486.983C42.5708 487.082 42.3284 487.231 42.1428 487.432C41.9609 487.629 41.87 487.898 41.87 488.239C41.87 488.705 42.0424 489.057 42.3871 489.296C42.7356 489.531 43.1768 489.648 43.7109 489.648ZM51.2947 485.398V490.648H49.9538V481.921H51.2493V483.284H51.3629C51.5675 482.841 51.8781 482.485 52.2947 482.216C52.7114 481.943 53.2493 481.807 53.9084 481.807C54.4993 481.807 55.0163 481.928 55.4595 482.171C55.9027 482.409 56.2474 482.773 56.4936 483.262C56.7398 483.746 56.8629 484.36 56.8629 485.103V490.648H55.522V485.193C55.522 484.508 55.344 483.974 54.9879 483.591C54.6319 483.205 54.1432 483.012 53.522 483.012C53.094 483.012 52.7114 483.104 52.3743 483.29C52.041 483.476 51.7777 483.746 51.5845 484.103C51.3913 484.459 51.2947 484.89 51.2947 485.398ZM67.6087 481.921V483.057H63.0859V481.921H67.6087ZM64.4041 479.83H65.745V488.148C65.745 488.527 65.8 488.811 65.9098 489C66.0234 489.186 66.1674 489.311 66.3416 489.375C66.5196 489.436 66.7071 489.466 66.9041 489.466C67.0518 489.466 67.1731 489.459 67.2678 489.443C67.3625 489.425 67.4382 489.409 67.495 489.398L67.7678 490.603C67.6768 490.637 67.55 490.671 67.3871 490.705C67.2242 490.743 67.0178 490.762 66.7678 490.762C66.389 490.762 66.0178 490.68 65.6541 490.517C65.2943 490.354 64.995 490.106 64.7564 489.773C64.5215 489.44 64.4041 489.019 64.4041 488.512V479.83ZM71.1541 485.398V490.648H69.8132V479.012H71.1541V483.284H71.2678C71.4723 482.834 71.7791 482.476 72.1882 482.211C72.6011 481.942 73.1503 481.807 73.8359 481.807C74.4306 481.807 74.9515 481.926 75.3984 482.165C75.8454 482.4 76.192 482.762 76.4382 483.25C76.6882 483.735 76.8132 484.353 76.8132 485.103V490.648H75.4723V485.193C75.4723 484.5 75.2924 483.964 74.9325 483.586C74.5765 483.203 74.0821 483.012 73.4496 483.012C73.0102 483.012 72.6162 483.104 72.2678 483.29C71.9231 483.476 71.6503 483.746 71.4496 484.103C71.2526 484.459 71.1541 484.89 71.1541 485.398ZM82.9254 490.83C82.0845 490.83 81.3591 490.644 80.7493 490.273C80.1432 489.898 79.6754 489.375 79.3459 488.705C79.0201 488.031 78.8572 487.246 78.8572 486.353C78.8572 485.459 79.0201 484.671 79.3459 483.989C79.6754 483.303 80.1338 482.769 80.7209 482.387C81.3118 482 82.0012 481.807 82.7891 481.807C83.2436 481.807 83.6925 481.883 84.1357 482.034C84.5788 482.186 84.9822 482.432 85.3459 482.773C85.7095 483.11 85.9993 483.557 86.2152 484.114C86.4311 484.671 86.5391 485.356 86.5391 486.171V486.739H79.8118V485.58H85.1754C85.1754 485.087 85.0769 484.648 84.88 484.262C84.6868 483.875 84.4103 483.57 84.0504 483.347C83.6944 483.123 83.2739 483.012 82.7891 483.012C82.255 483.012 81.7929 483.144 81.4027 483.409C81.0163 483.671 80.719 484.012 80.5107 484.432C80.3023 484.853 80.1982 485.303 80.1982 485.784V486.557C80.1982 487.216 80.3118 487.775 80.5391 488.233C80.7701 488.688 81.0902 489.034 81.4993 489.273C81.9084 489.508 82.3838 489.625 82.9254 489.625C83.2777 489.625 83.5959 489.576 83.88 489.478C84.1679 489.375 84.416 489.224 84.6243 489.023C84.8326 488.818 84.9936 488.565 85.1072 488.262L86.4027 488.625C86.2663 489.065 86.0372 489.451 85.7152 489.784C85.3932 490.114 84.9955 490.371 84.522 490.557C84.0485 490.739 83.5163 490.83 82.9254 490.83ZM97.4879 487.012H99.0334L100.329 488.716L100.67 489.171L102.602 491.739H101.056L99.7834 490.034L99.4652 489.603L97.4879 487.012ZM103.079 484.83C103.079 486.057 102.857 487.118 102.414 488.012C101.971 488.906 101.363 489.595 100.59 490.08C99.8175 490.565 98.9349 490.807 97.9425 490.807C96.95 490.807 96.0675 490.565 95.2947 490.08C94.522 489.595 93.9141 488.906 93.4709 488.012C93.0277 487.118 92.8061 486.057 92.8061 484.83C92.8061 483.603 93.0277 482.542 93.4709 481.648C93.9141 480.754 94.522 480.065 95.2947 479.58C96.0675 479.095 96.95 478.853 97.9425 478.853C98.9349 478.853 99.8175 479.095 100.59 479.58C101.363 480.065 101.971 480.754 102.414 481.648C102.857 482.542 103.079 483.603 103.079 484.83ZM101.715 484.83C101.715 483.822 101.547 482.972 101.21 482.279C100.876 481.586 100.424 481.061 99.8516 480.705C99.2834 480.349 98.647 480.171 97.9425 480.171C97.2379 480.171 96.5997 480.349 96.0277 480.705C95.4595 481.061 95.0069 481.586 94.6697 482.279C94.3364 482.972 94.1697 483.822 94.1697 484.83C94.1697 485.837 94.3364 486.688 94.6697 487.381C95.0069 488.074 95.4595 488.599 96.0277 488.955C96.5997 489.311 97.2379 489.489 97.9425 489.489C98.647 489.489 99.2834 489.311 99.8516 488.955C100.424 488.599 100.876 488.074 101.21 487.381C101.547 486.688 101.715 485.837 101.715 484.83ZM105.448 490.648V479.012H109.38C110.289 479.012 111.035 479.167 111.619 479.478C112.202 479.784 112.634 480.207 112.914 480.745C113.194 481.282 113.335 481.894 113.335 482.58C113.335 483.265 113.194 483.873 112.914 484.404C112.634 484.934 112.204 485.351 111.624 485.654C111.045 485.953 110.304 486.103 109.403 486.103H106.221V484.83H109.357C109.978 484.83 110.478 484.739 110.857 484.557C111.24 484.375 111.516 484.118 111.687 483.784C111.861 483.447 111.948 483.046 111.948 482.58C111.948 482.114 111.861 481.707 111.687 481.358C111.513 481.01 111.234 480.741 110.852 480.551C110.469 480.358 109.963 480.262 109.335 480.262H106.857V490.648H105.448ZM110.925 485.421L113.789 490.648H112.153L109.335 485.421H110.925ZM123.796 481.921V483.057H119.273V481.921H123.796ZM120.592 479.83H121.933V488.148C121.933 488.527 121.987 488.811 122.097 489C122.211 489.186 122.355 489.311 122.529 489.375C122.707 489.436 122.895 489.466 123.092 489.466C123.239 489.466 123.361 489.459 123.455 489.443C123.55 489.425 123.626 489.409 123.683 489.398L123.955 490.603C123.864 490.637 123.737 490.671 123.575 490.705C123.412 490.743 123.205 490.762 122.955 490.762C122.576 490.762 122.205 490.68 121.842 490.517C121.482 490.354 121.183 490.106 120.944 489.773C120.709 489.44 120.592 489.019 120.592 488.512V479.83ZM129.265 490.83C128.477 490.83 127.786 490.642 127.191 490.267C126.6 489.892 126.138 489.368 125.805 488.693C125.475 488.019 125.31 487.231 125.31 486.33C125.31 485.421 125.475 484.627 125.805 483.949C126.138 483.271 126.6 482.745 127.191 482.37C127.786 481.995 128.477 481.807 129.265 481.807C130.053 481.807 130.742 481.995 131.333 482.37C131.928 482.745 132.39 483.271 132.719 483.949C133.053 484.627 133.219 485.421 133.219 486.33C133.219 487.231 133.053 488.019 132.719 488.693C132.39 489.368 131.928 489.892 131.333 490.267C130.742 490.642 130.053 490.83 129.265 490.83ZM129.265 489.625C129.863 489.625 130.356 489.472 130.742 489.165C131.129 488.858 131.415 488.455 131.6 487.955C131.786 487.455 131.879 486.913 131.879 486.33C131.879 485.746 131.786 485.203 131.6 484.699C131.415 484.195 131.129 483.788 130.742 483.478C130.356 483.167 129.863 483.012 129.265 483.012C128.666 483.012 128.174 483.167 127.788 483.478C127.401 483.788 127.115 484.195 126.93 484.699C126.744 485.203 126.651 485.746 126.651 486.33C126.651 486.913 126.744 487.455 126.93 487.955C127.115 488.455 127.401 488.858 127.788 489.165C128.174 489.472 128.666 489.625 129.265 489.625ZM139.766 493.921V481.921H141.062V483.307H141.221C141.319 483.156 141.456 482.962 141.63 482.728C141.808 482.489 142.062 482.277 142.391 482.091C142.725 481.902 143.175 481.807 143.744 481.807C144.478 481.807 145.126 481.991 145.687 482.358C146.247 482.726 146.685 483.246 146.999 483.921C147.314 484.595 147.471 485.39 147.471 486.307C147.471 487.231 147.314 488.032 146.999 488.711C146.685 489.385 146.249 489.907 145.692 490.279C145.136 490.646 144.494 490.83 143.766 490.83C143.206 490.83 142.757 490.737 142.42 490.551C142.083 490.362 141.823 490.148 141.641 489.909C141.46 489.667 141.319 489.466 141.221 489.307H141.107V493.921H139.766ZM141.085 486.284C141.085 486.943 141.181 487.525 141.374 488.029C141.567 488.529 141.85 488.921 142.221 489.205C142.592 489.485 143.047 489.625 143.585 489.625C144.145 489.625 144.613 489.478 144.988 489.182C145.367 488.883 145.651 488.481 145.84 487.978C146.033 487.47 146.13 486.906 146.13 486.284C146.13 485.671 146.035 485.118 145.846 484.625C145.66 484.129 145.378 483.737 144.999 483.449C144.624 483.157 144.153 483.012 143.585 483.012C143.039 483.012 142.581 483.15 142.21 483.426C141.838 483.699 141.558 484.082 141.369 484.574C141.179 485.063 141.085 485.633 141.085 486.284ZM152.085 490.853C151.531 490.853 151.03 490.748 150.579 490.54C150.128 490.328 149.77 490.023 149.505 489.625C149.24 489.224 149.107 488.739 149.107 488.171C149.107 487.671 149.206 487.265 149.403 486.955C149.6 486.64 149.863 486.394 150.192 486.216C150.522 486.038 150.886 485.906 151.283 485.818C151.685 485.728 152.088 485.656 152.494 485.603C153.024 485.534 153.454 485.483 153.783 485.449C154.117 485.411 154.359 485.349 154.511 485.262C154.666 485.175 154.744 485.023 154.744 484.807V484.762C154.744 484.201 154.59 483.765 154.283 483.455C153.98 483.144 153.52 482.989 152.903 482.989C152.263 482.989 151.761 483.129 151.397 483.409C151.033 483.69 150.778 483.989 150.63 484.307L149.357 483.853C149.585 483.322 149.888 482.909 150.266 482.614C150.649 482.315 151.066 482.106 151.516 481.989C151.971 481.868 152.418 481.807 152.857 481.807C153.138 481.807 153.46 481.841 153.823 481.909C154.191 481.974 154.545 482.108 154.886 482.313C155.23 482.517 155.516 482.826 155.744 483.239C155.971 483.652 156.085 484.205 156.085 484.898V490.648H154.744V489.466H154.675C154.585 489.656 154.433 489.858 154.221 490.074C154.009 490.29 153.727 490.474 153.374 490.625C153.022 490.777 152.592 490.853 152.085 490.853ZM152.289 489.648C152.819 489.648 153.266 489.544 153.63 489.336C153.997 489.127 154.274 488.858 154.46 488.529C154.649 488.199 154.744 487.853 154.744 487.489V486.262C154.687 486.33 154.562 486.392 154.369 486.449C154.179 486.502 153.96 486.55 153.71 486.591C153.463 486.629 153.223 486.663 152.988 486.693C152.757 486.72 152.569 486.743 152.425 486.762C152.077 486.807 151.751 486.881 151.448 486.983C151.149 487.082 150.906 487.231 150.721 487.432C150.539 487.629 150.448 487.898 150.448 488.239C150.448 488.705 150.621 489.057 150.965 489.296C151.314 489.531 151.755 489.648 152.289 489.648ZM158.532 490.648V481.921H159.873V490.648H158.532ZM159.214 480.466C158.952 480.466 158.727 480.377 158.538 480.199C158.352 480.021 158.259 479.807 158.259 479.557C158.259 479.307 158.352 479.093 158.538 478.915C158.727 478.737 158.952 478.648 159.214 478.648C159.475 478.648 159.699 478.737 159.884 478.915C160.074 479.093 160.168 479.307 160.168 479.557C160.168 479.807 160.074 480.021 159.884 480.199C159.699 480.377 159.475 480.466 159.214 480.466ZM162.329 490.648V481.921H163.624V483.239H163.715C163.874 482.807 164.162 482.457 164.579 482.188C164.996 481.919 165.465 481.784 165.988 481.784C166.086 481.784 166.21 481.786 166.357 481.79C166.505 481.794 166.617 481.8 166.692 481.807V483.171C166.647 483.159 166.543 483.142 166.38 483.12C166.221 483.093 166.052 483.08 165.874 483.08C165.45 483.08 165.071 483.169 164.738 483.347C164.408 483.521 164.147 483.764 163.954 484.074C163.764 484.381 163.67 484.731 163.67 485.125V490.648H162.329ZM173.646 493.921C173.418 493.921 173.216 493.902 173.038 493.864C172.86 493.83 172.737 493.796 172.668 493.762L173.009 492.58C173.335 492.663 173.623 492.693 173.873 492.671C174.123 492.648 174.344 492.536 174.538 492.336C174.735 492.139 174.915 491.818 175.077 491.375L175.327 490.693L172.1 481.921H173.555L175.964 488.875H176.055L178.464 481.921H179.918L176.214 491.921C176.047 492.371 175.841 492.745 175.594 493.04C175.348 493.339 175.062 493.561 174.737 493.705C174.415 493.849 174.051 493.921 173.646 493.921ZM184.921 490.83C184.133 490.83 183.442 490.642 182.847 490.267C182.256 489.892 181.794 489.368 181.461 488.693C181.131 488.019 180.967 487.231 180.967 486.33C180.967 485.421 181.131 484.627 181.461 483.949C181.794 483.271 182.256 482.745 182.847 482.37C183.442 481.995 184.133 481.807 184.921 481.807C185.709 481.807 186.398 481.995 186.989 482.37C187.584 482.745 188.046 483.271 188.376 483.949C188.709 484.627 188.876 485.421 188.876 486.33C188.876 487.231 188.709 488.019 188.376 488.693C188.046 489.368 187.584 489.892 186.989 490.267C186.398 490.642 185.709 490.83 184.921 490.83ZM184.921 489.625C185.52 489.625 186.012 489.472 186.398 489.165C186.785 488.858 187.071 488.455 187.256 487.955C187.442 487.455 187.535 486.913 187.535 486.33C187.535 485.746 187.442 485.203 187.256 484.699C187.071 484.195 186.785 483.788 186.398 483.478C186.012 483.167 185.52 483.012 184.921 483.012C184.323 483.012 183.83 483.167 183.444 483.478C183.058 483.788 182.772 484.195 182.586 484.699C182.4 485.203 182.308 485.746 182.308 486.33C182.308 486.913 182.4 487.455 182.586 487.955C182.772 488.455 183.058 488.858 183.444 489.165C183.83 489.472 184.323 489.625 184.921 489.625ZM196.423 487.08V481.921H197.763V490.648H196.423V489.171H196.332C196.127 489.614 195.809 489.991 195.377 490.301C194.945 490.608 194.4 490.762 193.741 490.762C193.195 490.762 192.71 490.642 192.286 490.404C191.862 490.161 191.529 489.798 191.286 489.313C191.044 488.824 190.923 488.209 190.923 487.466V481.921H192.263V487.375C192.263 488.012 192.442 488.519 192.798 488.898C193.157 489.277 193.616 489.466 194.173 489.466C194.506 489.466 194.845 489.381 195.19 489.211C195.538 489.04 195.83 488.779 196.065 488.426C196.303 488.074 196.423 487.625 196.423 487.08ZM200.219 490.648V481.921H201.515V483.239H201.606C201.765 482.807 202.053 482.457 202.469 482.188C202.886 481.919 203.356 481.784 203.879 481.784C203.977 481.784 204.1 481.786 204.248 481.79C204.396 481.794 204.507 481.8 204.583 481.807V483.171C204.538 483.159 204.433 483.142 204.271 483.12C204.112 483.093 203.943 483.08 203.765 483.08C203.341 483.08 202.962 483.169 202.629 483.347C202.299 483.521 202.038 483.764 201.844 484.074C201.655 484.381 201.56 484.731 201.56 485.125V490.648H200.219ZM212.013 485.398V490.648H210.673V479.012H212.013V483.284H212.127C212.332 482.834 212.638 482.476 213.048 482.211C213.46 481.942 214.01 481.807 214.695 481.807C215.29 481.807 215.811 481.926 216.258 482.165C216.705 482.4 217.051 482.762 217.298 483.25C217.548 483.735 217.673 484.353 217.673 485.103V490.648H216.332V485.193C216.332 484.5 216.152 483.964 215.792 483.586C215.436 483.203 214.942 483.012 214.309 483.012C213.87 483.012 213.476 483.104 213.127 483.29C212.782 483.476 212.51 483.746 212.309 484.103C212.112 484.459 212.013 484.89 212.013 485.398ZM222.694 490.853C222.141 490.853 221.639 490.748 221.188 490.54C220.737 490.328 220.379 490.023 220.114 489.625C219.849 489.224 219.717 488.739 219.717 488.171C219.717 487.671 219.815 487.265 220.012 486.955C220.209 486.64 220.472 486.394 220.802 486.216C221.131 486.038 221.495 485.906 221.893 485.818C222.294 485.728 222.698 485.656 223.103 485.603C223.633 485.534 224.063 485.483 224.393 485.449C224.726 485.411 224.969 485.349 225.12 485.262C225.275 485.175 225.353 485.023 225.353 484.807V484.762C225.353 484.201 225.2 483.765 224.893 483.455C224.59 483.144 224.129 482.989 223.512 482.989C222.872 482.989 222.37 483.129 222.006 483.409C221.643 483.69 221.387 483.989 221.239 484.307L219.967 483.853C220.194 483.322 220.497 482.909 220.876 482.614C221.258 482.315 221.675 482.106 222.126 481.989C222.58 481.868 223.027 481.807 223.467 481.807C223.747 481.807 224.069 481.841 224.433 481.909C224.8 481.974 225.154 482.108 225.495 482.313C225.84 482.517 226.126 482.826 226.353 483.239C226.58 483.652 226.694 484.205 226.694 484.898V490.648H225.353V489.466H225.285C225.194 489.656 225.042 489.858 224.83 490.074C224.618 490.29 224.336 490.474 223.984 490.625C223.631 490.777 223.201 490.853 222.694 490.853ZM222.898 489.648C223.429 489.648 223.876 489.544 224.239 489.336C224.607 489.127 224.883 488.858 225.069 488.529C225.258 488.199 225.353 487.853 225.353 487.489V486.262C225.296 486.33 225.171 486.392 224.978 486.449C224.789 486.502 224.569 486.55 224.319 486.591C224.073 486.629 223.832 486.663 223.597 486.693C223.366 486.72 223.179 486.743 223.035 486.762C222.686 486.807 222.361 486.881 222.058 486.983C221.758 487.082 221.516 487.231 221.33 487.432C221.148 487.629 221.058 487.898 221.058 488.239C221.058 488.705 221.23 489.057 221.575 489.296C221.923 489.531 222.364 489.648 222.898 489.648ZM230.482 485.398V490.648H229.141V481.921H230.437V483.284H230.55C230.755 482.841 231.066 482.485 231.482 482.216C231.899 481.943 232.437 481.807 233.096 481.807C233.687 481.807 234.204 481.928 234.647 482.171C235.09 482.409 235.435 482.773 235.681 483.262C235.927 483.746 236.05 484.36 236.05 485.103V490.648H234.71V485.193C234.71 484.508 234.531 483.974 234.175 483.591C233.819 483.205 233.331 483.012 232.71 483.012C232.281 483.012 231.899 483.104 231.562 483.29C231.228 483.476 230.965 483.746 230.772 484.103C230.579 484.459 230.482 484.89 230.482 485.398ZM241.796 490.83C241.069 490.83 240.427 490.646 239.87 490.279C239.313 489.907 238.878 489.385 238.563 488.711C238.249 488.032 238.092 487.231 238.092 486.307C238.092 485.39 238.249 484.595 238.563 483.921C238.878 483.246 239.315 482.726 239.876 482.358C240.436 481.991 241.084 481.807 241.819 481.807C242.387 481.807 242.836 481.902 243.165 482.091C243.499 482.277 243.753 482.489 243.927 482.728C244.105 482.962 244.243 483.156 244.342 483.307H244.455V479.012H245.796V490.648H244.501V489.307H244.342C244.243 489.466 244.103 489.667 243.921 489.909C243.739 490.148 243.48 490.362 243.143 490.551C242.806 490.737 242.357 490.83 241.796 490.83ZM241.978 489.625C242.516 489.625 242.97 489.485 243.342 489.205C243.713 488.921 243.995 488.529 244.188 488.029C244.381 487.525 244.478 486.943 244.478 486.284C244.478 485.633 244.383 485.063 244.194 484.574C244.004 484.082 243.724 483.699 243.353 483.426C242.982 483.15 242.523 483.012 241.978 483.012C241.41 483.012 240.936 483.157 240.558 483.449C240.183 483.737 239.9 484.129 239.711 484.625C239.525 485.118 239.433 485.671 239.433 486.284C239.433 486.906 239.527 487.47 239.717 487.978C239.91 488.481 240.194 488.883 240.569 489.182C240.948 489.478 241.417 489.625 241.978 489.625ZM259.12 483.875L257.915 484.216C257.84 484.015 257.728 483.82 257.58 483.631C257.436 483.438 257.239 483.279 256.989 483.154C256.739 483.029 256.419 482.966 256.029 482.966C255.495 482.966 255.05 483.089 254.694 483.336C254.342 483.578 254.165 483.887 254.165 484.262C254.165 484.595 254.287 484.858 254.529 485.051C254.772 485.245 255.15 485.406 255.665 485.534L256.961 485.853C257.741 486.042 258.323 486.332 258.705 486.722C259.088 487.108 259.279 487.606 259.279 488.216C259.279 488.716 259.135 489.163 258.847 489.557C258.563 489.951 258.165 490.262 257.654 490.489C257.143 490.716 256.548 490.83 255.87 490.83C254.98 490.83 254.243 490.637 253.66 490.25C253.076 489.864 252.707 489.3 252.552 488.557L253.825 488.239C253.946 488.709 254.175 489.061 254.512 489.296C254.853 489.531 255.298 489.648 255.847 489.648C256.472 489.648 256.969 489.515 257.336 489.25C257.707 488.981 257.893 488.659 257.893 488.284C257.893 487.981 257.787 487.728 257.575 487.523C257.362 487.315 257.037 487.159 256.597 487.057L255.143 486.716C254.344 486.527 253.756 486.233 253.381 485.836C253.01 485.434 252.825 484.932 252.825 484.33C252.825 483.837 252.963 483.402 253.239 483.023C253.52 482.644 253.9 482.347 254.381 482.131C254.866 481.915 255.415 481.807 256.029 481.807C256.893 481.807 257.571 481.996 258.063 482.375C258.559 482.754 258.912 483.254 259.12 483.875ZM264.843 490.83C264.025 490.83 263.32 490.637 262.729 490.25C262.138 489.864 261.684 489.332 261.366 488.654C261.048 487.976 260.888 487.201 260.888 486.33C260.888 485.443 261.051 484.661 261.377 483.983C261.707 483.301 262.165 482.769 262.752 482.387C263.343 482 264.032 481.807 264.82 481.807C265.434 481.807 265.987 481.921 266.479 482.148C266.972 482.375 267.375 482.693 267.69 483.103C268.004 483.512 268.199 483.989 268.275 484.534H266.934C266.832 484.137 266.604 483.784 266.252 483.478C265.904 483.167 265.434 483.012 264.843 483.012C264.32 483.012 263.862 483.148 263.468 483.421C263.078 483.69 262.773 484.07 262.553 484.563C262.337 485.051 262.229 485.625 262.229 486.284C262.229 486.959 262.335 487.546 262.548 488.046C262.763 488.546 263.067 488.934 263.457 489.211C263.851 489.487 264.313 489.625 264.843 489.625C265.192 489.625 265.508 489.565 265.792 489.443C266.076 489.322 266.317 489.148 266.513 488.921C266.71 488.693 266.851 488.421 266.934 488.103H268.275C268.199 488.618 268.012 489.082 267.712 489.495C267.417 489.904 267.025 490.229 266.536 490.472C266.051 490.711 265.487 490.83 264.843 490.83ZM272.803 490.853C272.25 490.853 271.748 490.748 271.298 490.54C270.847 490.328 270.489 490.023 270.224 489.625C269.959 489.224 269.826 488.739 269.826 488.171C269.826 487.671 269.924 487.265 270.121 486.955C270.318 486.64 270.582 486.394 270.911 486.216C271.241 486.038 271.604 485.906 272.002 485.818C272.404 485.728 272.807 485.656 273.212 485.603C273.743 485.534 274.173 485.483 274.502 485.449C274.835 485.411 275.078 485.349 275.229 485.262C275.385 485.175 275.462 485.023 275.462 484.807V484.762C275.462 484.201 275.309 483.765 275.002 483.455C274.699 483.144 274.239 482.989 273.621 482.989C272.981 482.989 272.479 483.129 272.116 483.409C271.752 483.69 271.496 483.989 271.349 484.307L270.076 483.853C270.303 483.322 270.606 482.909 270.985 482.614C271.368 482.315 271.784 482.106 272.235 481.989C272.69 481.868 273.137 481.807 273.576 481.807C273.856 481.807 274.178 481.841 274.542 481.909C274.909 481.974 275.263 482.108 275.604 482.313C275.949 482.517 276.235 482.826 276.462 483.239C276.69 483.652 276.803 484.205 276.803 484.898V490.648H275.462V489.466H275.394C275.303 489.656 275.152 489.858 274.94 490.074C274.728 490.29 274.445 490.474 274.093 490.625C273.741 490.777 273.311 490.853 272.803 490.853ZM273.008 489.648C273.538 489.648 273.985 489.544 274.349 489.336C274.716 489.127 274.993 488.858 275.178 488.529C275.368 488.199 275.462 487.853 275.462 487.489V486.262C275.406 486.33 275.281 486.392 275.087 486.449C274.898 486.502 274.678 486.55 274.428 486.591C274.182 486.629 273.942 486.663 273.707 486.693C273.476 486.72 273.288 486.743 273.144 486.762C272.796 486.807 272.47 486.881 272.167 486.983C271.868 487.082 271.625 487.231 271.44 487.432C271.258 487.629 271.167 487.898 271.167 488.239C271.167 488.705 271.339 489.057 271.684 489.296C272.032 489.531 272.474 489.648 273.008 489.648ZM280.592 485.398V490.648H279.251V481.921H280.546V483.284H280.66C280.864 482.841 281.175 482.485 281.592 482.216C282.008 481.943 282.546 481.807 283.205 481.807C283.796 481.807 284.313 481.928 284.756 482.171C285.2 482.409 285.544 482.773 285.79 483.262C286.037 483.746 286.16 484.36 286.16 485.103V490.648H284.819V485.193C284.819 484.508 284.641 483.974 284.285 483.591C283.929 483.205 283.44 483.012 282.819 483.012C282.391 483.012 282.008 483.104 281.671 483.29C281.338 483.476 281.075 483.746 280.881 484.103C280.688 484.459 280.592 484.89 280.592 485.398ZM295.678 490.853C295.125 490.853 294.623 490.748 294.173 490.54C293.722 490.328 293.364 490.023 293.099 489.625C292.834 489.224 292.701 488.739 292.701 488.171C292.701 487.671 292.799 487.265 292.996 486.955C293.193 486.64 293.457 486.394 293.786 486.216C294.116 486.038 294.479 485.906 294.877 485.818C295.279 485.728 295.682 485.656 296.087 485.603C296.618 485.534 297.048 485.483 297.377 485.449C297.71 485.411 297.953 485.349 298.104 485.262C298.26 485.175 298.337 485.023 298.337 484.807V484.762C298.337 484.201 298.184 483.765 297.877 483.455C297.574 483.144 297.114 482.989 296.496 482.989C295.856 482.989 295.354 483.129 294.991 483.409C294.627 483.69 294.371 483.989 294.224 484.307L292.951 483.853C293.178 483.322 293.481 482.909 293.86 482.614C294.243 482.315 294.659 482.106 295.11 481.989C295.565 481.868 296.012 481.807 296.451 481.807C296.731 481.807 297.053 481.841 297.417 481.909C297.784 481.974 298.138 482.108 298.479 482.313C298.824 482.517 299.11 482.826 299.337 483.239C299.565 483.652 299.678 484.205 299.678 484.898V490.648H298.337V489.466H298.269C298.178 489.656 298.027 489.858 297.815 490.074C297.603 490.29 297.32 490.474 296.968 490.625C296.616 490.777 296.186 490.853 295.678 490.853ZM295.883 489.648C296.413 489.648 296.86 489.544 297.224 489.336C297.591 489.127 297.868 488.858 298.053 488.529C298.243 488.199 298.337 487.853 298.337 487.489V486.262C298.281 486.33 298.156 486.392 297.962 486.449C297.773 486.502 297.553 486.55 297.303 486.591C297.057 486.629 296.817 486.663 296.582 486.693C296.351 486.72 296.163 486.743 296.019 486.762C295.671 486.807 295.345 486.881 295.042 486.983C294.743 487.082 294.5 487.231 294.315 487.432C294.133 487.629 294.042 487.898 294.042 488.239C294.042 488.705 294.214 489.057 294.559 489.296C294.907 489.531 295.349 489.648 295.883 489.648ZM303.467 485.398V490.648H302.126V481.921H303.421V483.284H303.535C303.739 482.841 304.05 482.485 304.467 482.216C304.883 481.943 305.421 481.807 306.08 481.807C306.671 481.807 307.188 481.928 307.631 482.171C308.075 482.409 308.419 482.773 308.665 483.262C308.912 483.746 309.035 484.36 309.035 485.103V490.648H307.694V485.193C307.694 484.508 307.516 483.974 307.16 483.591C306.804 483.205 306.315 483.012 305.694 483.012C305.266 483.012 304.883 483.104 304.546 483.29C304.213 483.476 303.95 483.746 303.756 484.103C303.563 484.459 303.467 484.89 303.467 485.398ZM314.781 490.83C314.053 490.83 313.411 490.646 312.854 490.279C312.298 489.907 311.862 489.385 311.548 488.711C311.233 488.032 311.076 487.231 311.076 486.307C311.076 485.39 311.233 484.595 311.548 483.921C311.862 483.246 312.299 482.726 312.86 482.358C313.421 481.991 314.068 481.807 314.803 481.807C315.371 481.807 315.82 481.902 316.15 482.091C316.483 482.277 316.737 482.489 316.911 482.728C317.089 482.962 317.228 483.156 317.326 483.307H317.44V479.012H318.781V490.648H317.485V489.307H317.326C317.228 489.466 317.087 489.667 316.906 489.909C316.724 490.148 316.464 490.362 316.127 490.551C315.79 490.737 315.341 490.83 314.781 490.83ZM314.962 489.625C315.5 489.625 315.955 489.485 316.326 489.205C316.697 488.921 316.979 488.529 317.173 488.029C317.366 487.525 317.462 486.943 317.462 486.284C317.462 485.633 317.368 485.063 317.178 484.574C316.989 484.082 316.709 483.699 316.337 483.426C315.966 483.15 315.508 483.012 314.962 483.012C314.394 483.012 313.921 483.157 313.542 483.449C313.167 483.737 312.885 484.129 312.695 484.625C312.51 485.118 312.417 485.671 312.417 486.284C312.417 486.906 312.512 487.47 312.701 487.978C312.894 488.481 313.178 488.883 313.553 489.182C313.932 489.478 314.402 489.625 314.962 489.625ZM325.923 490.648V481.921H327.263V490.648H325.923ZM326.604 480.466C326.343 480.466 326.118 480.377 325.928 480.199C325.743 480.021 325.65 479.807 325.65 479.557C325.65 479.307 325.743 479.093 325.928 478.915C326.118 478.737 326.343 478.648 326.604 478.648C326.866 478.648 327.089 478.737 327.275 478.915C327.464 479.093 327.559 479.307 327.559 479.557C327.559 479.807 327.464 480.021 327.275 480.199C327.089 480.377 326.866 480.466 326.604 480.466ZM333.015 490.83C332.288 490.83 331.646 490.646 331.089 490.279C330.532 489.907 330.096 489.385 329.782 488.711C329.468 488.032 329.31 487.231 329.31 486.307C329.31 485.39 329.468 484.595 329.782 483.921C330.096 483.246 330.534 482.726 331.094 482.358C331.655 481.991 332.303 481.807 333.038 481.807C333.606 481.807 334.055 481.902 334.384 482.091C334.718 482.277 334.971 482.489 335.146 482.728C335.324 482.962 335.462 483.156 335.56 483.307H335.674V479.012H337.015V490.648H335.719V489.307H335.56C335.462 489.466 335.322 489.667 335.14 489.909C334.958 490.148 334.699 490.362 334.362 490.551C334.024 490.737 333.576 490.83 333.015 490.83ZM333.197 489.625C333.735 489.625 334.189 489.485 334.56 489.205C334.932 488.921 335.214 488.529 335.407 488.029C335.6 487.525 335.697 486.943 335.697 486.284C335.697 485.633 335.602 485.063 335.413 484.574C335.223 484.082 334.943 483.699 334.572 483.426C334.201 483.15 333.742 483.012 333.197 483.012C332.629 483.012 332.155 483.157 331.776 483.449C331.401 483.737 331.119 484.129 330.93 484.625C330.744 485.118 330.651 485.671 330.651 486.284C330.651 486.906 330.746 487.47 330.935 487.978C331.129 488.481 331.413 488.883 331.788 489.182C332.166 489.478 332.636 489.625 333.197 489.625ZM343.316 490.83C342.475 490.83 341.75 490.644 341.14 490.273C340.534 489.898 340.066 489.375 339.737 488.705C339.411 488.031 339.248 487.246 339.248 486.353C339.248 485.459 339.411 484.671 339.737 483.989C340.066 483.303 340.524 482.769 341.112 482.387C341.702 482 342.392 481.807 343.18 481.807C343.634 481.807 344.083 481.883 344.526 482.034C344.969 482.186 345.373 482.432 345.737 482.773C346.1 483.11 346.39 483.557 346.606 484.114C346.822 484.671 346.93 485.356 346.93 486.171V486.739H340.202V485.58H345.566C345.566 485.087 345.468 484.648 345.271 484.262C345.077 483.875 344.801 483.57 344.441 483.347C344.085 483.123 343.665 483.012 343.18 483.012C342.646 483.012 342.183 483.144 341.793 483.409C341.407 483.671 341.11 484.012 340.901 484.432C340.693 484.853 340.589 485.303 340.589 485.784V486.557C340.589 487.216 340.702 487.775 340.93 488.233C341.161 488.688 341.481 489.034 341.89 489.273C342.299 489.508 342.774 489.625 343.316 489.625C343.668 489.625 343.987 489.576 344.271 489.478C344.558 489.375 344.807 489.224 345.015 489.023C345.223 488.818 345.384 488.565 345.498 488.262L346.793 488.625C346.657 489.065 346.428 489.451 346.106 489.784C345.784 490.114 345.386 490.371 344.913 490.557C344.439 490.739 343.907 490.83 343.316 490.83ZM350.31 485.398V490.648H348.969V481.921H350.265V483.284H350.379C350.583 482.841 350.894 482.485 351.31 482.216C351.727 481.943 352.265 481.807 352.924 481.807C353.515 481.807 354.032 481.928 354.475 482.171C354.918 482.409 355.263 482.773 355.509 483.262C355.755 483.746 355.879 484.36 355.879 485.103V490.648H354.538V485.193C354.538 484.508 354.36 483.974 354.004 483.591C353.647 483.205 353.159 483.012 352.538 483.012C352.11 483.012 351.727 483.104 351.39 483.29C351.057 483.476 350.793 483.746 350.6 484.103C350.407 484.459 350.31 484.89 350.31 485.398ZM362.124 481.921V483.057H357.602V481.921H362.124ZM358.92 479.83H360.261V488.148C360.261 488.527 360.316 488.811 360.425 489C360.539 489.186 360.683 489.311 360.857 489.375C361.035 489.436 361.223 489.466 361.42 489.466C361.567 489.466 361.689 489.459 361.783 489.443C361.878 489.425 361.954 489.409 362.011 489.398L362.283 490.603C362.192 490.637 362.066 490.671 361.903 490.705C361.74 490.743 361.533 490.762 361.283 490.762C360.905 490.762 360.533 490.68 360.17 490.517C359.81 490.354 359.511 490.106 359.272 489.773C359.037 489.44 358.92 489.019 358.92 488.512V479.83ZM364.141 490.648V481.921H365.482V490.648H364.141ZM364.823 480.466C364.562 480.466 364.336 480.377 364.147 480.199C363.961 480.021 363.869 479.807 363.869 479.557C363.869 479.307 363.961 479.093 364.147 478.915C364.336 478.737 364.562 478.648 364.823 478.648C365.085 478.648 365.308 478.737 365.494 478.915C365.683 479.093 365.778 479.307 365.778 479.557C365.778 479.807 365.683 480.021 365.494 480.199C365.308 480.377 365.085 480.466 364.823 480.466ZM371.734 481.921V483.057H367.211V481.921H371.734ZM368.529 479.83H369.87V488.148C369.87 488.527 369.925 488.811 370.035 489C370.148 489.186 370.292 489.311 370.467 489.375C370.645 489.436 370.832 489.466 371.029 489.466C371.177 489.466 371.298 489.459 371.393 489.443C371.487 489.425 371.563 489.409 371.62 489.398L371.893 490.603C371.802 490.637 371.675 490.671 371.512 490.705C371.349 490.743 371.143 490.762 370.893 490.762C370.514 490.762 370.143 490.68 369.779 490.517C369.419 490.354 369.12 490.106 368.881 489.773C368.647 489.44 368.529 489.019 368.529 488.512V479.83ZM374.614 493.921C374.387 493.921 374.184 493.902 374.006 493.864C373.828 493.83 373.705 493.796 373.637 493.762L373.978 492.58C374.304 492.663 374.592 492.693 374.842 492.671C375.092 492.648 375.313 492.536 375.506 492.336C375.703 492.139 375.883 491.818 376.046 491.375L376.296 490.693L373.069 481.921H374.523L376.933 488.875H377.023L379.433 481.921H380.887L377.183 491.921C377.016 492.371 376.809 492.745 376.563 493.04C376.317 493.339 376.031 493.561 375.705 493.705C375.383 493.849 375.02 493.921 374.614 493.921Z" fill="black"/>
<rect x="120" y="526.648" width="162" height="51" rx="8" fill="#606060"/>
<path d="M186.421 548.921C186.353 548.345 186.076 547.898 185.592 547.58C185.107 547.262 184.512 547.103 183.808 547.103C183.292 547.103 182.842 547.186 182.455 547.353C182.073 547.519 181.773 547.748 181.558 548.04C181.345 548.332 181.239 548.663 181.239 549.034C181.239 549.345 181.313 549.612 181.461 549.836C181.612 550.055 181.806 550.239 182.04 550.387C182.275 550.531 182.522 550.65 182.779 550.745C183.037 550.836 183.273 550.909 183.489 550.966L184.671 551.284C184.974 551.364 185.311 551.474 185.683 551.614C186.058 551.754 186.415 551.945 186.756 552.188C187.101 552.426 187.385 552.733 187.609 553.108C187.832 553.483 187.944 553.943 187.944 554.489C187.944 555.118 187.779 555.686 187.45 556.193C187.124 556.701 186.647 557.104 186.018 557.404C185.393 557.703 184.633 557.853 183.739 557.853C182.906 557.853 182.184 557.718 181.575 557.449C180.969 557.18 180.491 556.805 180.143 556.324C179.798 555.843 179.603 555.284 179.558 554.648H181.012C181.05 555.087 181.198 555.451 181.455 555.739C181.717 556.023 182.046 556.235 182.444 556.375C182.845 556.512 183.277 556.58 183.739 556.58C184.277 556.58 184.76 556.493 185.188 556.318C185.616 556.14 185.955 555.894 186.205 555.58C186.455 555.262 186.58 554.89 186.58 554.466C186.58 554.08 186.472 553.765 186.256 553.523C186.04 553.281 185.756 553.084 185.404 552.932C185.052 552.781 184.671 552.648 184.262 552.534L182.83 552.125C181.921 551.864 181.201 551.491 180.671 551.006C180.141 550.521 179.876 549.887 179.876 549.103C179.876 548.451 180.052 547.883 180.404 547.398C180.76 546.909 181.237 546.531 181.836 546.262C182.438 545.989 183.111 545.853 183.853 545.853C184.603 545.853 185.27 545.987 185.853 546.256C186.436 546.521 186.898 546.885 187.239 547.347C187.584 547.809 187.766 548.334 187.785 548.921H186.421ZM199.624 549.648H198.215C198.132 549.243 197.986 548.887 197.778 548.58C197.573 548.273 197.323 548.015 197.028 547.807C196.736 547.595 196.412 547.436 196.056 547.33C195.7 547.224 195.329 547.171 194.942 547.171C194.238 547.171 193.6 547.349 193.028 547.705C192.46 548.061 192.007 548.586 191.67 549.279C191.336 549.972 191.17 550.822 191.17 551.83C191.17 552.837 191.336 553.688 191.67 554.381C192.007 555.074 192.46 555.599 193.028 555.955C193.6 556.311 194.238 556.489 194.942 556.489C195.329 556.489 195.7 556.436 196.056 556.33C196.412 556.224 196.736 556.067 197.028 555.858C197.323 555.646 197.573 555.387 197.778 555.08C197.986 554.769 198.132 554.413 198.215 554.012H199.624C199.518 554.606 199.325 555.139 199.045 555.608C198.764 556.078 198.416 556.478 197.999 556.807C197.583 557.133 197.115 557.381 196.596 557.551C196.081 557.722 195.53 557.807 194.942 557.807C193.95 557.807 193.067 557.565 192.295 557.08C191.522 556.595 190.914 555.906 190.471 555.012C190.028 554.118 189.806 553.057 189.806 551.83C189.806 550.603 190.028 549.542 190.471 548.648C190.914 547.754 191.522 547.065 192.295 546.58C193.067 546.095 193.95 545.853 194.942 545.853C195.53 545.853 196.081 545.938 196.596 546.108C197.115 546.279 197.583 546.529 197.999 546.858C198.416 547.184 198.764 547.582 199.045 548.051C199.325 548.517 199.518 549.05 199.624 549.648ZM202.379 557.648H200.901L205.174 546.012H206.629L210.901 557.648H209.424L205.947 547.853H205.856L202.379 557.648ZM202.924 553.103H208.879V554.353H202.924V553.103ZM221.941 546.012V557.648H220.577L214.237 548.512H214.123V557.648H212.714V546.012H214.077L220.441 555.171H220.555V546.012H221.941Z" fill="white"/>
</g>
<defs>
<clipPath id="clip0_1178_4425">
<rect width="402" height="874" rx="16" fill="white"/>
</clipPath>
</defs>
</svg>
