<svg width="174" height="83" viewBox="0 0 174 83" fill="none" xmlns="http://www.w3.org/2000/svg">
<path d="M64.0195 25.2495C66.9345 25.2495 69.5419 25.9887 71.8262 27.4761C74.0972 28.9549 75.882 30.9252 77.1768 33.3774C78.473 35.8327 79.1182 38.5345 79.1182 41.4741C79.1181 43.6495 78.7478 45.7161 78.0049 47.6704C77.2632 49.6215 76.2157 51.3491 74.8613 52.8481C73.5061 54.3481 71.9107 55.536 70.0791 56.4106L70.0752 56.4126C68.2314 57.272 66.2103 57.6987 64.0195 57.6987C61.1224 57.6987 58.5249 56.9584 56.2412 55.4712C53.9702 53.9923 52.1854 52.0231 50.8906 49.5708C49.5943 47.1155 48.9492 44.4137 48.9492 41.4741C48.9492 39.2987 49.3196 37.2321 50.0625 35.2778C50.8042 33.3267 51.8516 31.5992 53.2061 30.1001C54.5617 28.5794 56.1582 27.3906 57.9922 26.5356C59.8354 25.6765 61.8467 25.2496 64.0195 25.2495Z" fill="white" stroke="#070707" stroke-width="0.932182"/>
<path d="M105.833 64.2C101.828 64.2 98.2571 63.1704 95.1213 61.1111C91.9855 59.0518 89.5217 56.3109 87.7298 52.8885C85.9379 49.466 85.042 45.6955 85.042 41.5769C85.042 38.5315 85.5558 35.6456 86.5835 32.9193C87.6112 30.1929 89.0605 27.7856 90.9315 25.6973C92.8024 23.58 95.0027 21.9268 97.5325 20.7376C100.062 19.5484 102.829 18.9539 105.833 18.9539C109.865 18.9539 113.449 19.9835 116.584 22.0428C119.72 24.1021 122.184 26.8429 123.976 30.2654C125.768 33.6879 126.664 37.4584 126.664 41.5769C126.664 44.6223 126.15 47.5082 125.122 50.2346C124.094 52.961 122.645 55.3683 120.774 57.4566C118.903 59.5449 116.703 61.1981 114.173 62.4163C111.644 63.6054 108.863 64.2 105.833 64.2ZM105.833 56.978C108.442 56.978 110.748 56.3544 112.75 55.1073C114.779 53.8311 116.374 52.0474 117.533 49.756C118.692 47.4357 119.272 44.7094 119.272 41.5769C119.272 38.4155 118.692 35.6891 117.533 33.3978C116.4 31.0775 114.819 29.2938 112.79 28.0466C110.761 26.7994 108.442 26.1758 105.833 26.1758C103.224 26.1758 100.905 26.7994 98.8764 28.0466C96.8737 29.2938 95.2926 31.0775 94.1332 33.3978C93.0001 35.6891 92.4335 38.4155 92.4335 41.5769C92.4335 44.7094 93.0001 47.4357 94.1332 49.756C95.2926 52.0474 96.8869 53.8311 98.9159 55.1073C100.945 56.3544 103.251 56.978 105.833 56.978Z" fill="white"/>
<path d="M20.7912 64.3509C16.7858 64.3509 13.2152 63.3213 10.0794 61.262C6.9436 59.2027 4.47976 56.4618 2.68788 53.0394C0.896001 49.6169 6.10352e-05 45.8464 6.10352e-05 41.7278C6.10352e-05 38.6824 0.513909 35.7965 1.54161 33.0701C2.5693 30.3438 4.01861 27.9364 5.88955 25.8482C7.76049 23.7309 9.96081 22.0776 12.4905 20.8885C15.0202 19.6993 17.7871 19.1047 20.7912 19.1047C24.8229 19.1047 28.4067 20.1344 31.5424 22.1937C34.6782 24.2529 37.1421 26.9938 38.934 30.4163C40.7258 33.8387 41.6218 37.6093 41.6218 41.7278C41.6218 44.7732 41.1079 47.6591 40.0802 50.3855C39.0525 53.1119 37.6032 55.5192 35.7323 57.6075C33.8614 59.6958 31.661 61.349 29.1313 62.5671C26.6016 63.7563 23.8215 64.3509 20.7912 64.3509ZM20.7912 57.1289C23.3999 57.1289 25.7057 56.5053 27.7084 55.2582C29.7374 53.982 31.3316 52.1982 32.4911 49.9069C33.6505 47.5866 34.2303 44.8602 34.2303 41.7278C34.2303 38.5664 33.6505 35.84 32.4911 33.5487C31.358 31.2284 29.7769 29.4446 27.7479 28.1975C25.7188 26.9503 23.3999 26.3267 20.7912 26.3267C18.1824 26.3267 15.8635 26.9503 13.8344 28.1975C11.8317 29.4446 10.2507 31.2284 9.09122 33.5487C7.95812 35.84 7.39157 38.5664 7.39157 41.7278C7.39157 44.8602 7.95812 47.5866 9.09122 49.9069C10.2507 52.1982 11.8449 53.982 13.874 55.2582C15.903 56.5053 18.2087 57.1289 20.7912 57.1289Z" fill="white"/>
<path d="M7.23419 26.0479C8.68062 24.1844 10.3797 22.6072 12.3328 21.3174C14.9943 19.5772 18.1828 18.707 21.8983 18.707C25.7719 18.707 29.1715 19.7227 32.0965 21.7529C35.0476 23.7831 37.3397 26.5094 38.9734 29.9316C40.6336 33.3541 41.4637 37.1536 41.4637 41.3301C41.4637 44.5205 40.9895 47.4936 40.0408 50.249C39.0922 52.9753 37.7487 55.3685 36.0096 57.4277C34.2968 59.487 32.2542 61.0967 29.8826 62.2568C27.5111 63.3879 24.8759 63.9531 21.9774 63.9531C19.3687 63.9531 17.0102 63.5185 14.9022 62.6484C14.607 62.5307 14.3174 62.4053 14.033 62.2744C7.0381 57.6931 0.221941 48.7494 0.00567627 41.3877L0.000793457 41.0293V0H7.23419V26.0479ZM20.6727 25.9287C18.0641 25.9288 15.7455 26.5528 13.7166 27.7998C11.7139 29.047 10.1329 30.8311 8.97345 33.1514C7.81403 35.4426 7.23421 38.1687 7.23419 41.3301C7.23419 44.4625 7.814 47.1894 8.97345 49.5098C10.1329 51.8008 11.7141 53.5843 13.7166 54.8604C15.7455 56.1074 18.0641 56.7314 20.6727 56.7314C23.2813 56.7314 25.587 56.1074 27.5897 54.8604C29.6186 53.5842 31.2007 51.801 32.3338 49.5098C33.4933 47.1894 34.0721 44.4625 34.0721 41.3301C34.0721 38.1689 33.4931 35.4426 32.3338 33.1514C31.2007 30.8311 29.6187 29.047 27.5897 27.7998C25.5871 26.5528 23.2813 25.9287 20.6727 25.9287Z" fill="white"/>
<path d="M152.715 18.6496C148.71 18.6496 145.139 19.6792 142.004 21.7385C138.868 23.7978 136.404 26.5387 134.612 29.9611C132.82 33.3836 131.924 37.1541 131.924 41.2727C131.924 44.3181 132.438 47.204 133.466 49.9304C134.494 52.6567 135.943 55.0641 137.814 57.1523C139.685 59.2696 141.885 60.9228 144.415 62.112C146.945 63.3012 149.711 63.8958 152.715 63.8958C156.747 63.8958 160.331 62.8661 163.467 60.8068C166.602 58.7476 169.066 56.0067 170.858 52.5842C172.65 49.1617 173.546 45.3912 173.546 41.2727C173.546 38.2273 173.032 35.3414 172.004 32.615C170.977 29.8886 169.527 27.4813 167.657 25.393C165.786 23.3047 163.585 21.6515 161.056 20.4333C158.526 19.2442 155.746 18.6496 152.715 18.6496ZM152.715 25.8716C155.324 25.8716 157.63 26.4952 159.633 27.7423C161.662 29.0185 163.256 30.8023 164.415 33.0936C165.575 35.4139 166.155 38.1403 166.155 41.2727C166.155 44.4341 165.575 47.1605 164.415 49.4518C163.282 51.7721 161.701 53.5558 159.672 54.803C157.643 56.0502 155.324 56.6738 152.715 56.6738C150.107 56.6738 147.788 56.0502 145.759 54.803C143.756 53.5558 142.175 51.7721 141.015 49.4518C139.882 47.1605 139.316 44.4341 139.316 41.2727C139.316 38.1403 139.882 35.4139 141.015 33.0936C142.175 30.8023 143.769 29.0185 145.798 27.7423C147.827 26.4952 150.133 25.8716 152.715 25.8716Z" fill="white"/>
<path d="M139.158 56.9521C140.605 58.8155 142.304 60.3928 144.257 61.6826C146.918 63.4228 150.107 64.2929 153.822 64.293C157.696 64.293 161.095 63.2773 164.02 61.2471C166.972 59.2168 169.265 56.4907 170.898 53.0684C172.558 49.646 173.389 45.8463 173.389 41.6699C173.389 38.4795 172.913 35.5063 171.965 32.751C171.016 30.0246 169.673 27.6315 167.934 25.5723C166.221 23.513 164.178 21.9033 161.807 20.7432C159.435 19.6121 156.8 19.0469 153.901 19.0469C151.293 19.0469 148.934 19.4815 146.826 20.3516C146.53 20.4695 146.241 20.5955 145.956 20.7266C138.866 25.3704 131.961 34.4953 131.925 41.9121V83H139.158V56.9521ZM152.597 57.0703C149.988 57.0702 147.669 56.4472 145.641 55.2002C143.638 53.953 142.057 52.1689 140.897 49.8486C139.738 47.5574 139.158 44.8312 139.158 41.6699C139.158 38.5375 139.738 35.8106 140.897 33.4902C142.057 31.199 143.638 29.4148 145.641 28.1387C147.669 26.8917 149.988 26.2686 152.597 26.2686C155.205 26.2686 157.512 26.8915 159.515 28.1387C161.544 29.4148 163.125 31.1989 164.258 33.4902C165.417 35.8106 165.997 38.5375 165.997 41.6699C165.997 44.8311 165.417 47.5574 164.258 49.8486C163.125 52.1689 161.544 53.953 159.515 55.2002C157.512 56.4474 155.205 57.0703 152.597 57.0703Z" fill="white"/>
</svg>
