<svg width="461" height="206" viewBox="0 0 461 206" fill="none" xmlns="http://www.w3.org/2000/svg">
<circle cx="166.736" cy="104.919" r="39.2825" fill="white"/>
<mask id="path-2-outside-1_14024_1189" maskUnits="userSpaceOnUse" x="-0.914917" y="-0.914917" width="462" height="207" fill="black">
<rect fill="white" x="-0.914917" y="-0.914917" width="462" height="207"/>
<path d="M403.53 47.172C411.162 47.172 418.209 48.4343 424.671 50.9581C425.875 51.3697 427.056 51.8265 428.214 52.3282C434.653 55.1899 440.198 59.1609 444.848 64.2404C447.513 67.1076 449.837 70.2367 451.818 73.6281C453.377 76.1554 454.738 78.819 455.9 81.6193C458.69 88.3442 460.085 95.4628 460.085 102.975C460.085 108.34 459.406 113.465 458.049 118.352C456.923 123.166 455.206 127.737 452.897 132.063C448.461 140.504 442.236 147.23 434.224 152.237C426.283 157.245 417.054 159.749 406.537 159.749C399.749 159.749 393.609 158.775 388.116 156.831C385.67 156.178 383.297 155.361 380.995 154.378C375.708 152.12 370.951 149.182 366.724 145.568V205.895H347.085V105.166C347.085 105.014 347.088 104.858 347.088 104.698C347.088 104.524 347.092 104.349 347.096 104.174C347.088 103.775 347.084 103.376 347.084 102.975C347.084 92.8158 349.516 83.5153 354.381 75.0734C359.246 66.6314 365.935 59.8706 374.448 54.7911C382.962 49.7117 392.656 47.1721 403.53 47.172ZM278.525 48.1359C289.493 48.1359 299.243 50.6698 307.775 55.7374C316.306 60.8051 323.009 67.5506 327.884 75.9728C332.759 84.3949 335.196 93.6737 335.196 103.809C335.196 111.303 333.798 118.405 331.002 125.114C328.206 131.824 324.263 137.748 319.173 142.887C314.083 148.026 308.097 152.094 301.215 155.092C294.333 158.018 286.769 159.482 278.525 159.482C267.628 159.482 257.913 156.948 249.382 151.88C240.851 146.812 234.148 140.067 229.274 131.645C224.399 123.222 221.961 113.944 221.961 103.809C221.961 96.3143 223.358 89.2123 226.154 82.5031C228.95 75.7938 232.893 69.8696 237.984 64.7306C243.074 59.5202 249.06 55.4519 255.943 52.5255C262.825 49.5992 270.352 48.1359 278.525 48.1359ZM19.7316 60.3878C23.9571 56.7757 28.7119 53.841 33.9962 51.5841C36.3686 50.5709 38.8179 49.7327 41.3439 49.0695C46.7803 47.1769 52.8473 46.2296 59.545 46.2296C70.0616 46.2297 79.2904 48.7344 87.2316 53.7423C95.2443 58.7503 101.469 65.4751 105.904 73.9171C108.216 78.2468 109.933 82.8217 111.059 87.6407C112.41 92.5179 113.087 97.6333 113.087 102.987C113.087 110.499 111.692 117.618 108.901 124.343C107.819 126.952 106.563 129.441 105.136 131.813C103.088 135.412 100.661 138.721 97.8556 141.739C93.2054 146.819 87.6605 150.79 81.2218 153.651C79.9451 154.205 78.6397 154.701 77.3068 155.145C70.9447 157.574 64.0203 158.791 56.5323 158.791C45.658 158.791 35.9638 156.251 27.4503 151.172C18.9367 146.092 12.2478 139.331 7.38293 130.889C2.51808 122.447 0.085083 113.146 0.085083 102.987C0.085084 102.581 0.0895967 102.175 0.0977783 101.771C0.0965002 101.695 0.0935478 101.62 0.0928955 101.545V0.085083H19.7316V60.3878ZM278.525 65.9083C271.427 65.9083 265.119 67.4429 259.599 70.5118C254.15 73.5809 249.849 77.9709 246.694 83.6808C243.612 89.3194 242.07 96.0288 242.07 103.809C242.07 111.517 243.612 118.227 246.694 123.937C249.849 129.575 254.186 133.965 259.706 137.106C265.226 140.175 271.499 141.709 278.525 141.709C285.622 141.709 291.895 140.175 297.343 137.106C302.863 133.965 307.201 129.575 310.356 123.937C313.51 118.227 315.087 111.517 315.087 103.809C315.087 96.0289 313.51 89.3194 310.356 83.6808C307.273 77.9708 302.971 73.581 297.451 70.5118C291.931 67.4427 285.622 65.9083 278.525 65.9083ZM403.21 65.9572C396.128 65.9572 389.832 67.4953 384.323 70.5714C378.886 73.7193 374.593 78.1199 371.445 83.7716C370.758 85.0215 370.145 86.3188 369.608 87.6642C367.97 92.2347 367.151 97.3381 367.151 102.975C367.151 110.773 368.69 117.498 371.766 123.15C374.914 128.873 379.206 133.273 384.644 136.35C390.152 139.426 396.448 140.964 403.53 140.964C410.613 140.964 416.909 139.426 422.418 136.35C427.927 133.273 432.22 128.873 435.296 123.15C435.724 122.38 436.122 121.59 436.492 120.781C438.557 115.874 439.59 110.262 439.59 103.946C439.59 96.22 438.016 89.4949 434.868 83.7716C431.792 78.1198 427.499 73.7193 421.99 70.5714C416.553 67.4952 410.293 65.9572 403.21 65.9572ZM56.5323 64.9982C49.4496 64.9982 43.1534 66.5371 37.6447 69.6134C32.2077 72.6897 27.9155 77.0894 24.7677 82.8126C21.6914 88.4645 20.1525 95.1893 20.1525 102.987C20.1525 108.62 20.9708 113.72 22.6056 118.288C23.1455 119.643 23.7612 120.95 24.4532 122.208C27.601 127.86 31.8933 132.26 37.3302 135.407C42.8389 138.484 49.1352 140.023 56.2179 140.023C63.3005 140.023 69.561 138.484 74.9982 135.407C80.5066 132.26 84.7989 127.86 87.8751 122.208C91.0229 116.485 92.5977 109.76 92.5978 102.033C92.5978 95.6912 91.5551 90.0593 89.4728 85.1368C89.1083 84.3432 88.7177 83.5679 88.297 82.8126C85.2207 77.0892 80.9278 72.6897 75.4191 69.6134C69.9103 66.5371 63.615 64.9982 56.5323 64.9982Z"/>
</mask>
<path d="M403.53 47.172C411.162 47.172 418.209 48.4343 424.671 50.9581C425.875 51.3697 427.056 51.8265 428.214 52.3282C434.653 55.1899 440.198 59.1609 444.848 64.2404C447.513 67.1076 449.837 70.2367 451.818 73.6281C453.377 76.1554 454.738 78.819 455.9 81.6193C458.69 88.3442 460.085 95.4628 460.085 102.975C460.085 108.34 459.406 113.465 458.049 118.352C456.923 123.166 455.206 127.737 452.897 132.063C448.461 140.504 442.236 147.23 434.224 152.237C426.283 157.245 417.054 159.749 406.537 159.749C399.749 159.749 393.609 158.775 388.116 156.831C385.67 156.178 383.297 155.361 380.995 154.378C375.708 152.12 370.951 149.182 366.724 145.568V205.895H347.085V105.166C347.085 105.014 347.088 104.858 347.088 104.698C347.088 104.524 347.092 104.349 347.096 104.174C347.088 103.775 347.084 103.376 347.084 102.975C347.084 92.8158 349.516 83.5153 354.381 75.0734C359.246 66.6314 365.935 59.8706 374.448 54.7911C382.962 49.7117 392.656 47.1721 403.53 47.172ZM278.525 48.1359C289.493 48.1359 299.243 50.6698 307.775 55.7374C316.306 60.8051 323.009 67.5506 327.884 75.9728C332.759 84.3949 335.196 93.6737 335.196 103.809C335.196 111.303 333.798 118.405 331.002 125.114C328.206 131.824 324.263 137.748 319.173 142.887C314.083 148.026 308.097 152.094 301.215 155.092C294.333 158.018 286.769 159.482 278.525 159.482C267.628 159.482 257.913 156.948 249.382 151.88C240.851 146.812 234.148 140.067 229.274 131.645C224.399 123.222 221.961 113.944 221.961 103.809C221.961 96.3143 223.358 89.2123 226.154 82.5031C228.95 75.7938 232.893 69.8696 237.984 64.7306C243.074 59.5202 249.06 55.4519 255.943 52.5255C262.825 49.5992 270.352 48.1359 278.525 48.1359ZM19.7316 60.3878C23.9571 56.7757 28.7119 53.841 33.9962 51.5841C36.3686 50.5709 38.8179 49.7327 41.3439 49.0695C46.7803 47.1769 52.8473 46.2296 59.545 46.2296C70.0616 46.2297 79.2904 48.7344 87.2316 53.7423C95.2443 58.7503 101.469 65.4751 105.904 73.9171C108.216 78.2468 109.933 82.8217 111.059 87.6407C112.41 92.5179 113.087 97.6333 113.087 102.987C113.087 110.499 111.692 117.618 108.901 124.343C107.819 126.952 106.563 129.441 105.136 131.813C103.088 135.412 100.661 138.721 97.8556 141.739C93.2054 146.819 87.6605 150.79 81.2218 153.651C79.9451 154.205 78.6397 154.701 77.3068 155.145C70.9447 157.574 64.0203 158.791 56.5323 158.791C45.658 158.791 35.9638 156.251 27.4503 151.172C18.9367 146.092 12.2478 139.331 7.38293 130.889C2.51808 122.447 0.085083 113.146 0.085083 102.987C0.085084 102.581 0.0895967 102.175 0.0977783 101.771C0.0965002 101.695 0.0935478 101.62 0.0928955 101.545V0.085083H19.7316V60.3878ZM278.525 65.9083C271.427 65.9083 265.119 67.4429 259.599 70.5118C254.15 73.5809 249.849 77.9709 246.694 83.6808C243.612 89.3194 242.07 96.0288 242.07 103.809C242.07 111.517 243.612 118.227 246.694 123.937C249.849 129.575 254.186 133.965 259.706 137.106C265.226 140.175 271.499 141.709 278.525 141.709C285.622 141.709 291.895 140.175 297.343 137.106C302.863 133.965 307.201 129.575 310.356 123.937C313.51 118.227 315.087 111.517 315.087 103.809C315.087 96.0289 313.51 89.3194 310.356 83.6808C307.273 77.9708 302.971 73.581 297.451 70.5118C291.931 67.4427 285.622 65.9083 278.525 65.9083ZM403.21 65.9572C396.128 65.9572 389.832 67.4953 384.323 70.5714C378.886 73.7193 374.593 78.1199 371.445 83.7716C370.758 85.0215 370.145 86.3188 369.608 87.6642C367.97 92.2347 367.151 97.3381 367.151 102.975C367.151 110.773 368.69 117.498 371.766 123.15C374.914 128.873 379.206 133.273 384.644 136.35C390.152 139.426 396.448 140.964 403.53 140.964C410.613 140.964 416.909 139.426 422.418 136.35C427.927 133.273 432.22 128.873 435.296 123.15C435.724 122.38 436.122 121.59 436.492 120.781C438.557 115.874 439.59 110.262 439.59 103.946C439.59 96.22 438.016 89.4949 434.868 83.7716C431.792 78.1198 427.499 73.7193 421.99 70.5714C416.553 67.4952 410.293 65.9572 403.21 65.9572ZM56.5323 64.9982C49.4496 64.9982 43.1534 66.5371 37.6447 69.6134C32.2077 72.6897 27.9155 77.0894 24.7677 82.8126C21.6914 88.4645 20.1525 95.1893 20.1525 102.987C20.1525 108.62 20.9708 113.72 22.6056 118.288C23.1455 119.643 23.7612 120.95 24.4532 122.208C27.601 127.86 31.8933 132.26 37.3302 135.407C42.8389 138.484 49.1352 140.023 56.2179 140.023C63.3005 140.023 69.561 138.484 74.9982 135.407C80.5066 132.26 84.7989 127.86 87.8751 122.208C91.0229 116.485 92.5977 109.76 92.5978 102.033C92.5978 95.6912 91.5551 90.0593 89.4728 85.1368C89.1083 84.3432 88.7177 83.5679 88.297 82.8126C85.2207 77.0892 80.9278 72.6897 75.4191 69.6134C69.9103 66.5371 63.615 64.9982 56.5323 64.9982Z" fill="white"/>
<path d="M403.53 47.172V47.0869V47.0869V47.172ZM424.671 50.9581L424.64 51.0375L424.643 51.0386L424.671 50.9581ZM428.214 52.3282L428.249 52.2505L428.248 52.2502L428.214 52.3282ZM444.848 64.2404L444.785 64.2978L444.785 64.2983L444.848 64.2404ZM451.818 73.6281L451.745 73.671L451.746 73.6727L451.818 73.6281ZM455.9 81.6193L455.978 81.5867V81.5867L455.9 81.6193ZM460.085 102.975H460.17V102.975H460.085ZM458.049 118.352L457.967 118.329L457.966 118.332L458.049 118.352ZM452.897 132.063L452.822 132.023L452.821 132.023L452.897 132.063ZM434.224 152.237L434.179 152.165L434.178 152.165L434.224 152.237ZM406.537 159.749V159.834V159.834V159.749ZM388.116 156.831L388.145 156.751L388.138 156.749L388.116 156.831ZM380.995 154.378L380.962 154.456V154.456L380.995 154.378ZM366.724 145.568L366.779 145.503L366.639 145.383V145.568H366.724ZM366.724 205.895V205.98H366.809V205.895H366.724ZM347.085 205.895H347V205.98H347.085V205.895ZM347.085 105.166L347 105.166V105.166H347.085ZM347.088 104.698L347.173 104.698V104.698L347.088 104.698ZM347.096 104.174L347.181 104.176L347.181 104.172L347.096 104.174ZM347.084 102.975H346.999V102.975H347.084ZM354.381 75.0734L354.307 75.0309V75.0309L354.381 75.0734ZM374.448 54.7911L374.405 54.7181V54.7181L374.448 54.7911ZM278.525 48.1359V48.0508V48.0508V48.1359ZM307.775 55.7374L307.818 55.6643V55.6643L307.775 55.7374ZM327.884 75.9728L327.958 75.9302V75.9302L327.884 75.9728ZM335.196 103.809H335.281V103.809H335.196ZM331.002 125.114L331.081 125.147V125.147L331.002 125.114ZM319.173 142.887L319.233 142.947V142.947L319.173 142.887ZM301.215 155.092L301.248 155.17L301.249 155.17L301.215 155.092ZM278.525 159.482V159.567V159.567V159.482ZM249.382 151.88L249.339 151.953V151.953L249.382 151.88ZM229.274 131.645L229.2 131.687V131.687L229.274 131.645ZM221.961 103.809H221.876V103.809H221.961ZM226.154 82.5031L226.076 82.4703V82.4703L226.154 82.5031ZM237.984 64.7306L238.044 64.7905L238.044 64.79L237.984 64.7306ZM255.943 52.5255L255.909 52.4472V52.4472L255.943 52.5255ZM19.7316 60.3878H19.6465V60.5725L19.7868 60.4525L19.7316 60.3878ZM33.9962 51.5841L33.9628 51.5059V51.5059L33.9962 51.5841ZM41.3439 49.0695L41.3655 49.152L41.3718 49.1498L41.3439 49.0695ZM59.545 46.2296V46.1445V46.1445V46.2296ZM87.2316 53.7423L87.1862 53.8143L87.1865 53.8145L87.2316 53.7423ZM105.904 73.9171L105.829 73.9567L105.829 73.9572L105.904 73.9171ZM111.059 87.6407L110.976 87.6601L110.977 87.6635L111.059 87.6407ZM113.087 102.987H113.172V102.987H113.087ZM108.901 124.343L108.98 124.375V124.375L108.901 124.343ZM105.136 131.813L105.063 131.769L105.062 131.771L105.136 131.813ZM97.8556 141.739L97.7933 141.681L97.7928 141.682L97.8556 141.739ZM81.2218 153.651L81.2556 153.73L81.2564 153.729L81.2218 153.651ZM77.3068 155.145L77.2799 155.064L77.2764 155.065L77.3068 155.145ZM56.5323 158.791V158.876V158.876V158.791ZM27.4503 151.172L27.4067 151.245H27.4067L27.4503 151.172ZM7.38293 130.889L7.30922 130.931V130.931L7.38293 130.889ZM0.085083 102.987H4.18723e-06V102.987H0.085083ZM0.0977783 101.771L0.182899 101.772L0.182845 101.769L0.0977783 101.771ZM0.0928955 101.545H0.00781348L0.00781989 101.546L0.0928955 101.545ZM0.0928955 0.085083V4.18723e-06H0.00781669V0.085083H0.0928955ZM19.7316 0.085083H19.8166V4.18723e-06H19.7316V0.085083ZM278.525 65.9083V65.8232V65.8232V65.9083ZM259.599 70.5118L259.557 70.4375L259.557 70.4377L259.599 70.5118ZM246.694 83.6808L246.62 83.6396L246.62 83.64L246.694 83.6808ZM242.07 103.809H241.985V103.809H242.07ZM246.694 123.937L246.62 123.977L246.62 123.978L246.694 123.937ZM259.706 137.106L259.664 137.18L259.665 137.18L259.706 137.106ZM278.525 141.709V141.794V141.794V141.709ZM297.343 137.106L297.385 137.18L297.385 137.18L297.343 137.106ZM310.356 123.937L310.43 123.978L310.43 123.978L310.356 123.937ZM315.087 103.809H315.172V103.809H315.087ZM310.356 83.6808L310.281 83.7212L310.281 83.7223L310.356 83.6808ZM297.451 70.5118L297.493 70.4375V70.4375L297.451 70.5118ZM403.21 65.9572V65.8721V65.8721V65.9572ZM384.323 70.5714L384.282 70.4971L384.281 70.4978L384.323 70.5714ZM371.445 83.7716L371.371 83.7302L371.371 83.7306L371.445 83.7716ZM369.608 87.6642L369.528 87.6326L369.527 87.6355L369.608 87.6642ZM367.151 102.975H367.066V102.975H367.151ZM371.766 123.15L371.691 123.19L371.691 123.191L371.766 123.15ZM384.644 136.35L384.602 136.424L384.602 136.424L384.644 136.35ZM403.53 140.964V141.049V141.049V140.964ZM422.418 136.35L422.46 136.424V136.424L422.418 136.35ZM435.296 123.15L435.222 123.108L435.221 123.109L435.296 123.15ZM436.492 120.781L436.57 120.817L436.571 120.814L436.492 120.781ZM439.59 103.946H439.675V103.946H439.59ZM434.868 83.7716L434.794 83.8123L434.794 83.8126L434.868 83.7716ZM421.99 70.5714L422.033 70.4975L422.032 70.4974L421.99 70.5714ZM56.5323 64.9982V64.9131V64.9131V64.9982ZM37.6447 69.6134L37.6032 69.5391L37.6028 69.5394L37.6447 69.6134ZM24.7677 82.8126L24.6932 82.7716L24.693 82.7719L24.7677 82.8126ZM20.1525 102.987H20.0674V102.987H20.1525ZM22.6056 118.288L22.5254 118.317L22.5266 118.32L22.6056 118.288ZM24.4532 122.208L24.3787 122.249L24.3789 122.25L24.4532 122.208ZM37.3302 135.407L37.2876 135.481L37.2887 135.482L37.3302 135.407ZM56.2179 140.023V140.108V140.108V140.023ZM74.9982 135.407L75.0401 135.481L75.0404 135.481L74.9982 135.407ZM87.8751 122.208L87.8006 122.167L87.8004 122.167L87.8751 122.208ZM92.5978 102.033H92.6829V102.033H92.5978ZM89.4728 85.1368L89.5512 85.1037L89.5501 85.1013L89.4728 85.1368ZM88.297 82.8126L88.222 82.8529L88.2227 82.854L88.297 82.8126ZM75.4191 69.6134L75.4605 69.5391V69.5391L75.4191 69.6134ZM403.53 47.172V47.2571C411.152 47.2571 418.189 48.5178 424.64 51.0374L424.671 50.9581L424.702 50.8789C418.229 48.3508 411.172 47.0869 403.53 47.0869V47.172ZM424.671 50.9581L424.643 51.0386C425.846 51.4494 427.024 51.9055 428.18 52.4063L428.214 52.3282L428.248 52.2502C427.088 51.7475 425.905 51.2899 424.699 50.8776L424.671 50.9581ZM428.214 52.3282L428.179 52.406C434.608 55.263 440.143 59.2272 444.785 64.2978L444.848 64.2404L444.911 64.1829C440.252 59.0946 434.698 55.1168 428.249 52.2505L428.214 52.3282ZM444.848 64.2404L444.785 64.2983C447.447 67.1609 449.767 70.285 451.745 73.671L451.818 73.6281L451.892 73.5851C449.907 70.1884 447.58 67.0542 444.91 64.1824L444.848 64.2404ZM451.818 73.6281L451.746 73.6727C453.302 76.1961 454.661 78.8557 455.821 81.6519L455.9 81.6193L455.978 81.5867C454.815 78.7823 453.452 76.1147 451.891 73.5834L451.818 73.6281ZM455.9 81.6193L455.821 81.6519C458.607 88.3662 460 95.4736 460 102.975H460.085H460.17C460.17 95.452 458.773 88.3223 455.978 81.5867L455.9 81.6193ZM460.085 102.975H460C460 108.333 459.322 113.45 457.967 118.329L458.049 118.352L458.131 118.374C459.49 113.48 460.17 108.347 460.17 102.975H460.085ZM458.049 118.352L457.966 118.332C456.842 123.14 455.128 127.703 452.822 132.023L452.897 132.063L452.972 132.103C455.285 127.77 457.004 123.193 458.132 118.371L458.049 118.352ZM452.897 132.063L452.821 132.023C448.393 140.452 442.178 147.165 434.179 152.165L434.224 152.237L434.269 152.31C442.294 147.294 448.529 140.557 452.972 132.102L452.897 132.063ZM434.224 152.237L434.178 152.165C426.252 157.164 417.04 159.664 406.537 159.664V159.749V159.834C417.068 159.834 426.313 157.327 434.269 152.309L434.224 152.237ZM406.537 159.749V159.664C399.757 159.664 393.627 158.691 388.145 156.751L388.116 156.831L388.088 156.911C393.591 158.859 399.741 159.834 406.537 159.834V159.749ZM388.116 156.831L388.138 156.749C385.696 156.096 383.326 155.281 381.029 154.3L380.995 154.378L380.962 154.456C383.267 155.441 385.645 156.259 388.094 156.913L388.116 156.831ZM380.995 154.378L381.029 154.3C375.749 152.045 371 149.112 366.779 145.503L366.724 145.568L366.668 145.632C370.903 149.253 375.667 152.195 380.962 154.456L380.995 154.378ZM366.724 145.568H366.639V205.895H366.724H366.809V145.568H366.724ZM366.724 205.895V205.81H347.085V205.895V205.98H366.724V205.895ZM347.085 205.895H347.17V105.166H347.085H347V205.895H347.085ZM347.085 105.166L347.17 105.166C347.171 105.018 347.173 104.857 347.173 104.698L347.088 104.698L347.003 104.698C347.003 104.86 347 105.011 347 105.166L347.085 105.166ZM347.088 104.698L347.173 104.698C347.173 104.525 347.177 104.351 347.181 104.176L347.096 104.174L347.011 104.172C347.007 104.347 347.003 104.523 347.003 104.698L347.088 104.698ZM347.096 104.174L347.181 104.172C347.173 103.774 347.169 103.375 347.169 102.975H347.084H346.999C346.999 103.376 347.003 103.776 347.011 104.176L347.096 104.174ZM347.084 102.975H347.169C347.169 92.83 349.598 83.5443 354.455 75.1158L354.381 75.0734L354.307 75.0309C349.435 83.4863 346.999 92.8015 346.999 102.975H347.084ZM354.381 75.0734L354.455 75.1158C359.312 66.6868 365.991 59.9364 374.492 54.8642L374.448 54.7911L374.405 54.7181C365.879 59.8049 359.18 66.5761 354.307 75.0309L354.381 75.0734ZM374.448 54.7911L374.492 54.8642C382.991 49.7933 392.67 47.2571 403.53 47.2571V47.172V47.0869C392.642 47.087 382.933 49.63 374.405 54.7181L374.448 54.7911ZM278.525 48.1359V48.2209C289.48 48.2209 299.214 50.7516 307.731 55.8106L307.775 55.7374L307.818 55.6643C299.272 50.588 289.507 48.0508 278.525 48.0508V48.1359ZM307.775 55.7374L307.731 55.8106C316.25 60.8709 322.943 67.606 327.81 76.0154L327.884 75.9728L327.958 75.9302C323.075 67.4951 316.361 60.7392 307.818 55.6643L307.775 55.7374ZM327.884 75.9728L327.81 76.0154C332.677 84.424 335.111 93.688 335.111 103.809H335.196H335.281C335.281 93.6593 332.84 84.3658 327.958 75.9302L327.884 75.9728ZM335.196 103.809H335.111C335.111 111.292 333.715 118.383 330.924 125.082L331.002 125.114L331.081 125.147C333.881 118.427 335.281 111.314 335.281 103.809H335.196ZM331.002 125.114L330.924 125.082C328.132 131.781 324.195 137.696 319.113 142.827L319.173 142.887L319.233 142.947C324.331 137.8 328.28 131.866 331.081 125.147L331.002 125.114ZM319.173 142.887L319.113 142.827C314.03 147.958 308.054 152.02 301.181 155.014L301.215 155.092L301.249 155.17C308.141 152.168 314.136 148.094 319.233 142.947L319.173 142.887ZM301.215 155.092L301.182 155.014C294.311 157.935 286.759 159.396 278.525 159.396V159.482V159.567C286.779 159.567 294.354 158.102 301.248 155.17L301.215 155.092ZM278.525 159.482V159.396C267.641 159.396 257.942 156.866 249.425 151.807L249.382 151.88L249.339 151.953C257.884 157.029 267.614 159.567 278.525 159.567V159.482ZM249.382 151.88L249.425 151.807C240.907 146.747 234.215 140.011 229.347 131.602L229.274 131.645L229.2 131.687C234.082 140.122 240.795 146.878 249.339 151.953L249.382 151.88ZM229.274 131.645L229.347 131.602C224.48 123.193 222.046 113.93 222.046 103.809H221.961H221.876C221.876 113.958 224.317 123.252 229.2 131.687L229.274 131.645ZM221.961 103.809H222.046C222.046 96.3252 223.441 89.2343 226.233 82.5358L226.154 82.5031L226.076 82.4703C223.276 89.1903 221.876 96.3035 221.876 103.809H221.961ZM226.154 82.5031L226.233 82.5358C229.025 75.8366 232.962 69.9216 238.044 64.7905L237.984 64.7306L237.923 64.6707C232.825 69.8176 228.876 75.751 226.076 82.4703L226.154 82.5031ZM237.984 64.7306L238.044 64.79C243.126 59.5879 249.104 55.5259 255.976 52.6038L255.943 52.5255L255.909 52.4472C249.017 55.3779 243.021 59.4525 237.923 64.6711L237.984 64.7306ZM255.943 52.5255L255.976 52.6038C262.846 49.6824 270.362 48.221 278.525 48.2209V48.1359V48.0508C270.342 48.0508 262.803 49.5161 255.909 52.4472L255.943 52.5255ZM19.7316 60.3878L19.7868 60.4525C24.0056 56.8462 28.753 53.9159 34.0296 51.6623L33.9962 51.5841L33.9628 51.5059C28.6708 53.766 23.9086 56.7052 19.6763 60.3231L19.7316 60.3878ZM33.9962 51.5841L34.0296 51.6623C36.3981 50.6508 38.8434 49.8139 41.3655 49.1517L41.3439 49.0695L41.3223 48.9872C38.7923 49.6514 36.339 50.491 33.9628 51.5059L33.9962 51.5841ZM41.3439 49.0695L41.3718 49.1498C46.7979 47.2608 52.8553 46.3147 59.545 46.3147V46.2296V46.1445C52.8393 46.1445 46.7626 47.0929 41.3159 48.9891L41.3439 49.0695ZM59.545 46.2296V46.3147C70.0476 46.3148 79.2602 48.8159 87.1862 53.8143L87.2316 53.7423L87.2769 53.6703C79.3206 48.6529 70.0757 46.1446 59.545 46.1445V46.2296ZM87.2316 53.7423L87.1865 53.8145C95.1863 58.8144 101.4 65.5279 105.829 73.9567L105.904 73.9171L105.98 73.8775C101.537 65.4224 95.3023 58.6862 87.2767 53.6702L87.2316 53.7423ZM105.904 73.9171L105.829 73.9572C108.137 78.2803 109.851 82.8482 110.976 87.6601L111.059 87.6407L111.142 87.6214C110.014 82.7952 108.295 78.2134 105.979 73.877L105.904 73.9171ZM111.059 87.6407L110.977 87.6635C112.326 92.5329 113.002 97.6406 113.002 102.987H113.087H113.172C113.172 97.6261 112.494 92.503 111.141 87.618L111.059 87.6407ZM113.087 102.987H113.002C113.002 110.489 111.609 117.596 108.823 124.31L108.901 124.343L108.98 124.375C111.775 117.64 113.172 110.51 113.172 102.987H113.087ZM108.901 124.343L108.823 124.31C107.742 126.915 106.488 129.401 105.063 131.769L105.136 131.813L105.209 131.856C106.638 129.481 107.896 126.988 108.98 124.375L108.901 124.343ZM105.136 131.813L105.062 131.771C103.017 135.364 100.594 138.668 97.7933 141.681L97.8556 141.739L97.9179 141.797C100.728 138.774 103.159 135.46 105.21 131.855L105.136 131.813ZM97.8556 141.739L97.7928 141.682C93.1507 146.752 87.6155 150.717 81.1872 153.574L81.2218 153.651L81.2564 153.729C87.7055 150.863 93.26 146.885 97.9183 141.797L97.8556 141.739ZM81.2218 153.651L81.188 153.573C79.9137 154.126 78.6106 154.621 77.2799 155.064L77.3068 155.145L77.3336 155.225C78.6688 154.781 79.9766 154.284 81.2556 153.73L81.2218 153.651ZM77.3068 155.145L77.2764 155.065C70.925 157.491 64.011 158.706 56.5323 158.706V158.791V158.876C64.0297 158.876 70.9645 157.658 77.3371 155.224L77.3068 155.145ZM56.5323 158.791V158.706C45.6718 158.706 35.993 156.17 27.4939 151.099L27.4503 151.172L27.4067 151.245C35.9347 156.333 45.6442 158.876 56.5323 158.876V158.791ZM27.4503 151.172L27.4939 151.099C18.9926 146.027 12.3142 139.276 7.45665 130.846L7.38293 130.889L7.30922 130.931C12.1815 139.386 18.8809 146.158 27.4067 151.245L27.4503 151.172ZM7.38293 130.889L7.45665 130.846C2.59956 122.418 0.170162 113.132 0.170162 102.987H0.085083H4.18723e-06C4.18723e-06 113.161 2.4366 122.476 7.30922 130.931L7.38293 130.889ZM0.085083 102.987H0.170162C0.170163 102.581 0.174669 102.176 0.18284 101.772L0.0977783 101.771L0.0127169 101.769C0.00452486 102.174 5.1558e-06 102.58 4.18723e-06 102.987H0.085083ZM0.0977783 101.771L0.182845 101.769C0.181505 101.69 0.178629 101.62 0.177971 101.544L0.0928955 101.545L0.00781989 101.546C0.00846651 101.62 0.0114956 101.7 0.0127118 101.772L0.0977783 101.771ZM0.0928955 101.545H0.177974V0.085083H0.0928955H0.00781669V101.545H0.0928955ZM0.0928955 0.085083V0.170162H19.7316V0.085083V4.18723e-06H0.0928955V0.085083ZM19.7316 0.085083H19.6465V60.3878H19.7316H19.8166V0.085083H19.7316ZM278.525 65.9083V65.8232C271.415 65.8233 265.092 67.3607 259.557 70.4375L259.599 70.5118L259.64 70.5862C265.146 67.5251 271.44 65.9934 278.525 65.9934V65.9083ZM259.599 70.5118L259.557 70.4377C254.094 73.5149 249.782 77.9165 246.62 83.6396L246.694 83.6808L246.769 83.7219C249.916 78.0252 254.206 73.647 259.641 70.586L259.599 70.5118ZM246.694 83.6808L246.62 83.64C243.529 89.2935 241.985 96.0175 241.985 103.809H242.07H242.156C242.156 96.0401 243.695 89.3453 246.769 83.7216L246.694 83.6808ZM242.07 103.809H241.985C241.985 111.529 243.529 118.253 246.62 123.977L246.694 123.937L246.769 123.896C243.695 118.201 242.156 111.506 242.156 103.809H242.07ZM246.694 123.937L246.62 123.978C249.782 129.63 254.13 134.031 259.664 137.18L259.706 137.106L259.748 137.032C254.242 133.899 249.916 129.52 246.769 123.895L246.694 123.937ZM259.706 137.106L259.665 137.18C265.199 140.257 271.486 141.794 278.525 141.794V141.709V141.624C271.512 141.624 265.254 140.092 259.748 137.031L259.706 137.106ZM278.525 141.709V141.794C285.634 141.794 291.922 140.257 297.385 137.18L297.343 137.106L297.301 137.031C291.867 140.092 285.609 141.624 278.525 141.624V141.709ZM297.343 137.106L297.385 137.18C302.919 134.031 307.268 129.63 310.43 123.978L310.356 123.937L310.281 123.895C307.134 129.52 302.807 133.899 297.301 137.032L297.343 137.106ZM310.356 123.937L310.43 123.978C313.593 118.253 315.172 111.529 315.172 103.809H315.087H315.002C315.002 111.505 313.427 118.2 310.281 123.896L310.356 123.937ZM315.087 103.809H315.172C315.172 96.0173 313.593 89.2929 310.43 83.6393L310.356 83.6808L310.281 83.7223C313.427 89.3459 315.002 96.0405 315.002 103.809H315.087ZM310.356 83.6808L310.43 83.6404C307.34 77.9166 303.027 73.5147 297.493 70.4375L297.451 70.5118L297.41 70.5862C302.915 73.6472 307.206 78.0251 310.281 83.7212L310.356 83.6808ZM297.451 70.5118L297.493 70.4375C291.958 67.3605 285.635 65.8232 278.525 65.8232V65.9083V65.9934C285.609 65.9934 291.904 67.5249 297.41 70.5862L297.451 70.5118ZM403.21 65.9572V65.8721C396.115 65.8722 389.805 67.4131 384.282 70.4971L384.323 70.5714L384.365 70.6457C389.859 67.5775 396.14 66.0423 403.21 66.0422V65.9572ZM384.323 70.5714L384.281 70.4978C378.83 73.6536 374.526 78.0655 371.371 83.7302L371.445 83.7716L371.52 83.813C374.66 78.1742 378.943 73.785 384.366 70.645L384.323 70.5714ZM371.445 83.7716L371.371 83.7306C370.682 84.9835 370.067 86.284 369.529 87.6326L369.608 87.6642L369.687 87.6957C370.223 86.3536 370.834 85.0594 371.52 83.8126L371.445 83.7716ZM369.608 87.6642L369.527 87.6355C367.886 92.2166 367.066 97.3299 367.066 102.975H367.151H367.237C367.237 97.3464 368.054 92.2529 369.688 87.6929L369.608 87.6642ZM367.151 102.975H367.066C367.066 110.784 368.607 117.524 371.691 123.19L371.766 123.15L371.84 123.109C368.772 117.472 367.237 110.762 367.237 102.975H367.151ZM371.766 123.15L371.691 123.191C374.846 128.927 379.15 133.339 384.602 136.424L384.644 136.35L384.686 136.276C379.263 133.207 374.981 128.819 371.84 123.109L371.766 123.15ZM384.644 136.35L384.602 136.424C390.125 139.508 396.435 141.049 403.53 141.049V140.964V140.879C396.461 140.879 390.18 139.344 384.685 136.275L384.644 136.35ZM403.53 140.964V141.049C410.626 141.049 416.937 139.508 422.46 136.424L422.418 136.35L422.377 136.275C416.882 139.344 410.6 140.879 403.53 140.879V140.964ZM422.418 136.35L422.46 136.424C427.983 133.34 432.287 128.927 435.371 123.19L435.296 123.15L435.221 123.109C432.152 128.819 427.871 133.207 422.377 136.275L422.418 136.35ZM435.296 123.15L435.37 123.191C435.8 122.42 436.199 121.628 436.57 120.817L436.492 120.781L436.415 120.746C436.046 121.553 435.649 122.341 435.222 123.108L435.296 123.15ZM436.492 120.781L436.571 120.814C438.641 115.894 439.675 110.271 439.675 103.946H439.59H439.505C439.505 110.253 438.474 115.853 436.414 120.748L436.492 120.781ZM439.59 103.946H439.675C439.675 96.2083 438.099 89.4686 434.943 83.7306L434.868 83.7716L434.794 83.8126C437.933 89.5212 439.505 96.2317 439.505 103.946H439.59ZM434.868 83.7716L434.943 83.7309C431.859 78.0654 427.555 73.6534 422.033 70.4975L421.99 70.5714L421.948 70.6453C427.443 73.7852 431.725 78.1741 434.794 83.8123L434.868 83.7716ZM421.99 70.5714L422.032 70.4974C416.581 67.4129 410.305 65.8721 403.21 65.8721V65.9572V66.0422C410.28 66.0422 416.526 67.5774 421.948 70.6455L421.99 70.5714ZM56.5323 64.9982V64.9131C49.4369 64.9131 43.1261 66.4549 37.6032 69.5391L37.6447 69.6134L37.6861 69.6877C43.1807 66.6193 49.4623 65.0832 56.5323 65.0832V64.9982ZM37.6447 69.6134L37.6028 69.5394C32.1514 72.6238 27.8482 77.0353 24.6932 82.7716L24.7677 82.8126L24.8422 82.8536C27.9828 77.1436 32.2639 72.7556 37.6866 69.6875L37.6447 69.6134ZM24.7677 82.8126L24.693 82.7719C21.6086 88.4386 20.0674 95.1781 20.0674 102.987H20.1525H20.2375C20.2376 95.2006 21.7742 88.4903 24.8424 82.8533L24.7677 82.8126ZM20.1525 102.987H20.0674C20.0674 108.628 20.8869 113.738 22.5255 118.317L22.6056 118.288L22.6857 118.26C21.0547 113.702 20.2375 108.612 20.2375 102.987H20.1525ZM22.6056 118.288L22.5266 118.32C23.0677 119.678 23.685 120.988 24.3787 122.249L24.4532 122.208L24.5278 122.167C23.8375 120.912 23.2232 119.608 22.6846 118.257L22.6056 118.288ZM24.4532 122.208L24.3789 122.25C27.5339 127.914 31.837 132.325 37.2876 135.481L37.3302 135.407L37.3728 135.334C31.9496 132.194 27.6681 127.805 24.5276 122.167L24.4532 122.208ZM37.3302 135.407L37.2887 135.482C42.8116 138.566 49.1225 140.108 56.2179 140.108V140.023V139.938C49.1479 139.937 42.8663 138.401 37.3717 135.333L37.3302 135.407ZM56.2179 140.023V140.108C63.3132 140.108 69.5885 138.566 75.0401 135.481L74.9982 135.407L74.9563 135.333C69.5335 138.401 63.2878 139.938 56.2179 139.938V140.023ZM74.9982 135.407L75.0404 135.481C80.5628 132.325 84.8662 127.914 87.9498 122.249L87.8751 122.208L87.8004 122.167C84.7316 127.805 80.4505 132.194 74.956 135.333L74.9982 135.407ZM87.8751 122.208L87.9497 122.249C91.1056 116.511 92.6828 109.771 92.6829 102.033H92.5978H92.5127C92.5126 109.748 90.9403 116.458 87.8006 122.167L87.8751 122.208ZM92.5978 102.033H92.6829C92.6829 95.6819 91.6386 90.0384 89.5511 85.1037L89.4728 85.1368L89.3944 85.17C91.4716 90.0802 92.5127 95.7006 92.5127 102.033H92.5978ZM89.4728 85.1368L89.5501 85.1013C89.1848 84.3059 88.7931 83.5286 88.3713 82.7712L88.297 82.8126L88.2227 82.854C88.6422 83.6072 89.0319 84.3806 89.3955 85.1723L89.4728 85.1368ZM88.297 82.8126L88.3719 82.7723C85.2882 77.0351 80.9839 72.6236 75.4605 69.5391L75.4191 69.6134L75.3776 69.6877C80.8717 72.7559 85.1532 77.1434 88.2221 82.8529L88.297 82.8126ZM75.4191 69.6134L75.4605 69.5391C69.9377 66.4549 63.6277 64.9131 56.5323 64.9131V64.9982V65.0832C63.6023 65.0833 69.883 66.6193 75.3776 69.6877L75.4191 69.6134Z" fill="white" mask="url(#path-2-outside-1_14024_1189)"/>
</svg>
