<svg width="402" height="874" viewBox="0 0 402 874" fill="none" xmlns="http://www.w3.org/2000/svg">
<rect width="402" height="874" rx="16" fill="black"/>
<rect x="1" y="101" width="400" height="772" rx="16" fill="white"/>
<path d="M376.415 126.648L375.352 125.585L379.125 121.812L375.352 118.064L376.415 117L380.188 120.773L383.936 117L385 118.064L381.227 121.812L385 125.585L383.936 126.648L380.188 122.875L376.415 126.648Z" fill="#1C1B1F"/>
<path d="M45.9489 313.648L39.2898 290.375H44.6648L48.517 306.546H48.7102L52.9602 290.375H57.5625L61.8011 306.58H62.0057L65.858 290.375H71.233L64.5739 313.648H59.7784L55.3466 298.432H55.1648L50.7443 313.648H45.9489ZM79.8551 313.989C78.0597 313.989 76.5142 313.625 75.2188 312.898C73.9309 312.163 72.9384 311.125 72.2415 309.784C71.5445 308.436 71.196 306.841 71.196 305C71.196 303.205 71.5445 301.629 72.2415 300.273C72.9384 298.917 73.9195 297.86 75.1847 297.103C76.4574 296.345 77.9498 295.966 79.6619 295.966C80.8134 295.966 81.8854 296.152 82.8778 296.523C83.8778 296.887 84.7491 297.436 85.4915 298.171C86.2415 298.906 86.8248 299.83 87.2415 300.943C87.6581 302.05 87.8665 303.345 87.8665 304.83V306.159H73.1278V303.159H83.3097C83.3097 302.462 83.1581 301.845 82.8551 301.307C82.5521 300.769 82.1316 300.349 81.5938 300.046C81.0634 299.735 80.446 299.58 79.7415 299.58C79.0066 299.58 78.3551 299.75 77.7869 300.091C77.2263 300.425 76.7869 300.875 76.4688 301.443C76.1506 302.004 75.9877 302.629 75.9801 303.318V306.171C75.9801 307.034 76.1392 307.781 76.4574 308.409C76.7831 309.038 77.2415 309.523 77.8324 309.864C78.4233 310.205 79.1241 310.375 79.9347 310.375C80.4725 310.375 80.965 310.3 81.4119 310.148C81.8589 309.996 82.2415 309.769 82.5597 309.466C82.8778 309.163 83.1203 308.792 83.2869 308.353L87.7642 308.648C87.5369 309.724 87.071 310.663 86.3665 311.466C85.6695 312.262 84.768 312.883 83.6619 313.33C82.5634 313.769 81.2945 313.989 79.8551 313.989ZM95.8665 290.375V313.648H91.0256V290.375H95.8665ZM107.631 313.989C105.843 313.989 104.305 313.61 103.017 312.853C101.737 312.087 100.752 311.027 100.062 309.671C99.3807 308.315 99.0398 306.754 99.0398 304.989C99.0398 303.201 99.3845 301.633 100.074 300.284C100.771 298.928 101.759 297.871 103.04 297.114C104.32 296.349 105.843 295.966 107.608 295.966C109.131 295.966 110.464 296.243 111.608 296.796C112.752 297.349 113.657 298.125 114.324 299.125C114.991 300.125 115.358 301.3 115.426 302.648H110.858C110.729 301.777 110.388 301.076 109.835 300.546C109.29 300.008 108.574 299.739 107.688 299.739C106.938 299.739 106.282 299.943 105.722 300.353C105.169 300.754 104.737 301.341 104.426 302.114C104.116 302.887 103.96 303.822 103.96 304.921C103.96 306.034 104.112 306.981 104.415 307.762C104.725 308.542 105.161 309.137 105.722 309.546C106.282 309.955 106.938 310.159 107.688 310.159C108.241 310.159 108.737 310.046 109.176 309.818C109.623 309.591 109.991 309.262 110.278 308.83C110.574 308.39 110.767 307.864 110.858 307.25H115.426C115.35 308.584 114.987 309.758 114.335 310.773C113.691 311.781 112.801 312.568 111.665 313.137C110.528 313.705 109.184 313.989 107.631 313.989ZM126.412 313.989C124.647 313.989 123.12 313.614 121.832 312.864C120.552 312.106 119.563 311.053 118.866 309.705C118.17 308.349 117.821 306.777 117.821 304.989C117.821 303.186 118.17 301.61 118.866 300.262C119.563 298.906 120.552 297.853 121.832 297.103C123.12 296.345 124.647 295.966 126.412 295.966C128.177 295.966 129.7 296.345 130.98 297.103C132.268 297.853 133.26 298.906 133.957 300.262C134.654 301.61 135.003 303.186 135.003 304.989C135.003 306.777 134.654 308.349 133.957 309.705C133.26 311.053 132.268 312.106 130.98 312.864C129.7 313.614 128.177 313.989 126.412 313.989ZM126.435 310.239C127.238 310.239 127.908 310.012 128.446 309.557C128.984 309.095 129.389 308.466 129.662 307.671C129.942 306.875 130.082 305.97 130.082 304.955C130.082 303.94 129.942 303.034 129.662 302.239C129.389 301.443 128.984 300.815 128.446 300.353C127.908 299.89 127.238 299.659 126.435 299.659C125.624 299.659 124.942 299.89 124.389 300.353C123.844 300.815 123.431 301.443 123.151 302.239C122.878 303.034 122.741 303.94 122.741 304.955C122.741 305.97 122.878 306.875 123.151 307.671C123.431 308.466 123.844 309.095 124.389 309.557C124.942 310.012 125.624 310.239 126.435 310.239ZM138.151 313.648V296.193H142.764V299.273H142.969C143.332 298.25 143.938 297.443 144.787 296.853C145.635 296.262 146.651 295.966 147.832 295.966C149.029 295.966 150.048 296.265 150.889 296.864C151.73 297.455 152.291 298.258 152.571 299.273H152.753C153.109 298.273 153.753 297.474 154.685 296.875C155.624 296.269 156.734 295.966 158.014 295.966C159.643 295.966 160.965 296.485 161.98 297.523C163.003 298.553 163.514 300.015 163.514 301.909V313.648H158.685V302.864C158.685 301.894 158.427 301.167 157.912 300.682C157.397 300.197 156.753 299.955 155.98 299.955C155.101 299.955 154.416 300.235 153.923 300.796C153.431 301.349 153.185 302.08 153.185 302.989V313.648H148.491V302.762C148.491 301.906 148.245 301.224 147.753 300.716C147.268 300.209 146.628 299.955 145.832 299.955C145.295 299.955 144.81 300.091 144.378 300.364C143.954 300.629 143.616 301.004 143.366 301.489C143.116 301.966 142.991 302.527 142.991 303.171V313.648H138.151ZM175.293 313.989C173.497 313.989 171.952 313.625 170.656 312.898C169.368 312.163 168.376 311.125 167.679 309.784C166.982 308.436 166.634 306.841 166.634 305C166.634 303.205 166.982 301.629 167.679 300.273C168.376 298.917 169.357 297.86 170.622 297.103C171.895 296.345 173.387 295.966 175.099 295.966C176.251 295.966 177.323 296.152 178.315 296.523C179.315 296.887 180.187 297.436 180.929 298.171C181.679 298.906 182.262 299.83 182.679 300.943C183.096 302.05 183.304 303.345 183.304 304.83V306.159H168.565V303.159H178.747C178.747 302.462 178.596 301.845 178.293 301.307C177.99 300.769 177.569 300.349 177.031 300.046C176.501 299.735 175.884 299.58 175.179 299.58C174.444 299.58 173.793 299.75 173.224 300.091C172.664 300.425 172.224 300.875 171.906 301.443C171.588 302.004 171.425 302.629 171.418 303.318V306.171C171.418 307.034 171.577 307.781 171.895 308.409C172.221 309.038 172.679 309.523 173.27 309.864C173.861 310.205 174.562 310.375 175.372 310.375C175.91 310.375 176.402 310.3 176.849 310.148C177.296 309.996 177.679 309.769 177.997 309.466C178.315 309.163 178.558 308.792 178.724 308.353L183.202 308.648C182.974 309.724 182.509 310.663 181.804 311.466C181.107 312.262 180.205 312.883 179.099 313.33C178.001 313.769 176.732 313.989 175.293 313.989ZM203.153 296.193V299.83H192.642V296.193H203.153ZM195.028 292.012H199.869V308.284C199.869 308.731 199.938 309.08 200.074 309.33C200.21 309.572 200.4 309.743 200.642 309.841C200.892 309.94 201.18 309.989 201.506 309.989C201.733 309.989 201.96 309.97 202.188 309.932C202.415 309.887 202.589 309.853 202.71 309.83L203.472 313.432C203.229 313.508 202.888 313.595 202.449 313.693C202.009 313.8 201.475 313.864 200.847 313.887C199.68 313.932 198.657 313.777 197.778 313.421C196.907 313.065 196.229 312.512 195.744 311.762C195.259 311.012 195.021 310.065 195.028 308.921V292.012ZM214.006 313.989C212.241 313.989 210.714 313.614 209.426 312.864C208.146 312.106 207.157 311.053 206.46 309.705C205.763 308.349 205.415 306.777 205.415 304.989C205.415 303.186 205.763 301.61 206.46 300.262C207.157 298.906 208.146 297.853 209.426 297.103C210.714 296.345 212.241 295.966 214.006 295.966C215.771 295.966 217.294 296.345 218.574 297.103C219.862 297.853 220.854 298.906 221.551 300.262C222.248 301.61 222.597 303.186 222.597 304.989C222.597 306.777 222.248 308.349 221.551 309.705C220.854 311.053 219.862 312.106 218.574 312.864C217.294 313.614 215.771 313.989 214.006 313.989ZM214.028 310.239C214.831 310.239 215.502 310.012 216.04 309.557C216.578 309.095 216.983 308.466 217.256 307.671C217.536 306.875 217.676 305.97 217.676 304.955C217.676 303.94 217.536 303.034 217.256 302.239C216.983 301.443 216.578 300.815 216.04 300.353C215.502 299.89 214.831 299.659 214.028 299.659C213.218 299.659 212.536 299.89 211.983 300.353C211.438 300.815 211.025 301.443 210.744 302.239C210.472 303.034 210.335 303.94 210.335 304.955C210.335 305.97 210.472 306.875 210.744 307.671C211.025 308.466 211.438 309.095 211.983 309.557C212.536 310.012 213.218 310.239 214.028 310.239ZM233.241 313.648V290.375H242.423C244.188 290.375 245.692 290.712 246.935 291.387C248.177 292.053 249.124 292.981 249.776 294.171C250.435 295.353 250.764 296.716 250.764 298.262C250.764 299.807 250.431 301.171 249.764 302.353C249.098 303.534 248.132 304.455 246.866 305.114C245.609 305.773 244.086 306.103 242.298 306.103H236.446V302.159H241.503C242.45 302.159 243.23 301.996 243.844 301.671C244.465 301.337 244.927 300.879 245.23 300.296C245.541 299.705 245.696 299.027 245.696 298.262C245.696 297.489 245.541 296.815 245.23 296.239C244.927 295.656 244.465 295.205 243.844 294.887C243.223 294.561 242.435 294.398 241.48 294.398H238.162V313.648H233.241ZM258.165 290.375L263.79 308.057H264.006L269.642 290.375H275.097L267.074 313.648H260.733L252.699 290.375H258.165ZM290.523 297.068C290.432 296.152 290.042 295.44 289.352 294.932C288.663 294.425 287.727 294.171 286.545 294.171C285.742 294.171 285.064 294.284 284.511 294.512C283.958 294.731 283.534 295.038 283.239 295.432C282.951 295.826 282.807 296.273 282.807 296.773C282.792 297.19 282.879 297.553 283.068 297.864C283.265 298.175 283.534 298.443 283.875 298.671C284.216 298.89 284.61 299.084 285.057 299.25C285.504 299.409 285.981 299.546 286.489 299.659L288.58 300.159C289.595 300.387 290.527 300.69 291.375 301.068C292.223 301.447 292.958 301.913 293.58 302.466C294.201 303.019 294.682 303.671 295.023 304.421C295.371 305.171 295.549 306.031 295.557 307C295.549 308.425 295.186 309.659 294.466 310.705C293.754 311.743 292.723 312.55 291.375 313.125C290.034 313.693 288.417 313.978 286.523 313.978C284.644 313.978 283.008 313.69 281.614 313.114C280.227 312.538 279.144 311.686 278.364 310.557C277.591 309.421 277.186 308.015 277.148 306.341H281.909C281.962 307.121 282.186 307.773 282.58 308.296C282.981 308.811 283.515 309.201 284.182 309.466C284.856 309.724 285.617 309.853 286.466 309.853C287.299 309.853 288.023 309.731 288.636 309.489C289.258 309.246 289.739 308.909 290.08 308.478C290.42 308.046 290.591 307.55 290.591 306.989C290.591 306.466 290.436 306.027 290.125 305.671C289.822 305.315 289.375 305.012 288.784 304.762C288.201 304.512 287.485 304.284 286.636 304.08L284.102 303.443C282.14 302.966 280.591 302.22 279.455 301.205C278.318 300.19 277.754 298.822 277.761 297.103C277.754 295.693 278.129 294.462 278.886 293.409C279.652 292.356 280.701 291.534 282.034 290.943C283.367 290.353 284.883 290.057 286.58 290.057C288.307 290.057 289.814 290.353 291.102 290.943C292.398 291.534 293.405 292.356 294.125 293.409C294.845 294.462 295.216 295.682 295.239 297.068H290.523ZM311.159 313.978C310.045 313.978 309.053 313.784 308.182 313.398C307.311 313.004 306.621 312.425 306.114 311.659C305.614 310.887 305.364 309.925 305.364 308.773C305.364 307.803 305.542 306.989 305.898 306.33C306.254 305.671 306.739 305.14 307.352 304.739C307.966 304.337 308.663 304.034 309.443 303.83C310.231 303.625 311.057 303.481 311.92 303.398C312.936 303.292 313.754 303.193 314.375 303.103C314.996 303.004 315.447 302.86 315.727 302.671C316.008 302.481 316.148 302.201 316.148 301.83V301.762C316.148 301.042 315.92 300.485 315.466 300.091C315.019 299.697 314.383 299.5 313.557 299.5C312.686 299.5 311.992 299.693 311.477 300.08C310.962 300.459 310.621 300.936 310.455 301.512L305.977 301.148C306.205 300.087 306.652 299.171 307.318 298.398C307.985 297.618 308.845 297.019 309.898 296.603C310.958 296.178 312.186 295.966 313.58 295.966C314.549 295.966 315.477 296.08 316.364 296.307C317.258 296.534 318.049 296.887 318.739 297.364C319.436 297.841 319.985 298.455 320.386 299.205C320.788 299.947 320.989 300.837 320.989 301.875V313.648H316.398V311.228H316.261C315.981 311.773 315.606 312.254 315.136 312.671C314.667 313.08 314.102 313.402 313.443 313.637C312.784 313.864 312.023 313.978 311.159 313.978ZM312.545 310.637C313.258 310.637 313.886 310.496 314.432 310.216C314.977 309.928 315.405 309.542 315.716 309.057C316.027 308.572 316.182 308.023 316.182 307.409V305.557C316.03 305.656 315.822 305.746 315.557 305.83C315.299 305.906 315.008 305.978 314.682 306.046C314.356 306.106 314.03 306.163 313.705 306.216C313.379 306.262 313.083 306.303 312.818 306.341C312.25 306.425 311.754 306.557 311.33 306.739C310.905 306.921 310.576 307.167 310.341 307.478C310.106 307.781 309.989 308.159 309.989 308.614C309.989 309.273 310.227 309.777 310.705 310.125C311.189 310.466 311.803 310.637 312.545 310.637ZM324.744 320.193V296.193H329.517V299.125H329.733C329.945 298.656 330.252 298.178 330.653 297.693C331.063 297.201 331.593 296.792 332.244 296.466C332.903 296.133 333.722 295.966 334.699 295.966C335.972 295.966 337.146 296.3 338.222 296.966C339.297 297.625 340.157 298.621 340.801 299.955C341.445 301.281 341.767 302.943 341.767 304.943C341.767 306.89 341.453 308.534 340.824 309.875C340.203 311.209 339.354 312.22 338.278 312.909C337.21 313.591 336.013 313.932 334.688 313.932C333.748 313.932 332.949 313.777 332.29 313.466C331.638 313.156 331.104 312.765 330.688 312.296C330.271 311.818 329.953 311.337 329.733 310.853H329.585V320.193H324.744ZM329.483 304.921C329.483 305.959 329.627 306.864 329.915 307.637C330.203 308.409 330.619 309.012 331.165 309.443C331.71 309.868 332.373 310.08 333.153 310.08C333.941 310.08 334.608 309.864 335.153 309.432C335.699 308.993 336.112 308.387 336.392 307.614C336.68 306.834 336.824 305.936 336.824 304.921C336.824 303.913 336.684 303.027 336.403 302.262C336.123 301.496 335.71 300.898 335.165 300.466C334.619 300.034 333.949 299.818 333.153 299.818C332.366 299.818 331.699 300.027 331.153 300.443C330.616 300.86 330.203 301.451 329.915 302.216C329.627 302.981 329.483 303.883 329.483 304.921ZM344.994 320.193V296.193H349.767V299.125H349.983C350.195 298.656 350.502 298.178 350.903 297.693C351.313 297.201 351.843 296.792 352.494 296.466C353.153 296.133 353.972 295.966 354.949 295.966C356.222 295.966 357.396 296.3 358.472 296.966C359.547 297.625 360.407 298.621 361.051 299.955C361.695 301.281 362.017 302.943 362.017 304.943C362.017 306.89 361.703 308.534 361.074 309.875C360.453 311.209 359.604 312.22 358.528 312.909C357.46 313.591 356.263 313.932 354.938 313.932C353.998 313.932 353.199 313.777 352.54 313.466C351.888 313.156 351.354 312.765 350.938 312.296C350.521 311.818 350.203 311.337 349.983 310.853H349.835V320.193H344.994ZM349.733 304.921C349.733 305.959 349.877 306.864 350.165 307.637C350.453 308.409 350.869 309.012 351.415 309.443C351.96 309.868 352.623 310.08 353.403 310.08C354.191 310.08 354.858 309.864 355.403 309.432C355.949 308.993 356.362 308.387 356.642 307.614C356.93 306.834 357.074 305.936 357.074 304.921C357.074 303.913 356.934 303.027 356.653 302.262C356.373 301.496 355.96 300.898 355.415 300.466C354.869 300.034 354.199 299.818 353.403 299.818C352.616 299.818 351.949 300.027 351.403 300.443C350.866 300.86 350.453 301.451 350.165 302.216C349.877 302.981 349.733 303.883 349.733 304.921Z" fill="black"/>
<path d="M27.1868 336.262V335.012H35.9141V336.262H32.255V346.648H30.8459V336.262H27.1868ZM40.1868 346.83C39.3989 346.83 38.7076 346.642 38.1129 346.267C37.522 345.892 37.0599 345.368 36.7266 344.693C36.397 344.019 36.2322 343.231 36.2322 342.33C36.2322 341.421 36.397 340.627 36.7266 339.949C37.0599 339.271 37.522 338.745 38.1129 338.37C38.7076 337.995 39.3989 337.807 40.1868 337.807C40.9747 337.807 41.6641 337.995 42.255 338.37C42.8497 338.745 43.3118 339.271 43.6413 339.949C43.9747 340.627 44.1413 341.421 44.1413 342.33C44.1413 343.231 43.9747 344.019 43.6413 344.693C43.3118 345.368 42.8497 345.892 42.255 346.267C41.6641 346.642 40.9747 346.83 40.1868 346.83ZM40.1868 345.625C40.7853 345.625 41.2777 345.472 41.6641 345.165C42.0504 344.858 42.3364 344.455 42.522 343.955C42.7076 343.455 42.8004 342.913 42.8004 342.33C42.8004 341.746 42.7076 341.203 42.522 340.699C42.3364 340.195 42.0504 339.788 41.6641 339.478C41.2777 339.167 40.7853 339.012 40.1868 339.012C39.5883 339.012 39.0959 339.167 38.7095 339.478C38.3232 339.788 38.0372 340.195 37.8516 340.699C37.666 341.203 37.5732 341.746 37.5732 342.33C37.5732 342.913 37.666 343.455 37.8516 343.955C38.0372 344.455 38.3232 344.858 38.7095 345.165C39.0959 345.472 39.5883 345.625 40.1868 345.625ZM56.87 339.875L55.6655 340.216C55.5897 340.015 55.478 339.82 55.3303 339.631C55.1863 339.438 54.9893 339.279 54.7393 339.154C54.4893 339.029 54.1693 338.966 53.7791 338.966C53.245 338.966 52.8 339.089 52.4439 339.336C52.0916 339.578 51.9155 339.887 51.9155 340.262C51.9155 340.595 52.0367 340.858 52.2791 341.051C52.5215 341.245 52.9003 341.406 53.4155 341.534L54.7109 341.853C55.4912 342.042 56.0727 342.332 56.4553 342.722C56.8378 343.108 57.0291 343.606 57.0291 344.216C57.0291 344.716 56.8852 345.163 56.5973 345.557C56.3132 345.951 55.9155 346.262 55.4041 346.489C54.8928 346.716 54.2981 346.83 53.62 346.83C52.7299 346.83 51.9931 346.637 51.4098 346.25C50.8265 345.864 50.4571 345.3 50.3018 344.557L51.5746 344.239C51.6958 344.709 51.925 345.061 52.2621 345.296C52.603 345.531 53.0481 345.648 53.5973 345.648C54.2223 345.648 54.7185 345.515 55.0859 345.25C55.4571 344.981 55.6428 344.659 55.6428 344.284C55.6428 343.981 55.5367 343.728 55.3246 343.523C55.1125 343.315 54.7867 343.159 54.3473 343.057L52.8928 342.716C52.0935 342.527 51.5064 342.233 51.1314 341.836C50.7602 341.434 50.5746 340.932 50.5746 340.33C50.5746 339.837 50.7128 339.402 50.9893 339.023C51.2696 338.644 51.6503 338.347 52.1314 338.131C52.6162 337.915 53.1655 337.807 53.7791 337.807C54.6428 337.807 55.3208 337.996 55.8132 338.375C56.3094 338.754 56.6617 339.254 56.87 339.875ZM62.843 337.921V339.057H58.3203V337.921H62.843ZM59.6385 335.83H60.9794V344.148C60.9794 344.527 61.0343 344.811 61.1442 345C61.2578 345.186 61.4018 345.311 61.576 345.375C61.754 345.436 61.9415 345.466 62.1385 345.466C62.2862 345.466 62.4074 345.459 62.5021 345.443C62.5968 345.425 62.6726 345.409 62.7294 345.398L63.0021 346.603C62.9112 346.637 62.7843 346.671 62.6214 346.705C62.4586 346.743 62.2521 346.762 62.0021 346.762C61.6233 346.762 61.2521 346.68 60.8885 346.517C60.5286 346.354 60.2294 346.106 59.9908 345.773C59.7559 345.44 59.6385 345.019 59.6385 344.512V335.83ZM67.4283 346.853C66.8752 346.853 66.3733 346.748 65.9226 346.54C65.4718 346.328 65.1139 346.023 64.8487 345.625C64.5836 345.224 64.451 344.739 64.451 344.171C64.451 343.671 64.5495 343.265 64.7464 342.955C64.9434 342.64 65.2067 342.394 65.5362 342.216C65.8658 342.038 66.2294 341.906 66.6271 341.818C67.0286 341.728 67.4321 341.656 67.8374 341.603C68.3677 341.534 68.7976 341.483 69.1271 341.449C69.4605 341.411 69.7029 341.349 69.8544 341.262C70.0097 341.175 70.0874 341.023 70.0874 340.807V340.762C70.0874 340.201 69.9339 339.765 69.6271 339.455C69.3241 339.144 68.8639 338.989 68.2464 338.989C67.6063 338.989 67.1044 339.129 66.7408 339.409C66.3771 339.69 66.1214 339.989 65.9737 340.307L64.701 339.853C64.9283 339.322 65.2313 338.909 65.6101 338.614C65.9927 338.315 66.4093 338.106 66.8601 337.989C67.3146 337.868 67.7616 337.807 68.201 337.807C68.4813 337.807 68.8033 337.841 69.1669 337.909C69.5343 337.974 69.8885 338.108 70.2294 338.313C70.5741 338.517 70.8601 338.826 71.0874 339.239C71.3146 339.652 71.4283 340.205 71.4283 340.898V346.648H70.0874V345.466H70.0192C69.9283 345.656 69.7768 345.858 69.5646 346.074C69.3525 346.29 69.0703 346.474 68.718 346.625C68.3658 346.777 67.9358 346.853 67.4283 346.853ZM67.6328 345.648C68.1631 345.648 68.6101 345.544 68.9737 345.336C69.3411 345.127 69.6177 344.858 69.8033 344.529C69.9927 344.199 70.0874 343.853 70.0874 343.489V342.262C70.0305 342.33 69.9055 342.392 69.7124 342.449C69.523 342.502 69.3033 342.55 69.0533 342.591C68.8071 342.629 68.5665 342.663 68.3317 342.693C68.1006 342.72 67.9131 342.743 67.7692 342.762C67.4207 342.807 67.0949 342.881 66.7919 342.983C66.4927 343.082 66.2502 343.231 66.0646 343.432C65.8828 343.629 65.7919 343.898 65.7919 344.239C65.7919 344.705 65.9643 345.057 66.3089 345.296C66.6574 345.531 67.0987 345.648 67.6328 345.648ZM73.8757 346.648V337.921H75.1712V339.239H75.2621C75.4212 338.807 75.709 338.457 76.1257 338.188C76.5424 337.919 77.0121 337.784 77.5348 337.784C77.6333 337.784 77.7564 337.786 77.9041 337.79C78.0518 337.794 78.1636 337.8 78.2393 337.807V339.171C78.1939 339.159 78.0897 339.142 77.9268 339.12C77.7678 339.093 77.5992 339.08 77.4212 339.08C76.9969 339.08 76.6181 339.169 76.2848 339.347C75.9553 339.521 75.6939 339.764 75.5007 340.074C75.3113 340.381 75.2166 340.731 75.2166 341.125V346.648H73.8757ZM84.1712 337.921V339.057H79.6484V337.921H84.1712ZM80.9666 335.83H82.3075V344.148C82.3075 344.527 82.3625 344.811 82.4723 345C82.5859 345.186 82.7299 345.311 82.9041 345.375C83.0821 345.436 83.2696 345.466 83.4666 345.466C83.6143 345.466 83.7356 345.459 83.8303 345.443C83.925 345.425 84.0007 345.409 84.0575 345.398L84.3303 346.603C84.2393 346.637 84.1125 346.671 83.9496 346.705C83.7867 346.743 83.5803 346.762 83.3303 346.762C82.9515 346.762 82.5803 346.68 82.2166 346.517C81.8568 346.354 81.5575 346.106 81.3189 345.773C81.084 345.44 80.9666 345.019 80.9666 344.512V335.83ZM96.1882 343.08V337.921H97.5291V346.648H96.1882V345.171H96.0973C95.8928 345.614 95.5746 345.991 95.1428 346.301C94.7109 346.608 94.1655 346.762 93.5064 346.762C92.9609 346.762 92.4761 346.642 92.0518 346.404C91.6276 346.161 91.2943 345.798 91.0518 345.313C90.8094 344.824 90.6882 344.209 90.6882 343.466V337.921H92.0291V343.375C92.0291 344.012 92.2071 344.519 92.5632 344.898C92.9231 345.277 93.3814 345.466 93.9382 345.466C94.2715 345.466 94.6106 345.381 94.9553 345.211C95.3037 345.04 95.5954 344.779 95.8303 344.426C96.0689 344.074 96.1882 343.625 96.1882 343.08ZM106.167 339.875L104.962 340.216C104.887 340.015 104.775 339.82 104.627 339.631C104.483 339.438 104.286 339.279 104.036 339.154C103.786 339.029 103.466 338.966 103.076 338.966C102.542 338.966 102.097 339.089 101.741 339.336C101.388 339.578 101.212 339.887 101.212 340.262C101.212 340.595 101.334 340.858 101.576 341.051C101.818 341.245 102.197 341.406 102.712 341.534L104.008 341.853C104.788 342.042 105.37 342.332 105.752 342.722C106.135 343.108 106.326 343.606 106.326 344.216C106.326 344.716 106.182 345.163 105.894 345.557C105.61 345.951 105.212 346.262 104.701 346.489C104.19 346.716 103.595 346.83 102.917 346.83C102.027 346.83 101.29 346.637 100.707 346.25C100.123 345.864 99.754 345.3 99.5987 344.557L100.871 344.239C100.993 344.709 101.222 345.061 101.559 345.296C101.9 345.531 102.345 345.648 102.894 345.648C103.519 345.648 104.015 345.515 104.383 345.25C104.754 344.981 104.94 344.659 104.94 344.284C104.94 343.981 104.834 343.728 104.621 343.523C104.409 343.315 104.084 343.159 103.644 343.057L102.19 342.716C101.39 342.527 100.803 342.233 100.428 341.836C100.057 341.434 99.8714 340.932 99.8714 340.33C99.8714 339.837 100.01 339.402 100.286 339.023C100.567 338.644 100.947 338.347 101.428 338.131C101.913 337.915 102.462 337.807 103.076 337.807C103.94 337.807 104.618 337.996 105.11 338.375C105.606 338.754 105.959 339.254 106.167 339.875ZM108.344 346.648V337.921H109.685V346.648H108.344ZM109.026 336.466C108.765 336.466 108.54 336.377 108.35 336.199C108.165 336.021 108.072 335.807 108.072 335.557C108.072 335.307 108.165 335.093 108.35 334.915C108.54 334.737 108.765 334.648 109.026 334.648C109.288 334.648 109.511 334.737 109.697 334.915C109.886 335.093 109.981 335.307 109.981 335.557C109.981 335.807 109.886 336.021 109.697 336.199C109.511 336.377 109.288 336.466 109.026 336.466ZM113.482 341.398V346.648H112.141V337.921H113.437V339.284H113.55C113.755 338.841 114.066 338.485 114.482 338.216C114.899 337.943 115.437 337.807 116.096 337.807C116.687 337.807 117.204 337.928 117.647 338.171C118.09 338.409 118.435 338.773 118.681 339.262C118.927 339.746 119.05 340.36 119.05 341.103V346.648H117.71V341.193C117.71 340.508 117.531 339.974 117.175 339.591C116.819 339.205 116.331 339.012 115.71 339.012C115.281 339.012 114.899 339.104 114.562 339.29C114.228 339.476 113.965 339.746 113.772 340.103C113.579 340.459 113.482 340.89 113.482 341.398ZM125.023 350.103C124.376 350.103 123.819 350.019 123.353 349.853C122.887 349.69 122.499 349.474 122.188 349.205C121.881 348.94 121.637 348.656 121.455 348.353L122.523 347.603C122.645 347.762 122.798 347.943 122.984 348.148C123.169 348.356 123.423 348.536 123.745 348.688C124.071 348.843 124.497 348.921 125.023 348.921C125.728 348.921 126.309 348.75 126.768 348.409C127.226 348.068 127.455 347.534 127.455 346.807V345.034H127.342C127.243 345.193 127.103 345.39 126.921 345.625C126.743 345.856 126.486 346.063 126.148 346.245C125.815 346.423 125.364 346.512 124.796 346.512C124.092 346.512 123.459 346.345 122.898 346.012C122.342 345.678 121.9 345.193 121.575 344.557C121.253 343.921 121.092 343.148 121.092 342.239C121.092 341.345 121.249 340.567 121.563 339.904C121.878 339.237 122.315 338.722 122.876 338.358C123.436 337.991 124.084 337.807 124.819 337.807C125.387 337.807 125.838 337.902 126.171 338.091C126.508 338.277 126.766 338.489 126.944 338.728C127.126 338.962 127.266 339.156 127.364 339.307H127.501V337.921H128.796V346.898C128.796 347.648 128.626 348.258 128.285 348.728C127.948 349.201 127.493 349.548 126.921 349.767C126.353 349.991 125.72 350.103 125.023 350.103ZM124.978 345.307C125.516 345.307 125.97 345.184 126.342 344.938C126.713 344.692 126.995 344.337 127.188 343.875C127.381 343.413 127.478 342.86 127.478 342.216C127.478 341.587 127.383 341.032 127.194 340.551C127.004 340.07 126.724 339.693 126.353 339.421C125.982 339.148 125.523 339.012 124.978 339.012C124.41 339.012 123.936 339.156 123.558 339.443C123.183 339.731 122.9 340.118 122.711 340.603C122.525 341.087 122.433 341.625 122.433 342.216C122.433 342.822 122.527 343.358 122.717 343.824C122.91 344.286 123.194 344.65 123.569 344.915C123.948 345.176 124.417 345.307 124.978 345.307ZM138.319 346.853C137.766 346.853 137.264 346.748 136.813 346.54C136.362 346.328 136.004 346.023 135.739 345.625C135.474 345.224 135.342 344.739 135.342 344.171C135.342 343.671 135.44 343.265 135.637 342.955C135.834 342.64 136.097 342.394 136.427 342.216C136.756 342.038 137.12 341.906 137.518 341.818C137.919 341.728 138.323 341.656 138.728 341.603C139.258 341.534 139.688 341.483 140.018 341.449C140.351 341.411 140.594 341.349 140.745 341.262C140.9 341.175 140.978 341.023 140.978 340.807V340.762C140.978 340.201 140.825 339.765 140.518 339.455C140.215 339.144 139.754 338.989 139.137 338.989C138.497 338.989 137.995 339.129 137.631 339.409C137.268 339.69 137.012 339.989 136.864 340.307L135.592 339.853C135.819 339.322 136.122 338.909 136.501 338.614C136.883 338.315 137.3 338.106 137.751 337.989C138.205 337.868 138.652 337.807 139.092 337.807C139.372 337.807 139.694 337.841 140.058 337.909C140.425 337.974 140.779 338.108 141.12 338.313C141.465 338.517 141.751 338.826 141.978 339.239C142.205 339.652 142.319 340.205 142.319 340.898V346.648H140.978V345.466H140.91C140.819 345.656 140.667 345.858 140.455 346.074C140.243 346.29 139.961 346.474 139.609 346.625C139.256 346.777 138.826 346.853 138.319 346.853ZM138.523 345.648C139.054 345.648 139.501 345.544 139.864 345.336C140.232 345.127 140.508 344.858 140.694 344.529C140.883 344.199 140.978 343.853 140.978 343.489V342.262C140.921 342.33 140.796 342.392 140.603 342.449C140.414 342.502 140.194 342.55 139.944 342.591C139.698 342.629 139.457 342.663 139.222 342.693C138.991 342.72 138.804 342.743 138.66 342.762C138.311 342.807 137.986 342.881 137.683 342.983C137.383 343.082 137.141 343.231 136.955 343.432C136.773 343.629 136.683 343.898 136.683 344.239C136.683 344.705 136.855 345.057 137.2 345.296C137.548 345.531 137.989 345.648 138.523 345.648ZM146.107 335.012V346.648H144.766V335.012H146.107ZM149.904 335.012V346.648H148.563V335.012H149.904ZM160.746 337.921V339.057H156.042V337.921H160.746ZM157.451 346.648V336.716C157.451 336.216 157.568 335.8 157.803 335.466C158.038 335.133 158.343 334.883 158.718 334.716C159.093 334.55 159.489 334.466 159.906 334.466C160.235 334.466 160.504 334.493 160.712 334.546C160.921 334.599 161.076 334.648 161.178 334.693L160.792 335.853C160.724 335.83 160.629 335.801 160.508 335.767C160.39 335.733 160.235 335.716 160.042 335.716C159.599 335.716 159.279 335.828 159.082 336.051C158.888 336.275 158.792 336.603 158.792 337.034V346.648H157.451ZM165.925 346.83C165.085 346.83 164.359 346.644 163.749 346.273C163.143 345.898 162.675 345.375 162.346 344.705C162.02 344.031 161.857 343.246 161.857 342.353C161.857 341.459 162.02 340.671 162.346 339.989C162.675 339.303 163.134 338.769 163.721 338.387C164.312 338 165.001 337.807 165.789 337.807C166.244 337.807 166.692 337.883 167.136 338.034C167.579 338.186 167.982 338.432 168.346 338.773C168.71 339.11 168.999 339.557 169.215 340.114C169.431 340.671 169.539 341.356 169.539 342.171V342.739H162.812V341.58H168.175C168.175 341.087 168.077 340.648 167.88 340.262C167.687 339.875 167.41 339.57 167.05 339.347C166.694 339.123 166.274 339.012 165.789 339.012C165.255 339.012 164.793 339.144 164.403 339.409C164.016 339.671 163.719 340.012 163.511 340.432C163.302 340.853 163.198 341.303 163.198 341.784V342.557C163.198 343.216 163.312 343.775 163.539 344.233C163.77 344.688 164.09 345.034 164.499 345.273C164.908 345.508 165.384 345.625 165.925 345.625C166.278 345.625 166.596 345.576 166.88 345.478C167.168 345.375 167.416 345.224 167.624 345.023C167.833 344.818 167.994 344.565 168.107 344.262L169.403 344.625C169.266 345.065 169.037 345.451 168.715 345.784C168.393 346.114 167.996 346.371 167.522 346.557C167.049 346.739 166.516 346.83 165.925 346.83ZM174.147 346.853C173.594 346.853 173.092 346.748 172.641 346.54C172.191 346.328 171.833 346.023 171.567 345.625C171.302 345.224 171.17 344.739 171.17 344.171C171.17 343.671 171.268 343.265 171.465 342.955C171.662 342.64 171.925 342.394 172.255 342.216C172.585 342.038 172.948 341.906 173.346 341.818C173.747 341.728 174.151 341.656 174.556 341.603C175.086 341.534 175.516 341.483 175.846 341.449C176.179 341.411 176.422 341.349 176.573 341.262C176.728 341.175 176.806 341.023 176.806 340.807V340.762C176.806 340.201 176.653 339.765 176.346 339.455C176.043 339.144 175.583 338.989 174.965 338.989C174.325 338.989 173.823 339.129 173.46 339.409C173.096 339.69 172.84 339.989 172.692 340.307L171.42 339.853C171.647 339.322 171.95 338.909 172.329 338.614C172.711 338.315 173.128 338.106 173.579 337.989C174.033 337.868 174.48 337.807 174.92 337.807C175.2 337.807 175.522 337.841 175.886 337.909C176.253 337.974 176.607 338.108 176.948 338.313C177.293 338.517 177.579 338.826 177.806 339.239C178.033 339.652 178.147 340.205 178.147 340.898V346.648H176.806V345.466H176.738C176.647 345.656 176.496 345.858 176.283 346.074C176.071 346.29 175.789 346.474 175.437 346.625C175.085 346.777 174.655 346.853 174.147 346.853ZM174.352 345.648C174.882 345.648 175.329 345.544 175.692 345.336C176.06 345.127 176.336 344.858 176.522 344.529C176.711 344.199 176.806 343.853 176.806 343.489V342.262C176.749 342.33 176.624 342.392 176.431 342.449C176.242 342.502 176.022 342.55 175.772 342.591C175.526 342.629 175.285 342.663 175.05 342.693C174.819 342.72 174.632 342.743 174.488 342.762C174.139 342.807 173.814 342.881 173.511 342.983C173.211 343.082 172.969 343.231 172.783 343.432C172.602 343.629 172.511 343.898 172.511 344.239C172.511 344.705 172.683 345.057 173.028 345.296C173.376 345.531 173.817 345.648 174.352 345.648ZM184.39 337.921V339.057H179.867V337.921H184.39ZM181.185 335.83H182.526V344.148C182.526 344.527 182.581 344.811 182.691 345C182.805 345.186 182.949 345.311 183.123 345.375C183.301 345.436 183.488 345.466 183.685 345.466C183.833 345.466 183.954 345.459 184.049 345.443C184.144 345.425 184.219 345.409 184.276 345.398L184.549 346.603C184.458 346.637 184.331 346.671 184.168 346.705C184.005 346.743 183.799 346.762 183.549 346.762C183.17 346.762 182.799 346.68 182.435 346.517C182.076 346.354 181.776 346.106 181.538 345.773C181.303 345.44 181.185 345.019 181.185 344.512V335.83ZM191.907 343.08V337.921H193.248V346.648H191.907V345.171H191.816C191.612 345.614 191.293 345.991 190.862 346.301C190.43 346.608 189.884 346.762 189.225 346.762C188.68 346.762 188.195 346.642 187.771 346.404C187.346 346.161 187.013 345.798 186.771 345.313C186.528 344.824 186.407 344.209 186.407 343.466V337.921H187.748V343.375C187.748 344.012 187.926 344.519 188.282 344.898C188.642 345.277 189.1 345.466 189.657 345.466C189.99 345.466 190.329 345.381 190.674 345.211C191.022 345.04 191.314 344.779 191.549 344.426C191.788 344.074 191.907 343.625 191.907 343.08ZM195.704 346.648V337.921H196.999V339.239H197.09C197.249 338.807 197.537 338.457 197.954 338.188C198.371 337.919 198.84 337.784 199.363 337.784C199.461 337.784 199.585 337.786 199.732 337.79C199.88 337.794 199.992 337.8 200.067 337.807V339.171C200.022 339.159 199.918 339.142 199.755 339.12C199.596 339.093 199.427 339.08 199.249 339.08C198.825 339.08 198.446 339.169 198.113 339.347C197.783 339.521 197.522 339.764 197.329 340.074C197.139 340.381 197.045 340.731 197.045 341.125V346.648H195.704ZM205.05 346.83C204.21 346.83 203.484 346.644 202.874 346.273C202.268 345.898 201.8 345.375 201.471 344.705C201.145 344.031 200.982 343.246 200.982 342.353C200.982 341.459 201.145 340.671 201.471 339.989C201.8 339.303 202.259 338.769 202.846 338.387C203.437 338 204.126 337.807 204.914 337.807C205.369 337.807 205.817 337.883 206.261 338.034C206.704 338.186 207.107 338.432 207.471 338.773C207.835 339.11 208.124 339.557 208.34 340.114C208.556 340.671 208.664 341.356 208.664 342.171V342.739H201.937V341.58H207.3C207.3 341.087 207.202 340.648 207.005 340.262C206.812 339.875 206.535 339.57 206.175 339.347C205.819 339.123 205.399 339.012 204.914 339.012C204.38 339.012 203.918 339.144 203.528 339.409C203.141 339.671 202.844 340.012 202.636 340.432C202.427 340.853 202.323 341.303 202.323 341.784V342.557C202.323 343.216 202.437 343.775 202.664 344.233C202.895 344.688 203.215 345.034 203.624 345.273C204.033 345.508 204.509 345.625 205.05 345.625C205.403 345.625 205.721 345.576 206.005 345.478C206.293 345.375 206.541 345.224 206.749 345.023C206.958 344.818 207.119 344.565 207.232 344.262L208.528 344.625C208.391 345.065 208.162 345.451 207.84 345.784C207.518 346.114 207.121 346.371 206.647 346.557C206.174 346.739 205.641 346.83 205.05 346.83ZM216.886 339.875L215.681 340.216C215.605 340.015 215.494 339.82 215.346 339.631C215.202 339.438 215.005 339.279 214.755 339.154C214.505 339.029 214.185 338.966 213.795 338.966C213.261 338.966 212.816 339.089 212.46 339.336C212.107 339.578 211.931 339.887 211.931 340.262C211.931 340.595 212.052 340.858 212.295 341.051C212.537 341.245 212.916 341.406 213.431 341.534L214.727 341.853C215.507 342.042 216.088 342.332 216.471 342.722C216.853 343.108 217.045 343.606 217.045 344.216C217.045 344.716 216.901 345.163 216.613 345.557C216.329 345.951 215.931 346.262 215.42 346.489C214.908 346.716 214.314 346.83 213.636 346.83C212.746 346.83 212.009 346.637 211.425 346.25C210.842 345.864 210.473 345.3 210.317 344.557L211.59 344.239C211.711 344.709 211.941 345.061 212.278 345.296C212.619 345.531 213.064 345.648 213.613 345.648C214.238 345.648 214.734 345.515 215.102 345.25C215.473 344.981 215.658 344.659 215.658 344.284C215.658 343.981 215.552 343.728 215.34 343.523C215.128 343.315 214.802 343.159 214.363 343.057L212.908 342.716C212.109 342.527 211.522 342.233 211.147 341.836C210.776 341.434 210.59 340.932 210.59 340.33C210.59 339.837 210.728 339.402 211.005 339.023C211.285 338.644 211.666 338.347 212.147 338.131C212.632 337.915 213.181 337.807 213.795 337.807C214.658 337.807 215.336 337.996 215.829 338.375C216.325 338.754 216.677 339.254 216.886 339.875ZM221.063 345.057L220.972 345.671C220.908 346.103 220.809 346.565 220.677 347.057C220.548 347.55 220.414 348.014 220.273 348.449C220.133 348.885 220.018 349.231 219.927 349.489H218.904C218.953 349.246 219.018 348.926 219.097 348.529C219.177 348.131 219.256 347.686 219.336 347.193C219.419 346.705 219.487 346.205 219.54 345.693L219.609 345.057H221.063ZM233.548 343.08V337.921H234.888V346.648H233.548V345.171H233.457C233.252 345.614 232.934 345.991 232.502 346.301C232.07 346.608 231.525 346.762 230.866 346.762C230.32 346.762 229.835 346.642 229.411 346.404C228.987 346.161 228.654 345.798 228.411 345.313C228.169 344.824 228.048 344.209 228.048 343.466V337.921H229.388V343.375C229.388 344.012 229.567 344.519 229.923 344.898C230.282 345.277 230.741 345.466 231.298 345.466C231.631 345.466 231.97 345.381 232.315 345.211C232.663 345.04 232.955 344.779 233.19 344.426C233.428 344.074 233.548 343.625 233.548 343.08ZM238.685 341.398V346.648H237.344V337.921H238.64V339.284H238.754C238.958 338.841 239.269 338.485 239.685 338.216C240.102 337.943 240.64 337.807 241.299 337.807C241.89 337.807 242.407 337.928 242.85 338.171C243.293 338.409 243.638 338.773 243.884 339.262C244.13 339.746 244.254 340.36 244.254 341.103V346.648H242.913V341.193C242.913 340.508 242.735 339.974 242.379 339.591C242.022 339.205 241.534 339.012 240.913 339.012C240.485 339.012 240.102 339.104 239.765 339.29C239.432 339.476 239.168 339.746 238.975 340.103C238.782 340.459 238.685 340.89 238.685 341.398ZM248.045 335.012V346.648H246.704V335.012H248.045ZM254.046 346.83C253.258 346.83 252.567 346.642 251.972 346.267C251.381 345.892 250.919 345.368 250.586 344.693C250.256 344.019 250.092 343.231 250.092 342.33C250.092 341.421 250.256 340.627 250.586 339.949C250.919 339.271 251.381 338.745 251.972 338.37C252.567 337.995 253.258 337.807 254.046 337.807C254.834 337.807 255.523 337.995 256.114 338.37C256.709 338.745 257.171 339.271 257.501 339.949C257.834 340.627 258.001 341.421 258.001 342.33C258.001 343.231 257.834 344.019 257.501 344.693C257.171 345.368 256.709 345.892 256.114 346.267C255.523 346.642 254.834 346.83 254.046 346.83ZM254.046 345.625C254.645 345.625 255.137 345.472 255.523 345.165C255.91 344.858 256.196 344.455 256.381 343.955C256.567 343.455 256.66 342.913 256.66 342.33C256.66 341.746 256.567 341.203 256.381 340.699C256.196 340.195 255.91 339.788 255.523 339.478C255.137 339.167 254.645 339.012 254.046 339.012C253.448 339.012 252.955 339.167 252.569 339.478C252.183 339.788 251.897 340.195 251.711 340.699C251.525 341.203 251.433 341.746 251.433 342.33C251.433 342.913 251.525 343.455 251.711 343.955C251.897 344.455 252.183 344.858 252.569 345.165C252.955 345.472 253.448 345.625 254.046 345.625ZM263.593 346.83C262.775 346.83 262.07 346.637 261.479 346.25C260.888 345.864 260.434 345.332 260.116 344.654C259.798 343.976 259.638 343.201 259.638 342.33C259.638 341.443 259.801 340.661 260.127 339.983C260.457 339.301 260.915 338.769 261.502 338.387C262.093 338 262.782 337.807 263.57 337.807C264.184 337.807 264.737 337.921 265.229 338.148C265.722 338.375 266.125 338.693 266.44 339.103C266.754 339.512 266.949 339.989 267.025 340.534H265.684C265.582 340.137 265.354 339.784 265.002 339.478C264.654 339.167 264.184 339.012 263.593 339.012C263.07 339.012 262.612 339.148 262.218 339.421C261.828 339.69 261.523 340.07 261.303 340.563C261.087 341.051 260.979 341.625 260.979 342.284C260.979 342.959 261.085 343.546 261.298 344.046C261.513 344.546 261.817 344.934 262.207 345.211C262.601 345.487 263.063 345.625 263.593 345.625C263.942 345.625 264.258 345.565 264.542 345.443C264.826 345.322 265.067 345.148 265.263 344.921C265.46 344.693 265.601 344.421 265.684 344.103H267.025C266.949 344.618 266.762 345.082 266.462 345.495C266.167 345.904 265.775 346.229 265.286 346.472C264.801 346.711 264.237 346.83 263.593 346.83ZM270.235 343.466L270.212 341.807H270.485L274.303 337.921H275.962L271.894 342.034H271.781L270.235 343.466ZM268.985 346.648V335.012H270.326V346.648H268.985ZM274.531 346.648L271.121 342.33L272.076 341.398L276.235 346.648H274.531ZM283.052 349.921C282.825 349.921 282.622 349.902 282.444 349.864C282.266 349.83 282.143 349.796 282.075 349.762L282.415 348.58C282.741 348.663 283.029 348.693 283.279 348.671C283.529 348.648 283.751 348.536 283.944 348.336C284.141 348.139 284.321 347.818 284.484 347.375L284.734 346.693L281.506 337.921H282.961L285.37 344.875H285.461L287.87 337.921H289.325L285.62 347.921C285.453 348.371 285.247 348.745 285.001 349.04C284.754 349.339 284.469 349.561 284.143 349.705C283.821 349.849 283.457 349.921 283.052 349.921ZM294.327 346.83C293.54 346.83 292.848 346.642 292.254 346.267C291.663 345.892 291.201 345.368 290.867 344.693C290.538 344.019 290.373 343.231 290.373 342.33C290.373 341.421 290.538 340.627 290.867 339.949C291.201 339.271 291.663 338.745 292.254 338.37C292.848 337.995 293.54 337.807 294.327 337.807C295.115 337.807 295.805 337.995 296.396 338.37C296.99 338.745 297.452 339.271 297.782 339.949C298.115 340.627 298.282 341.421 298.282 342.33C298.282 343.231 298.115 344.019 297.782 344.693C297.452 345.368 296.99 345.892 296.396 346.267C295.805 346.642 295.115 346.83 294.327 346.83ZM294.327 345.625C294.926 345.625 295.418 345.472 295.805 345.165C296.191 344.858 296.477 344.455 296.663 343.955C296.848 343.455 296.941 342.913 296.941 342.33C296.941 341.746 296.848 341.203 296.663 340.699C296.477 340.195 296.191 339.788 295.805 339.478C295.418 339.167 294.926 339.012 294.327 339.012C293.729 339.012 293.237 339.167 292.85 339.478C292.464 339.788 292.178 340.195 291.992 340.699C291.807 341.203 291.714 341.746 291.714 342.33C291.714 342.913 291.807 343.455 291.992 343.955C292.178 344.455 292.464 344.858 292.85 345.165C293.237 345.472 293.729 345.625 294.327 345.625ZM305.829 343.08V337.921H307.17V346.648H305.829V345.171H305.738C305.533 345.614 305.215 345.991 304.783 346.301C304.352 346.608 303.806 346.762 303.147 346.762C302.602 346.762 302.117 346.642 301.692 346.404C301.268 346.161 300.935 345.798 300.692 345.313C300.45 344.824 300.329 344.209 300.329 343.466V337.921H301.67V343.375C301.67 344.012 301.848 344.519 302.204 344.898C302.564 345.277 303.022 345.466 303.579 345.466C303.912 345.466 304.251 345.381 304.596 345.211C304.944 345.04 305.236 344.779 305.471 344.426C305.71 344.074 305.829 343.625 305.829 343.08ZM309.626 346.648V337.921H310.921V339.239H311.012C311.171 338.807 311.459 338.457 311.876 338.188C312.292 337.919 312.762 337.784 313.285 337.784C313.383 337.784 313.506 337.786 313.654 337.79C313.802 337.794 313.914 337.8 313.989 337.807V339.171C313.944 339.159 313.84 339.142 313.677 339.12C313.518 339.093 313.349 339.08 313.171 339.08C312.747 339.08 312.368 339.169 312.035 339.347C311.705 339.521 311.444 339.764 311.251 340.074C311.061 340.381 310.967 340.731 310.967 341.125V346.648H309.626ZM320.079 346.648V337.921H321.42V346.648H320.079ZM320.761 336.466C320.499 336.466 320.274 336.377 320.085 336.199C319.899 336.021 319.806 335.807 319.806 335.557C319.806 335.307 319.899 335.093 320.085 334.915C320.274 334.737 320.499 334.648 320.761 334.648C321.022 334.648 321.246 334.737 321.431 334.915C321.621 335.093 321.715 335.307 321.715 335.557C321.715 335.807 321.621 336.021 321.431 336.199C321.246 336.377 321.022 336.466 320.761 336.466ZM327.171 346.83C326.444 346.83 325.802 346.646 325.245 346.279C324.688 345.907 324.253 345.385 323.938 344.711C323.624 344.032 323.467 343.231 323.467 342.307C323.467 341.39 323.624 340.595 323.938 339.921C324.253 339.246 324.69 338.726 325.251 338.358C325.811 337.991 326.459 337.807 327.194 337.807C327.762 337.807 328.211 337.902 328.54 338.091C328.874 338.277 329.128 338.489 329.302 338.728C329.48 338.962 329.618 339.156 329.717 339.307H329.83V335.012H331.171V346.648H329.876V345.307H329.717C329.618 345.466 329.478 345.667 329.296 345.909C329.114 346.148 328.855 346.362 328.518 346.551C328.181 346.737 327.732 346.83 327.171 346.83ZM327.353 345.625C327.891 345.625 328.345 345.485 328.717 345.205C329.088 344.921 329.37 344.529 329.563 344.029C329.756 343.525 329.853 342.943 329.853 342.284C329.853 341.633 329.758 341.063 329.569 340.574C329.379 340.082 329.099 339.699 328.728 339.426C328.357 339.15 327.898 339.012 327.353 339.012C326.785 339.012 326.311 339.157 325.933 339.449C325.558 339.737 325.275 340.129 325.086 340.625C324.9 341.118 324.808 341.671 324.808 342.284C324.808 342.906 324.902 343.47 325.092 343.978C325.285 344.481 325.569 344.883 325.944 345.182C326.323 345.478 326.792 345.625 327.353 345.625ZM337.472 346.83C336.631 346.83 335.906 346.644 335.296 346.273C334.69 345.898 334.222 345.375 333.893 344.705C333.567 344.031 333.404 343.246 333.404 342.353C333.404 341.459 333.567 340.671 333.893 339.989C334.222 339.303 334.681 338.769 335.268 338.387C335.859 338 336.548 337.807 337.336 337.807C337.79 337.807 338.239 337.883 338.683 338.034C339.126 338.186 339.529 338.432 339.893 338.773C340.256 339.11 340.546 339.557 340.762 340.114C340.978 340.671 341.086 341.356 341.086 342.171V342.739H334.359V341.58H339.722C339.722 341.087 339.624 340.648 339.427 340.262C339.234 339.875 338.957 339.57 338.597 339.347C338.241 339.123 337.821 339.012 337.336 339.012C336.802 339.012 336.34 339.144 335.95 339.409C335.563 339.671 335.266 340.012 335.058 340.432C334.849 340.853 334.745 341.303 334.745 341.784V342.557C334.745 343.216 334.859 343.775 335.086 344.233C335.317 344.688 335.637 345.034 336.046 345.273C336.455 345.508 336.931 345.625 337.472 345.625C337.825 345.625 338.143 345.576 338.427 345.478C338.715 345.375 338.963 345.224 339.171 345.023C339.379 344.818 339.54 344.565 339.654 344.262L340.95 344.625C340.813 345.065 340.584 345.451 340.262 345.784C339.94 346.114 339.542 346.371 339.069 346.557C338.595 346.739 338.063 346.83 337.472 346.83ZM344.467 341.398V346.648H343.126V337.921H344.421V339.284H344.535C344.739 338.841 345.05 338.485 345.467 338.216C345.883 337.943 346.421 337.807 347.08 337.807C347.671 337.807 348.188 337.928 348.631 338.171C349.075 338.409 349.419 338.773 349.665 339.262C349.912 339.746 350.035 340.36 350.035 341.103V346.648H348.694V341.193C348.694 340.508 348.516 339.974 348.16 339.591C347.804 339.205 347.315 339.012 346.694 339.012C346.266 339.012 345.883 339.104 345.546 339.29C345.213 339.476 344.95 339.746 344.756 340.103C344.563 340.459 344.467 340.89 344.467 341.398ZM356.281 337.921V339.057H351.758V337.921H356.281ZM353.076 335.83H354.417V344.148C354.417 344.527 354.472 344.811 354.582 345C354.695 345.186 354.839 345.311 355.013 345.375C355.192 345.436 355.379 345.466 355.576 345.466C355.724 345.466 355.845 345.459 355.94 345.443C356.034 345.425 356.11 345.409 356.167 345.398L356.44 346.603C356.349 346.637 356.222 346.671 356.059 346.705C355.896 346.743 355.69 346.762 355.44 346.762C355.061 346.762 354.69 346.68 354.326 346.517C353.966 346.354 353.667 346.106 353.428 345.773C353.193 345.44 353.076 345.019 353.076 344.512V335.83ZM358.298 346.648V337.921H359.638V346.648H358.298ZM358.979 336.466C358.718 336.466 358.493 336.377 358.303 336.199C358.118 336.021 358.025 335.807 358.025 335.557C358.025 335.307 358.118 335.093 358.303 334.915C358.493 334.737 358.718 334.648 358.979 334.648C359.241 334.648 359.464 334.737 359.65 334.915C359.839 335.093 359.934 335.307 359.934 335.557C359.934 335.807 359.839 336.021 359.65 336.199C359.464 336.377 359.241 336.466 358.979 336.466ZM365.89 337.921V339.057H361.367V337.921H365.89ZM362.685 335.83H364.026V344.148C364.026 344.527 364.081 344.811 364.191 345C364.305 345.186 364.449 345.311 364.623 345.375C364.801 345.436 364.988 345.466 365.185 345.466C365.333 345.466 365.454 345.459 365.549 345.443C365.644 345.425 365.719 345.409 365.776 345.398L366.049 346.603C365.958 346.637 365.831 346.671 365.668 346.705C365.505 346.743 365.299 346.762 365.049 346.762C364.67 346.762 364.299 346.68 363.935 346.517C363.576 346.354 363.276 346.106 363.038 345.773C362.803 345.44 362.685 345.019 362.685 344.512V335.83ZM368.771 349.921C368.543 349.921 368.341 349.902 368.163 349.864C367.985 349.83 367.862 349.796 367.793 349.762L368.134 348.58C368.46 348.663 368.748 348.693 368.998 348.671C369.248 348.648 369.469 348.536 369.663 348.336C369.86 348.139 370.04 347.818 370.202 347.375L370.452 346.693L367.225 337.921H368.68L371.089 344.875H371.18L373.589 337.921H375.043L371.339 347.921C371.172 348.371 370.966 348.745 370.719 349.04C370.473 349.339 370.187 349.561 369.862 349.705C369.54 349.849 369.176 349.921 368.771 349.921ZM116.643 365.648V354.012H117.984V358.307H118.098C118.196 358.156 118.333 357.962 118.507 357.728C118.685 357.489 118.939 357.277 119.268 357.091C119.602 356.902 120.053 356.807 120.621 356.807C121.356 356.807 122.003 356.991 122.564 357.358C123.125 357.726 123.562 358.246 123.876 358.921C124.191 359.595 124.348 360.39 124.348 361.307C124.348 362.231 124.191 363.032 123.876 363.711C123.562 364.385 123.126 364.907 122.57 365.279C122.013 365.646 121.371 365.83 120.643 365.83C120.083 365.83 119.634 365.737 119.297 365.551C118.96 365.362 118.7 365.148 118.518 364.909C118.337 364.667 118.196 364.466 118.098 364.307H117.939V365.648H116.643ZM117.962 361.284C117.962 361.943 118.058 362.525 118.251 363.029C118.445 363.529 118.727 363.921 119.098 364.205C119.469 364.485 119.924 364.625 120.462 364.625C121.022 364.625 121.49 364.478 121.865 364.182C122.244 363.883 122.528 363.481 122.717 362.978C122.911 362.47 123.007 361.906 123.007 361.284C123.007 360.671 122.912 360.118 122.723 359.625C122.537 359.129 122.255 358.737 121.876 358.449C121.501 358.157 121.03 358.012 120.462 358.012C119.916 358.012 119.458 358.15 119.087 358.426C118.715 358.699 118.435 359.082 118.246 359.574C118.056 360.063 117.962 360.633 117.962 361.284ZM126.95 368.921C126.723 368.921 126.52 368.902 126.342 368.864C126.164 368.83 126.041 368.796 125.973 368.762L126.314 367.58C126.64 367.663 126.928 367.693 127.178 367.671C127.428 367.648 127.649 367.536 127.842 367.336C128.039 367.139 128.219 366.818 128.382 366.375L128.632 365.693L125.405 356.921H126.859L129.268 363.875H129.359L131.768 356.921H133.223L129.518 366.921C129.352 367.371 129.145 367.745 128.899 368.04C128.653 368.339 128.367 368.561 128.041 368.705C127.719 368.849 127.356 368.921 126.95 368.921ZM146.629 356.921L143.402 365.648H142.038L138.811 356.921H140.266L142.675 363.875H142.766L145.175 356.921H146.629ZM151.746 365.83C150.905 365.83 150.179 365.644 149.57 365.273C148.964 364.898 148.496 364.375 148.166 363.705C147.84 363.031 147.678 362.246 147.678 361.353C147.678 360.459 147.84 359.671 148.166 358.989C148.496 358.303 148.954 357.769 149.541 357.387C150.132 357 150.821 356.807 151.609 356.807C152.064 356.807 152.513 356.883 152.956 357.034C153.399 357.186 153.803 357.432 154.166 357.773C154.53 358.11 154.82 358.557 155.036 359.114C155.251 359.671 155.359 360.356 155.359 361.171V361.739H148.632V360.58H153.996C153.996 360.087 153.897 359.648 153.7 359.262C153.507 358.875 153.231 358.57 152.871 358.347C152.515 358.123 152.094 358.012 151.609 358.012C151.075 358.012 150.613 358.144 150.223 358.409C149.837 358.671 149.539 359.012 149.331 359.432C149.123 359.853 149.018 360.303 149.018 360.784V361.557C149.018 362.216 149.132 362.775 149.359 363.233C149.59 363.688 149.911 364.034 150.32 364.273C150.729 364.508 151.204 364.625 151.746 364.625C152.098 364.625 152.416 364.576 152.7 364.478C152.988 364.375 153.236 364.224 153.445 364.023C153.653 363.818 153.814 363.565 153.928 363.262L155.223 363.625C155.087 364.065 154.857 364.451 154.536 364.784C154.214 365.114 153.816 365.371 153.342 365.557C152.869 365.739 152.337 365.83 151.746 365.83ZM157.399 365.648V356.921H158.695V358.239H158.786C158.945 357.807 159.232 357.457 159.649 357.188C160.066 356.919 160.536 356.784 161.058 356.784C161.157 356.784 161.28 356.786 161.428 356.79C161.575 356.794 161.687 356.8 161.763 356.807V358.171C161.717 358.159 161.613 358.142 161.45 358.12C161.291 358.093 161.123 358.08 160.945 358.08C160.52 358.08 160.142 358.169 159.808 358.347C159.479 358.521 159.217 358.764 159.024 359.074C158.835 359.381 158.74 359.731 158.74 360.125V365.648H157.399ZM163.352 365.648V356.921H164.693V365.648H163.352ZM164.034 355.466C163.773 355.466 163.547 355.377 163.358 355.199C163.172 355.021 163.08 354.807 163.08 354.557C163.08 354.307 163.172 354.093 163.358 353.915C163.547 353.737 163.773 353.648 164.034 353.648C164.295 353.648 164.519 353.737 164.705 353.915C164.894 354.093 164.989 354.307 164.989 354.557C164.989 354.807 164.894 355.021 164.705 355.199C164.519 355.377 164.295 355.466 164.034 355.466ZM171.036 356.921V358.057H166.331V356.921H171.036ZM167.74 365.648V355.716C167.74 355.216 167.857 354.8 168.092 354.466C168.327 354.133 168.632 353.883 169.007 353.716C169.382 353.55 169.778 353.466 170.195 353.466C170.524 353.466 170.793 353.493 171.001 353.546C171.21 353.599 171.365 353.648 171.467 353.693L171.081 354.853C171.013 354.83 170.918 354.801 170.797 354.767C170.679 354.733 170.524 354.716 170.331 354.716C169.888 354.716 169.568 354.828 169.371 355.051C169.178 355.275 169.081 355.603 169.081 356.034V365.648H167.74ZM173.778 368.921C173.551 368.921 173.348 368.902 173.17 368.864C172.992 368.83 172.869 368.796 172.801 368.762L173.142 367.58C173.468 367.663 173.756 367.693 174.006 367.671C174.256 367.648 174.477 367.536 174.67 367.336C174.867 367.139 175.047 366.818 175.21 366.375L175.46 365.693L172.233 356.921H173.688L176.097 363.875H176.188L178.597 356.921H180.051L176.347 366.921C176.18 367.371 175.973 367.745 175.727 368.04C175.481 368.339 175.195 368.561 174.869 368.705C174.547 368.849 174.184 368.921 173.778 368.921ZM181.821 365.648V356.921H183.162V365.648H181.821ZM182.503 355.466C182.241 355.466 182.016 355.377 181.827 355.199C181.641 355.021 181.548 354.807 181.548 354.557C181.548 354.307 181.641 354.093 181.827 353.915C182.016 353.737 182.241 353.648 182.503 353.648C182.764 353.648 182.988 353.737 183.173 353.915C183.363 354.093 183.457 354.307 183.457 354.557C183.457 354.807 183.363 355.021 183.173 355.199C182.988 355.377 182.764 355.466 182.503 355.466ZM186.959 360.398V365.648H185.618V356.921H186.913V358.284H187.027C187.232 357.841 187.542 357.485 187.959 357.216C188.375 356.943 188.913 356.807 189.572 356.807C190.163 356.807 190.68 356.928 191.124 357.171C191.567 357.409 191.911 357.773 192.158 358.262C192.404 358.746 192.527 359.36 192.527 360.103V365.648H191.186V360.193C191.186 359.508 191.008 358.974 190.652 358.591C190.296 358.205 189.807 358.012 189.186 358.012C188.758 358.012 188.375 358.104 188.038 358.29C187.705 358.476 187.442 358.746 187.249 359.103C187.055 359.459 186.959 359.89 186.959 360.398ZM198.5 369.103C197.852 369.103 197.295 369.019 196.83 368.853C196.364 368.69 195.975 368.474 195.665 368.205C195.358 367.94 195.114 367.656 194.932 367.353L196 366.603C196.121 366.762 196.275 366.943 196.46 367.148C196.646 367.356 196.9 367.536 197.222 367.688C197.547 367.843 197.973 367.921 198.5 367.921C199.205 367.921 199.786 367.75 200.244 367.409C200.703 367.068 200.932 366.534 200.932 365.807V364.034H200.818C200.72 364.193 200.58 364.39 200.398 364.625C200.22 364.856 199.962 365.063 199.625 365.245C199.292 365.423 198.841 365.512 198.273 365.512C197.568 365.512 196.936 365.345 196.375 365.012C195.818 364.678 195.377 364.193 195.051 363.557C194.729 362.921 194.568 362.148 194.568 361.239C194.568 360.345 194.725 359.567 195.04 358.904C195.354 358.237 195.792 357.722 196.352 357.358C196.913 356.991 197.561 356.807 198.295 356.807C198.864 356.807 199.314 356.902 199.648 357.091C199.985 357.277 200.242 357.489 200.42 357.728C200.602 357.962 200.742 358.156 200.841 358.307H200.977V356.921H202.273V365.898C202.273 366.648 202.102 367.258 201.761 367.728C201.424 368.201 200.97 368.548 200.398 368.767C199.83 368.991 199.197 369.103 198.5 369.103ZM198.455 364.307C198.992 364.307 199.447 364.184 199.818 363.938C200.189 363.692 200.472 363.337 200.665 362.875C200.858 362.413 200.955 361.86 200.955 361.216C200.955 360.587 200.86 360.032 200.67 359.551C200.481 359.07 200.201 358.693 199.83 358.421C199.458 358.148 199 358.012 198.455 358.012C197.886 358.012 197.413 358.156 197.034 358.443C196.659 358.731 196.377 359.118 196.188 359.603C196.002 360.087 195.909 360.625 195.909 361.216C195.909 361.822 196.004 362.358 196.193 362.824C196.386 363.286 196.67 363.65 197.045 363.915C197.424 364.176 197.894 364.307 198.455 364.307ZM210.091 368.921C209.864 368.921 209.661 368.902 209.483 368.864C209.305 368.83 209.182 368.796 209.114 368.762L209.455 367.58C209.78 367.663 210.068 367.693 210.318 367.671C210.568 367.648 210.79 367.536 210.983 367.336C211.18 367.139 211.36 366.818 211.523 366.375L211.773 365.693L208.545 356.921H210L212.409 363.875H212.5L214.909 356.921H216.364L212.659 366.921C212.492 367.371 212.286 367.745 212.04 368.04C211.794 368.339 211.508 368.561 211.182 368.705C210.86 368.849 210.496 368.921 210.091 368.921ZM221.366 365.83C220.579 365.83 219.887 365.642 219.293 365.267C218.702 364.892 218.24 364.368 217.906 363.693C217.577 363.019 217.412 362.231 217.412 361.33C217.412 360.421 217.577 359.627 217.906 358.949C218.24 358.271 218.702 357.745 219.293 357.37C219.887 356.995 220.579 356.807 221.366 356.807C222.154 356.807 222.844 356.995 223.435 357.37C224.029 357.745 224.491 358.271 224.821 358.949C225.154 359.627 225.321 360.421 225.321 361.33C225.321 362.231 225.154 363.019 224.821 363.693C224.491 364.368 224.029 364.892 223.435 365.267C222.844 365.642 222.154 365.83 221.366 365.83ZM221.366 364.625C221.965 364.625 222.457 364.472 222.844 364.165C223.23 363.858 223.516 363.455 223.702 362.955C223.887 362.455 223.98 361.913 223.98 361.33C223.98 360.746 223.887 360.203 223.702 359.699C223.516 359.195 223.23 358.788 222.844 358.478C222.457 358.167 221.965 358.012 221.366 358.012C220.768 358.012 220.276 358.167 219.889 358.478C219.503 358.788 219.217 359.195 219.031 359.699C218.846 360.203 218.753 360.746 218.753 361.33C218.753 361.913 218.846 362.455 219.031 362.955C219.217 363.455 219.503 363.858 219.889 364.165C220.276 364.472 220.768 364.625 221.366 364.625ZM232.868 362.08V356.921H234.209V365.648H232.868V364.171H232.777C232.572 364.614 232.254 364.991 231.822 365.301C231.391 365.608 230.845 365.762 230.186 365.762C229.641 365.762 229.156 365.642 228.732 365.404C228.307 365.161 227.974 364.798 227.732 364.313C227.489 363.824 227.368 363.209 227.368 362.466V356.921H228.709V362.375C228.709 363.012 228.887 363.519 229.243 363.898C229.603 364.277 230.061 364.466 230.618 364.466C230.951 364.466 231.29 364.381 231.635 364.211C231.983 364.04 232.275 363.779 232.51 363.426C232.749 363.074 232.868 362.625 232.868 362.08ZM236.665 365.648V356.921H237.96V358.239H238.051C238.21 357.807 238.498 357.457 238.915 357.188C239.331 356.919 239.801 356.784 240.324 356.784C240.422 356.784 240.545 356.786 240.693 356.79C240.841 356.794 240.953 356.8 241.028 356.807V358.171C240.983 358.159 240.879 358.142 240.716 358.12C240.557 358.093 240.388 358.08 240.21 358.08C239.786 358.08 239.407 358.169 239.074 358.347C238.744 358.521 238.483 358.764 238.29 359.074C238.1 359.381 238.006 359.731 238.006 360.125V365.648H236.665ZM247.118 368.921V356.921H248.413V358.307H248.572C248.671 358.156 248.807 357.962 248.982 357.728C249.16 357.489 249.413 357.277 249.743 357.091C250.076 356.902 250.527 356.807 251.095 356.807C251.83 356.807 252.478 356.991 253.038 357.358C253.599 357.726 254.036 358.246 254.351 358.921C254.665 359.595 254.822 360.39 254.822 361.307C254.822 362.231 254.665 363.032 254.351 363.711C254.036 364.385 253.601 364.907 253.044 365.279C252.487 365.646 251.845 365.83 251.118 365.83C250.557 365.83 250.108 365.737 249.771 365.551C249.434 365.362 249.175 365.148 248.993 364.909C248.811 364.667 248.671 364.466 248.572 364.307H248.459V368.921H247.118ZM248.436 361.284C248.436 361.943 248.533 362.525 248.726 363.029C248.919 363.529 249.201 363.921 249.572 364.205C249.944 364.485 250.398 364.625 250.936 364.625C251.497 364.625 251.964 364.478 252.339 364.182C252.718 363.883 253.002 363.481 253.192 362.978C253.385 362.47 253.482 361.906 253.482 361.284C253.482 360.671 253.387 360.118 253.197 359.625C253.012 359.129 252.73 358.737 252.351 358.449C251.976 358.157 251.504 358.012 250.936 358.012C250.391 358.012 249.932 358.15 249.561 358.426C249.19 358.699 248.91 359.082 248.72 359.574C248.531 360.063 248.436 360.633 248.436 361.284ZM259.436 365.853C258.883 365.853 258.381 365.748 257.93 365.54C257.48 365.328 257.122 365.023 256.857 364.625C256.591 364.224 256.459 363.739 256.459 363.171C256.459 362.671 256.557 362.265 256.754 361.955C256.951 361.64 257.214 361.394 257.544 361.216C257.874 361.038 258.237 360.906 258.635 360.818C259.036 360.728 259.44 360.656 259.845 360.603C260.375 360.534 260.805 360.483 261.135 360.449C261.468 360.411 261.711 360.349 261.862 360.262C262.018 360.175 262.095 360.023 262.095 359.807V359.762C262.095 359.201 261.942 358.765 261.635 358.455C261.332 358.144 260.872 357.989 260.254 357.989C259.614 357.989 259.112 358.129 258.749 358.409C258.385 358.69 258.129 358.989 257.982 359.307L256.709 358.853C256.936 358.322 257.239 357.909 257.618 357.614C258 357.315 258.417 357.106 258.868 356.989C259.322 356.868 259.769 356.807 260.209 356.807C260.489 356.807 260.811 356.841 261.175 356.909C261.542 356.974 261.896 357.108 262.237 357.313C262.582 357.517 262.868 357.826 263.095 358.239C263.322 358.652 263.436 359.205 263.436 359.898V365.648H262.095V364.466H262.027C261.936 364.656 261.785 364.858 261.572 365.074C261.36 365.29 261.078 365.474 260.726 365.625C260.374 365.777 259.944 365.853 259.436 365.853ZM259.641 364.648C260.171 364.648 260.618 364.544 260.982 364.336C261.349 364.127 261.625 363.858 261.811 363.529C262 363.199 262.095 362.853 262.095 362.489V361.262C262.038 361.33 261.913 361.392 261.72 361.449C261.531 361.502 261.311 361.55 261.061 361.591C260.815 361.629 260.574 361.663 260.339 361.693C260.108 361.72 259.921 361.743 259.777 361.762C259.429 361.807 259.103 361.881 258.8 361.983C258.5 362.082 258.258 362.231 258.072 362.432C257.891 362.629 257.8 362.898 257.8 363.239C257.8 363.705 257.972 364.057 258.317 364.296C258.665 364.531 259.107 364.648 259.641 364.648ZM267.224 354.012V365.648H265.884V354.012H267.224ZM269.68 365.648V356.921H270.976V358.284H271.089C271.271 357.818 271.565 357.457 271.97 357.199C272.375 356.938 272.862 356.807 273.43 356.807C274.006 356.807 274.485 356.938 274.868 357.199C275.254 357.457 275.555 357.818 275.771 358.284H275.862C276.086 357.834 276.421 357.476 276.868 357.211C277.315 356.942 277.851 356.807 278.476 356.807C279.256 356.807 279.894 357.051 280.391 357.54C280.887 358.025 281.135 358.781 281.135 359.807V365.648H279.794V359.807C279.794 359.163 279.618 358.703 279.266 358.426C278.913 358.15 278.499 358.012 278.021 358.012C277.408 358.012 276.932 358.197 276.595 358.568C276.258 358.936 276.089 359.402 276.089 359.966V365.648H274.726V359.671C274.726 359.175 274.565 358.775 274.243 358.472C273.921 358.165 273.506 358.012 272.999 358.012C272.65 358.012 272.324 358.104 272.021 358.29C271.722 358.476 271.48 358.733 271.294 359.063C271.112 359.389 271.021 359.765 271.021 360.193V365.648H269.68ZM284.564 365.739C284.284 365.739 284.043 365.639 283.842 365.438C283.642 365.237 283.541 364.996 283.541 364.716C283.541 364.436 283.642 364.195 283.842 363.995C284.043 363.794 284.284 363.693 284.564 363.693C284.844 363.693 285.085 363.794 285.286 363.995C285.486 364.195 285.587 364.436 285.587 364.716C285.587 364.902 285.539 365.072 285.445 365.228C285.354 365.383 285.231 365.508 285.075 365.603C284.924 365.693 284.753 365.739 284.564 365.739Z" fill="black"/>
<rect x="28" y="654.648" width="346" height="90" rx="12" fill="#E4E4E4"/>
<path d="M48.1477 684.921C48.0795 684.345 47.803 683.898 47.3182 683.58C46.8333 683.262 46.2386 683.102 45.5341 683.102C45.0189 683.102 44.5682 683.186 44.1818 683.352C43.7992 683.519 43.5 683.748 43.2841 684.04C43.072 684.332 42.9659 684.663 42.9659 685.034C42.9659 685.345 43.0398 685.612 43.1875 685.835C43.339 686.055 43.5322 686.239 43.767 686.387C44.0019 686.531 44.2481 686.65 44.5057 686.745C44.7633 686.835 45 686.909 45.2159 686.966L46.3977 687.284C46.7008 687.364 47.0379 687.474 47.4091 687.614C47.7841 687.754 48.142 687.945 48.483 688.188C48.8277 688.426 49.1117 688.733 49.3352 689.108C49.5587 689.483 49.6705 689.943 49.6705 690.489C49.6705 691.118 49.5057 691.686 49.1761 692.193C48.8504 692.701 48.3731 693.104 47.7443 693.404C47.1193 693.703 46.3598 693.852 45.4659 693.852C44.6326 693.852 43.911 693.718 43.3011 693.449C42.6951 693.18 42.2178 692.805 41.8693 692.324C41.5246 691.843 41.3295 691.284 41.2841 690.648H42.7386C42.7765 691.087 42.9242 691.451 43.1818 691.739C43.4432 692.023 43.7727 692.235 44.1705 692.375C44.572 692.512 45.0038 692.58 45.4659 692.58C46.0038 692.58 46.4867 692.493 46.9148 692.318C47.3428 692.14 47.6818 691.894 47.9318 691.58C48.1818 691.262 48.3068 690.89 48.3068 690.466C48.3068 690.08 48.1989 689.765 47.983 689.523C47.767 689.281 47.483 689.084 47.1307 688.932C46.7784 688.781 46.3977 688.648 45.9886 688.534L44.5568 688.125C43.6477 687.864 42.928 687.491 42.3977 687.006C41.8674 686.521 41.6023 685.887 41.6023 685.102C41.6023 684.451 41.7784 683.883 42.1307 683.398C42.4867 682.909 42.964 682.531 43.5625 682.262C44.1648 681.989 44.8371 681.852 45.5795 681.852C46.3295 681.852 46.9962 681.987 47.5795 682.256C48.1629 682.521 48.625 682.885 48.9659 683.347C49.3106 683.809 49.4924 684.334 49.5114 684.921H48.1477ZM51.8054 693.648V684.921H53.1463V693.648H51.8054ZM52.4872 683.466C52.2259 683.466 52.0005 683.377 51.8111 683.199C51.6255 683.021 51.5327 682.807 51.5327 682.557C51.5327 682.307 51.6255 682.093 51.8111 681.915C52.0005 681.737 52.2259 681.648 52.4872 681.648C52.7486 681.648 52.9721 681.737 53.1577 681.915C53.3471 682.093 53.4418 682.307 53.4418 682.557C53.4418 682.807 53.3471 683.021 53.1577 683.199C52.9721 683.377 52.7486 683.466 52.4872 683.466ZM59.125 697.102C58.4773 697.102 57.9205 697.019 57.4545 696.852C56.9886 696.69 56.6004 696.474 56.2898 696.205C55.983 695.94 55.7386 695.656 55.5568 695.352L56.625 694.602C56.7462 694.762 56.8996 694.943 57.0852 695.148C57.2708 695.356 57.5246 695.536 57.8466 695.688C58.1723 695.843 58.5985 695.921 59.125 695.921C59.8295 695.921 60.411 695.75 60.8693 695.409C61.3277 695.068 61.5568 694.534 61.5568 693.807V692.034H61.4432C61.3447 692.193 61.2045 692.39 61.0227 692.625C60.8447 692.856 60.5871 693.063 60.25 693.245C59.9167 693.423 59.4659 693.512 58.8977 693.512C58.1932 693.512 57.5606 693.345 57 693.012C56.4432 692.678 56.0019 692.193 55.6761 691.557C55.3542 690.921 55.1932 690.148 55.1932 689.239C55.1932 688.345 55.3504 687.567 55.6648 686.904C55.9792 686.237 56.4167 685.722 56.9773 685.358C57.5379 684.991 58.1856 684.807 58.9205 684.807C59.4886 684.807 59.9394 684.902 60.2727 685.091C60.6098 685.277 60.8674 685.489 61.0455 685.727C61.2273 685.962 61.3674 686.156 61.4659 686.307H61.6023V684.921H62.8977V693.898C62.8977 694.648 62.7273 695.258 62.3864 695.727C62.0492 696.201 61.5947 696.548 61.0227 696.767C60.4545 696.991 59.822 697.102 59.125 697.102ZM59.0795 692.307C59.6174 692.307 60.072 692.184 60.4432 691.938C60.8144 691.692 61.0966 691.337 61.2898 690.875C61.483 690.413 61.5795 689.86 61.5795 689.216C61.5795 688.587 61.4848 688.032 61.2955 687.551C61.1061 687.07 60.8258 686.693 60.4545 686.421C60.0833 686.148 59.625 686.012 59.0795 686.012C58.5114 686.012 58.0379 686.156 57.6591 686.443C57.2841 686.731 57.0019 687.118 56.8125 687.602C56.6269 688.087 56.5341 688.625 56.5341 689.216C56.5341 689.822 56.6288 690.358 56.8182 690.824C57.0114 691.286 57.2955 691.65 57.6705 691.915C58.0492 692.176 58.5189 692.307 59.0795 692.307ZM66.6932 688.398V693.648H65.3523V684.921H66.6477V686.284H66.7614C66.9659 685.841 67.2765 685.485 67.6932 685.216C68.1098 684.943 68.6477 684.807 69.3068 684.807C69.8977 684.807 70.4148 684.928 70.858 685.171C71.3011 685.409 71.6458 685.773 71.892 686.262C72.1383 686.746 72.2614 687.36 72.2614 688.102V693.648H70.9205V688.193C70.9205 687.508 70.7424 686.974 70.3864 686.591C70.0303 686.205 69.5417 686.012 68.9205 686.012C68.4924 686.012 68.1098 686.104 67.7727 686.29C67.4394 686.476 67.1761 686.746 66.983 687.102C66.7898 687.459 66.6932 687.89 66.6932 688.398ZM80.8026 682.012V693.648H79.3935V682.012H80.8026ZM84.7869 688.398V693.648H83.446V684.921H84.7415V686.284H84.8551C85.0597 685.841 85.3703 685.485 85.7869 685.216C86.2036 684.943 86.7415 684.807 87.4006 684.807C87.9915 684.807 88.5085 684.928 88.9517 685.171C89.3949 685.409 89.7396 685.773 89.9858 686.262C90.232 686.746 90.3551 687.36 90.3551 688.102V693.648H89.0142V688.193C89.0142 687.508 88.8362 686.974 88.4801 686.591C88.1241 686.205 87.6354 686.012 87.0142 686.012C86.5862 686.012 86.2036 686.104 85.8665 686.29C85.5331 686.476 85.2699 686.746 85.0767 687.102C84.8835 687.459 84.7869 687.89 84.7869 688.398ZM101.419 681.466L97.669 695.398H96.4418L100.192 681.466H101.419ZM107.69 693.648V682.012H111.622C112.531 682.012 113.277 682.167 113.861 682.477C114.444 682.784 114.876 683.207 115.156 683.745C115.437 684.282 115.577 684.894 115.577 685.58C115.577 686.265 115.437 686.873 115.156 687.404C114.876 687.934 114.446 688.351 113.866 688.654C113.287 688.953 112.546 689.102 111.645 689.102H108.463V687.83H111.599C112.221 687.83 112.721 687.739 113.099 687.557C113.482 687.375 113.759 687.118 113.929 686.784C114.103 686.447 114.19 686.046 114.19 685.58C114.19 685.114 114.103 684.707 113.929 684.358C113.755 684.01 113.476 683.741 113.094 683.551C112.711 683.358 112.205 683.262 111.577 683.262H109.099V693.648H107.69ZM113.168 688.421L116.031 693.648H114.395L111.577 688.421H113.168ZM121.308 693.83C120.467 693.83 119.742 693.644 119.132 693.273C118.526 692.898 118.058 692.375 117.729 691.705C117.403 691.031 117.24 690.246 117.24 689.352C117.24 688.459 117.403 687.671 117.729 686.989C118.058 686.303 118.517 685.769 119.104 685.387C119.695 685 120.384 684.807 121.172 684.807C121.626 684.807 122.075 684.883 122.518 685.034C122.962 685.186 123.365 685.432 123.729 685.773C124.092 686.11 124.382 686.557 124.598 687.114C124.814 687.671 124.922 688.356 124.922 689.171V689.739H118.195V688.58H123.558C123.558 688.087 123.46 687.648 123.263 687.262C123.07 686.875 122.793 686.57 122.433 686.347C122.077 686.123 121.657 686.012 121.172 686.012C120.638 686.012 120.176 686.144 119.786 686.409C119.399 686.671 119.102 687.012 118.893 687.432C118.685 687.852 118.581 688.303 118.581 688.784V689.557C118.581 690.216 118.695 690.775 118.922 691.233C119.153 691.688 119.473 692.034 119.882 692.273C120.291 692.508 120.767 692.625 121.308 692.625C121.661 692.625 121.979 692.576 122.263 692.477C122.551 692.375 122.799 692.224 123.007 692.023C123.215 691.818 123.376 691.565 123.49 691.262L124.786 691.625C124.649 692.065 124.42 692.451 124.098 692.784C123.776 693.114 123.378 693.371 122.905 693.557C122.431 693.739 121.899 693.83 121.308 693.83ZM130.484 697.102C129.837 697.102 129.28 697.019 128.814 696.852C128.348 696.69 127.96 696.474 127.649 696.205C127.342 695.94 127.098 695.656 126.916 695.352L127.984 694.602C128.106 694.762 128.259 694.943 128.445 695.148C128.63 695.356 128.884 695.536 129.206 695.688C129.532 695.843 129.958 695.921 130.484 695.921C131.189 695.921 131.77 695.75 132.229 695.409C132.687 695.068 132.916 694.534 132.916 693.807V692.034H132.803C132.704 692.193 132.564 692.39 132.382 692.625C132.204 692.856 131.946 693.063 131.609 693.245C131.276 693.423 130.825 693.512 130.257 693.512C129.553 693.512 128.92 693.345 128.359 693.012C127.803 692.678 127.361 692.193 127.036 691.557C126.714 690.921 126.553 690.148 126.553 689.239C126.553 688.345 126.71 687.567 127.024 686.904C127.339 686.237 127.776 685.722 128.337 685.358C128.897 684.991 129.545 684.807 130.28 684.807C130.848 684.807 131.299 684.902 131.632 685.091C131.969 685.277 132.227 685.489 132.405 685.727C132.587 685.962 132.727 686.156 132.825 686.307H132.962V684.921H134.257V693.898C134.257 694.648 134.087 695.258 133.746 695.727C133.409 696.201 132.954 696.548 132.382 696.767C131.814 696.991 131.181 697.102 130.484 697.102ZM130.439 692.307C130.977 692.307 131.431 692.184 131.803 691.938C132.174 691.692 132.456 691.337 132.649 690.875C132.842 690.413 132.939 689.86 132.939 689.216C132.939 688.587 132.844 688.032 132.655 687.551C132.465 687.07 132.185 686.693 131.814 686.421C131.443 686.148 130.984 686.012 130.439 686.012C129.871 686.012 129.397 686.156 129.018 686.443C128.643 686.731 128.361 687.118 128.172 687.602C127.986 688.087 127.893 688.625 127.893 689.216C127.893 689.822 127.988 690.358 128.178 690.824C128.371 691.286 128.655 691.65 129.03 691.915C129.409 692.176 129.878 692.307 130.439 692.307ZM136.712 693.648V684.921H138.053V693.648H136.712ZM137.393 683.466C137.132 683.466 136.907 683.377 136.717 683.199C136.532 683.021 136.439 682.807 136.439 682.557C136.439 682.307 136.532 682.093 136.717 681.915C136.907 681.737 137.132 681.648 137.393 681.648C137.655 681.648 137.878 681.737 138.064 681.915C138.253 682.093 138.348 682.307 138.348 682.557C138.348 682.807 138.253 683.021 138.064 683.199C137.878 683.377 137.655 683.466 137.393 683.466ZM146.69 686.875L145.486 687.216C145.41 687.015 145.298 686.82 145.151 686.631C145.007 686.438 144.81 686.279 144.56 686.154C144.31 686.029 143.99 685.966 143.599 685.966C143.065 685.966 142.62 686.089 142.264 686.335C141.912 686.578 141.736 686.887 141.736 687.262C141.736 687.595 141.857 687.858 142.099 688.051C142.342 688.245 142.721 688.406 143.236 688.534L144.531 688.852C145.312 689.042 145.893 689.332 146.276 689.722C146.658 690.108 146.849 690.606 146.849 691.216C146.849 691.716 146.705 692.163 146.418 692.557C146.134 692.951 145.736 693.262 145.224 693.489C144.713 693.716 144.118 693.83 143.44 693.83C142.55 693.83 141.813 693.637 141.23 693.25C140.647 692.864 140.277 692.299 140.122 691.557L141.395 691.239C141.516 691.709 141.745 692.061 142.082 692.296C142.423 692.531 142.868 692.648 143.418 692.648C144.043 692.648 144.539 692.515 144.906 692.25C145.277 691.981 145.463 691.659 145.463 691.284C145.463 690.981 145.357 690.727 145.145 690.523C144.933 690.315 144.607 690.159 144.168 690.057L142.713 689.716C141.914 689.527 141.327 689.233 140.952 688.835C140.58 688.434 140.395 687.932 140.395 687.33C140.395 686.837 140.533 686.402 140.81 686.023C141.09 685.644 141.471 685.347 141.952 685.131C142.437 684.915 142.986 684.807 143.599 684.807C144.463 684.807 145.141 684.996 145.634 685.375C146.13 685.754 146.482 686.254 146.69 686.875ZM152.663 684.921V686.057H148.141V684.921H152.663ZM149.459 682.83H150.8V691.148C150.8 691.527 150.855 691.811 150.964 692C151.078 692.186 151.222 692.311 151.396 692.375C151.574 692.436 151.762 692.466 151.959 692.466C152.107 692.466 152.228 692.459 152.322 692.443C152.417 692.424 152.493 692.409 152.55 692.398L152.822 693.602C152.732 693.637 152.605 693.671 152.442 693.705C152.279 693.743 152.072 693.762 151.822 693.762C151.444 693.762 151.072 693.68 150.709 693.517C150.349 693.354 150.05 693.106 149.811 692.773C149.576 692.44 149.459 692.019 149.459 691.512V682.83ZM158.246 693.83C157.405 693.83 156.679 693.644 156.07 693.273C155.464 692.898 154.996 692.375 154.666 691.705C154.34 691.031 154.178 690.246 154.178 689.352C154.178 688.459 154.34 687.671 154.666 686.989C154.996 686.303 155.454 685.769 156.041 685.387C156.632 685 157.321 684.807 158.109 684.807C158.564 684.807 159.013 684.883 159.456 685.034C159.899 685.186 160.303 685.432 160.666 685.773C161.03 686.11 161.32 686.557 161.536 687.114C161.751 687.671 161.859 688.356 161.859 689.171V689.739H155.132V688.58H160.496C160.496 688.087 160.397 687.648 160.2 687.262C160.007 686.875 159.731 686.57 159.371 686.347C159.015 686.123 158.594 686.012 158.109 686.012C157.575 686.012 157.113 686.144 156.723 686.409C156.337 686.671 156.039 687.012 155.831 687.432C155.623 687.852 155.518 688.303 155.518 688.784V689.557C155.518 690.216 155.632 690.775 155.859 691.233C156.09 691.688 156.411 692.034 156.82 692.273C157.229 692.508 157.704 692.625 158.246 692.625C158.598 692.625 158.916 692.576 159.2 692.477C159.488 692.375 159.736 692.224 159.945 692.023C160.153 691.818 160.314 691.565 160.428 691.262L161.723 691.625C161.587 692.065 161.357 692.451 161.036 692.784C160.714 693.114 160.316 693.371 159.842 693.557C159.369 693.739 158.837 693.83 158.246 693.83ZM163.899 693.648V684.921H165.195V686.239H165.286C165.445 685.807 165.732 685.457 166.149 685.188C166.566 684.919 167.036 684.784 167.558 684.784C167.657 684.784 167.78 684.786 167.928 684.79C168.075 684.794 168.187 684.799 168.263 684.807V686.171C168.217 686.159 168.113 686.142 167.95 686.12C167.791 686.093 167.623 686.08 167.445 686.08C167.02 686.08 166.642 686.169 166.308 686.347C165.979 686.521 165.717 686.763 165.524 687.074C165.335 687.381 165.24 687.731 165.24 688.125V693.648H163.899Z" fill="black"/>
<path d="M48.2495 711.648H47.1926C47.1301 711.344 47.0208 711.077 46.8645 710.847C46.7111 710.617 46.5236 710.424 46.302 710.267C46.0833 710.108 45.8404 709.989 45.5733 709.909C45.3063 709.83 45.0279 709.79 44.7381 709.79C44.2097 709.79 43.731 709.924 43.302 710.191C42.8759 710.458 42.5364 710.851 42.2836 711.371C42.0336 711.891 41.9086 712.529 41.9086 713.284C41.9086 714.04 42.0336 714.678 42.2836 715.198C42.5364 715.718 42.8759 716.111 43.302 716.378C43.731 716.645 44.2097 716.779 44.7381 716.779C45.0279 716.779 45.3063 716.739 45.5733 716.659C45.8404 716.58 46.0833 716.462 46.302 716.306C46.5236 716.147 46.7111 715.952 46.8645 715.722C47.0208 715.489 47.1301 715.222 47.1926 714.921H48.2495C48.1699 715.367 48.025 715.766 47.8148 716.118C47.6046 716.47 47.3432 716.77 47.0307 717.017C46.7182 717.262 46.3674 717.448 45.9782 717.576C45.5918 717.703 45.1784 717.767 44.7381 717.767C43.9938 717.767 43.3319 717.585 42.7523 717.222C42.1728 716.858 41.7168 716.341 41.3844 715.671C41.052 715 40.8858 714.205 40.8858 713.284C40.8858 712.364 41.052 711.568 41.3844 710.898C41.7168 710.227 42.1728 709.71 42.7523 709.347C43.3319 708.983 43.9938 708.801 44.7381 708.801C45.1784 708.801 45.5918 708.865 45.9782 708.993C46.3674 709.121 46.7182 709.308 47.0307 709.556C47.3432 709.8 47.6046 710.098 47.8148 710.451C48.025 710.8 48.1699 711.199 48.2495 711.648ZM52.4799 717.784C51.889 717.784 51.3706 717.644 50.9245 717.362C50.4814 717.081 50.1348 716.688 49.8848 716.182C49.6376 715.676 49.514 715.085 49.514 714.409C49.514 713.727 49.6376 713.132 49.8848 712.624C50.1348 712.115 50.4814 711.72 50.9245 711.439C51.3706 711.158 51.889 711.017 52.4799 711.017C53.0708 711.017 53.5879 711.158 54.0311 711.439C54.4771 711.72 54.8237 712.115 55.0708 712.624C55.3208 713.132 55.4458 713.727 55.4458 714.409C55.4458 715.085 55.3208 715.676 55.0708 716.182C54.8237 716.688 54.4771 717.081 54.0311 717.362C53.5879 717.644 53.0708 717.784 52.4799 717.784ZM52.4799 716.881C52.9288 716.881 53.2981 716.766 53.5879 716.536C53.8777 716.306 54.0922 716.003 54.2314 715.628C54.3706 715.253 54.4402 714.847 54.4402 714.409C54.4402 713.972 54.3706 713.564 54.2314 713.186C54.0922 712.808 53.8777 712.503 53.5879 712.27C53.2981 712.037 52.9288 711.921 52.4799 711.921C52.0311 711.921 51.6618 712.037 51.372 712.27C51.0822 712.503 50.8677 712.808 50.7285 713.186C50.5893 713.564 50.5197 713.972 50.5197 714.409C50.5197 714.847 50.5893 715.253 50.7285 715.628C50.8677 716.003 51.0822 716.306 51.372 716.536C51.6618 716.766 52.0311 716.881 52.4799 716.881ZM57.9867 713.71V717.648H56.981V711.102H57.9526V712.125H58.0378C58.1912 711.793 58.4242 711.526 58.7367 711.324C59.0492 711.12 59.4526 711.017 59.9469 711.017C60.3901 711.017 60.7779 711.108 61.1103 711.29C61.4426 711.469 61.7012 711.742 61.8858 712.108C62.0705 712.472 62.1628 712.932 62.1628 713.489V717.648H61.1571V713.557C61.1571 713.043 61.0236 712.642 60.7566 712.355C60.4895 712.066 60.123 711.921 59.6571 711.921C59.3361 711.921 59.0492 711.99 58.7963 712.129C58.5463 712.269 58.3489 712.472 58.204 712.739C58.0591 713.006 57.9867 713.33 57.9867 713.71ZM66.8471 711.102V711.955H63.4551V711.102H66.8471ZM64.4437 709.534H65.4494V715.773C65.4494 716.057 65.4906 716.27 65.573 716.412C65.6582 716.551 65.7662 716.645 65.8968 716.693C66.0304 716.739 66.171 716.762 66.3187 716.762C66.4295 716.762 66.5204 716.756 66.5914 716.745C66.6625 716.73 66.7193 716.719 66.7619 716.71L66.9664 717.614C66.8983 717.639 66.8031 717.665 66.6809 717.691C66.5588 717.719 66.4039 717.733 66.2164 717.733C65.9324 717.733 65.6539 717.672 65.3812 717.55C65.1113 717.428 64.8869 717.242 64.7079 716.992C64.5318 716.742 64.4437 716.426 64.4437 716.046V709.534ZM68.3599 717.648V711.102H69.3656V717.648H68.3599ZM68.8713 710.012C68.6752 710.012 68.5062 709.945 68.3642 709.811C68.225 709.678 68.1554 709.517 68.1554 709.33C68.1554 709.142 68.225 708.982 68.3642 708.848C68.5062 708.715 68.6752 708.648 68.8713 708.648C69.0673 708.648 69.2349 708.715 69.3741 708.848C69.5162 708.982 69.5872 709.142 69.5872 709.33C69.5872 709.517 69.5162 709.678 69.3741 709.811C69.2349 709.945 69.0673 710.012 68.8713 710.012ZM72.2132 713.71V717.648H71.2076V711.102H72.1792V712.125H72.2644C72.4178 711.793 72.6507 711.526 72.9632 711.324C73.2757 711.12 73.6792 711.017 74.1735 711.017C74.6167 711.017 75.0044 711.108 75.3368 711.29C75.6692 711.469 75.9277 711.742 76.1124 712.108C76.2971 712.472 76.3894 712.932 76.3894 713.489V717.648H75.3837V713.557C75.3837 713.043 75.2502 712.642 74.9831 712.355C74.7161 712.066 74.3496 711.921 73.8837 711.921C73.5627 711.921 73.2757 711.99 73.0229 712.129C72.7729 712.269 72.5755 712.472 72.4306 712.739C72.2857 713.006 72.2132 713.33 72.2132 713.71ZM82.3521 714.972V711.102H83.3578V717.648H82.3521V716.54H82.2839C82.1305 716.872 81.8919 717.155 81.568 717.388C81.2441 717.618 80.835 717.733 80.3407 717.733C79.9316 717.733 79.568 717.644 79.2498 717.465C78.9316 717.283 78.6816 717.01 78.4998 716.647C78.318 716.28 78.2271 715.818 78.2271 715.262V711.102H79.2328V715.193C79.2328 715.671 79.3663 716.051 79.6333 716.335C79.9032 716.62 80.247 716.762 80.6646 716.762C80.9146 716.762 81.1689 716.698 81.4274 716.57C81.6887 716.442 81.9075 716.246 82.0836 715.982C82.2626 715.718 82.3521 715.381 82.3521 714.972ZM87.9441 717.784C87.3134 717.784 86.7694 717.645 86.312 717.367C85.8574 717.085 85.5066 716.693 85.2594 716.191C85.0151 715.685 84.8929 715.097 84.8929 714.426C84.8929 713.756 85.0151 713.165 85.2594 712.654C85.5066 712.139 85.8503 711.739 86.2907 711.452C86.7338 711.162 87.2509 711.017 87.8418 711.017C88.1827 711.017 88.5194 711.074 88.8517 711.188C89.1841 711.301 89.4867 711.486 89.7594 711.742C90.0321 711.995 90.2495 712.33 90.4114 712.747C90.5733 713.165 90.6543 713.679 90.6543 714.29V714.716H85.6088V713.847H89.6316C89.6316 713.477 89.5577 713.148 89.41 712.858C89.2651 712.568 89.0577 712.34 88.7878 712.172C88.5208 712.004 88.2054 711.921 87.8418 711.921C87.4412 711.921 87.0946 712.02 86.802 712.219C86.5123 712.415 86.2892 712.671 86.133 712.986C85.9767 713.301 85.8986 713.639 85.8986 714V714.58C85.8986 715.074 85.9838 715.493 86.1543 715.837C86.3276 716.178 86.5676 716.438 86.8745 716.617C87.1813 716.793 87.5378 716.881 87.9441 716.881C88.2083 716.881 88.4469 716.844 88.66 716.77C88.8759 716.693 89.062 716.58 89.2182 716.429C89.3745 716.276 89.4952 716.085 89.5804 715.858L90.552 716.131C90.4498 716.46 90.2779 716.75 90.0364 717C89.7949 717.247 89.4966 717.441 89.1415 717.58C88.7864 717.716 88.3873 717.784 87.9441 717.784ZM97.0421 717.648L95.0478 711.102H96.1046L97.5194 716.114H97.5875L98.9853 711.102H100.059L101.44 716.097H101.508L102.923 711.102H103.98L101.985 717.648H100.997L99.5648 712.62H99.4625L98.0307 717.648H97.0421ZM105.309 717.648V711.102H106.315V717.648H105.309ZM105.82 710.012C105.624 710.012 105.455 709.945 105.313 709.811C105.174 709.678 105.105 709.517 105.105 709.33C105.105 709.142 105.174 708.982 105.313 708.848C105.455 708.715 105.624 708.648 105.82 708.648C106.017 708.648 106.184 708.715 106.323 708.848C106.465 708.982 106.536 709.142 106.536 709.33C106.536 709.517 106.465 709.678 106.323 709.811C106.184 709.945 106.017 710.012 105.82 710.012ZM111.003 711.102V711.955H107.611V711.102H111.003ZM108.6 709.534H109.606V715.773C109.606 716.057 109.647 716.27 109.729 716.412C109.814 716.551 109.922 716.645 110.053 716.693C110.187 716.739 110.327 716.762 110.475 716.762C110.586 716.762 110.677 716.756 110.748 716.745C110.819 716.73 110.876 716.719 110.918 716.71L111.123 717.614C111.055 717.639 110.959 717.665 110.837 717.691C110.715 717.719 110.56 717.733 110.373 717.733C110.089 717.733 109.81 717.672 109.537 717.55C109.268 717.428 109.043 717.242 108.864 716.992C108.688 716.742 108.6 716.426 108.6 716.046V709.534ZM113.662 713.71V717.648H112.657V708.921H113.662V712.125H113.748C113.901 711.787 114.131 711.519 114.438 711.32C114.748 711.118 115.16 711.017 115.674 711.017C116.12 711.017 116.51 711.107 116.846 711.286C117.181 711.462 117.441 711.733 117.626 712.1C117.813 712.463 117.907 712.926 117.907 713.489V717.648H116.901V713.557C116.901 713.037 116.766 712.635 116.496 712.351C116.229 712.064 115.858 711.921 115.384 711.921C115.055 711.921 114.759 711.99 114.498 712.129C114.239 712.269 114.035 712.472 113.884 712.739C113.736 713.006 113.662 713.33 113.662 713.71ZM124.605 717.648L122.61 711.102H123.667L125.082 716.114H125.15L126.548 711.102H127.622L129.002 716.097H129.07L130.485 711.102H131.542L129.548 717.648H128.559L127.127 712.62H127.025L125.593 717.648H124.605ZM135.308 717.784C134.717 717.784 134.199 717.644 133.753 717.362C133.309 717.081 132.963 716.688 132.713 716.182C132.466 715.676 132.342 715.085 132.342 714.409C132.342 713.727 132.466 713.132 132.713 712.624C132.963 712.115 133.309 711.72 133.753 711.439C134.199 711.158 134.717 711.017 135.308 711.017C135.899 711.017 136.416 711.158 136.859 711.439C137.305 711.72 137.652 712.115 137.899 712.624C138.149 713.132 138.274 713.727 138.274 714.409C138.274 715.085 138.149 715.676 137.899 716.182C137.652 716.688 137.305 717.081 136.859 717.362C136.416 717.644 135.899 717.784 135.308 717.784ZM135.308 716.881C135.757 716.881 136.126 716.766 136.416 716.536C136.706 716.306 136.92 716.003 137.059 715.628C137.199 715.253 137.268 714.847 137.268 714.409C137.268 713.972 137.199 713.564 137.059 713.186C136.92 712.808 136.706 712.503 136.416 712.27C136.126 712.037 135.757 711.921 135.308 711.921C134.859 711.921 134.49 712.037 134.2 712.27C133.91 712.503 133.696 712.808 133.557 713.186C133.417 713.564 133.348 713.972 133.348 714.409C133.348 714.847 133.417 715.253 133.557 715.628C133.696 716.003 133.91 716.306 134.2 716.536C134.49 716.766 134.859 716.881 135.308 716.881ZM139.809 717.648V711.102H140.781V712.091H140.849C140.968 711.767 141.184 711.504 141.497 711.303C141.809 711.101 142.161 711 142.553 711C142.627 711 142.72 711.002 142.83 711.004C142.941 711.007 143.025 711.012 143.082 711.017V712.04C143.048 712.031 142.97 712.019 142.847 712.002C142.728 711.982 142.602 711.972 142.468 711.972C142.15 711.972 141.866 712.039 141.616 712.172C141.369 712.303 141.173 712.485 141.028 712.718C140.886 712.948 140.815 713.21 140.815 713.506V717.648H139.809ZM145.28 708.921V717.648H144.274V708.921H145.28ZM149.593 717.784C149.048 717.784 148.566 717.647 148.149 717.371C147.731 717.093 147.404 716.701 147.169 716.195C146.933 715.686 146.815 715.085 146.815 714.392C146.815 713.705 146.933 713.108 147.169 712.602C147.404 712.097 147.732 711.706 148.153 711.431C148.573 711.155 149.059 711.017 149.61 711.017C150.036 711.017 150.373 711.088 150.62 711.23C150.87 711.37 151.061 711.529 151.191 711.708C151.325 711.884 151.428 712.029 151.502 712.142H151.588V708.921H152.593V717.648H151.622V716.642H151.502C151.428 716.762 151.323 716.912 151.187 717.094C151.051 717.273 150.856 717.433 150.603 717.576C150.35 717.715 150.014 717.784 149.593 717.784ZM149.73 716.881C150.133 716.881 150.474 716.776 150.752 716.566C151.031 716.352 151.242 716.058 151.387 715.683C151.532 715.306 151.605 714.87 151.605 714.375C151.605 713.887 151.534 713.459 151.392 713.093C151.249 712.723 151.039 712.436 150.761 712.232C150.482 712.024 150.139 711.921 149.73 711.921C149.303 711.921 148.948 712.03 148.664 712.249C148.383 712.465 148.171 712.759 148.029 713.131C147.89 713.5 147.82 713.915 147.82 714.375C147.82 714.841 147.892 715.264 148.034 715.645C148.178 716.023 148.392 716.324 148.673 716.549C148.957 716.77 149.309 716.881 149.73 716.881ZM159.143 708.921V717.648H158.086V708.921H159.143ZM163.955 717.648H161.262V708.921H164.074C164.921 708.921 165.645 709.095 166.248 709.445C166.85 709.791 167.312 710.29 167.633 710.941C167.954 711.588 168.114 712.364 168.114 713.267C168.114 714.176 167.952 714.959 167.628 715.615C167.305 716.269 166.833 716.772 166.214 717.124C165.594 717.473 164.841 717.648 163.955 717.648ZM162.319 716.71H163.887C164.608 716.71 165.206 716.571 165.681 716.293C166.155 716.014 166.509 715.618 166.742 715.104C166.975 714.59 167.091 713.977 167.091 713.267C167.091 712.563 166.976 711.956 166.746 711.448C166.516 710.936 166.172 710.544 165.715 710.272C165.258 709.996 164.688 709.858 164.006 709.858H162.319V716.71Z" fill="black"/>
<mask id="mask0_1178_3936" style="mask-type:alpha" maskUnits="userSpaceOnUse" x="338" y="685" width="24" height="25">
<rect x="338" y="685.648" width="24" height="24" fill="#D9D9D9"/>
</mask>
<g mask="url(#mask0_1178_3936)">
<path d="M350 706.648C348.761 706.648 347.595 706.411 346.5 705.937C345.405 705.464 344.452 704.821 343.64 704.008C342.827 703.196 342.184 702.243 341.71 701.148C341.237 700.053 341 698.886 341 697.648C341 696.406 341.237 695.238 341.71 694.145C342.184 693.052 342.827 692.1 343.64 691.287C344.452 690.475 345.405 689.832 346.5 689.358C347.595 688.885 348.761 688.648 350 688.648C351.242 688.648 352.41 688.885 353.503 689.358C354.596 689.832 355.548 690.475 356.36 691.287C357.173 692.1 357.816 693.052 358.29 694.145C358.763 695.238 359 696.406 359 697.648C359 698.886 358.763 700.053 358.29 701.148C357.816 702.243 357.173 703.196 356.36 704.008C355.548 704.821 354.596 705.464 353.503 705.937C352.41 706.411 351.242 706.648 350 706.648ZM350 705.656C350.587 704.902 351.071 704.161 351.452 703.434C351.833 702.708 352.142 701.894 352.381 700.994H347.619C347.883 701.945 348.199 702.784 348.567 703.511C348.935 704.238 349.413 704.953 350 705.656ZM348.727 705.506C348.26 704.956 347.834 704.276 347.449 703.466C347.064 702.657 346.777 701.833 346.589 700.994H342.754C343.327 702.238 344.139 703.258 345.191 704.054C346.243 704.85 347.422 705.334 348.727 705.506ZM351.273 705.506C352.578 705.334 353.757 704.85 354.809 704.054C355.861 703.258 356.673 702.238 357.246 700.994H353.412C353.159 701.845 352.84 702.676 352.455 703.485C352.07 704.295 351.676 704.969 351.273 705.506ZM342.346 699.994H346.381C346.305 699.584 346.252 699.184 346.22 698.795C346.189 698.406 346.173 698.024 346.173 697.648C346.173 697.272 346.189 696.89 346.22 696.501C346.252 696.112 346.305 695.712 346.381 695.302H342.346C342.237 695.648 342.152 696.025 342.091 696.433C342.03 696.842 342 697.247 342 697.648C342 698.049 342.03 698.454 342.091 698.862C342.152 699.271 342.237 699.648 342.346 699.994ZM347.381 699.994H352.619C352.695 699.584 352.748 699.191 352.78 698.814C352.811 698.438 352.827 698.049 352.827 697.648C352.827 697.247 352.811 696.858 352.78 696.482C352.748 696.105 352.695 695.712 352.619 695.302H347.381C347.305 695.712 347.252 696.105 347.22 696.482C347.189 696.858 347.173 697.247 347.173 697.648C347.173 698.049 347.189 698.438 347.22 698.814C347.252 699.191 347.305 699.584 347.381 699.994ZM353.619 699.994H357.654C357.763 699.648 357.848 699.271 357.909 698.862C357.97 698.454 358 698.049 358 697.648C358 697.247 357.97 696.842 357.909 696.433C357.848 696.025 357.763 695.648 357.654 695.302H353.619C353.695 695.712 353.748 696.112 353.78 696.501C353.811 696.89 353.827 697.272 353.827 697.648C353.827 698.024 353.811 698.406 353.78 698.795C353.748 699.184 353.695 699.584 353.619 699.994ZM353.412 694.302H357.246C356.66 693.033 355.857 692.013 354.838 691.242C353.818 690.472 352.629 689.981 351.273 689.771C351.74 690.385 352.159 691.087 352.532 691.878C352.904 692.668 353.198 693.476 353.412 694.302ZM347.619 694.302H352.381C352.117 693.363 351.791 692.515 351.404 691.756C351.017 690.997 350.549 690.292 350 689.64C349.451 690.292 348.983 690.997 348.596 691.756C348.209 692.515 347.883 693.363 347.619 694.302ZM342.754 694.302H346.589C346.803 693.476 347.096 692.668 347.468 691.878C347.841 691.087 348.26 690.385 348.727 689.771C347.358 689.981 346.166 690.475 345.153 691.252C344.139 692.029 343.34 693.045 342.754 694.302Z" fill="#1C1B1F"/>
</g>
<line x1="343.014" y1="713.148" x2="356.986" y2="713.148" stroke="black"/>
</svg>
