<svg width="402" height="874" viewBox="0 0 402 874" fill="none" xmlns="http://www.w3.org/2000/svg">
<g clip-path="url(#clip0_1178_4453)">
<rect width="402" height="874" rx="16" fill="black"/>
<rect x="0.5" y="102.493" width="401" height="771.007" rx="15.5" fill="white" stroke="black"/>
<path d="M356.915 137.648L355.852 136.585L359.625 132.812L355.852 129.064L356.915 128L360.688 131.773L364.436 128L365.5 129.064L361.727 132.812L365.5 136.585L364.436 137.648L360.688 133.875L356.915 137.648Z" fill="#1C1B1F"/>
<path d="M21.7642 182.648V168.102H27.5028C28.6013 168.102 29.5388 168.299 30.3153 168.692C31.0966 169.08 31.6908 169.632 32.098 170.347C32.5099 171.057 32.7159 171.893 32.7159 172.854C32.7159 173.82 32.5076 174.651 32.0909 175.347C31.6742 176.038 31.0705 176.568 30.2798 176.938C29.4938 177.307 28.5421 177.492 27.4247 177.492H23.5824V175.02H26.9276C27.5147 175.02 28.0024 174.94 28.3906 174.779C28.7789 174.618 29.0677 174.376 29.2571 174.054C29.4512 173.732 29.5483 173.332 29.5483 172.854C29.5483 172.371 29.4512 171.964 29.2571 171.632C29.0677 171.301 28.7765 171.05 28.3835 170.879C27.9953 170.704 27.5052 170.617 26.9134 170.617H24.8395V182.648H21.7642ZM29.6193 176.029L33.2344 182.648H29.8395L26.3026 176.029H29.6193ZM39.6282 182.861C38.506 182.861 37.5401 182.634 36.7305 182.179C35.9255 181.72 35.3053 181.071 34.8697 180.233C34.4341 179.39 34.2163 178.394 34.2163 177.243C34.2163 176.121 34.4341 175.136 34.8697 174.289C35.3053 173.441 35.9184 172.781 36.7092 172.307C37.5046 171.834 38.4374 171.597 39.5075 171.597C40.2272 171.597 40.8971 171.713 41.5174 171.945C42.1424 172.172 42.6869 172.515 43.1509 172.975C43.6197 173.434 43.9843 174.012 44.2447 174.708C44.5051 175.399 44.6353 176.209 44.6353 177.137V177.968H35.4237V176.093H41.7873C41.7873 175.657 41.6926 175.271 41.5032 174.935C41.3138 174.599 41.051 174.336 40.7148 174.147C40.3834 173.952 39.9975 173.855 39.5572 173.855C39.0979 173.855 38.6907 173.962 38.3356 174.175C37.9852 174.383 37.7106 174.665 37.5117 175.02C37.3129 175.37 37.2111 175.761 37.2063 176.192V177.975C37.2063 178.514 37.3058 178.981 37.5046 179.374C37.7082 179.767 37.9947 180.07 38.364 180.283C38.7333 180.496 39.1713 180.602 39.6779 180.602C40.0141 180.602 40.3219 180.555 40.6012 180.46C40.8806 180.366 41.1197 180.224 41.3185 180.034C41.5174 179.845 41.6689 179.613 41.7731 179.338L44.5714 179.523C44.4293 180.195 44.1381 180.782 43.6978 181.284C43.2622 181.781 42.6987 182.17 42.0075 182.449C41.3209 182.724 40.5278 182.861 39.6282 182.861ZM51.5245 186.966C50.5444 186.966 49.704 186.831 49.0032 186.561C48.3072 186.296 47.7532 185.934 47.3413 185.475C46.9293 185.015 46.6618 184.499 46.5387 183.926L49.337 183.55C49.4222 183.768 49.5572 183.971 49.7418 184.161C49.9265 184.35 50.1703 184.502 50.4734 184.615C50.7811 184.734 51.1552 184.793 51.5955 184.793C52.2537 184.793 52.7958 184.632 53.2219 184.31C53.6528 183.993 53.8683 183.46 53.8683 182.712V180.716H53.7404C53.6078 181.019 53.409 181.306 53.1438 181.576C52.8787 181.845 52.5378 182.066 52.1211 182.236C51.7044 182.406 51.2073 182.492 50.6296 182.492C49.8105 182.492 49.0647 182.302 48.3924 181.924C47.7248 181.54 47.1921 180.955 46.7944 180.169C46.4014 179.379 46.2049 178.379 46.2049 177.172C46.2049 175.936 46.4061 174.904 46.8086 174.076C47.2111 173.247 47.7461 172.627 48.4137 172.215C49.0861 171.803 49.8223 171.597 50.6225 171.597C51.2333 171.597 51.7447 171.701 52.1566 171.909C52.5685 172.113 52.9 172.369 53.1509 172.676C53.4066 172.979 53.6031 173.278 53.7404 173.571H53.854V171.739H56.8583V182.754C56.8583 183.683 56.631 184.459 56.1765 185.084C55.7219 185.709 55.0922 186.178 54.2873 186.49C53.4871 186.808 52.5662 186.966 51.5245 186.966ZM51.5884 180.219C52.0761 180.219 52.488 180.098 52.8242 179.857C53.1651 179.611 53.4255 179.26 53.6055 178.806C53.7901 178.346 53.8825 177.797 53.8825 177.158C53.8825 176.519 53.7925 175.965 53.6126 175.496C53.4326 175.022 53.1722 174.656 52.8313 174.395C52.4904 174.135 52.0761 174.004 51.5884 174.004C51.0913 174.004 50.6722 174.139 50.3313 174.409C49.9904 174.674 49.7324 175.044 49.5572 175.517C49.382 175.991 49.2944 176.538 49.2944 177.158C49.2944 177.788 49.382 178.332 49.5572 178.791C49.7371 179.246 49.9951 179.599 50.3313 179.85C50.6722 180.096 51.0913 180.219 51.5884 180.219ZM59.266 182.648V171.739H62.2915V182.648H59.266ZM60.7859 170.333C60.3361 170.333 59.9502 170.183 59.6282 169.885C59.311 169.582 59.1523 169.22 59.1523 168.799C59.1523 168.382 59.311 168.024 59.6282 167.726C59.9502 167.423 60.3361 167.272 60.7859 167.272C61.2357 167.272 61.6192 167.423 61.9364 167.726C62.2584 168.024 62.4194 168.382 62.4194 168.799C62.4194 169.22 62.2584 169.582 61.9364 169.885C61.6192 170.183 61.2357 170.333 60.7859 170.333ZM73.7919 174.85L71.022 175.02C70.9747 174.783 70.8729 174.57 70.7166 174.381C70.5604 174.187 70.3544 174.033 70.0987 173.919C69.8478 173.801 69.5471 173.742 69.1967 173.742C68.728 173.742 68.3326 173.841 68.0107 174.04C67.6887 174.234 67.5277 174.495 67.5277 174.821C67.5277 175.082 67.6319 175.302 67.8402 175.482C68.0485 175.662 68.406 175.806 68.9126 175.915L70.8871 176.313C71.9477 176.531 72.7384 176.881 73.2592 177.364C73.7801 177.847 74.0405 178.481 74.0405 179.267C74.0405 179.982 73.8298 180.61 73.4084 181.149C72.9917 181.689 72.4188 182.111 71.6896 182.414C70.9652 182.712 70.1295 182.861 69.1825 182.861C67.7384 182.861 66.5878 182.56 65.7308 181.959C64.8786 181.353 64.379 180.529 64.2322 179.487L67.2081 179.331C67.2981 179.772 67.5159 180.108 67.8615 180.34C68.2071 180.567 68.6499 180.681 69.1896 180.681C69.7199 180.681 70.1461 180.579 70.468 180.375C70.7947 180.167 70.9605 179.899 70.9652 179.573C70.9605 179.298 70.8445 179.073 70.6172 178.898C70.3899 178.718 70.0395 178.581 69.5661 178.486L67.6768 178.11C66.6115 177.897 65.8184 177.527 65.2976 177.002C64.7815 176.476 64.5234 175.806 64.5234 174.992C64.5234 174.291 64.7128 173.687 65.0916 173.181C65.4751 172.674 66.0125 172.283 66.7038 172.009C67.3999 171.734 68.2143 171.597 69.147 171.597C70.5249 171.597 71.6091 171.888 72.3999 172.47C73.1953 173.053 73.6593 173.846 73.7919 174.85ZM81.7482 171.739V174.012H75.1786V171.739H81.7482ZM76.6701 169.125H79.6957V179.296C79.6957 179.575 79.7383 179.793 79.8235 179.949C79.9087 180.101 80.0271 180.207 80.1786 180.269C80.3349 180.33 80.5148 180.361 80.7184 180.361C80.8604 180.361 81.0025 180.349 81.1445 180.326C81.2866 180.297 81.3955 180.276 81.4712 180.262L81.9471 182.513C81.7956 182.56 81.5825 182.615 81.3079 182.676C81.0333 182.743 80.6995 182.783 80.3065 182.797C79.5773 182.826 78.9381 182.728 78.3888 182.506C77.8443 182.283 77.4206 181.938 77.1175 181.469C76.8145 181 76.6654 180.408 76.6701 179.693V169.125ZM83.7191 182.648V171.739H86.6523V173.642H86.766C86.9648 172.965 87.2987 172.454 87.7674 172.108C88.2362 171.758 88.7759 171.583 89.3867 171.583C89.5382 171.583 89.7016 171.592 89.8768 171.611C90.052 171.63 90.2058 171.656 90.3384 171.689V174.374C90.1964 174.331 89.9999 174.293 89.7489 174.26C89.498 174.227 89.2683 174.21 89.06 174.21C88.6149 174.21 88.2172 174.308 87.8668 174.502C87.5212 174.691 87.2466 174.956 87.043 175.297C86.8441 175.638 86.7447 176.031 86.7447 176.476V182.648H83.7191ZM94.701 182.854C94.005 182.854 93.3847 182.733 92.8402 182.492C92.2957 182.245 91.8648 181.883 91.5476 181.405C91.2351 180.922 91.0788 180.321 91.0788 179.601C91.0788 178.995 91.1901 178.486 91.4126 178.074C91.6352 177.662 91.9382 177.331 92.3217 177.08C92.7053 176.829 93.1409 176.639 93.6286 176.512C94.121 176.384 94.6371 176.294 95.1768 176.242C95.8113 176.175 96.3227 176.114 96.7109 176.057C97.0992 175.995 97.3809 175.906 97.5561 175.787C97.7313 175.669 97.8189 175.494 97.8189 175.262V175.219C97.8189 174.769 97.6768 174.421 97.3928 174.175C97.1134 173.929 96.7157 173.806 96.1996 173.806C95.6551 173.806 95.2218 173.926 94.8999 174.168C94.5779 174.405 94.3648 174.703 94.2607 175.063L91.4624 174.835C91.6044 174.173 91.8838 173.6 92.3004 173.117C92.7171 172.629 93.2545 172.255 93.9126 171.995C94.5755 171.729 95.3426 171.597 96.2138 171.597C96.8198 171.597 97.3999 171.668 97.9538 171.81C98.5125 171.952 99.0073 172.172 99.4382 172.47C99.8738 172.769 100.217 173.152 100.468 173.621C100.719 174.085 100.844 174.641 100.844 175.29V182.648H97.9751V181.135H97.8899C97.7147 181.476 97.4804 181.777 97.1868 182.037C96.8932 182.293 96.5405 182.494 96.1286 182.641C95.7166 182.783 95.2408 182.854 94.701 182.854ZM95.5675 180.766C96.0125 180.766 96.4055 180.678 96.7464 180.503C97.0874 180.323 97.3549 180.082 97.549 179.779C97.7431 179.476 97.8402 179.132 97.8402 178.749V177.591C97.7455 177.653 97.6153 177.71 97.4496 177.762C97.2886 177.809 97.1063 177.854 96.9027 177.897C96.6991 177.934 96.4955 177.97 96.2919 178.003C96.0883 178.031 95.9036 178.058 95.7379 178.081C95.3828 178.133 95.0727 178.216 94.8075 178.33C94.5424 178.443 94.3364 178.597 94.1896 178.791C94.0429 178.981 93.9695 179.218 93.9695 179.502C93.9695 179.914 94.1186 180.228 94.4169 180.446C94.7199 180.659 95.1035 180.766 95.5675 180.766ZM108.994 171.739V174.012H102.425V171.739H108.994ZM103.916 169.125H106.942V179.296C106.942 179.575 106.984 179.793 107.07 179.949C107.155 180.101 107.273 180.207 107.425 180.269C107.581 180.33 107.761 180.361 107.964 180.361C108.107 180.361 108.249 180.349 108.391 180.326C108.533 180.297 108.642 180.276 108.717 180.262L109.193 182.513C109.042 182.56 108.829 182.615 108.554 182.676C108.279 182.743 107.946 182.783 107.553 182.797C106.823 182.826 106.184 182.728 105.635 182.506C105.09 182.283 104.667 181.938 104.364 181.469C104.061 181 103.911 180.408 103.916 179.693V169.125ZM110.965 182.648V171.739H113.991V182.648H110.965ZM112.485 170.333C112.035 170.333 111.649 170.183 111.327 169.885C111.01 169.582 110.852 169.22 110.852 168.799C110.852 168.382 111.01 168.024 111.327 167.726C111.649 167.423 112.035 167.272 112.485 167.272C112.935 167.272 113.318 167.423 113.636 167.726C113.958 168.024 114.119 168.382 114.119 168.799C114.119 169.22 113.958 169.582 113.636 169.885C113.318 170.183 112.935 170.333 112.485 170.333ZM121.343 182.861C120.24 182.861 119.286 182.627 118.481 182.158C117.681 181.684 117.063 181.026 116.627 180.183C116.192 179.336 115.974 178.353 115.974 177.236C115.974 176.109 116.192 175.124 116.627 174.281C117.063 173.434 117.681 172.776 118.481 172.307C119.286 171.834 120.24 171.597 121.343 171.597C122.447 171.597 123.398 171.834 124.199 172.307C125.003 172.776 125.624 173.434 126.059 174.281C126.495 175.124 126.713 176.109 126.713 177.236C126.713 178.353 126.495 179.336 126.059 180.183C125.624 181.026 125.003 181.684 124.199 182.158C123.398 182.627 122.447 182.861 121.343 182.861ZM121.358 180.517C121.859 180.517 122.279 180.375 122.615 180.091C122.951 179.802 123.204 179.409 123.375 178.912C123.55 178.415 123.637 177.849 123.637 177.215C123.637 176.58 123.55 176.014 123.375 175.517C123.204 175.02 122.951 174.627 122.615 174.338C122.279 174.049 121.859 173.905 121.358 173.905C120.851 173.905 120.425 174.049 120.079 174.338C119.738 174.627 119.48 175.02 119.305 175.517C119.135 176.014 119.049 176.58 119.049 177.215C119.049 177.849 119.135 178.415 119.305 178.912C119.48 179.409 119.738 179.802 120.079 180.091C120.425 180.375 120.851 180.517 121.358 180.517ZM131.706 176.341V182.648H128.68V171.739H131.564V173.664H131.691C131.933 173.029 132.338 172.527 132.906 172.158C133.474 171.784 134.163 171.597 134.973 171.597C135.73 171.597 136.391 171.763 136.954 172.094C137.518 172.425 137.956 172.899 138.268 173.514C138.581 174.125 138.737 174.854 138.737 175.702V182.648H135.711V176.242C135.716 175.574 135.546 175.053 135.2 174.679C134.854 174.3 134.378 174.111 133.772 174.111C133.365 174.111 133.005 174.199 132.693 174.374C132.385 174.549 132.144 174.805 131.968 175.141C131.798 175.472 131.71 175.872 131.706 176.341Z" fill="black"/>
<rect width="361" height="48" transform="translate(20.5 211.648)" fill="white" fill-opacity="0.01"/>
<path d="M20.5 215.648C20.5 213.439 22.2909 211.648 24.5 211.648H377.5C379.709 211.648 381.5 213.439 381.5 215.648V255.648C381.5 257.857 379.709 259.648 377.5 259.648H24.5C22.2909 259.648 20.5 257.857 20.5 255.648V215.648Z" fill="white" fill-opacity="0.9"/>
<path d="M24.5 212.148H377.5C379.433 212.148 381 213.715 381 215.648V255.648C381 257.581 379.433 259.148 377.5 259.148H24.5C22.567 259.148 21 257.581 21 255.648V215.648C21 213.715 22.567 212.148 24.5 212.148Z" stroke="#000932" stroke-opacity="0.121569"/>
<g clip-path="url(#clip1_1178_4453)">
<path d="M24.858 218.466H26.2699L29.0938 223.219H29.2131L32.0369 218.466H33.4489L29.7699 224.452V228.648H28.5369V224.452L24.858 218.466ZM36.9466 228.807C36.2572 228.807 35.6523 228.643 35.132 228.315C34.6149 227.987 34.2106 227.528 33.9189 226.938C33.6306 226.348 33.4864 225.658 33.4864 224.87C33.4864 224.074 33.6306 223.38 33.9189 222.786C34.2106 222.193 34.6149 221.732 35.132 221.404C35.6523 221.076 36.2572 220.912 36.9466 220.912C37.636 220.912 38.2392 221.076 38.7563 221.404C39.2766 221.732 39.681 222.193 39.9693 222.786C40.261 223.38 40.4068 224.074 40.4068 224.87C40.4068 225.658 40.261 226.348 39.9693 226.938C39.681 227.528 39.2766 227.987 38.7563 228.315C38.2392 228.643 37.636 228.807 36.9466 228.807ZM36.9466 227.753C37.4703 227.753 37.9012 227.619 38.2392 227.35C38.5773 227.082 38.8275 226.729 38.9899 226.291C39.1523 225.854 39.2335 225.38 39.2335 224.87C39.2335 224.359 39.1523 223.884 38.9899 223.443C38.8275 223.002 38.5773 222.646 38.2392 222.374C37.9012 222.102 37.4703 221.966 36.9466 221.966C36.4229 221.966 35.9921 222.102 35.654 222.374C35.3159 222.646 35.0657 223.002 34.9033 223.443C34.7409 223.884 34.6597 224.359 34.6597 224.87C34.6597 225.38 34.7409 225.854 34.9033 226.291C35.0657 226.729 35.3159 227.082 35.654 227.35C35.9921 227.619 36.4229 227.753 36.9466 227.753ZM47.0503 225.526V221.012H48.2236V228.648H47.0503V227.355H46.9708C46.7918 227.743 46.5134 228.073 46.1356 228.345C45.7577 228.613 45.2805 228.747 44.7038 228.747C44.2265 228.747 43.8022 228.643 43.431 228.434C43.0598 228.222 42.7682 227.904 42.556 227.48C42.3439 227.052 42.2378 226.513 42.2378 225.864V221.012H43.4111V225.784C43.4111 226.341 43.5669 226.785 43.8785 227.117C44.1933 227.448 44.5944 227.614 45.0816 227.614C45.3733 227.614 45.6699 227.539 45.9715 227.39C46.2764 227.241 46.5316 227.012 46.7371 226.704C46.9459 226.396 47.0503 226.003 47.0503 225.526ZM50.4126 228.648V221.012H51.5461V222.165H51.6257C51.7649 221.787 52.0168 221.481 52.3814 221.245C52.7459 221.01 53.1569 220.892 53.6143 220.892C53.7005 220.892 53.8082 220.894 53.9375 220.897C54.0667 220.901 54.1645 220.906 54.2308 220.912V222.105C54.191 222.095 54.0999 222.08 53.9574 222.061C53.8182 222.037 53.6707 222.026 53.5149 222.026C53.1437 222.026 52.8122 222.104 52.5206 222.259C52.2322 222.412 52.0035 222.624 51.8345 222.896C51.6688 223.164 51.5859 223.471 51.5859 223.816V228.648H50.4126ZM60.8124 224.054V228.648H59.6391V221.012H60.7726V222.205H60.8721C61.051 221.817 61.3228 221.505 61.6874 221.27C62.052 221.031 62.5226 220.912 63.0993 220.912C63.6164 220.912 64.0688 221.018 64.4566 221.23C64.8444 221.439 65.146 221.757 65.3614 222.185C65.5768 222.609 65.6846 223.146 65.6846 223.796V228.648H64.5113V223.875C64.5113 223.275 64.3555 222.808 64.0439 222.473C63.7324 222.135 63.3048 221.966 62.7613 221.966C62.3867 221.966 62.052 222.047 61.757 222.21C61.4653 222.372 61.235 222.609 61.0659 222.921C60.8969 223.232 60.8124 223.61 60.8124 224.054ZM70.1157 228.827C69.6318 228.827 69.1927 228.736 68.7982 228.553C68.4038 228.368 68.0906 228.101 67.8586 227.753C67.6266 227.402 67.5106 226.977 67.5106 226.48C67.5106 226.043 67.5968 225.688 67.7691 225.416C67.9415 225.141 68.1718 224.926 68.4602 224.77C68.7485 224.614 69.0667 224.498 69.4147 224.422C69.766 224.343 70.119 224.28 70.4737 224.233C70.9377 224.174 71.3139 224.129 71.6022 224.099C71.8939 224.066 72.106 224.011 72.2386 223.935C72.3745 223.859 72.4424 223.726 72.4424 223.537V223.497C72.4424 223.007 72.3082 222.626 72.0397 222.354C71.7746 222.082 71.3719 221.946 70.8316 221.946C70.2715 221.946 69.8323 222.069 69.5141 222.314C69.196 222.559 68.9722 222.821 68.843 223.1L67.7293 222.702C67.9282 222.238 68.1934 221.877 68.5248 221.618C68.8596 221.356 69.2241 221.174 69.6186 221.071C70.0163 220.965 70.4074 220.912 70.7918 220.912C71.0371 220.912 71.3188 220.942 71.637 221.002C71.9585 221.058 72.2684 221.176 72.5667 221.355C72.8683 221.534 73.1186 221.804 73.3174 222.165C73.5163 222.526 73.6157 223.01 73.6157 223.617V228.648H72.4424V227.614H72.3828C72.3032 227.78 72.1706 227.957 71.985 228.146C71.7994 228.335 71.5525 228.495 71.2443 228.628C70.936 228.761 70.5598 228.827 70.1157 228.827ZM70.2947 227.773C70.7587 227.773 71.1498 227.682 71.468 227.5C71.7895 227.317 72.0314 227.082 72.1938 226.794C72.3596 226.505 72.4424 226.202 72.4424 225.884V224.81C72.3927 224.87 72.2833 224.924 72.1143 224.974C71.9486 225.02 71.7563 225.062 71.5376 225.098C71.3222 225.131 71.1117 225.161 70.9062 225.188C70.704 225.211 70.54 225.231 70.414 225.247C70.1091 225.287 69.824 225.352 69.5589 225.441C69.2971 225.527 69.0849 225.658 68.9225 225.834C68.7634 226.006 68.6839 226.242 68.6839 226.54C68.6839 226.948 68.8347 227.256 69.1363 227.465C69.4412 227.67 69.8274 227.773 70.2947 227.773ZM75.7972 228.648V221.012H76.9307V222.205H77.0302C77.1893 221.797 77.4461 221.481 77.8008 221.255C78.1554 221.027 78.5813 220.912 79.0785 220.912C79.5823 220.912 80.0015 221.027 80.3363 221.255C80.6744 221.481 80.9378 221.797 81.1268 222.205H81.2063C81.4019 221.81 81.6952 221.497 82.0863 221.265C82.4774 221.03 82.9464 220.912 83.4932 220.912C84.176 220.912 84.7345 221.126 85.1687 221.553C85.6029 221.978 85.8199 222.639 85.8199 223.537V228.648H84.6467V223.537C84.6467 222.974 84.4925 222.571 84.1843 222.329C83.8761 222.087 83.5131 221.966 83.0955 221.966C82.5586 221.966 82.1426 222.129 81.8476 222.453C81.5527 222.775 81.4052 223.183 81.4052 223.676V228.648H80.212V223.418C80.212 222.984 80.0711 222.634 79.7894 222.369C79.5077 222.1 79.1448 221.966 78.7006 221.966C78.3957 221.966 78.1107 222.047 77.8455 222.21C77.5837 222.372 77.3716 222.598 77.2092 222.886C77.0501 223.171 76.9705 223.501 76.9705 223.875V228.648H75.7972ZM91.2069 228.807C90.4711 228.807 89.8364 228.645 89.3028 228.32C88.7725 227.992 88.3631 227.534 88.0748 226.948C87.7898 226.358 87.6472 225.672 87.6472 224.889C87.6472 224.107 87.7898 223.418 88.0748 222.821C88.3631 222.221 88.7642 221.754 89.2779 221.419C89.795 221.081 90.3982 220.912 91.0876 220.912C91.4853 220.912 91.8781 220.978 92.2658 221.111C92.6536 221.244 93.0066 221.459 93.3248 221.757C93.643 222.052 93.8965 222.443 94.0854 222.931C94.2744 223.418 94.3688 224.018 94.3688 224.73V225.227H88.4825V224.213H93.1756C93.1756 223.782 93.0895 223.398 92.9171 223.06C92.7481 222.722 92.5061 222.455 92.1913 222.259C91.8797 222.064 91.5118 221.966 91.0876 221.966C90.6202 221.966 90.2159 222.082 89.8745 222.314C89.5364 222.543 89.2763 222.841 89.094 223.209C88.9117 223.577 88.8205 223.971 88.8205 224.392V225.068C88.8205 225.645 88.92 226.134 89.1188 226.535C89.321 226.933 89.6011 227.236 89.959 227.445C90.317 227.65 90.7329 227.753 91.2069 227.753C91.5151 227.753 91.7935 227.71 92.0421 227.624C92.294 227.534 92.5111 227.402 92.6934 227.226C92.8757 227.047 93.0166 226.825 93.116 226.56L94.2495 226.878C94.1302 227.263 93.9297 227.601 93.6479 227.892C93.3662 228.181 93.0182 228.406 92.6039 228.568C92.1896 228.727 91.7239 228.807 91.2069 228.807ZM98.1425 224.193L98.222 222.006L96.3726 223.179L95.8953 222.344L97.8442 221.33L95.8953 220.316L96.3726 219.48L98.222 220.654L98.1425 218.466H99.097L99.0175 220.654L100.867 219.48L101.344 220.316L99.3953 221.33L101.344 222.344L100.867 223.179L99.0175 222.006L99.097 224.193H98.1425Z" fill="#00051D" fill-opacity="0.454902"/>
</g>
<rect width="361" height="48" transform="translate(20.5 275.648)" fill="white" fill-opacity="0.01"/>
<path d="M20.5 279.648C20.5 277.439 22.2909 275.648 24.5 275.648H377.5C379.709 275.648 381.5 277.439 381.5 279.648V319.648C381.5 321.857 379.709 323.648 377.5 323.648H24.5C22.2909 323.648 20.5 321.857 20.5 319.648V279.648Z" fill="white" fill-opacity="0.9"/>
<path d="M24.5 276.148H377.5C379.433 276.148 381 277.715 381 279.648V319.648C381 321.581 379.433 323.148 377.5 323.148H24.5C22.567 323.148 21 321.581 21 319.648V279.648C21 277.715 22.567 276.148 24.5 276.148Z" stroke="#000932" stroke-opacity="0.121569"/>
<g clip-path="url(#clip2_1178_4453)">
<path d="M24.858 282.466H26.2699L29.0938 287.219H29.2131L32.0369 282.466H33.4489L29.7699 288.452V292.648H28.5369V288.452L24.858 282.466ZM36.9466 292.807C36.2572 292.807 35.6523 292.643 35.132 292.315C34.6149 291.987 34.2106 291.528 33.9189 290.938C33.6306 290.348 33.4864 289.658 33.4864 288.87C33.4864 288.074 33.6306 287.38 33.9189 286.786C34.2106 286.193 34.6149 285.732 35.132 285.404C35.6523 285.076 36.2572 284.912 36.9466 284.912C37.636 284.912 38.2392 285.076 38.7563 285.404C39.2766 285.732 39.681 286.193 39.9693 286.786C40.261 287.38 40.4068 288.074 40.4068 288.87C40.4068 289.658 40.261 290.348 39.9693 290.938C39.681 291.528 39.2766 291.987 38.7563 292.315C38.2392 292.643 37.636 292.807 36.9466 292.807ZM36.9466 291.753C37.4703 291.753 37.9012 291.619 38.2392 291.35C38.5773 291.082 38.8275 290.729 38.9899 290.291C39.1523 289.854 39.2335 289.38 39.2335 288.87C39.2335 288.359 39.1523 287.884 38.9899 287.443C38.8275 287.002 38.5773 286.646 38.2392 286.374C37.9012 286.102 37.4703 285.966 36.9466 285.966C36.4229 285.966 35.9921 286.102 35.654 286.374C35.3159 286.646 35.0657 287.002 34.9033 287.443C34.7409 287.884 34.6597 288.359 34.6597 288.87C34.6597 289.38 34.7409 289.854 34.9033 290.291C35.0657 290.729 35.3159 291.082 35.654 291.35C35.9921 291.619 36.4229 291.753 36.9466 291.753ZM47.0503 289.526V285.012H48.2236V292.648H47.0503V291.355H46.9708C46.7918 291.743 46.5134 292.073 46.1356 292.345C45.7577 292.613 45.2805 292.747 44.7038 292.747C44.2265 292.747 43.8022 292.643 43.431 292.434C43.0598 292.222 42.7682 291.904 42.556 291.48C42.3439 291.052 42.2378 290.513 42.2378 289.864V285.012H43.4111V289.784C43.4111 290.341 43.5669 290.785 43.8785 291.117C44.1933 291.448 44.5944 291.614 45.0816 291.614C45.3733 291.614 45.6699 291.539 45.9715 291.39C46.2764 291.241 46.5316 291.012 46.7371 290.704C46.9459 290.396 47.0503 290.003 47.0503 289.526ZM50.4126 292.648V285.012H51.5461V286.165H51.6257C51.7649 285.787 52.0168 285.481 52.3814 285.245C52.7459 285.01 53.1569 284.892 53.6143 284.892C53.7005 284.892 53.8082 284.894 53.9375 284.897C54.0667 284.901 54.1645 284.906 54.2308 284.912V286.105C54.191 286.095 54.0999 286.08 53.9574 286.061C53.8182 286.037 53.6707 286.026 53.5149 286.026C53.1437 286.026 52.8122 286.104 52.5206 286.259C52.2322 286.412 52.0035 286.624 51.8345 286.896C51.6688 287.164 51.5859 287.471 51.5859 287.816V292.648H50.4126ZM59.7982 292.648V282.466H61.0311V291.554H65.7641V292.648H59.7982ZM69.8013 292.827C69.3174 292.827 68.8782 292.736 68.4838 292.553C68.0894 292.368 67.7762 292.101 67.5442 291.753C67.3121 291.402 67.1961 290.977 67.1961 290.48C67.1961 290.043 67.2823 289.688 67.4547 289.416C67.627 289.141 67.8574 288.926 68.1457 288.77C68.4341 288.614 68.7523 288.498 69.1003 288.422C69.4516 288.343 69.8046 288.28 70.1592 288.233C70.6232 288.174 70.9994 288.129 71.2878 288.099C71.5794 288.066 71.7916 288.011 71.9241 287.935C72.06 287.859 72.128 287.726 72.128 287.537V287.497C72.128 287.007 71.9937 286.626 71.7253 286.354C71.4601 286.082 71.0574 285.946 70.5172 285.946C69.957 285.946 69.5179 286.069 69.1997 286.314C68.8815 286.559 68.6578 286.821 68.5285 287.1L67.4149 286.702C67.6138 286.238 67.8789 285.877 68.2103 285.618C68.5451 285.356 68.9097 285.174 69.3041 285.071C69.7018 284.965 70.0929 284.912 70.4774 284.912C70.7227 284.912 71.0044 284.942 71.3226 285.002C71.6441 285.058 71.954 285.176 72.2523 285.355C72.5539 285.534 72.8041 285.804 73.003 286.165C73.2018 286.526 73.3013 287.01 73.3013 287.617V292.648H72.128V291.614H72.0683C71.9888 291.78 71.8562 291.957 71.6706 292.146C71.485 292.335 71.238 292.495 70.9298 292.628C70.6216 292.761 70.2454 292.827 69.8013 292.827ZM69.9802 291.773C70.4443 291.773 70.8353 291.682 71.1535 291.5C71.475 291.317 71.717 291.082 71.8794 290.794C72.0451 290.505 72.128 290.202 72.128 289.884V288.81C72.0782 288.87 71.9689 288.924 71.7998 288.974C71.6341 289.02 71.4419 289.062 71.2231 289.098C71.0077 289.131 70.7972 289.161 70.5917 289.188C70.3896 289.211 70.2255 289.231 70.0996 289.247C69.7946 289.287 69.5096 289.352 69.2444 289.441C68.9826 289.527 68.7705 289.658 68.6081 289.834C68.449 290.006 68.3694 290.242 68.3694 290.54C68.3694 290.948 68.5202 291.256 68.8219 291.465C69.1268 291.67 69.5129 291.773 69.9802 291.773ZM80.8919 286.722L79.8379 287.02C79.7716 286.844 79.6738 286.674 79.5446 286.508C79.4186 286.339 79.2463 286.2 79.0275 286.09C78.8088 285.981 78.5287 285.926 78.1873 285.926C77.72 285.926 77.3305 286.034 77.019 286.25C76.7108 286.462 76.5566 286.732 76.5566 287.06C76.5566 287.352 76.6627 287.582 76.8748 287.751C77.0869 287.92 77.4184 288.061 77.8691 288.174L79.0027 288.452C79.6854 288.618 80.1942 288.871 80.5289 289.213C80.8637 289.551 81.0311 289.986 81.0311 290.52C81.0311 290.958 80.9051 291.349 80.6532 291.693C80.4046 292.038 80.0566 292.31 79.6092 292.509C79.1617 292.708 78.6414 292.807 78.0481 292.807C77.2692 292.807 76.6246 292.638 76.1142 292.3C75.6037 291.962 75.2806 291.468 75.1447 290.818L76.2583 290.54C76.3644 290.951 76.5649 291.259 76.8599 291.465C77.1582 291.67 77.5476 291.773 78.0282 291.773C78.5751 291.773 79.0093 291.657 79.3308 291.425C79.6556 291.19 79.818 290.908 79.818 290.58C79.818 290.315 79.7252 290.093 79.5396 289.914C79.354 289.731 79.0689 289.595 78.6845 289.506L77.4117 289.208C76.7124 289.042 76.1987 288.785 75.8706 288.437C75.5457 288.086 75.3833 287.647 75.3833 287.12C75.3833 286.689 75.5043 286.308 75.7463 285.976C75.9915 285.645 76.3246 285.384 76.7456 285.196C77.1698 285.007 77.6504 284.912 78.1873 284.912C78.943 284.912 79.5363 285.078 79.9671 285.409C80.4013 285.741 80.7096 286.178 80.8919 286.722ZM86.1582 285.012V286.006H82.2009V285.012H86.1582ZM83.3543 283.182H84.5276V290.46C84.5276 290.792 84.5756 291.04 84.6717 291.206C84.7712 291.369 84.8971 291.478 85.0496 291.534C85.2054 291.587 85.3694 291.614 85.5418 291.614C85.671 291.614 85.7771 291.607 85.86 291.594C85.9428 291.577 86.0091 291.564 86.0588 291.554L86.2975 292.608C86.2179 292.638 86.1069 292.668 85.9644 292.698C85.8218 292.731 85.6412 292.747 85.4225 292.747C85.091 292.747 84.7662 292.676 84.448 292.534C84.1332 292.391 83.8713 292.174 83.6625 291.882C83.457 291.591 83.3543 291.223 83.3543 290.779V283.182ZM93.114 288.054V292.648H91.9407V285.012H93.0742V286.205H93.1736C93.3526 285.817 93.6244 285.505 93.989 285.27C94.3535 285.031 94.8242 284.912 95.4009 284.912C95.9179 284.912 96.3703 285.018 96.7581 285.23C97.1459 285.439 97.4475 285.757 97.663 286.185C97.8784 286.609 97.9861 287.146 97.9861 287.796V292.648H96.8128V287.875C96.8128 287.275 96.657 286.808 96.3455 286.473C96.0339 286.135 95.6064 285.966 95.0628 285.966C94.6883 285.966 94.3535 286.047 94.0586 286.21C93.7669 286.372 93.5365 286.609 93.3675 286.921C93.1985 287.232 93.114 287.61 93.114 288.054ZM102.417 292.827C101.933 292.827 101.494 292.736 101.1 292.553C100.705 292.368 100.392 292.101 100.16 291.753C99.9282 291.402 99.8122 290.977 99.8122 290.48C99.8122 290.043 99.8983 289.688 100.071 289.416C100.243 289.141 100.473 288.926 100.762 288.77C101.05 288.614 101.368 288.498 101.716 288.422C102.068 288.343 102.421 288.28 102.775 288.233C103.239 288.174 103.615 288.129 103.904 288.099C104.195 288.066 104.408 288.011 104.54 287.935C104.676 287.859 104.744 287.726 104.744 287.537V287.497C104.744 287.007 104.61 286.626 104.341 286.354C104.076 286.082 103.673 285.946 103.133 285.946C102.573 285.946 102.134 286.069 101.816 286.314C101.498 286.559 101.274 286.821 101.145 287.1L100.031 286.702C100.23 286.238 100.495 285.877 100.826 285.618C101.161 285.356 101.526 285.174 101.92 285.071C102.318 284.965 102.709 284.912 103.093 284.912C103.339 284.912 103.62 284.942 103.939 285.002C104.26 285.058 104.57 285.176 104.868 285.355C105.17 285.534 105.42 285.804 105.619 286.165C105.818 286.526 105.917 287.01 105.917 287.617V292.648H104.744V291.614H104.684C104.605 291.78 104.472 291.957 104.287 292.146C104.101 292.335 103.854 292.495 103.546 292.628C103.238 292.761 102.861 292.827 102.417 292.827ZM102.596 291.773C103.06 291.773 103.451 291.682 103.77 291.5C104.091 291.317 104.333 291.082 104.495 290.794C104.661 290.505 104.744 290.202 104.744 289.884V288.81C104.694 288.87 104.585 288.924 104.416 288.974C104.25 289.02 104.058 289.062 103.839 289.098C103.624 289.131 103.413 289.161 103.208 289.188C103.006 289.211 102.842 289.231 102.716 289.247C102.411 289.287 102.126 289.352 101.86 289.441C101.599 289.527 101.386 289.658 101.224 289.834C101.065 290.006 100.985 290.242 100.985 290.54C100.985 290.948 101.136 291.256 101.438 291.465C101.743 291.67 102.129 291.773 102.596 291.773ZM108.099 292.648V285.012H109.232V286.205H109.332C109.491 285.797 109.748 285.481 110.102 285.255C110.457 285.027 110.883 284.912 111.38 284.912C111.884 284.912 112.303 285.027 112.638 285.255C112.976 285.481 113.239 285.797 113.428 286.205H113.508C113.703 285.81 113.997 285.497 114.388 285.265C114.779 285.03 115.248 284.912 115.795 284.912C116.478 284.912 117.036 285.126 117.47 285.553C117.904 285.978 118.122 286.639 118.122 287.537V292.648H116.948V287.537C116.948 286.974 116.794 286.571 116.486 286.329C116.178 286.087 115.815 285.966 115.397 285.966C114.86 285.966 114.444 286.129 114.149 286.453C113.854 286.775 113.707 287.183 113.707 287.676V292.648H112.514V287.418C112.514 286.984 112.373 286.634 112.091 286.369C111.809 286.1 111.446 285.966 111.002 285.966C110.697 285.966 110.412 286.047 110.147 286.21C109.885 286.372 109.673 286.598 109.511 286.886C109.352 287.171 109.272 287.501 109.272 287.875V292.648H108.099ZM123.508 292.807C122.773 292.807 122.138 292.645 121.604 292.32C121.074 291.992 120.665 291.534 120.376 290.948C120.091 290.358 119.949 289.672 119.949 288.889C119.949 288.107 120.091 287.418 120.376 286.821C120.665 286.221 121.066 285.754 121.579 285.419C122.097 285.081 122.7 284.912 123.389 284.912C123.787 284.912 124.18 284.978 124.567 285.111C124.955 285.244 125.308 285.459 125.626 285.757C125.945 286.052 126.198 286.443 126.387 286.931C126.576 287.418 126.67 288.018 126.67 288.73V289.227H120.784V288.213H125.477C125.477 287.782 125.391 287.398 125.219 287.06C125.05 286.722 124.808 286.455 124.493 286.259C124.181 286.064 123.813 285.966 123.389 285.966C122.922 285.966 122.517 286.082 122.176 286.314C121.838 286.543 121.578 286.841 121.396 287.209C121.213 287.577 121.122 287.971 121.122 288.392V289.068C121.122 289.645 121.222 290.134 121.42 290.535C121.623 290.933 121.903 291.236 122.261 291.445C122.619 291.65 123.034 291.753 123.508 291.753C123.817 291.753 124.095 291.71 124.344 291.624C124.596 291.534 124.813 291.402 124.995 291.226C125.177 291.047 125.318 290.825 125.418 290.56L126.551 290.878C126.432 291.263 126.231 291.601 125.95 291.892C125.668 292.181 125.32 292.406 124.905 292.568C124.491 292.727 124.026 292.807 123.508 292.807ZM130.444 288.193L130.524 286.006L128.674 287.179L128.197 286.344L130.146 285.33L128.197 284.316L128.674 283.48L130.524 284.654L130.444 282.466H131.399L131.319 284.654L133.168 283.48L133.646 284.316L131.697 285.33L133.646 286.344L133.168 287.179L131.319 286.006L131.399 288.193H130.444Z" fill="#00051D" fill-opacity="0.454902"/>
</g>
<rect width="361" height="48" transform="translate(20.5 339.648)" fill="white" fill-opacity="0.01"/>
<path d="M20.5 343.648C20.5 341.439 22.2909 339.648 24.5 339.648H377.5C379.709 339.648 381.5 341.439 381.5 343.648V383.648C381.5 385.857 379.709 387.648 377.5 387.648H24.5C22.2909 387.648 20.5 385.857 20.5 383.648V343.648Z" fill="white" fill-opacity="0.9"/>
<path d="M24.5 340.148H377.5C379.433 340.148 381 341.715 381 343.648V383.648C381 385.581 379.433 387.148 377.5 387.148H24.5C22.567 387.148 21 385.581 21 383.648V343.648C21 341.715 22.567 340.148 24.5 340.148Z" stroke="#000932" stroke-opacity="0.121569"/>
<path d="M28.7756 356.807C28.0398 356.807 27.4051 356.645 26.8714 356.32C26.3411 355.992 25.9318 355.534 25.6435 354.948C25.3584 354.358 25.2159 353.672 25.2159 352.889C25.2159 352.107 25.3584 351.418 25.6435 350.821C25.9318 350.221 26.3329 349.754 26.8466 349.419C27.3636 349.081 27.9669 348.912 28.6562 348.912C29.054 348.912 29.4467 348.978 29.8345 349.111C30.2223 349.244 30.5753 349.459 30.8935 349.757C31.2116 350.052 31.4652 350.443 31.6541 350.931C31.843 351.418 31.9375 352.018 31.9375 352.73V353.227H26.0511V352.213H30.7443C30.7443 351.782 30.6581 351.398 30.4858 351.06C30.3168 350.722 30.0748 350.455 29.7599 350.259C29.4484 350.064 29.0805 349.966 28.6562 349.966C28.1889 349.966 27.7846 350.082 27.4432 350.314C27.1051 350.543 26.8449 350.841 26.6626 351.209C26.4804 351.577 26.3892 351.971 26.3892 352.392V353.068C26.3892 353.645 26.4886 354.134 26.6875 354.535C26.8897 354.933 27.1697 355.236 27.5277 355.445C27.8857 355.65 28.3016 355.753 28.7756 355.753C29.0838 355.753 29.3622 355.71 29.6108 355.624C29.8627 355.534 30.0798 355.402 30.2621 355.226C30.4444 355.047 30.5852 354.825 30.6847 354.56L31.8182 354.878C31.6989 355.263 31.4983 355.601 31.2166 355.892C30.9349 356.181 30.5869 356.406 30.1726 356.568C29.7583 356.727 29.2926 356.807 28.7756 356.807ZM33.7623 356.648V349.012H34.8958V350.205H34.9953C35.1543 349.797 35.4112 349.481 35.7659 349.255C36.1205 349.027 36.5464 348.912 37.0436 348.912C37.5473 348.912 37.9666 349.027 38.3014 349.255C38.6394 349.481 38.9029 349.797 39.0918 350.205H39.1714C39.3669 349.81 39.6603 349.497 40.0514 349.265C40.4425 349.03 40.9114 348.912 41.4583 348.912C42.1411 348.912 42.6996 349.126 43.1337 349.553C43.5679 349.978 43.785 350.639 43.785 351.537V356.648H42.6117V351.537C42.6117 350.974 42.4576 350.571 42.1494 350.329C41.8411 350.087 41.4782 349.966 41.0606 349.966C40.5237 349.966 40.1077 350.129 39.8127 350.453C39.5177 350.775 39.3703 351.183 39.3703 351.676V356.648H38.1771V351.418C38.1771 350.984 38.0362 350.634 37.7545 350.369C37.4728 350.1 37.1098 349.966 36.6657 349.966C36.3608 349.966 36.0757 350.047 35.8106 350.21C35.5488 350.372 35.3366 350.598 35.1742 350.886C35.0151 351.171 34.9356 351.501 34.9356 351.875V356.648H33.7623ZM48.2174 356.827C47.7335 356.827 47.2944 356.736 46.9 356.553C46.5055 356.368 46.1923 356.101 45.9603 355.753C45.7283 355.402 45.6123 354.977 45.6123 354.48C45.6123 354.043 45.6985 353.688 45.8708 353.416C46.0432 353.141 46.2735 352.926 46.5619 352.77C46.8502 352.614 47.1684 352.498 47.5164 352.422C47.8678 352.343 48.2207 352.28 48.5754 352.233C49.0394 352.174 49.4156 352.129 49.7039 352.099C49.9956 352.066 50.2077 352.011 50.3403 351.935C50.4762 351.859 50.5441 351.726 50.5441 351.537V351.497C50.5441 351.007 50.4099 350.626 50.1414 350.354C49.8763 350.082 49.4736 349.946 48.9333 349.946C48.3732 349.946 47.934 350.069 47.6159 350.314C47.2977 350.559 47.074 350.821 46.9447 351.1L45.8311 350.702C46.0299 350.238 46.2951 349.877 46.6265 349.618C46.9613 349.356 47.3259 349.174 47.7203 349.071C48.118 348.965 48.5091 348.912 48.8936 348.912C49.1388 348.912 49.4206 348.942 49.7387 349.002C50.0602 349.058 50.3701 349.176 50.6684 349.355C50.97 349.534 51.2203 349.804 51.4191 350.165C51.618 350.526 51.7174 351.01 51.7174 351.617V356.648H50.5441V355.614H50.4845C50.4049 355.78 50.2724 355.957 50.0867 356.146C49.9011 356.335 49.6542 356.495 49.346 356.628C49.0377 356.761 48.6616 356.827 48.2174 356.827ZM48.3964 355.773C48.8604 355.773 49.2515 355.682 49.5697 355.5C49.8912 355.317 50.1331 355.082 50.2956 354.794C50.4613 354.505 50.5441 354.202 50.5441 353.884V352.81C50.4944 352.87 50.385 352.924 50.216 352.974C50.0503 353.02 49.8581 353.062 49.6393 353.098C49.4239 353.131 49.2134 353.161 49.0079 353.188C48.8057 353.211 48.6417 353.231 48.5157 353.247C48.2108 353.287 47.9258 353.352 47.6606 353.441C47.3988 353.527 47.1867 353.658 47.0242 353.834C46.8652 354.006 46.7856 354.242 46.7856 354.54C46.7856 354.948 46.9364 355.256 47.238 355.465C47.5429 355.67 47.9291 355.773 48.3964 355.773ZM53.8989 356.648V349.012H55.0722V356.648H53.8989ZM54.4955 347.739C54.2668 347.739 54.0696 347.661 53.9039 347.505C53.7415 347.349 53.6603 347.162 53.6603 346.943C53.6603 346.725 53.7415 346.537 53.9039 346.382C54.0696 346.226 54.2668 346.148 54.4955 346.148C54.7242 346.148 54.9198 346.226 55.0822 346.382C55.2479 346.537 55.3308 346.725 55.3308 346.943C55.3308 347.162 55.2479 347.349 55.0822 347.505C54.9198 347.661 54.7242 347.739 54.4955 347.739ZM58.4345 346.466V356.648H57.2612V346.466H58.4345ZM62.5723 352.193L62.6519 350.006L60.8025 351.179L60.3252 350.344L62.274 349.33L60.3252 348.316L60.8025 347.48L62.6519 348.654L62.5723 346.466H63.5269L63.4473 348.654L65.2968 347.48L65.774 348.316L63.8252 349.33L65.774 350.344L65.2968 351.179L63.4473 350.006L63.5269 352.193H62.5723Z" fill="#00051D" fill-opacity="0.454902"/>
<rect x="20" y="403.148" width="362" height="49" rx="4.5" stroke="#8E8C99"/>
<rect width="83" height="20" transform="translate(28.5 417.648)" fill="white" fill-opacity="0.01"/>
<path d="M29.6186 432.648V422.466H33.2479C34.04 422.466 34.6963 422.61 35.2166 422.899C35.737 423.187 36.1264 423.581 36.3849 424.082C36.6435 424.579 36.7727 425.139 36.7727 425.762C36.7727 426.389 36.6418 426.952 36.38 427.453C36.1214 427.95 35.7304 428.344 35.2067 428.636C34.6863 428.924 34.0317 429.068 33.2429 429.068H30.7472V427.766H33.1037C33.6042 427.766 34.0102 427.68 34.3217 427.507C34.6333 427.332 34.862 427.093 35.0078 426.791C35.1536 426.49 35.2266 426.147 35.2266 425.762C35.2266 425.378 35.1536 425.036 35.0078 424.738C34.862 424.44 34.6316 424.206 34.3168 424.037C34.0052 423.868 33.5942 423.784 33.0838 423.784H31.1548V432.648H29.6186ZM39.9409 422.466V432.648H38.4544V422.466H39.9409ZM44.163 432.817C43.6791 432.817 43.2416 432.727 42.8505 432.549C42.4594 432.366 42.1495 432.103 41.9208 431.758C41.6954 431.413 41.5827 430.991 41.5827 430.49C41.5827 430.059 41.6656 429.705 41.8313 429.426C41.997 429.148 42.2208 428.928 42.5025 428.765C42.7842 428.603 43.0991 428.48 43.4471 428.397C43.7951 428.314 44.1497 428.251 44.511 428.208C44.9684 428.155 45.3396 428.112 45.6246 428.079C45.9097 428.043 46.1168 427.985 46.2461 427.905C46.3754 427.826 46.44 427.696 46.44 427.517V427.482C46.44 427.048 46.3174 426.712 46.0721 426.473C45.8301 426.235 45.4689 426.115 44.9883 426.115C44.4878 426.115 44.0934 426.226 43.805 426.448C43.52 426.667 43.3228 426.911 43.2134 427.179L41.8164 426.861C41.9821 426.397 42.2241 426.022 42.5423 425.737C42.8638 425.449 43.2333 425.24 43.6509 425.111C44.0685 424.978 44.5077 424.912 44.9684 424.912C45.2733 424.912 45.5965 424.949 45.9379 425.022C46.2826 425.091 46.604 425.22 46.9023 425.409C47.204 425.598 47.4509 425.868 47.6431 426.22C47.8353 426.568 47.9315 427.02 47.9315 427.577V432.648H46.4798V431.604H46.4201C46.324 431.796 46.1798 431.985 45.9876 432.171C45.7953 432.356 45.5484 432.51 45.2468 432.633C44.9452 432.756 44.5839 432.817 44.163 432.817ZM44.4862 431.624C44.8971 431.624 45.2485 431.543 45.5401 431.38C45.8351 431.218 46.0588 431.006 46.2113 430.744C46.3671 430.479 46.445 430.195 46.445 429.894V428.909C46.3919 428.962 46.2892 429.012 46.1367 429.058C45.9876 429.102 45.8169 429.14 45.6246 429.173C45.4324 429.203 45.2451 429.231 45.0629 429.257C44.8806 429.281 44.7281 429.3 44.6055 429.317C44.3171 429.353 44.0536 429.415 43.815 429.501C43.5797 429.587 43.3907 429.711 43.2482 429.874C43.109 430.033 43.0394 430.245 43.0394 430.51C43.0394 430.878 43.1753 431.156 43.4471 431.345C43.7189 431.531 44.0652 431.624 44.4862 431.624ZM53.128 432.802C52.3889 432.802 51.7525 432.635 51.2189 432.3C50.6886 431.962 50.281 431.496 49.9959 430.903C49.7109 430.31 49.5684 429.63 49.5684 428.865C49.5684 428.089 49.7142 427.405 50.0059 426.811C50.2975 426.215 50.7085 425.749 51.2388 425.414C51.7691 425.08 52.3939 424.912 53.1131 424.912C53.6931 424.912 54.2102 425.02 54.6642 425.235C55.1183 425.447 55.4846 425.746 55.763 426.13C56.0447 426.515 56.2121 426.964 56.2651 427.477H54.8184C54.7388 427.12 54.5565 426.811 54.2715 426.553C53.9898 426.294 53.6119 426.165 53.138 426.165C52.7237 426.165 52.3607 426.274 52.0492 426.493C51.7409 426.709 51.5007 427.017 51.3283 427.418C51.156 427.816 51.0698 428.286 51.0698 428.83C51.0698 429.387 51.1543 429.867 51.3233 430.272C51.4924 430.676 51.731 430.989 52.0392 431.211C52.3508 431.433 52.717 431.544 53.138 431.544C53.4197 431.544 53.6749 431.493 53.9036 431.39C54.1356 431.284 54.3295 431.133 54.4853 430.938C54.6444 430.742 54.7554 430.507 54.8184 430.232H56.2651C56.2121 430.726 56.0513 431.166 55.7828 431.554C55.5144 431.942 55.1548 432.247 54.704 432.469C54.2566 432.691 53.7312 432.802 53.128 432.802ZM61.146 432.802C60.3936 432.802 59.7456 432.641 59.2021 432.32C58.6618 431.995 58.2442 431.539 57.9492 430.953C57.6576 430.363 57.5117 429.672 57.5117 428.879C57.5117 428.097 57.6576 427.408 57.9492 426.811C58.2442 426.215 58.6552 425.749 59.1822 425.414C59.7125 425.08 60.3323 424.912 61.0415 424.912C61.4724 424.912 61.89 424.983 62.2944 425.126C62.6987 425.268 63.0617 425.492 63.3832 425.797C63.7047 426.102 63.9582 426.498 64.1438 426.985C64.3294 427.469 64.4222 428.058 64.4222 428.75V429.277H58.3519V428.164H62.9656C62.9656 427.772 62.886 427.426 62.7269 427.125C62.5678 426.82 62.3441 426.579 62.0558 426.404C61.7707 426.228 61.436 426.14 61.0515 426.14C60.6339 426.14 60.2693 426.243 59.9577 426.448C59.6495 426.651 59.4109 426.916 59.2418 427.244C59.0761 427.569 58.9933 427.922 58.9933 428.303V429.173C58.9933 429.683 59.0827 430.117 59.2617 430.475C59.444 430.833 59.6976 431.107 60.0224 431.296C60.3472 431.481 60.7267 431.574 61.1609 431.574C61.4426 431.574 61.6995 431.534 61.9315 431.455C62.1635 431.372 62.364 431.249 62.533 431.087C62.7021 430.924 62.8313 430.724 62.9208 430.485L64.3278 430.739C64.2151 431.153 64.0129 431.516 63.7212 431.828C63.4329 432.136 63.07 432.376 62.6325 432.549C62.1983 432.718 61.7028 432.802 61.146 432.802ZM71.2631 428.114V432.648H69.7766V422.466H71.2433V426.254H71.3377C71.5167 425.843 71.7901 425.517 72.158 425.275C72.5259 425.033 73.0065 424.912 73.5998 424.912C74.1235 424.912 74.5808 425.02 74.9719 425.235C75.3664 425.451 75.6713 425.772 75.8867 426.2C76.1055 426.624 76.2148 427.154 76.2148 427.791V432.648H74.7283V427.97C74.7283 427.41 74.5842 426.975 74.2958 426.667C74.0075 426.356 73.6064 426.2 73.0927 426.2C72.7414 426.2 72.4265 426.274 72.1481 426.424C71.873 426.573 71.6559 426.791 71.4968 427.08C71.341 427.365 71.2631 427.71 71.2631 428.114ZM81.4151 432.802C80.6992 432.802 80.0745 432.638 79.5408 432.31C79.0072 431.982 78.5929 431.523 78.2979 430.933C78.003 430.343 77.8555 429.653 77.8555 428.865C77.8555 428.072 78.003 427.38 78.2979 426.786C78.5929 426.193 79.0072 425.732 79.5408 425.404C80.0745 425.076 80.6992 424.912 81.4151 424.912C82.131 424.912 82.7558 425.076 83.2894 425.404C83.823 425.732 84.2373 426.193 84.5323 426.786C84.8273 427.38 84.9748 428.072 84.9748 428.865C84.9748 429.653 84.8273 430.343 84.5323 430.933C84.2373 431.523 83.823 431.982 83.2894 432.31C82.7558 432.638 82.131 432.802 81.4151 432.802ZM81.4201 431.554C81.8841 431.554 82.2686 431.432 82.5735 431.186C82.8784 430.941 83.1038 430.615 83.2496 430.207C83.3988 429.799 83.4734 429.35 83.4734 428.86C83.4734 428.372 83.3988 427.925 83.2496 427.517C83.1038 427.106 82.8784 426.777 82.5735 426.528C82.2686 426.279 81.8841 426.155 81.4201 426.155C80.9528 426.155 80.565 426.279 80.2567 426.528C79.9518 426.777 79.7248 427.106 79.5756 427.517C79.4298 427.925 79.3569 428.372 79.3569 428.86C79.3569 429.35 79.4298 429.799 79.5756 430.207C79.7248 430.615 79.9518 430.941 80.2567 431.186C80.565 431.432 80.9528 431.554 81.4201 431.554ZM88.1206 422.466V432.648H86.6341V422.466H88.1206ZM92.979 432.797C92.3626 432.797 91.8124 432.64 91.3285 432.325C90.8479 432.007 90.4701 431.554 90.195 430.968C89.9232 430.378 89.7873 429.67 89.7873 428.845C89.7873 428.019 89.9248 427.313 90.1999 426.727C90.4783 426.14 90.8595 425.691 91.3434 425.379C91.8273 425.068 92.3758 424.912 92.989 424.912C93.4629 424.912 93.8441 424.992 94.1325 425.151C94.4241 425.307 94.6495 425.489 94.8086 425.698C94.971 425.906 95.0969 426.09 95.1864 426.25H95.2759V422.466H96.7624V432.648H95.3107V431.46H95.1864C95.0969 431.622 94.9677 431.808 94.7987 432.017C94.6329 432.225 94.4042 432.408 94.1126 432.563C93.8209 432.719 93.4431 432.797 92.979 432.797ZM93.3072 431.529C93.7347 431.529 94.096 431.417 94.391 431.191C94.6893 430.963 94.9147 430.646 95.0671 430.242C95.2229 429.837 95.3008 429.367 95.3008 428.83C95.3008 428.299 95.2246 427.835 95.0721 427.438C94.9196 427.04 94.6959 426.73 94.4009 426.508C94.1059 426.286 93.7414 426.175 93.3072 426.175C92.8597 426.175 92.4869 426.291 92.1886 426.523C91.8903 426.755 91.6649 427.071 91.5124 427.473C91.3633 427.874 91.2887 428.326 91.2887 428.83C91.2887 429.34 91.3649 429.799 91.5174 430.207C91.6699 430.615 91.8952 430.938 92.1935 431.176C92.4951 431.412 92.8664 431.529 93.3072 431.529ZM102.175 432.802C101.423 432.802 100.775 432.641 100.231 432.32C99.6911 431.995 99.2735 431.539 98.9785 430.953C98.6868 430.363 98.541 429.672 98.541 428.879C98.541 428.097 98.6868 427.408 98.9785 426.811C99.2735 426.215 99.6845 425.749 100.211 425.414C100.742 425.08 101.362 424.912 102.071 424.912C102.502 424.912 102.919 424.983 103.324 425.126C103.728 425.268 104.091 425.492 104.412 425.797C104.734 426.102 104.988 426.498 105.173 426.985C105.359 427.469 105.452 428.058 105.452 428.75V429.277H99.3812V428.164H103.995C103.995 427.772 103.915 427.426 103.756 427.125C103.597 426.82 103.373 426.579 103.085 426.404C102.8 426.228 102.465 426.14 102.081 426.14C101.663 426.14 101.299 426.243 100.987 426.448C100.679 426.651 100.44 426.916 100.271 427.244C100.105 427.569 100.023 427.922 100.023 428.303V429.173C100.023 429.683 100.112 430.117 100.291 430.475C100.473 430.833 100.727 431.107 101.052 431.296C101.376 431.481 101.756 431.574 102.19 431.574C102.472 431.574 102.729 431.534 102.961 431.455C103.193 431.372 103.393 431.249 103.562 431.087C103.731 430.924 103.861 430.724 103.95 430.485L105.357 430.739C105.244 431.153 105.042 431.516 104.751 431.828C104.462 432.136 104.099 432.376 103.662 432.549C103.228 432.718 102.732 432.802 102.175 432.802ZM107.101 432.648V425.012H108.538V426.225H108.617C108.756 425.814 109.002 425.491 109.353 425.255C109.708 425.017 110.109 424.897 110.556 424.897C110.649 424.897 110.758 424.901 110.884 424.907C111.013 424.914 111.115 424.922 111.188 424.932V426.354C111.128 426.337 111.022 426.319 110.869 426.299C110.717 426.276 110.564 426.264 110.412 426.264C110.061 426.264 109.747 426.339 109.472 426.488C109.201 426.634 108.985 426.838 108.826 427.1C108.667 427.358 108.587 427.653 108.587 427.985V432.648H107.101Z" fill="#313131"/>
<mask id="mask0_1178_4453" style="mask-type:alpha" maskUnits="userSpaceOnUse" x="357" y="419" width="17" height="17">
<rect x="357.5" y="419.648" width="16" height="16" fill="#D9D9D9"/>
</mask>
<g mask="url(#mask0_1178_4453)">
<path d="M365.5 429.631C365.411 429.631 365.328 429.617 365.25 429.59C365.172 429.562 365.1 429.515 365.033 429.448L361.967 426.381C361.844 426.259 361.783 426.104 361.783 425.915C361.783 425.726 361.844 425.57 361.967 425.448C362.089 425.326 362.244 425.265 362.433 425.265C362.622 425.265 362.778 425.326 362.9 425.448L365.5 428.048L368.1 425.448C368.222 425.326 368.378 425.265 368.567 425.265C368.756 425.265 368.911 425.326 369.033 425.448C369.156 425.57 369.217 425.726 369.217 425.915C369.217 426.104 369.156 426.259 369.033 426.381L365.967 429.448C365.9 429.515 365.828 429.562 365.75 429.59C365.672 429.617 365.589 429.631 365.5 429.631Z" fill="#8D8D8D"/>
</g>
<rect x="20.5" y="493.648" width="361" height="51" rx="8" fill="#606060"/>
<path d="M169.851 516.648H168.442C168.358 516.243 168.213 515.887 168.004 515.58C167.8 515.273 167.55 515.015 167.254 514.807C166.963 514.595 166.639 514.436 166.283 514.33C165.927 514.224 165.555 514.171 165.169 514.171C164.464 514.171 163.826 514.349 163.254 514.705C162.686 515.061 162.233 515.585 161.896 516.279C161.563 516.972 161.396 517.822 161.396 518.83C161.396 519.837 161.563 520.688 161.896 521.381C162.233 522.074 162.686 522.599 163.254 522.955C163.826 523.311 164.464 523.489 165.169 523.489C165.555 523.489 165.927 523.436 166.283 523.33C166.639 523.224 166.963 523.067 167.254 522.858C167.55 522.646 167.8 522.387 168.004 522.08C168.213 521.769 168.358 521.413 168.442 521.012H169.851C169.745 521.606 169.552 522.138 169.271 522.608C168.991 523.078 168.643 523.477 168.226 523.807C167.809 524.133 167.341 524.381 166.822 524.551C166.307 524.722 165.756 524.807 165.169 524.807C164.177 524.807 163.294 524.565 162.521 524.08C161.749 523.595 161.141 522.906 160.697 522.012C160.254 521.118 160.033 520.057 160.033 518.83C160.033 517.602 160.254 516.542 160.697 515.648C161.141 514.754 161.749 514.065 162.521 513.58C163.294 513.095 164.177 512.852 165.169 512.852C165.756 512.852 166.307 512.938 166.822 513.108C167.341 513.279 167.809 513.529 168.226 513.858C168.643 514.184 168.991 514.582 169.271 515.051C169.552 515.517 169.745 516.049 169.851 516.648ZM181.946 518.83C181.946 520.057 181.724 521.118 181.281 522.012C180.838 522.906 180.23 523.595 179.457 524.08C178.685 524.565 177.802 524.807 176.81 524.807C175.817 524.807 174.935 524.565 174.162 524.08C173.389 523.595 172.781 522.906 172.338 522.012C171.895 521.118 171.673 520.057 171.673 518.83C171.673 517.602 171.895 516.542 172.338 515.648C172.781 514.754 173.389 514.065 174.162 513.58C174.935 513.095 175.817 512.852 176.81 512.852C177.802 512.852 178.685 513.095 179.457 513.58C180.23 514.065 180.838 514.754 181.281 515.648C181.724 516.542 181.946 517.602 181.946 518.83ZM180.582 518.83C180.582 517.822 180.414 516.972 180.077 516.279C179.743 515.585 179.291 515.061 178.719 514.705C178.151 514.349 177.514 514.171 176.81 514.171C176.105 514.171 175.467 514.349 174.895 514.705C174.327 515.061 173.874 515.585 173.537 516.279C173.204 516.972 173.037 517.822 173.037 518.83C173.037 519.837 173.204 520.688 173.537 521.381C173.874 522.074 174.327 522.599 174.895 522.955C175.467 523.311 176.105 523.489 176.81 523.489C177.514 523.489 178.151 523.311 178.719 522.955C179.291 522.599 179.743 522.074 180.077 521.381C180.414 520.688 180.582 519.837 180.582 518.83ZM193.543 513.012V524.648H192.179L185.838 515.512H185.724V524.648H184.315V513.012H185.679L192.043 522.171H192.156V513.012H193.543ZM195.726 514.262V513.012H204.453V514.262H200.794V524.648H199.385V514.262H195.726ZM208.037 513.012V524.648H206.628V513.012H208.037ZM220.089 513.012V524.648H218.726L212.385 515.512H212.271V524.648H210.862V513.012H212.226L218.589 522.171H218.703V513.012H220.089ZM230.545 513.012H231.955V520.716C231.955 521.512 231.767 522.222 231.392 522.847C231.021 523.468 230.496 523.959 229.818 524.318C229.14 524.674 228.345 524.852 227.432 524.852C226.519 524.852 225.723 524.674 225.045 524.318C224.367 523.959 223.841 523.468 223.466 522.847C223.095 522.222 222.909 521.512 222.909 520.716V513.012H224.318V520.602C224.318 521.171 224.443 521.676 224.693 522.12C224.943 522.559 225.299 522.906 225.761 523.159C226.227 523.409 226.784 523.534 227.432 523.534C228.08 523.534 228.636 523.409 229.102 523.159C229.568 522.906 229.924 522.559 230.17 522.12C230.42 521.676 230.545 521.171 230.545 520.602V513.012ZM234.768 524.648V513.012H241.791V514.262H236.178V518.193H241.428V519.443H236.178V523.398H241.882V524.648H234.768Z" fill="white"/>
</g>
<defs>
<clipPath id="clip0_1178_4453">
<rect width="402" height="874" rx="16" fill="white"/>
</clipPath>
<clipPath id="clip1_1178_4453">
<rect width="353" height="40" fill="white" transform="translate(24.5 215.648)"/>
</clipPath>
<clipPath id="clip2_1178_4453">
<rect width="353" height="40" fill="white" transform="translate(24.5 279.648)"/>
</clipPath>
</defs>
</svg>
