<svg width="402" height="874" viewBox="0 0 402 874" fill="none" xmlns="http://www.w3.org/2000/svg">
<rect width="402" height="874" rx="16" fill="black"/>
<rect x="0.5" y="102.493" width="401" height="771.007" rx="15.5" fill="white" stroke="black"/>
<path d="M376.915 309.824L375.852 308.761L379.625 304.988L375.852 301.24L376.915 300.176L380.688 303.949L384.436 300.176L385.5 301.24L381.727 304.988L385.5 308.761L384.436 309.824L380.688 306.051L376.915 309.824Z" fill="#1C1B1F"/>
<path d="M45.9489 366.824L39.2898 343.551H44.6648L48.517 359.722H48.7102L52.9602 343.551H57.5625L61.8011 359.756H62.0057L65.858 343.551H71.233L64.5739 366.824H59.7784L55.3466 351.608H55.1648L50.7443 366.824H45.9489ZM79.8551 367.165C78.0597 367.165 76.5142 366.801 75.2188 366.074C73.9309 365.339 72.9384 364.301 72.2415 362.96C71.5445 361.612 71.196 360.017 71.196 358.176C71.196 356.381 71.5445 354.805 72.2415 353.449C72.9384 352.093 73.9195 351.036 75.1847 350.279C76.4574 349.521 77.9498 349.142 79.6619 349.142C80.8134 349.142 81.8854 349.328 82.8778 349.699C83.8778 350.063 84.7491 350.612 85.4915 351.347C86.2415 352.082 86.8248 353.006 87.2415 354.119C87.6581 355.225 87.8665 356.521 87.8665 358.006V359.335H73.1278V356.335H83.3097C83.3097 355.638 83.1581 355.021 82.8551 354.483C82.5521 353.945 82.1316 353.525 81.5938 353.222C81.0634 352.911 80.446 352.756 79.7415 352.756C79.0066 352.756 78.3551 352.926 77.7869 353.267C77.2263 353.6 76.7869 354.051 76.4688 354.619C76.1506 355.18 75.9877 355.805 75.9801 356.494V359.347C75.9801 360.21 76.1392 360.957 76.4574 361.585C76.7831 362.214 77.2415 362.699 77.8324 363.04C78.4233 363.381 79.1241 363.551 79.9347 363.551C80.4725 363.551 80.965 363.475 81.4119 363.324C81.8589 363.172 82.2415 362.945 82.5597 362.642C82.8778 362.339 83.1203 361.968 83.2869 361.529L87.7642 361.824C87.5369 362.9 87.071 363.839 86.3665 364.642C85.6695 365.438 84.768 366.059 83.6619 366.506C82.5634 366.945 81.2945 367.165 79.8551 367.165ZM95.8665 343.551V366.824H91.0256V343.551H95.8665ZM107.631 367.165C105.843 367.165 104.305 366.786 103.017 366.029C101.737 365.263 100.752 364.203 100.062 362.847C99.3807 361.491 99.0398 359.93 99.0398 358.165C99.0398 356.377 99.3845 354.809 100.074 353.46C100.771 352.104 101.759 351.047 103.04 350.29C104.32 349.525 105.843 349.142 107.608 349.142C109.131 349.142 110.464 349.419 111.608 349.972C112.752 350.525 113.657 351.301 114.324 352.301C114.991 353.301 115.358 354.475 115.426 355.824H110.858C110.729 354.953 110.388 354.252 109.835 353.722C109.29 353.184 108.574 352.915 107.688 352.915C106.938 352.915 106.282 353.119 105.722 353.529C105.169 353.93 104.737 354.517 104.426 355.29C104.116 356.063 103.96 356.998 103.96 358.097C103.96 359.21 104.112 360.157 104.415 360.938C104.725 361.718 105.161 362.313 105.722 362.722C106.282 363.131 106.938 363.335 107.688 363.335C108.241 363.335 108.737 363.222 109.176 362.994C109.623 362.767 109.991 362.438 110.278 362.006C110.574 361.566 110.767 361.04 110.858 360.426H115.426C115.35 361.76 114.987 362.934 114.335 363.949C113.691 364.957 112.801 365.744 111.665 366.313C110.528 366.881 109.184 367.165 107.631 367.165ZM126.412 367.165C124.647 367.165 123.12 366.79 121.832 366.04C120.552 365.282 119.563 364.229 118.866 362.881C118.17 361.525 117.821 359.953 117.821 358.165C117.821 356.362 118.17 354.786 118.866 353.438C119.563 352.082 120.552 351.029 121.832 350.279C123.12 349.521 124.647 349.142 126.412 349.142C128.177 349.142 129.7 349.521 130.98 350.279C132.268 351.029 133.26 352.082 133.957 353.438C134.654 354.786 135.003 356.362 135.003 358.165C135.003 359.953 134.654 361.525 133.957 362.881C133.26 364.229 132.268 365.282 130.98 366.04C129.7 366.79 128.177 367.165 126.412 367.165ZM126.435 363.415C127.238 363.415 127.908 363.188 128.446 362.733C128.984 362.271 129.389 361.642 129.662 360.847C129.942 360.051 130.082 359.146 130.082 358.131C130.082 357.116 129.942 356.21 129.662 355.415C129.389 354.619 128.984 353.991 128.446 353.529C127.908 353.066 127.238 352.835 126.435 352.835C125.624 352.835 124.942 353.066 124.389 353.529C123.844 353.991 123.431 354.619 123.151 355.415C122.878 356.21 122.741 357.116 122.741 358.131C122.741 359.146 122.878 360.051 123.151 360.847C123.431 361.642 123.844 362.271 124.389 362.733C124.942 363.188 125.624 363.415 126.435 363.415ZM138.151 366.824V349.369H142.764V352.449H142.969C143.332 351.426 143.938 350.619 144.787 350.029C145.635 349.438 146.651 349.142 147.832 349.142C149.029 349.142 150.048 349.441 150.889 350.04C151.73 350.631 152.291 351.434 152.571 352.449H152.753C153.109 351.449 153.753 350.65 154.685 350.051C155.624 349.445 156.734 349.142 158.014 349.142C159.643 349.142 160.965 349.661 161.98 350.699C163.003 351.729 163.514 353.191 163.514 355.085V366.824H158.685V356.04C158.685 355.07 158.427 354.343 157.912 353.858C157.397 353.373 156.753 353.131 155.98 353.131C155.101 353.131 154.416 353.411 153.923 353.972C153.431 354.525 153.185 355.256 153.185 356.165V366.824H148.491V355.938C148.491 355.082 148.245 354.4 147.753 353.892C147.268 353.385 146.628 353.131 145.832 353.131C145.295 353.131 144.81 353.267 144.378 353.54C143.954 353.805 143.616 354.18 143.366 354.665C143.116 355.142 142.991 355.703 142.991 356.347V366.824H138.151ZM175.293 367.165C173.497 367.165 171.952 366.801 170.656 366.074C169.368 365.339 168.376 364.301 167.679 362.96C166.982 361.612 166.634 360.017 166.634 358.176C166.634 356.381 166.982 354.805 167.679 353.449C168.376 352.093 169.357 351.036 170.622 350.279C171.895 349.521 173.387 349.142 175.099 349.142C176.251 349.142 177.323 349.328 178.315 349.699C179.315 350.063 180.187 350.612 180.929 351.347C181.679 352.082 182.262 353.006 182.679 354.119C183.096 355.225 183.304 356.521 183.304 358.006V359.335H168.565V356.335H178.747C178.747 355.638 178.596 355.021 178.293 354.483C177.99 353.945 177.569 353.525 177.031 353.222C176.501 352.911 175.884 352.756 175.179 352.756C174.444 352.756 173.793 352.926 173.224 353.267C172.664 353.6 172.224 354.051 171.906 354.619C171.588 355.18 171.425 355.805 171.418 356.494V359.347C171.418 360.21 171.577 360.957 171.895 361.585C172.221 362.214 172.679 362.699 173.27 363.04C173.861 363.381 174.562 363.551 175.372 363.551C175.91 363.551 176.402 363.475 176.849 363.324C177.296 363.172 177.679 362.945 177.997 362.642C178.315 362.339 178.558 361.968 178.724 361.529L183.202 361.824C182.974 362.9 182.509 363.839 181.804 364.642C181.107 365.438 180.205 366.059 179.099 366.506C178.001 366.945 176.732 367.165 175.293 367.165ZM203.153 349.369V353.006H192.642V349.369H203.153ZM195.028 345.188H199.869V361.46C199.869 361.907 199.938 362.256 200.074 362.506C200.21 362.748 200.4 362.919 200.642 363.017C200.892 363.116 201.18 363.165 201.506 363.165C201.733 363.165 201.96 363.146 202.188 363.108C202.415 363.063 202.589 363.029 202.71 363.006L203.472 366.608C203.229 366.684 202.888 366.771 202.449 366.869C202.009 366.975 201.475 367.04 200.847 367.063C199.68 367.108 198.657 366.953 197.778 366.597C196.907 366.241 196.229 365.688 195.744 364.938C195.259 364.188 195.021 363.241 195.028 362.097V345.188ZM214.006 367.165C212.241 367.165 210.714 366.79 209.426 366.04C208.146 365.282 207.157 364.229 206.46 362.881C205.763 361.525 205.415 359.953 205.415 358.165C205.415 356.362 205.763 354.786 206.46 353.438C207.157 352.082 208.146 351.029 209.426 350.279C210.714 349.521 212.241 349.142 214.006 349.142C215.771 349.142 217.294 349.521 218.574 350.279C219.862 351.029 220.854 352.082 221.551 353.438C222.248 354.786 222.597 356.362 222.597 358.165C222.597 359.953 222.248 361.525 221.551 362.881C220.854 364.229 219.862 365.282 218.574 366.04C217.294 366.79 215.771 367.165 214.006 367.165ZM214.028 363.415C214.831 363.415 215.502 363.188 216.04 362.733C216.578 362.271 216.983 361.642 217.256 360.847C217.536 360.051 217.676 359.146 217.676 358.131C217.676 357.116 217.536 356.21 217.256 355.415C216.983 354.619 216.578 353.991 216.04 353.529C215.502 353.066 214.831 352.835 214.028 352.835C213.218 352.835 212.536 353.066 211.983 353.529C211.438 353.991 211.025 354.619 210.744 355.415C210.472 356.21 210.335 357.116 210.335 358.131C210.335 359.146 210.472 360.051 210.744 360.847C211.025 361.642 211.438 362.271 211.983 362.733C212.536 363.188 213.218 363.415 214.028 363.415ZM233.241 366.824V343.551H242.423C244.188 343.551 245.692 343.888 246.935 344.563C248.177 345.229 249.124 346.157 249.776 347.347C250.435 348.529 250.764 349.892 250.764 351.438C250.764 352.983 250.431 354.347 249.764 355.529C249.098 356.71 248.132 357.631 246.866 358.29C245.609 358.949 244.086 359.279 242.298 359.279H236.446V355.335H241.503C242.45 355.335 243.23 355.172 243.844 354.847C244.465 354.513 244.927 354.055 245.23 353.472C245.541 352.881 245.696 352.203 245.696 351.438C245.696 350.665 245.541 349.991 245.23 349.415C244.927 348.832 244.465 348.381 243.844 348.063C243.223 347.737 242.435 347.574 241.48 347.574H238.162V366.824H233.241ZM258.165 343.551L263.79 361.233H264.006L269.642 343.551H275.097L267.074 366.824H260.733L252.699 343.551H258.165ZM290.523 350.244C290.432 349.328 290.042 348.616 289.352 348.108C288.663 347.6 287.727 347.347 286.545 347.347C285.742 347.347 285.064 347.46 284.511 347.688C283.958 347.907 283.534 348.214 283.239 348.608C282.951 349.002 282.807 349.449 282.807 349.949C282.792 350.366 282.879 350.729 283.068 351.04C283.265 351.35 283.534 351.619 283.875 351.847C284.216 352.066 284.61 352.26 285.057 352.426C285.504 352.585 285.981 352.722 286.489 352.835L288.58 353.335C289.595 353.563 290.527 353.866 291.375 354.244C292.223 354.623 292.958 355.089 293.58 355.642C294.201 356.195 294.682 356.847 295.023 357.597C295.371 358.347 295.549 359.207 295.557 360.176C295.549 361.6 295.186 362.835 294.466 363.881C293.754 364.919 292.723 365.725 291.375 366.301C290.034 366.869 288.417 367.154 286.523 367.154C284.644 367.154 283.008 366.866 281.614 366.29C280.227 365.714 279.144 364.862 278.364 363.733C277.591 362.597 277.186 361.191 277.148 359.517H281.909C281.962 360.297 282.186 360.949 282.58 361.472C282.981 361.987 283.515 362.377 284.182 362.642C284.856 362.9 285.617 363.029 286.466 363.029C287.299 363.029 288.023 362.907 288.636 362.665C289.258 362.422 289.739 362.085 290.08 361.654C290.42 361.222 290.591 360.725 290.591 360.165C290.591 359.642 290.436 359.203 290.125 358.847C289.822 358.491 289.375 358.188 288.784 357.938C288.201 357.688 287.485 357.46 286.636 357.256L284.102 356.619C282.14 356.142 280.591 355.396 279.455 354.381C278.318 353.366 277.754 351.998 277.761 350.279C277.754 348.869 278.129 347.638 278.886 346.585C279.652 345.532 280.701 344.71 282.034 344.119C283.367 343.529 284.883 343.233 286.58 343.233C288.307 343.233 289.814 343.529 291.102 344.119C292.398 344.71 293.405 345.532 294.125 346.585C294.845 347.638 295.216 348.858 295.239 350.244H290.523ZM311.159 367.154C310.045 367.154 309.053 366.96 308.182 366.574C307.311 366.18 306.621 365.6 306.114 364.835C305.614 364.063 305.364 363.1 305.364 361.949C305.364 360.979 305.542 360.165 305.898 359.506C306.254 358.847 306.739 358.316 307.352 357.915C307.966 357.513 308.663 357.21 309.443 357.006C310.231 356.801 311.057 356.657 311.92 356.574C312.936 356.468 313.754 356.369 314.375 356.279C314.996 356.18 315.447 356.036 315.727 355.847C316.008 355.657 316.148 355.377 316.148 355.006V354.938C316.148 354.218 315.92 353.661 315.466 353.267C315.019 352.873 314.383 352.676 313.557 352.676C312.686 352.676 311.992 352.869 311.477 353.256C310.962 353.635 310.621 354.112 310.455 354.688L305.977 354.324C306.205 353.263 306.652 352.347 307.318 351.574C307.985 350.794 308.845 350.195 309.898 349.779C310.958 349.354 312.186 349.142 313.58 349.142C314.549 349.142 315.477 349.256 316.364 349.483C317.258 349.71 318.049 350.063 318.739 350.54C319.436 351.017 319.985 351.631 320.386 352.381C320.788 353.123 320.989 354.013 320.989 355.051V366.824H316.398V364.404H316.261C315.981 364.949 315.606 365.43 315.136 365.847C314.667 366.256 314.102 366.578 313.443 366.813C312.784 367.04 312.023 367.154 311.159 367.154ZM312.545 363.813C313.258 363.813 313.886 363.672 314.432 363.392C314.977 363.104 315.405 362.718 315.716 362.233C316.027 361.748 316.182 361.199 316.182 360.585V358.733C316.03 358.832 315.822 358.922 315.557 359.006C315.299 359.082 315.008 359.154 314.682 359.222C314.356 359.282 314.03 359.339 313.705 359.392C313.379 359.438 313.083 359.479 312.818 359.517C312.25 359.6 311.754 359.733 311.33 359.915C310.905 360.097 310.576 360.343 310.341 360.654C310.106 360.957 309.989 361.335 309.989 361.79C309.989 362.449 310.227 362.953 310.705 363.301C311.189 363.642 311.803 363.813 312.545 363.813ZM324.744 373.369V349.369H329.517V352.301H329.733C329.945 351.832 330.252 351.354 330.653 350.869C331.063 350.377 331.593 349.968 332.244 349.642C332.903 349.309 333.722 349.142 334.699 349.142C335.972 349.142 337.146 349.475 338.222 350.142C339.297 350.801 340.157 351.797 340.801 353.131C341.445 354.457 341.767 356.119 341.767 358.119C341.767 360.066 341.453 361.71 340.824 363.051C340.203 364.385 339.354 365.396 338.278 366.085C337.21 366.767 336.013 367.108 334.688 367.108C333.748 367.108 332.949 366.953 332.29 366.642C331.638 366.332 331.104 365.941 330.688 365.472C330.271 364.994 329.953 364.513 329.733 364.029H329.585V373.369H324.744ZM329.483 358.097C329.483 359.135 329.627 360.04 329.915 360.813C330.203 361.585 330.619 362.188 331.165 362.619C331.71 363.044 332.373 363.256 333.153 363.256C333.941 363.256 334.608 363.04 335.153 362.608C335.699 362.169 336.112 361.563 336.392 360.79C336.68 360.01 336.824 359.112 336.824 358.097C336.824 357.089 336.684 356.203 336.403 355.438C336.123 354.672 335.71 354.074 335.165 353.642C334.619 353.21 333.949 352.994 333.153 352.994C332.366 352.994 331.699 353.203 331.153 353.619C330.616 354.036 330.203 354.627 329.915 355.392C329.627 356.157 329.483 357.059 329.483 358.097ZM344.994 373.369V349.369H349.767V352.301H349.983C350.195 351.832 350.502 351.354 350.903 350.869C351.313 350.377 351.843 349.968 352.494 349.642C353.153 349.309 353.972 349.142 354.949 349.142C356.222 349.142 357.396 349.475 358.472 350.142C359.547 350.801 360.407 351.797 361.051 353.131C361.695 354.457 362.017 356.119 362.017 358.119C362.017 360.066 361.703 361.71 361.074 363.051C360.453 364.385 359.604 365.396 358.528 366.085C357.46 366.767 356.263 367.108 354.938 367.108C353.998 367.108 353.199 366.953 352.54 366.642C351.888 366.332 351.354 365.941 350.938 365.472C350.521 364.994 350.203 364.513 349.983 364.029H349.835V373.369H344.994ZM349.733 358.097C349.733 359.135 349.877 360.04 350.165 360.813C350.453 361.585 350.869 362.188 351.415 362.619C351.96 363.044 352.623 363.256 353.403 363.256C354.191 363.256 354.858 363.04 355.403 362.608C355.949 362.169 356.362 361.563 356.642 360.79C356.93 360.01 357.074 359.112 357.074 358.097C357.074 357.089 356.934 356.203 356.653 355.438C356.373 354.672 355.96 354.074 355.415 353.642C354.869 353.21 354.199 352.994 353.403 352.994C352.616 352.994 351.949 353.203 351.403 353.619C350.866 354.036 350.453 354.627 350.165 355.392C349.877 356.157 349.733 357.059 349.733 358.097Z" fill="black"/>
<path d="M27.1868 389.438V388.188H35.9141V389.438H32.255V399.824H30.8459V389.438H27.1868ZM40.1868 400.006C39.3989 400.006 38.7076 399.818 38.1129 399.443C37.522 399.068 37.0599 398.544 36.7266 397.869C36.397 397.195 36.2322 396.407 36.2322 395.506C36.2322 394.597 36.397 393.803 36.7266 393.125C37.0599 392.447 37.522 391.921 38.1129 391.546C38.7076 391.171 39.3989 390.983 40.1868 390.983C40.9747 390.983 41.6641 391.171 42.255 391.546C42.8497 391.921 43.3118 392.447 43.6413 393.125C43.9747 393.803 44.1413 394.597 44.1413 395.506C44.1413 396.407 43.9747 397.195 43.6413 397.869C43.3118 398.544 42.8497 399.068 42.255 399.443C41.6641 399.818 40.9747 400.006 40.1868 400.006ZM40.1868 398.801C40.7853 398.801 41.2777 398.648 41.6641 398.341C42.0504 398.034 42.3364 397.631 42.522 397.131C42.7076 396.631 42.8004 396.089 42.8004 395.506C42.8004 394.922 42.7076 394.379 42.522 393.875C42.3364 393.371 42.0504 392.964 41.6641 392.654C41.2777 392.343 40.7853 392.188 40.1868 392.188C39.5883 392.188 39.0959 392.343 38.7095 392.654C38.3232 392.964 38.0372 393.371 37.8516 393.875C37.666 394.379 37.5732 394.922 37.5732 395.506C37.5732 396.089 37.666 396.631 37.8516 397.131C38.0372 397.631 38.3232 398.034 38.7095 398.341C39.0959 398.648 39.5883 398.801 40.1868 398.801ZM56.87 393.051L55.6655 393.392C55.5897 393.191 55.478 392.996 55.3303 392.807C55.1863 392.614 54.9893 392.455 54.7393 392.33C54.4893 392.205 54.1693 392.142 53.7791 392.142C53.245 392.142 52.8 392.265 52.4439 392.511C52.0916 392.754 51.9155 393.063 51.9155 393.438C51.9155 393.771 52.0367 394.034 52.2791 394.227C52.5215 394.421 52.9003 394.582 53.4155 394.71L54.7109 395.029C55.4912 395.218 56.0727 395.508 56.4553 395.898C56.8378 396.284 57.0291 396.782 57.0291 397.392C57.0291 397.892 56.8852 398.339 56.5973 398.733C56.3132 399.127 55.9155 399.438 55.4041 399.665C54.8928 399.892 54.2981 400.006 53.62 400.006C52.7299 400.006 51.9931 399.813 51.4098 399.426C50.8265 399.04 50.4571 398.475 50.3018 397.733L51.5746 397.415C51.6958 397.885 51.925 398.237 52.2621 398.472C52.603 398.707 53.0481 398.824 53.5973 398.824C54.2223 398.824 54.7185 398.691 55.0859 398.426C55.4571 398.157 55.6428 397.835 55.6428 397.46C55.6428 397.157 55.5367 396.904 55.3246 396.699C55.1125 396.491 54.7867 396.335 54.3473 396.233L52.8928 395.892C52.0935 395.703 51.5064 395.409 51.1314 395.011C50.7602 394.61 50.5746 394.108 50.5746 393.506C50.5746 393.013 50.7128 392.578 50.9893 392.199C51.2696 391.82 51.6503 391.523 52.1314 391.307C52.6162 391.091 53.1655 390.983 53.7791 390.983C54.6428 390.983 55.3208 391.172 55.8132 391.551C56.3094 391.93 56.6617 392.43 56.87 393.051ZM62.843 391.097V392.233H58.3203V391.097H62.843ZM59.6385 389.006H60.9794V397.324C60.9794 397.703 61.0343 397.987 61.1442 398.176C61.2578 398.362 61.4018 398.487 61.576 398.551C61.754 398.612 61.9415 398.642 62.1385 398.642C62.2862 398.642 62.4074 398.635 62.5021 398.619C62.5968 398.6 62.6726 398.585 62.7294 398.574L63.0021 399.779C62.9112 399.813 62.7843 399.847 62.6214 399.881C62.4586 399.919 62.2521 399.938 62.0021 399.938C61.6233 399.938 61.2521 399.856 60.8885 399.693C60.5286 399.53 60.2294 399.282 59.9908 398.949C59.7559 398.616 59.6385 398.195 59.6385 397.688V389.006ZM67.4283 400.029C66.8752 400.029 66.3733 399.924 65.9226 399.716C65.4718 399.504 65.1139 399.199 64.8487 398.801C64.5836 398.4 64.451 397.915 64.451 397.347C64.451 396.847 64.5495 396.441 64.7464 396.131C64.9434 395.816 65.2067 395.57 65.5362 395.392C65.8658 395.214 66.2294 395.082 66.6271 394.994C67.0286 394.904 67.4321 394.832 67.8374 394.779C68.3677 394.71 68.7976 394.659 69.1271 394.625C69.4605 394.587 69.7029 394.525 69.8544 394.438C70.0097 394.35 70.0874 394.199 70.0874 393.983V393.938C70.0874 393.377 69.9339 392.941 69.6271 392.631C69.3241 392.32 68.8639 392.165 68.2464 392.165C67.6063 392.165 67.1044 392.305 66.7408 392.585C66.3771 392.866 66.1214 393.165 65.9737 393.483L64.701 393.029C64.9283 392.498 65.2313 392.085 65.6101 391.79C65.9927 391.491 66.4093 391.282 66.8601 391.165C67.3146 391.044 67.7616 390.983 68.201 390.983C68.4813 390.983 68.8033 391.017 69.1669 391.085C69.5343 391.15 69.8885 391.284 70.2294 391.489C70.5741 391.693 70.8601 392.002 71.0874 392.415C71.3146 392.828 71.4283 393.381 71.4283 394.074V399.824H70.0874V398.642H70.0192C69.9283 398.832 69.7768 399.034 69.5646 399.25C69.3525 399.466 69.0703 399.65 68.718 399.801C68.3658 399.953 67.9358 400.029 67.4283 400.029ZM67.6328 398.824C68.1631 398.824 68.6101 398.72 68.9737 398.511C69.3411 398.303 69.6177 398.034 69.8033 397.705C69.9927 397.375 70.0874 397.029 70.0874 396.665V395.438C70.0305 395.506 69.9055 395.568 69.7124 395.625C69.523 395.678 69.3033 395.725 69.0533 395.767C68.8071 395.805 68.5665 395.839 68.3317 395.869C68.1006 395.896 67.9131 395.919 67.7692 395.938C67.4207 395.983 67.0949 396.057 66.7919 396.159C66.4927 396.258 66.2502 396.407 66.0646 396.608C65.8828 396.805 65.7919 397.074 65.7919 397.415C65.7919 397.881 65.9643 398.233 66.3089 398.472C66.6574 398.707 67.0987 398.824 67.6328 398.824ZM73.8757 399.824V391.097H75.1712V392.415H75.2621C75.4212 391.983 75.709 391.633 76.1257 391.364C76.5424 391.095 77.0121 390.96 77.5348 390.96C77.6333 390.96 77.7564 390.962 77.9041 390.966C78.0518 390.97 78.1636 390.975 78.2393 390.983V392.347C78.1939 392.335 78.0897 392.318 77.9268 392.296C77.7678 392.269 77.5992 392.256 77.4212 392.256C76.9969 392.256 76.6181 392.345 76.2848 392.523C75.9553 392.697 75.6939 392.94 75.5007 393.25C75.3113 393.557 75.2166 393.907 75.2166 394.301V399.824H73.8757ZM84.1712 391.097V392.233H79.6484V391.097H84.1712ZM80.9666 389.006H82.3075V397.324C82.3075 397.703 82.3625 397.987 82.4723 398.176C82.5859 398.362 82.7299 398.487 82.9041 398.551C83.0821 398.612 83.2696 398.642 83.4666 398.642C83.6143 398.642 83.7356 398.635 83.8303 398.619C83.925 398.6 84.0007 398.585 84.0575 398.574L84.3303 399.779C84.2393 399.813 84.1125 399.847 83.9496 399.881C83.7867 399.919 83.5803 399.938 83.3303 399.938C82.9515 399.938 82.5803 399.856 82.2166 399.693C81.8568 399.53 81.5575 399.282 81.3189 398.949C81.084 398.616 80.9666 398.195 80.9666 397.688V389.006ZM96.1882 396.256V391.097H97.5291V399.824H96.1882V398.347H96.0973C95.8928 398.79 95.5746 399.167 95.1428 399.477C94.7109 399.784 94.1655 399.938 93.5064 399.938C92.9609 399.938 92.4761 399.818 92.0518 399.58C91.6276 399.337 91.2943 398.974 91.0518 398.489C90.8094 398 90.6882 397.385 90.6882 396.642V391.097H92.0291V396.551C92.0291 397.188 92.2071 397.695 92.5632 398.074C92.9231 398.453 93.3814 398.642 93.9382 398.642C94.2715 398.642 94.6106 398.557 94.9553 398.386C95.3037 398.216 95.5954 397.955 95.8303 397.602C96.0689 397.25 96.1882 396.801 96.1882 396.256ZM106.167 393.051L104.962 393.392C104.887 393.191 104.775 392.996 104.627 392.807C104.483 392.614 104.286 392.455 104.036 392.33C103.786 392.205 103.466 392.142 103.076 392.142C102.542 392.142 102.097 392.265 101.741 392.511C101.388 392.754 101.212 393.063 101.212 393.438C101.212 393.771 101.334 394.034 101.576 394.227C101.818 394.421 102.197 394.582 102.712 394.71L104.008 395.029C104.788 395.218 105.37 395.508 105.752 395.898C106.135 396.284 106.326 396.782 106.326 397.392C106.326 397.892 106.182 398.339 105.894 398.733C105.61 399.127 105.212 399.438 104.701 399.665C104.19 399.892 103.595 400.006 102.917 400.006C102.027 400.006 101.29 399.813 100.707 399.426C100.123 399.04 99.754 398.475 99.5987 397.733L100.871 397.415C100.993 397.885 101.222 398.237 101.559 398.472C101.9 398.707 102.345 398.824 102.894 398.824C103.519 398.824 104.015 398.691 104.383 398.426C104.754 398.157 104.94 397.835 104.94 397.46C104.94 397.157 104.834 396.904 104.621 396.699C104.409 396.491 104.084 396.335 103.644 396.233L102.19 395.892C101.39 395.703 100.803 395.409 100.428 395.011C100.057 394.61 99.8714 394.108 99.8714 393.506C99.8714 393.013 100.01 392.578 100.286 392.199C100.567 391.82 100.947 391.523 101.428 391.307C101.913 391.091 102.462 390.983 103.076 390.983C103.94 390.983 104.618 391.172 105.11 391.551C105.606 391.93 105.959 392.43 106.167 393.051ZM108.344 399.824V391.097H109.685V399.824H108.344ZM109.026 389.642C108.765 389.642 108.54 389.553 108.35 389.375C108.165 389.197 108.072 388.983 108.072 388.733C108.072 388.483 108.165 388.269 108.35 388.091C108.54 387.913 108.765 387.824 109.026 387.824C109.288 387.824 109.511 387.913 109.697 388.091C109.886 388.269 109.981 388.483 109.981 388.733C109.981 388.983 109.886 389.197 109.697 389.375C109.511 389.553 109.288 389.642 109.026 389.642ZM113.482 394.574V399.824H112.141V391.097H113.437V392.46H113.55C113.755 392.017 114.066 391.661 114.482 391.392C114.899 391.119 115.437 390.983 116.096 390.983C116.687 390.983 117.204 391.104 117.647 391.347C118.09 391.585 118.435 391.949 118.681 392.438C118.927 392.922 119.05 393.536 119.05 394.279V399.824H117.71V394.369C117.71 393.684 117.531 393.15 117.175 392.767C116.819 392.381 116.331 392.188 115.71 392.188C115.281 392.188 114.899 392.28 114.562 392.466C114.228 392.652 113.965 392.922 113.772 393.279C113.579 393.635 113.482 394.066 113.482 394.574ZM125.023 403.279C124.376 403.279 123.819 403.195 123.353 403.029C122.887 402.866 122.499 402.65 122.188 402.381C121.881 402.116 121.637 401.832 121.455 401.529L122.523 400.779C122.645 400.938 122.798 401.119 122.984 401.324C123.169 401.532 123.423 401.712 123.745 401.864C124.071 402.019 124.497 402.097 125.023 402.097C125.728 402.097 126.309 401.926 126.768 401.585C127.226 401.244 127.455 400.71 127.455 399.983V398.21H127.342C127.243 398.369 127.103 398.566 126.921 398.801C126.743 399.032 126.486 399.239 126.148 399.421C125.815 399.599 125.364 399.688 124.796 399.688C124.092 399.688 123.459 399.521 122.898 399.188C122.342 398.854 121.9 398.369 121.575 397.733C121.253 397.097 121.092 396.324 121.092 395.415C121.092 394.521 121.249 393.743 121.563 393.08C121.878 392.413 122.315 391.898 122.876 391.534C123.436 391.167 124.084 390.983 124.819 390.983C125.387 390.983 125.838 391.078 126.171 391.267C126.508 391.453 126.766 391.665 126.944 391.904C127.126 392.138 127.266 392.332 127.364 392.483H127.501V391.097H128.796V400.074C128.796 400.824 128.626 401.434 128.285 401.904C127.948 402.377 127.493 402.724 126.921 402.943C126.353 403.167 125.72 403.279 125.023 403.279ZM124.978 398.483C125.516 398.483 125.97 398.36 126.342 398.114C126.713 397.868 126.995 397.513 127.188 397.051C127.381 396.589 127.478 396.036 127.478 395.392C127.478 394.763 127.383 394.208 127.194 393.727C127.004 393.246 126.724 392.869 126.353 392.597C125.982 392.324 125.523 392.188 124.978 392.188C124.41 392.188 123.936 392.332 123.558 392.619C123.183 392.907 122.9 393.294 122.711 393.779C122.525 394.263 122.433 394.801 122.433 395.392C122.433 395.998 122.527 396.534 122.717 397C122.91 397.462 123.194 397.826 123.569 398.091C123.948 398.352 124.417 398.483 124.978 398.483ZM138.319 400.029C137.766 400.029 137.264 399.924 136.813 399.716C136.362 399.504 136.004 399.199 135.739 398.801C135.474 398.4 135.342 397.915 135.342 397.347C135.342 396.847 135.44 396.441 135.637 396.131C135.834 395.816 136.097 395.57 136.427 395.392C136.756 395.214 137.12 395.082 137.518 394.994C137.919 394.904 138.323 394.832 138.728 394.779C139.258 394.71 139.688 394.659 140.018 394.625C140.351 394.587 140.594 394.525 140.745 394.438C140.9 394.35 140.978 394.199 140.978 393.983V393.938C140.978 393.377 140.825 392.941 140.518 392.631C140.215 392.32 139.754 392.165 139.137 392.165C138.497 392.165 137.995 392.305 137.631 392.585C137.268 392.866 137.012 393.165 136.864 393.483L135.592 393.029C135.819 392.498 136.122 392.085 136.501 391.79C136.883 391.491 137.3 391.282 137.751 391.165C138.205 391.044 138.652 390.983 139.092 390.983C139.372 390.983 139.694 391.017 140.058 391.085C140.425 391.15 140.779 391.284 141.12 391.489C141.465 391.693 141.751 392.002 141.978 392.415C142.205 392.828 142.319 393.381 142.319 394.074V399.824H140.978V398.642H140.91C140.819 398.832 140.667 399.034 140.455 399.25C140.243 399.466 139.961 399.65 139.609 399.801C139.256 399.953 138.826 400.029 138.319 400.029ZM138.523 398.824C139.054 398.824 139.501 398.72 139.864 398.511C140.232 398.303 140.508 398.034 140.694 397.705C140.883 397.375 140.978 397.029 140.978 396.665V395.438C140.921 395.506 140.796 395.568 140.603 395.625C140.414 395.678 140.194 395.725 139.944 395.767C139.698 395.805 139.457 395.839 139.222 395.869C138.991 395.896 138.804 395.919 138.66 395.938C138.311 395.983 137.986 396.057 137.683 396.159C137.383 396.258 137.141 396.407 136.955 396.608C136.773 396.805 136.683 397.074 136.683 397.415C136.683 397.881 136.855 398.233 137.2 398.472C137.548 398.707 137.989 398.824 138.523 398.824ZM146.107 388.188V399.824H144.766V388.188H146.107ZM149.904 388.188V399.824H148.563V388.188H149.904ZM160.746 391.097V392.233H156.042V391.097H160.746ZM157.451 399.824V389.892C157.451 389.392 157.568 388.975 157.803 388.642C158.038 388.309 158.343 388.059 158.718 387.892C159.093 387.725 159.489 387.642 159.906 387.642C160.235 387.642 160.504 387.669 160.712 387.722C160.921 387.775 161.076 387.824 161.178 387.869L160.792 389.029C160.724 389.006 160.629 388.977 160.508 388.943C160.39 388.909 160.235 388.892 160.042 388.892C159.599 388.892 159.279 389.004 159.082 389.227C158.888 389.451 158.792 389.779 158.792 390.21V399.824H157.451ZM165.925 400.006C165.085 400.006 164.359 399.82 163.749 399.449C163.143 399.074 162.675 398.551 162.346 397.881C162.02 397.207 161.857 396.422 161.857 395.529C161.857 394.635 162.02 393.847 162.346 393.165C162.675 392.479 163.134 391.945 163.721 391.563C164.312 391.176 165.001 390.983 165.789 390.983C166.244 390.983 166.692 391.059 167.136 391.21C167.579 391.362 167.982 391.608 168.346 391.949C168.71 392.286 168.999 392.733 169.215 393.29C169.431 393.847 169.539 394.532 169.539 395.347V395.915H162.812V394.756H168.175C168.175 394.263 168.077 393.824 167.88 393.438C167.687 393.051 167.41 392.746 167.05 392.523C166.694 392.299 166.274 392.188 165.789 392.188C165.255 392.188 164.793 392.32 164.403 392.585C164.016 392.847 163.719 393.188 163.511 393.608C163.302 394.029 163.198 394.479 163.198 394.96V395.733C163.198 396.392 163.312 396.951 163.539 397.409C163.77 397.864 164.09 398.21 164.499 398.449C164.908 398.684 165.384 398.801 165.925 398.801C166.278 398.801 166.596 398.752 166.88 398.654C167.168 398.551 167.416 398.4 167.624 398.199C167.833 397.994 167.994 397.741 168.107 397.438L169.403 397.801C169.266 398.241 169.037 398.627 168.715 398.96C168.393 399.29 167.996 399.547 167.522 399.733C167.049 399.915 166.516 400.006 165.925 400.006ZM174.147 400.029C173.594 400.029 173.092 399.924 172.641 399.716C172.191 399.504 171.833 399.199 171.567 398.801C171.302 398.4 171.17 397.915 171.17 397.347C171.17 396.847 171.268 396.441 171.465 396.131C171.662 395.816 171.925 395.57 172.255 395.392C172.585 395.214 172.948 395.082 173.346 394.994C173.747 394.904 174.151 394.832 174.556 394.779C175.086 394.71 175.516 394.659 175.846 394.625C176.179 394.587 176.422 394.525 176.573 394.438C176.728 394.35 176.806 394.199 176.806 393.983V393.938C176.806 393.377 176.653 392.941 176.346 392.631C176.043 392.32 175.583 392.165 174.965 392.165C174.325 392.165 173.823 392.305 173.46 392.585C173.096 392.866 172.84 393.165 172.692 393.483L171.42 393.029C171.647 392.498 171.95 392.085 172.329 391.79C172.711 391.491 173.128 391.282 173.579 391.165C174.033 391.044 174.48 390.983 174.92 390.983C175.2 390.983 175.522 391.017 175.886 391.085C176.253 391.15 176.607 391.284 176.948 391.489C177.293 391.693 177.579 392.002 177.806 392.415C178.033 392.828 178.147 393.381 178.147 394.074V399.824H176.806V398.642H176.738C176.647 398.832 176.496 399.034 176.283 399.25C176.071 399.466 175.789 399.65 175.437 399.801C175.085 399.953 174.655 400.029 174.147 400.029ZM174.352 398.824C174.882 398.824 175.329 398.72 175.692 398.511C176.06 398.303 176.336 398.034 176.522 397.705C176.711 397.375 176.806 397.029 176.806 396.665V395.438C176.749 395.506 176.624 395.568 176.431 395.625C176.242 395.678 176.022 395.725 175.772 395.767C175.526 395.805 175.285 395.839 175.05 395.869C174.819 395.896 174.632 395.919 174.488 395.938C174.139 395.983 173.814 396.057 173.511 396.159C173.211 396.258 172.969 396.407 172.783 396.608C172.602 396.805 172.511 397.074 172.511 397.415C172.511 397.881 172.683 398.233 173.028 398.472C173.376 398.707 173.817 398.824 174.352 398.824ZM184.39 391.097V392.233H179.867V391.097H184.39ZM181.185 389.006H182.526V397.324C182.526 397.703 182.581 397.987 182.691 398.176C182.805 398.362 182.949 398.487 183.123 398.551C183.301 398.612 183.488 398.642 183.685 398.642C183.833 398.642 183.954 398.635 184.049 398.619C184.144 398.6 184.219 398.585 184.276 398.574L184.549 399.779C184.458 399.813 184.331 399.847 184.168 399.881C184.005 399.919 183.799 399.938 183.549 399.938C183.17 399.938 182.799 399.856 182.435 399.693C182.076 399.53 181.776 399.282 181.538 398.949C181.303 398.616 181.185 398.195 181.185 397.688V389.006ZM191.907 396.256V391.097H193.248V399.824H191.907V398.347H191.816C191.612 398.79 191.293 399.167 190.862 399.477C190.43 399.784 189.884 399.938 189.225 399.938C188.68 399.938 188.195 399.818 187.771 399.58C187.346 399.337 187.013 398.974 186.771 398.489C186.528 398 186.407 397.385 186.407 396.642V391.097H187.748V396.551C187.748 397.188 187.926 397.695 188.282 398.074C188.642 398.453 189.1 398.642 189.657 398.642C189.99 398.642 190.329 398.557 190.674 398.386C191.022 398.216 191.314 397.955 191.549 397.602C191.788 397.25 191.907 396.801 191.907 396.256ZM195.704 399.824V391.097H196.999V392.415H197.09C197.249 391.983 197.537 391.633 197.954 391.364C198.371 391.095 198.84 390.96 199.363 390.96C199.461 390.96 199.585 390.962 199.732 390.966C199.88 390.97 199.992 390.975 200.067 390.983V392.347C200.022 392.335 199.918 392.318 199.755 392.296C199.596 392.269 199.427 392.256 199.249 392.256C198.825 392.256 198.446 392.345 198.113 392.523C197.783 392.697 197.522 392.94 197.329 393.25C197.139 393.557 197.045 393.907 197.045 394.301V399.824H195.704ZM205.05 400.006C204.21 400.006 203.484 399.82 202.874 399.449C202.268 399.074 201.8 398.551 201.471 397.881C201.145 397.207 200.982 396.422 200.982 395.529C200.982 394.635 201.145 393.847 201.471 393.165C201.8 392.479 202.259 391.945 202.846 391.563C203.437 391.176 204.126 390.983 204.914 390.983C205.369 390.983 205.817 391.059 206.261 391.21C206.704 391.362 207.107 391.608 207.471 391.949C207.835 392.286 208.124 392.733 208.34 393.29C208.556 393.847 208.664 394.532 208.664 395.347V395.915H201.937V394.756H207.3C207.3 394.263 207.202 393.824 207.005 393.438C206.812 393.051 206.535 392.746 206.175 392.523C205.819 392.299 205.399 392.188 204.914 392.188C204.38 392.188 203.918 392.32 203.528 392.585C203.141 392.847 202.844 393.188 202.636 393.608C202.427 394.029 202.323 394.479 202.323 394.96V395.733C202.323 396.392 202.437 396.951 202.664 397.409C202.895 397.864 203.215 398.21 203.624 398.449C204.033 398.684 204.509 398.801 205.05 398.801C205.403 398.801 205.721 398.752 206.005 398.654C206.293 398.551 206.541 398.4 206.749 398.199C206.958 397.994 207.119 397.741 207.232 397.438L208.528 397.801C208.391 398.241 208.162 398.627 207.84 398.96C207.518 399.29 207.121 399.547 206.647 399.733C206.174 399.915 205.641 400.006 205.05 400.006ZM216.886 393.051L215.681 393.392C215.605 393.191 215.494 392.996 215.346 392.807C215.202 392.614 215.005 392.455 214.755 392.33C214.505 392.205 214.185 392.142 213.795 392.142C213.261 392.142 212.816 392.265 212.46 392.511C212.107 392.754 211.931 393.063 211.931 393.438C211.931 393.771 212.052 394.034 212.295 394.227C212.537 394.421 212.916 394.582 213.431 394.71L214.727 395.029C215.507 395.218 216.088 395.508 216.471 395.898C216.853 396.284 217.045 396.782 217.045 397.392C217.045 397.892 216.901 398.339 216.613 398.733C216.329 399.127 215.931 399.438 215.42 399.665C214.908 399.892 214.314 400.006 213.636 400.006C212.746 400.006 212.009 399.813 211.425 399.426C210.842 399.04 210.473 398.475 210.317 397.733L211.59 397.415C211.711 397.885 211.941 398.237 212.278 398.472C212.619 398.707 213.064 398.824 213.613 398.824C214.238 398.824 214.734 398.691 215.102 398.426C215.473 398.157 215.658 397.835 215.658 397.46C215.658 397.157 215.552 396.904 215.34 396.699C215.128 396.491 214.802 396.335 214.363 396.233L212.908 395.892C212.109 395.703 211.522 395.409 211.147 395.011C210.776 394.61 210.59 394.108 210.59 393.506C210.59 393.013 210.728 392.578 211.005 392.199C211.285 391.82 211.666 391.523 212.147 391.307C212.632 391.091 213.181 390.983 213.795 390.983C214.658 390.983 215.336 391.172 215.829 391.551C216.325 391.93 216.677 392.43 216.886 393.051ZM221.063 398.233L220.972 398.847C220.908 399.279 220.809 399.741 220.677 400.233C220.548 400.725 220.414 401.19 220.273 401.625C220.133 402.061 220.018 402.407 219.927 402.665H218.904C218.953 402.422 219.018 402.102 219.097 401.705C219.177 401.307 219.256 400.862 219.336 400.369C219.419 399.881 219.487 399.381 219.54 398.869L219.609 398.233H221.063ZM233.548 396.256V391.097H234.888V399.824H233.548V398.347H233.457C233.252 398.79 232.934 399.167 232.502 399.477C232.07 399.784 231.525 399.938 230.866 399.938C230.32 399.938 229.835 399.818 229.411 399.58C228.987 399.337 228.654 398.974 228.411 398.489C228.169 398 228.048 397.385 228.048 396.642V391.097H229.388V396.551C229.388 397.188 229.567 397.695 229.923 398.074C230.282 398.453 230.741 398.642 231.298 398.642C231.631 398.642 231.97 398.557 232.315 398.386C232.663 398.216 232.955 397.955 233.19 397.602C233.428 397.25 233.548 396.801 233.548 396.256ZM238.685 394.574V399.824H237.344V391.097H238.64V392.46H238.754C238.958 392.017 239.269 391.661 239.685 391.392C240.102 391.119 240.64 390.983 241.299 390.983C241.89 390.983 242.407 391.104 242.85 391.347C243.293 391.585 243.638 391.949 243.884 392.438C244.13 392.922 244.254 393.536 244.254 394.279V399.824H242.913V394.369C242.913 393.684 242.735 393.15 242.379 392.767C242.022 392.381 241.534 392.188 240.913 392.188C240.485 392.188 240.102 392.28 239.765 392.466C239.432 392.652 239.168 392.922 238.975 393.279C238.782 393.635 238.685 394.066 238.685 394.574ZM248.045 388.188V399.824H246.704V388.188H248.045ZM254.046 400.006C253.258 400.006 252.567 399.818 251.972 399.443C251.381 399.068 250.919 398.544 250.586 397.869C250.256 397.195 250.092 396.407 250.092 395.506C250.092 394.597 250.256 393.803 250.586 393.125C250.919 392.447 251.381 391.921 251.972 391.546C252.567 391.171 253.258 390.983 254.046 390.983C254.834 390.983 255.523 391.171 256.114 391.546C256.709 391.921 257.171 392.447 257.501 393.125C257.834 393.803 258.001 394.597 258.001 395.506C258.001 396.407 257.834 397.195 257.501 397.869C257.171 398.544 256.709 399.068 256.114 399.443C255.523 399.818 254.834 400.006 254.046 400.006ZM254.046 398.801C254.645 398.801 255.137 398.648 255.523 398.341C255.91 398.034 256.196 397.631 256.381 397.131C256.567 396.631 256.66 396.089 256.66 395.506C256.66 394.922 256.567 394.379 256.381 393.875C256.196 393.371 255.91 392.964 255.523 392.654C255.137 392.343 254.645 392.188 254.046 392.188C253.448 392.188 252.955 392.343 252.569 392.654C252.183 392.964 251.897 393.371 251.711 393.875C251.525 394.379 251.433 394.922 251.433 395.506C251.433 396.089 251.525 396.631 251.711 397.131C251.897 397.631 252.183 398.034 252.569 398.341C252.955 398.648 253.448 398.801 254.046 398.801ZM263.593 400.006C262.775 400.006 262.07 399.813 261.479 399.426C260.888 399.04 260.434 398.508 260.116 397.83C259.798 397.152 259.638 396.377 259.638 395.506C259.638 394.619 259.801 393.837 260.127 393.159C260.457 392.477 260.915 391.945 261.502 391.563C262.093 391.176 262.782 390.983 263.57 390.983C264.184 390.983 264.737 391.097 265.229 391.324C265.722 391.551 266.125 391.869 266.44 392.279C266.754 392.688 266.949 393.165 267.025 393.71H265.684C265.582 393.313 265.354 392.96 265.002 392.654C264.654 392.343 264.184 392.188 263.593 392.188C263.07 392.188 262.612 392.324 262.218 392.597C261.828 392.866 261.523 393.246 261.303 393.739C261.087 394.227 260.979 394.801 260.979 395.46C260.979 396.135 261.085 396.722 261.298 397.222C261.513 397.722 261.817 398.11 262.207 398.386C262.601 398.663 263.063 398.801 263.593 398.801C263.942 398.801 264.258 398.741 264.542 398.619C264.826 398.498 265.067 398.324 265.263 398.097C265.46 397.869 265.601 397.597 265.684 397.279H267.025C266.949 397.794 266.762 398.258 266.462 398.671C266.167 399.08 265.775 399.405 265.286 399.648C264.801 399.886 264.237 400.006 263.593 400.006ZM270.235 396.642L270.212 394.983H270.485L274.303 391.097H275.962L271.894 395.21H271.781L270.235 396.642ZM268.985 399.824V388.188H270.326V399.824H268.985ZM274.531 399.824L271.121 395.506L272.076 394.574L276.235 399.824H274.531ZM283.052 403.097C282.825 403.097 282.622 403.078 282.444 403.04C282.266 403.006 282.143 402.972 282.075 402.938L282.415 401.756C282.741 401.839 283.029 401.869 283.279 401.847C283.529 401.824 283.751 401.712 283.944 401.511C284.141 401.315 284.321 400.994 284.484 400.551L284.734 399.869L281.506 391.097H282.961L285.37 398.051H285.461L287.87 391.097H289.325L285.62 401.097C285.453 401.547 285.247 401.921 285.001 402.216C284.754 402.515 284.469 402.737 284.143 402.881C283.821 403.025 283.457 403.097 283.052 403.097ZM294.327 400.006C293.54 400.006 292.848 399.818 292.254 399.443C291.663 399.068 291.201 398.544 290.867 397.869C290.538 397.195 290.373 396.407 290.373 395.506C290.373 394.597 290.538 393.803 290.867 393.125C291.201 392.447 291.663 391.921 292.254 391.546C292.848 391.171 293.54 390.983 294.327 390.983C295.115 390.983 295.805 391.171 296.396 391.546C296.99 391.921 297.452 392.447 297.782 393.125C298.115 393.803 298.282 394.597 298.282 395.506C298.282 396.407 298.115 397.195 297.782 397.869C297.452 398.544 296.99 399.068 296.396 399.443C295.805 399.818 295.115 400.006 294.327 400.006ZM294.327 398.801C294.926 398.801 295.418 398.648 295.805 398.341C296.191 398.034 296.477 397.631 296.663 397.131C296.848 396.631 296.941 396.089 296.941 395.506C296.941 394.922 296.848 394.379 296.663 393.875C296.477 393.371 296.191 392.964 295.805 392.654C295.418 392.343 294.926 392.188 294.327 392.188C293.729 392.188 293.237 392.343 292.85 392.654C292.464 392.964 292.178 393.371 291.992 393.875C291.807 394.379 291.714 394.922 291.714 395.506C291.714 396.089 291.807 396.631 291.992 397.131C292.178 397.631 292.464 398.034 292.85 398.341C293.237 398.648 293.729 398.801 294.327 398.801ZM305.829 396.256V391.097H307.17V399.824H305.829V398.347H305.738C305.533 398.79 305.215 399.167 304.783 399.477C304.352 399.784 303.806 399.938 303.147 399.938C302.602 399.938 302.117 399.818 301.692 399.58C301.268 399.337 300.935 398.974 300.692 398.489C300.45 398 300.329 397.385 300.329 396.642V391.097H301.67V396.551C301.67 397.188 301.848 397.695 302.204 398.074C302.564 398.453 303.022 398.642 303.579 398.642C303.912 398.642 304.251 398.557 304.596 398.386C304.944 398.216 305.236 397.955 305.471 397.602C305.71 397.25 305.829 396.801 305.829 396.256ZM309.626 399.824V391.097H310.921V392.415H311.012C311.171 391.983 311.459 391.633 311.876 391.364C312.292 391.095 312.762 390.96 313.285 390.96C313.383 390.96 313.506 390.962 313.654 390.966C313.802 390.97 313.914 390.975 313.989 390.983V392.347C313.944 392.335 313.84 392.318 313.677 392.296C313.518 392.269 313.349 392.256 313.171 392.256C312.747 392.256 312.368 392.345 312.035 392.523C311.705 392.697 311.444 392.94 311.251 393.25C311.061 393.557 310.967 393.907 310.967 394.301V399.824H309.626ZM320.079 399.824V391.097H321.42V399.824H320.079ZM320.761 389.642C320.499 389.642 320.274 389.553 320.085 389.375C319.899 389.197 319.806 388.983 319.806 388.733C319.806 388.483 319.899 388.269 320.085 388.091C320.274 387.913 320.499 387.824 320.761 387.824C321.022 387.824 321.246 387.913 321.431 388.091C321.621 388.269 321.715 388.483 321.715 388.733C321.715 388.983 321.621 389.197 321.431 389.375C321.246 389.553 321.022 389.642 320.761 389.642ZM327.171 400.006C326.444 400.006 325.802 399.822 325.245 399.455C324.688 399.083 324.253 398.561 323.938 397.886C323.624 397.208 323.467 396.407 323.467 395.483C323.467 394.566 323.624 393.771 323.938 393.097C324.253 392.422 324.69 391.902 325.251 391.534C325.811 391.167 326.459 390.983 327.194 390.983C327.762 390.983 328.211 391.078 328.54 391.267C328.874 391.453 329.128 391.665 329.302 391.904C329.48 392.138 329.618 392.332 329.717 392.483H329.83V388.188H331.171V399.824H329.876V398.483H329.717C329.618 398.642 329.478 398.843 329.296 399.085C329.114 399.324 328.855 399.538 328.518 399.727C328.181 399.913 327.732 400.006 327.171 400.006ZM327.353 398.801C327.891 398.801 328.345 398.661 328.717 398.381C329.088 398.097 329.37 397.705 329.563 397.205C329.756 396.701 329.853 396.119 329.853 395.46C329.853 394.809 329.758 394.239 329.569 393.75C329.379 393.258 329.099 392.875 328.728 392.602C328.357 392.326 327.898 392.188 327.353 392.188C326.785 392.188 326.311 392.333 325.933 392.625C325.558 392.913 325.275 393.305 325.086 393.801C324.9 394.294 324.808 394.847 324.808 395.46C324.808 396.082 324.902 396.646 325.092 397.154C325.285 397.657 325.569 398.059 325.944 398.358C326.323 398.654 326.792 398.801 327.353 398.801ZM337.472 400.006C336.631 400.006 335.906 399.82 335.296 399.449C334.69 399.074 334.222 398.551 333.893 397.881C333.567 397.207 333.404 396.422 333.404 395.529C333.404 394.635 333.567 393.847 333.893 393.165C334.222 392.479 334.681 391.945 335.268 391.563C335.859 391.176 336.548 390.983 337.336 390.983C337.79 390.983 338.239 391.059 338.683 391.21C339.126 391.362 339.529 391.608 339.893 391.949C340.256 392.286 340.546 392.733 340.762 393.29C340.978 393.847 341.086 394.532 341.086 395.347V395.915H334.359V394.756H339.722C339.722 394.263 339.624 393.824 339.427 393.438C339.234 393.051 338.957 392.746 338.597 392.523C338.241 392.299 337.821 392.188 337.336 392.188C336.802 392.188 336.34 392.32 335.95 392.585C335.563 392.847 335.266 393.188 335.058 393.608C334.849 394.029 334.745 394.479 334.745 394.96V395.733C334.745 396.392 334.859 396.951 335.086 397.409C335.317 397.864 335.637 398.21 336.046 398.449C336.455 398.684 336.931 398.801 337.472 398.801C337.825 398.801 338.143 398.752 338.427 398.654C338.715 398.551 338.963 398.4 339.171 398.199C339.379 397.994 339.54 397.741 339.654 397.438L340.95 397.801C340.813 398.241 340.584 398.627 340.262 398.96C339.94 399.29 339.542 399.547 339.069 399.733C338.595 399.915 338.063 400.006 337.472 400.006ZM344.467 394.574V399.824H343.126V391.097H344.421V392.46H344.535C344.739 392.017 345.05 391.661 345.467 391.392C345.883 391.119 346.421 390.983 347.08 390.983C347.671 390.983 348.188 391.104 348.631 391.347C349.075 391.585 349.419 391.949 349.665 392.438C349.912 392.922 350.035 393.536 350.035 394.279V399.824H348.694V394.369C348.694 393.684 348.516 393.15 348.16 392.767C347.804 392.381 347.315 392.188 346.694 392.188C346.266 392.188 345.883 392.28 345.546 392.466C345.213 392.652 344.95 392.922 344.756 393.279C344.563 393.635 344.467 394.066 344.467 394.574ZM356.281 391.097V392.233H351.758V391.097H356.281ZM353.076 389.006H354.417V397.324C354.417 397.703 354.472 397.987 354.582 398.176C354.695 398.362 354.839 398.487 355.013 398.551C355.192 398.612 355.379 398.642 355.576 398.642C355.724 398.642 355.845 398.635 355.94 398.619C356.034 398.6 356.11 398.585 356.167 398.574L356.44 399.779C356.349 399.813 356.222 399.847 356.059 399.881C355.896 399.919 355.69 399.938 355.44 399.938C355.061 399.938 354.69 399.856 354.326 399.693C353.966 399.53 353.667 399.282 353.428 398.949C353.193 398.616 353.076 398.195 353.076 397.688V389.006ZM358.298 399.824V391.097H359.638V399.824H358.298ZM358.979 389.642C358.718 389.642 358.493 389.553 358.303 389.375C358.118 389.197 358.025 388.983 358.025 388.733C358.025 388.483 358.118 388.269 358.303 388.091C358.493 387.913 358.718 387.824 358.979 387.824C359.241 387.824 359.464 387.913 359.65 388.091C359.839 388.269 359.934 388.483 359.934 388.733C359.934 388.983 359.839 389.197 359.65 389.375C359.464 389.553 359.241 389.642 358.979 389.642ZM365.89 391.097V392.233H361.367V391.097H365.89ZM362.685 389.006H364.026V397.324C364.026 397.703 364.081 397.987 364.191 398.176C364.305 398.362 364.449 398.487 364.623 398.551C364.801 398.612 364.988 398.642 365.185 398.642C365.333 398.642 365.454 398.635 365.549 398.619C365.644 398.6 365.719 398.585 365.776 398.574L366.049 399.779C365.958 399.813 365.831 399.847 365.668 399.881C365.505 399.919 365.299 399.938 365.049 399.938C364.67 399.938 364.299 399.856 363.935 399.693C363.576 399.53 363.276 399.282 363.038 398.949C362.803 398.616 362.685 398.195 362.685 397.688V389.006ZM368.771 403.097C368.543 403.097 368.341 403.078 368.163 403.04C367.985 403.006 367.862 402.972 367.793 402.938L368.134 401.756C368.46 401.839 368.748 401.869 368.998 401.847C369.248 401.824 369.469 401.712 369.663 401.511C369.86 401.315 370.04 400.994 370.202 400.551L370.452 399.869L367.225 391.097H368.68L371.089 398.051H371.18L373.589 391.097H375.043L371.339 401.097C371.172 401.547 370.966 401.921 370.719 402.216C370.473 402.515 370.187 402.737 369.862 402.881C369.54 403.025 369.176 403.097 368.771 403.097ZM116.643 418.824V407.188H117.984V411.483H118.098C118.196 411.332 118.333 411.138 118.507 410.904C118.685 410.665 118.939 410.453 119.268 410.267C119.602 410.078 120.053 409.983 120.621 409.983C121.356 409.983 122.003 410.167 122.564 410.534C123.125 410.902 123.562 411.422 123.876 412.097C124.191 412.771 124.348 413.566 124.348 414.483C124.348 415.407 124.191 416.208 123.876 416.886C123.562 417.561 123.126 418.083 122.57 418.455C122.013 418.822 121.371 419.006 120.643 419.006C120.083 419.006 119.634 418.913 119.297 418.727C118.96 418.538 118.7 418.324 118.518 418.085C118.337 417.843 118.196 417.642 118.098 417.483H117.939V418.824H116.643ZM117.962 414.46C117.962 415.119 118.058 415.701 118.251 416.205C118.445 416.705 118.727 417.097 119.098 417.381C119.469 417.661 119.924 417.801 120.462 417.801C121.022 417.801 121.49 417.654 121.865 417.358C122.244 417.059 122.528 416.657 122.717 416.154C122.911 415.646 123.007 415.082 123.007 414.46C123.007 413.847 122.912 413.294 122.723 412.801C122.537 412.305 122.255 411.913 121.876 411.625C121.501 411.333 121.03 411.188 120.462 411.188C119.916 411.188 119.458 411.326 119.087 411.602C118.715 411.875 118.435 412.258 118.246 412.75C118.056 413.239 117.962 413.809 117.962 414.46ZM126.95 422.097C126.723 422.097 126.52 422.078 126.342 422.04C126.164 422.006 126.041 421.972 125.973 421.938L126.314 420.756C126.64 420.839 126.928 420.869 127.178 420.847C127.428 420.824 127.649 420.712 127.842 420.511C128.039 420.315 128.219 419.994 128.382 419.551L128.632 418.869L125.405 410.097H126.859L129.268 417.051H129.359L131.768 410.097H133.223L129.518 420.097C129.352 420.547 129.145 420.921 128.899 421.216C128.653 421.515 128.367 421.737 128.041 421.881C127.719 422.025 127.356 422.097 126.95 422.097ZM146.629 410.097L143.402 418.824H142.038L138.811 410.097H140.266L142.675 417.051H142.766L145.175 410.097H146.629ZM151.746 419.006C150.905 419.006 150.179 418.82 149.57 418.449C148.964 418.074 148.496 417.551 148.166 416.881C147.84 416.207 147.678 415.422 147.678 414.529C147.678 413.635 147.84 412.847 148.166 412.165C148.496 411.479 148.954 410.945 149.541 410.563C150.132 410.176 150.821 409.983 151.609 409.983C152.064 409.983 152.513 410.059 152.956 410.21C153.399 410.362 153.803 410.608 154.166 410.949C154.53 411.286 154.82 411.733 155.036 412.29C155.251 412.847 155.359 413.532 155.359 414.347V414.915H148.632V413.756H153.996C153.996 413.263 153.897 412.824 153.7 412.438C153.507 412.051 153.231 411.746 152.871 411.523C152.515 411.299 152.094 411.188 151.609 411.188C151.075 411.188 150.613 411.32 150.223 411.585C149.837 411.847 149.539 412.188 149.331 412.608C149.123 413.029 149.018 413.479 149.018 413.96V414.733C149.018 415.392 149.132 415.951 149.359 416.409C149.59 416.864 149.911 417.21 150.32 417.449C150.729 417.684 151.204 417.801 151.746 417.801C152.098 417.801 152.416 417.752 152.7 417.654C152.988 417.551 153.236 417.4 153.445 417.199C153.653 416.994 153.814 416.741 153.928 416.438L155.223 416.801C155.087 417.241 154.857 417.627 154.536 417.96C154.214 418.29 153.816 418.547 153.342 418.733C152.869 418.915 152.337 419.006 151.746 419.006ZM157.399 418.824V410.097H158.695V411.415H158.786C158.945 410.983 159.232 410.633 159.649 410.364C160.066 410.095 160.536 409.96 161.058 409.96C161.157 409.96 161.28 409.962 161.428 409.966C161.575 409.97 161.687 409.975 161.763 409.983V411.347C161.717 411.335 161.613 411.318 161.45 411.296C161.291 411.269 161.123 411.256 160.945 411.256C160.52 411.256 160.142 411.345 159.808 411.523C159.479 411.697 159.217 411.94 159.024 412.25C158.835 412.557 158.74 412.907 158.74 413.301V418.824H157.399ZM163.352 418.824V410.097H164.693V418.824H163.352ZM164.034 408.642C163.773 408.642 163.547 408.553 163.358 408.375C163.172 408.197 163.08 407.983 163.08 407.733C163.08 407.483 163.172 407.269 163.358 407.091C163.547 406.913 163.773 406.824 164.034 406.824C164.295 406.824 164.519 406.913 164.705 407.091C164.894 407.269 164.989 407.483 164.989 407.733C164.989 407.983 164.894 408.197 164.705 408.375C164.519 408.553 164.295 408.642 164.034 408.642ZM171.036 410.097V411.233H166.331V410.097H171.036ZM167.74 418.824V408.892C167.74 408.392 167.857 407.975 168.092 407.642C168.327 407.309 168.632 407.059 169.007 406.892C169.382 406.725 169.778 406.642 170.195 406.642C170.524 406.642 170.793 406.669 171.001 406.722C171.21 406.775 171.365 406.824 171.467 406.869L171.081 408.029C171.013 408.006 170.918 407.977 170.797 407.943C170.679 407.909 170.524 407.892 170.331 407.892C169.888 407.892 169.568 408.004 169.371 408.227C169.178 408.451 169.081 408.779 169.081 409.21V418.824H167.74ZM173.778 422.097C173.551 422.097 173.348 422.078 173.17 422.04C172.992 422.006 172.869 421.972 172.801 421.938L173.142 420.756C173.468 420.839 173.756 420.869 174.006 420.847C174.256 420.824 174.477 420.712 174.67 420.511C174.867 420.315 175.047 419.994 175.21 419.551L175.46 418.869L172.233 410.097H173.688L176.097 417.051H176.188L178.597 410.097H180.051L176.347 420.097C176.18 420.547 175.973 420.921 175.727 421.216C175.481 421.515 175.195 421.737 174.869 421.881C174.547 422.025 174.184 422.097 173.778 422.097ZM181.821 418.824V410.097H183.162V418.824H181.821ZM182.503 408.642C182.241 408.642 182.016 408.553 181.827 408.375C181.641 408.197 181.548 407.983 181.548 407.733C181.548 407.483 181.641 407.269 181.827 407.091C182.016 406.913 182.241 406.824 182.503 406.824C182.764 406.824 182.988 406.913 183.173 407.091C183.363 407.269 183.457 407.483 183.457 407.733C183.457 407.983 183.363 408.197 183.173 408.375C182.988 408.553 182.764 408.642 182.503 408.642ZM186.959 413.574V418.824H185.618V410.097H186.913V411.46H187.027C187.232 411.017 187.542 410.661 187.959 410.392C188.375 410.119 188.913 409.983 189.572 409.983C190.163 409.983 190.68 410.104 191.124 410.347C191.567 410.585 191.911 410.949 192.158 411.438C192.404 411.922 192.527 412.536 192.527 413.279V418.824H191.186V413.369C191.186 412.684 191.008 412.15 190.652 411.767C190.296 411.381 189.807 411.188 189.186 411.188C188.758 411.188 188.375 411.28 188.038 411.466C187.705 411.652 187.442 411.922 187.249 412.279C187.055 412.635 186.959 413.066 186.959 413.574ZM198.5 422.279C197.852 422.279 197.295 422.195 196.83 422.029C196.364 421.866 195.975 421.65 195.665 421.381C195.358 421.116 195.114 420.832 194.932 420.529L196 419.779C196.121 419.938 196.275 420.119 196.46 420.324C196.646 420.532 196.9 420.712 197.222 420.864C197.547 421.019 197.973 421.097 198.5 421.097C199.205 421.097 199.786 420.926 200.244 420.585C200.703 420.244 200.932 419.71 200.932 418.983V417.21H200.818C200.72 417.369 200.58 417.566 200.398 417.801C200.22 418.032 199.962 418.239 199.625 418.421C199.292 418.599 198.841 418.688 198.273 418.688C197.568 418.688 196.936 418.521 196.375 418.188C195.818 417.854 195.377 417.369 195.051 416.733C194.729 416.097 194.568 415.324 194.568 414.415C194.568 413.521 194.725 412.743 195.04 412.08C195.354 411.413 195.792 410.898 196.352 410.534C196.913 410.167 197.561 409.983 198.295 409.983C198.864 409.983 199.314 410.078 199.648 410.267C199.985 410.453 200.242 410.665 200.42 410.904C200.602 411.138 200.742 411.332 200.841 411.483H200.977V410.097H202.273V419.074C202.273 419.824 202.102 420.434 201.761 420.904C201.424 421.377 200.97 421.724 200.398 421.943C199.83 422.167 199.197 422.279 198.5 422.279ZM198.455 417.483C198.992 417.483 199.447 417.36 199.818 417.114C200.189 416.868 200.472 416.513 200.665 416.051C200.858 415.589 200.955 415.036 200.955 414.392C200.955 413.763 200.86 413.208 200.67 412.727C200.481 412.246 200.201 411.869 199.83 411.597C199.458 411.324 199 411.188 198.455 411.188C197.886 411.188 197.413 411.332 197.034 411.619C196.659 411.907 196.377 412.294 196.188 412.779C196.002 413.263 195.909 413.801 195.909 414.392C195.909 414.998 196.004 415.534 196.193 416C196.386 416.462 196.67 416.826 197.045 417.091C197.424 417.352 197.894 417.483 198.455 417.483ZM210.091 422.097C209.864 422.097 209.661 422.078 209.483 422.04C209.305 422.006 209.182 421.972 209.114 421.938L209.455 420.756C209.78 420.839 210.068 420.869 210.318 420.847C210.568 420.824 210.79 420.712 210.983 420.511C211.18 420.315 211.36 419.994 211.523 419.551L211.773 418.869L208.545 410.097H210L212.409 417.051H212.5L214.909 410.097H216.364L212.659 420.097C212.492 420.547 212.286 420.921 212.04 421.216C211.794 421.515 211.508 421.737 211.182 421.881C210.86 422.025 210.496 422.097 210.091 422.097ZM221.366 419.006C220.579 419.006 219.887 418.818 219.293 418.443C218.702 418.068 218.24 417.544 217.906 416.869C217.577 416.195 217.412 415.407 217.412 414.506C217.412 413.597 217.577 412.803 217.906 412.125C218.24 411.447 218.702 410.921 219.293 410.546C219.887 410.171 220.579 409.983 221.366 409.983C222.154 409.983 222.844 410.171 223.435 410.546C224.029 410.921 224.491 411.447 224.821 412.125C225.154 412.803 225.321 413.597 225.321 414.506C225.321 415.407 225.154 416.195 224.821 416.869C224.491 417.544 224.029 418.068 223.435 418.443C222.844 418.818 222.154 419.006 221.366 419.006ZM221.366 417.801C221.965 417.801 222.457 417.648 222.844 417.341C223.23 417.034 223.516 416.631 223.702 416.131C223.887 415.631 223.98 415.089 223.98 414.506C223.98 413.922 223.887 413.379 223.702 412.875C223.516 412.371 223.23 411.964 222.844 411.654C222.457 411.343 221.965 411.188 221.366 411.188C220.768 411.188 220.276 411.343 219.889 411.654C219.503 411.964 219.217 412.371 219.031 412.875C218.846 413.379 218.753 413.922 218.753 414.506C218.753 415.089 218.846 415.631 219.031 416.131C219.217 416.631 219.503 417.034 219.889 417.341C220.276 417.648 220.768 417.801 221.366 417.801ZM232.868 415.256V410.097H234.209V418.824H232.868V417.347H232.777C232.572 417.79 232.254 418.167 231.822 418.477C231.391 418.784 230.845 418.938 230.186 418.938C229.641 418.938 229.156 418.818 228.732 418.58C228.307 418.337 227.974 417.974 227.732 417.489C227.489 417 227.368 416.385 227.368 415.642V410.097H228.709V415.551C228.709 416.188 228.887 416.695 229.243 417.074C229.603 417.453 230.061 417.642 230.618 417.642C230.951 417.642 231.29 417.557 231.635 417.386C231.983 417.216 232.275 416.955 232.51 416.602C232.749 416.25 232.868 415.801 232.868 415.256ZM236.665 418.824V410.097H237.96V411.415H238.051C238.21 410.983 238.498 410.633 238.915 410.364C239.331 410.095 239.801 409.96 240.324 409.96C240.422 409.96 240.545 409.962 240.693 409.966C240.841 409.97 240.953 409.975 241.028 409.983V411.347C240.983 411.335 240.879 411.318 240.716 411.296C240.557 411.269 240.388 411.256 240.21 411.256C239.786 411.256 239.407 411.345 239.074 411.523C238.744 411.697 238.483 411.94 238.29 412.25C238.1 412.557 238.006 412.907 238.006 413.301V418.824H236.665ZM247.118 422.097V410.097H248.413V411.483H248.572C248.671 411.332 248.807 411.138 248.982 410.904C249.16 410.665 249.413 410.453 249.743 410.267C250.076 410.078 250.527 409.983 251.095 409.983C251.83 409.983 252.478 410.167 253.038 410.534C253.599 410.902 254.036 411.422 254.351 412.097C254.665 412.771 254.822 413.566 254.822 414.483C254.822 415.407 254.665 416.208 254.351 416.886C254.036 417.561 253.601 418.083 253.044 418.455C252.487 418.822 251.845 419.006 251.118 419.006C250.557 419.006 250.108 418.913 249.771 418.727C249.434 418.538 249.175 418.324 248.993 418.085C248.811 417.843 248.671 417.642 248.572 417.483H248.459V422.097H247.118ZM248.436 414.46C248.436 415.119 248.533 415.701 248.726 416.205C248.919 416.705 249.201 417.097 249.572 417.381C249.944 417.661 250.398 417.801 250.936 417.801C251.497 417.801 251.964 417.654 252.339 417.358C252.718 417.059 253.002 416.657 253.192 416.154C253.385 415.646 253.482 415.082 253.482 414.46C253.482 413.847 253.387 413.294 253.197 412.801C253.012 412.305 252.73 411.913 252.351 411.625C251.976 411.333 251.504 411.188 250.936 411.188C250.391 411.188 249.932 411.326 249.561 411.602C249.19 411.875 248.91 412.258 248.72 412.75C248.531 413.239 248.436 413.809 248.436 414.46ZM259.436 419.029C258.883 419.029 258.381 418.924 257.93 418.716C257.48 418.504 257.122 418.199 256.857 417.801C256.591 417.4 256.459 416.915 256.459 416.347C256.459 415.847 256.557 415.441 256.754 415.131C256.951 414.816 257.214 414.57 257.544 414.392C257.874 414.214 258.237 414.082 258.635 413.994C259.036 413.904 259.44 413.832 259.845 413.779C260.375 413.71 260.805 413.659 261.135 413.625C261.468 413.587 261.711 413.525 261.862 413.438C262.018 413.35 262.095 413.199 262.095 412.983V412.938C262.095 412.377 261.942 411.941 261.635 411.631C261.332 411.32 260.872 411.165 260.254 411.165C259.614 411.165 259.112 411.305 258.749 411.585C258.385 411.866 258.129 412.165 257.982 412.483L256.709 412.029C256.936 411.498 257.239 411.085 257.618 410.79C258 410.491 258.417 410.282 258.868 410.165C259.322 410.044 259.769 409.983 260.209 409.983C260.489 409.983 260.811 410.017 261.175 410.085C261.542 410.15 261.896 410.284 262.237 410.489C262.582 410.693 262.868 411.002 263.095 411.415C263.322 411.828 263.436 412.381 263.436 413.074V418.824H262.095V417.642H262.027C261.936 417.832 261.785 418.034 261.572 418.25C261.36 418.466 261.078 418.65 260.726 418.801C260.374 418.953 259.944 419.029 259.436 419.029ZM259.641 417.824C260.171 417.824 260.618 417.72 260.982 417.511C261.349 417.303 261.625 417.034 261.811 416.705C262 416.375 262.095 416.029 262.095 415.665V414.438C262.038 414.506 261.913 414.568 261.72 414.625C261.531 414.678 261.311 414.725 261.061 414.767C260.815 414.805 260.574 414.839 260.339 414.869C260.108 414.896 259.921 414.919 259.777 414.938C259.429 414.983 259.103 415.057 258.8 415.159C258.5 415.258 258.258 415.407 258.072 415.608C257.891 415.805 257.8 416.074 257.8 416.415C257.8 416.881 257.972 417.233 258.317 417.472C258.665 417.707 259.107 417.824 259.641 417.824ZM267.224 407.188V418.824H265.884V407.188H267.224ZM269.68 418.824V410.097H270.976V411.46H271.089C271.271 410.994 271.565 410.633 271.97 410.375C272.375 410.114 272.862 409.983 273.43 409.983C274.006 409.983 274.485 410.114 274.868 410.375C275.254 410.633 275.555 410.994 275.771 411.46H275.862C276.086 411.01 276.421 410.652 276.868 410.386C277.315 410.118 277.851 409.983 278.476 409.983C279.256 409.983 279.894 410.227 280.391 410.716C280.887 411.201 281.135 411.957 281.135 412.983V418.824H279.794V412.983C279.794 412.339 279.618 411.879 279.266 411.602C278.913 411.326 278.499 411.188 278.021 411.188C277.408 411.188 276.932 411.373 276.595 411.744C276.258 412.112 276.089 412.578 276.089 413.142V418.824H274.726V412.847C274.726 412.35 274.565 411.951 274.243 411.648C273.921 411.341 273.506 411.188 272.999 411.188C272.65 411.188 272.324 411.28 272.021 411.466C271.722 411.652 271.48 411.909 271.294 412.239C271.112 412.565 271.021 412.941 271.021 413.369V418.824H269.68ZM284.564 418.915C284.284 418.915 284.043 418.815 283.842 418.614C283.642 418.413 283.541 418.172 283.541 417.892C283.541 417.612 283.642 417.371 283.842 417.171C284.043 416.97 284.284 416.869 284.564 416.869C284.844 416.869 285.085 416.97 285.286 417.171C285.486 417.371 285.587 417.612 285.587 417.892C285.587 418.078 285.539 418.248 285.445 418.404C285.354 418.559 285.231 418.684 285.075 418.779C284.924 418.869 284.753 418.915 284.564 418.915Z" fill="black"/>
<rect x="80.5" y="464.824" width="241" height="51" rx="8" fill="#606060"/>
<path d="M100.273 487.097C100.205 486.521 99.928 486.074 99.4432 485.756C98.9583 485.438 98.3636 485.279 97.6591 485.279C97.1439 485.279 96.6932 485.362 96.3068 485.529C95.9242 485.695 95.625 485.924 95.4091 486.216C95.197 486.508 95.0909 486.839 95.0909 487.21C95.0909 487.521 95.1648 487.788 95.3125 488.011C95.464 488.231 95.6572 488.415 95.892 488.563C96.1269 488.707 96.3731 488.826 96.6307 488.921C96.8883 489.011 97.125 489.085 97.3409 489.142L98.5227 489.46C98.8258 489.54 99.1629 489.65 99.5341 489.79C99.9091 489.93 100.267 490.121 100.608 490.364C100.953 490.602 101.237 490.909 101.46 491.284C101.684 491.659 101.795 492.119 101.795 492.665C101.795 493.294 101.631 493.862 101.301 494.369C100.975 494.877 100.498 495.28 99.8693 495.58C99.2443 495.879 98.4848 496.029 97.5909 496.029C96.7576 496.029 96.036 495.894 95.4261 495.625C94.8201 495.356 94.3428 494.981 93.9943 494.5C93.6496 494.019 93.4545 493.46 93.4091 492.824H94.8636C94.9015 493.263 95.0492 493.627 95.3068 493.915C95.5682 494.199 95.8977 494.411 96.2955 494.551C96.697 494.688 97.1288 494.756 97.5909 494.756C98.1288 494.756 98.6117 494.669 99.0398 494.494C99.4678 494.316 99.8068 494.07 100.057 493.756C100.307 493.438 100.432 493.066 100.432 492.642C100.432 492.256 100.324 491.941 100.108 491.699C99.892 491.457 99.608 491.26 99.2557 491.108C98.9034 490.957 98.5227 490.824 98.1136 490.71L96.6818 490.301C95.7727 490.04 95.053 489.667 94.5227 489.182C93.9924 488.697 93.7273 488.063 93.7273 487.279C93.7273 486.627 93.9034 486.059 94.2557 485.574C94.6117 485.085 95.089 484.707 95.6875 484.438C96.2898 484.165 96.9621 484.029 97.7045 484.029C98.4545 484.029 99.1212 484.163 99.7045 484.432C100.288 484.697 100.75 485.061 101.091 485.523C101.436 485.985 101.617 486.51 101.636 487.097H100.273ZM103.476 485.438V484.188H112.203V485.438H108.544V495.824H107.135V485.438H103.476ZM113.496 495.824H112.018L116.291 484.188H117.746L122.018 495.824H120.541L117.064 486.029H116.973L113.496 495.824ZM114.041 491.279H119.996V492.529H114.041V491.279ZM123.831 495.824V484.188H127.763C128.672 484.188 129.418 484.343 130.001 484.654C130.585 484.96 131.017 485.383 131.297 485.921C131.577 486.458 131.717 487.07 131.717 487.756C131.717 488.441 131.577 489.049 131.297 489.58C131.017 490.11 130.587 490.527 130.007 490.83C129.428 491.129 128.687 491.279 127.786 491.279H124.604V490.006H127.74C128.361 490.006 128.861 489.915 129.24 489.733C129.623 489.551 129.899 489.294 130.07 488.96C130.244 488.623 130.331 488.222 130.331 487.756C130.331 487.29 130.244 486.883 130.07 486.534C129.895 486.186 129.617 485.917 129.234 485.727C128.852 485.534 128.346 485.438 127.717 485.438H125.24V495.824H123.831ZM129.308 490.597L132.172 495.824H130.536L127.717 490.597H129.308ZM133.429 485.438V484.188H142.156V485.438H138.497V495.824H137.088V485.438H133.429ZM148.831 495.824V484.188H152.763C153.676 484.188 154.422 484.352 155.001 484.682C155.585 485.008 156.017 485.449 156.297 486.006C156.577 486.563 156.717 487.184 156.717 487.869C156.717 488.555 156.577 489.178 156.297 489.739C156.02 490.299 155.592 490.746 155.013 491.08C154.433 491.409 153.691 491.574 152.786 491.574H149.967V490.324H152.74C153.365 490.324 153.867 490.216 154.246 490C154.625 489.784 154.899 489.493 155.07 489.125C155.244 488.754 155.331 488.335 155.331 487.869C155.331 487.404 155.244 486.987 155.07 486.619C154.899 486.252 154.623 485.964 154.24 485.756C153.857 485.544 153.35 485.438 152.717 485.438H150.24V495.824H148.831ZM158.277 495.824H156.8L161.072 484.188H162.527L166.8 495.824H165.322L161.845 486.029H161.754L158.277 495.824ZM158.822 491.279H164.777V492.529H158.822V491.279ZM170.021 484.188V495.824H168.612V484.188H170.021ZM172.847 495.824V484.188H176.778C177.688 484.188 178.434 484.343 179.017 484.654C179.6 484.96 180.032 485.383 180.312 485.921C180.593 486.458 180.733 487.07 180.733 487.756C180.733 488.441 180.593 489.049 180.312 489.58C180.032 490.11 179.602 490.527 179.023 490.83C178.443 491.129 177.703 491.279 176.801 491.279H173.619V490.006H176.756C177.377 490.006 177.877 489.915 178.256 489.733C178.638 489.551 178.915 489.294 179.085 488.96C179.259 488.623 179.347 488.222 179.347 487.756C179.347 487.29 179.259 486.883 179.085 486.534C178.911 486.186 178.633 485.917 178.25 485.727C177.867 485.534 177.362 485.438 176.733 485.438H174.256V495.824H172.847ZM178.324 490.597L181.188 495.824H179.551L176.733 490.597H178.324ZM184.49 484.188V495.824H183.081V484.188H184.49ZM196.543 484.188V495.824H195.179L188.838 486.688H188.724V495.824H187.315V484.188H188.679L195.043 493.347H195.156V484.188H196.543ZM207.317 487.824C207.192 487.441 207.027 487.099 206.822 486.796C206.622 486.489 206.381 486.227 206.101 486.011C205.824 485.796 205.51 485.631 205.158 485.517C204.805 485.404 204.419 485.347 203.999 485.347C203.309 485.347 202.682 485.525 202.118 485.881C201.554 486.237 201.105 486.761 200.771 487.455C200.438 488.148 200.271 488.998 200.271 490.006C200.271 491.013 200.44 491.864 200.777 492.557C201.114 493.25 201.571 493.775 202.146 494.131C202.722 494.487 203.37 494.665 204.089 494.665C204.756 494.665 205.343 494.523 205.851 494.239C206.362 493.951 206.76 493.546 207.044 493.023C207.332 492.496 207.476 491.877 207.476 491.165L207.908 491.256H204.408V490.006H208.839V491.256C208.839 492.214 208.635 493.047 208.226 493.756C207.821 494.464 207.26 495.013 206.544 495.404C205.832 495.79 205.014 495.983 204.089 495.983C203.059 495.983 202.154 495.741 201.374 495.256C200.597 494.771 199.991 494.082 199.555 493.188C199.124 492.294 198.908 491.233 198.908 490.006C198.908 489.085 199.031 488.258 199.277 487.523C199.527 486.784 199.879 486.155 200.334 485.636C200.788 485.118 201.326 484.72 201.947 484.443C202.569 484.167 203.252 484.029 203.999 484.029C204.612 484.029 205.184 484.121 205.714 484.307C206.249 484.489 206.724 484.748 207.141 485.085C207.561 485.419 207.911 485.818 208.192 486.284C208.472 486.746 208.665 487.26 208.771 487.824H207.317ZM214.753 484.188H216.366L219.594 489.619H219.73L222.957 484.188H224.571L220.366 491.029V495.824H218.957V491.029L214.753 484.188ZM235.665 490.006C235.665 491.233 235.443 492.294 235 493.188C234.557 494.082 233.949 494.771 233.176 495.256C232.403 495.741 231.521 495.983 230.528 495.983C229.536 495.983 228.653 495.741 227.881 495.256C227.108 494.771 226.5 494.082 226.057 493.188C225.614 492.294 225.392 491.233 225.392 490.006C225.392 488.779 225.614 487.718 226.057 486.824C226.5 485.93 227.108 485.241 227.881 484.756C228.653 484.271 229.536 484.029 230.528 484.029C231.521 484.029 232.403 484.271 233.176 484.756C233.949 485.241 234.557 485.93 235 486.824C235.443 487.718 235.665 488.779 235.665 490.006ZM234.301 490.006C234.301 488.998 234.133 488.148 233.795 487.455C233.462 486.761 233.009 486.237 232.438 485.881C231.869 485.525 231.233 485.347 230.528 485.347C229.824 485.347 229.186 485.525 228.614 485.881C228.045 486.237 227.593 486.761 227.256 487.455C226.922 488.148 226.756 488.998 226.756 490.006C226.756 491.013 226.922 491.864 227.256 492.557C227.593 493.25 228.045 493.775 228.614 494.131C229.186 494.487 229.824 494.665 230.528 494.665C231.233 494.665 231.869 494.487 232.438 494.131C233.009 493.775 233.462 493.25 233.795 492.557C234.133 491.864 234.301 491.013 234.301 490.006ZM245.67 484.188H247.08V491.892C247.08 492.688 246.892 493.398 246.517 494.023C246.146 494.644 245.621 495.135 244.943 495.494C244.265 495.85 243.47 496.029 242.557 496.029C241.644 496.029 240.848 495.85 240.17 495.494C239.492 495.135 238.966 494.644 238.591 494.023C238.22 493.398 238.034 492.688 238.034 491.892V484.188H239.443V491.779C239.443 492.347 239.568 492.852 239.818 493.296C240.068 493.735 240.424 494.082 240.886 494.335C241.352 494.585 241.909 494.71 242.557 494.71C243.205 494.71 243.761 494.585 244.227 494.335C244.693 494.082 245.049 493.735 245.295 493.296C245.545 492.852 245.67 492.347 245.67 491.779V484.188ZM249.893 495.824V484.188H253.825C254.734 484.188 255.481 484.343 256.064 484.654C256.647 484.96 257.079 485.383 257.359 485.921C257.64 486.458 257.78 487.07 257.78 487.756C257.78 488.441 257.64 489.049 257.359 489.58C257.079 490.11 256.649 490.527 256.07 490.83C255.49 491.129 254.75 491.279 253.848 491.279H250.666V490.006H253.803C254.424 490.006 254.924 489.915 255.303 489.733C255.685 489.551 255.962 489.294 256.132 488.96C256.306 488.623 256.393 488.222 256.393 487.756C256.393 487.29 256.306 486.883 256.132 486.534C255.958 486.186 255.679 485.917 255.297 485.727C254.914 485.534 254.409 485.438 253.78 485.438H251.303V495.824H249.893ZM255.371 490.597L258.234 495.824H256.598L253.78 490.597H255.371ZM264.628 495.824V484.188H266.037V489.369H272.241V484.188H273.651V495.824H272.241V490.619H266.037V495.824H264.628ZM276.949 495.824H275.472L279.744 484.188H281.199L285.472 495.824H283.994L280.517 486.029H280.426L276.949 495.824ZM277.494 491.279H283.449V492.529H277.494V491.279ZM296.511 484.188V495.824H295.148L288.807 486.688H288.693V495.824H287.284V484.188H288.648L295.011 493.347H295.125V484.188H296.511ZM302.922 495.824H299.331V484.188H303.081C304.21 484.188 305.176 484.421 305.979 484.886C306.782 485.349 307.397 486.013 307.825 486.881C308.253 487.744 308.467 488.779 308.467 489.983C308.467 491.195 308.251 492.239 307.82 493.114C307.388 493.985 306.759 494.655 305.933 495.125C305.107 495.591 304.104 495.824 302.922 495.824ZM300.74 494.574H302.831C303.793 494.574 304.59 494.388 305.223 494.017C305.856 493.646 306.327 493.118 306.638 492.432C306.948 491.746 307.104 490.93 307.104 489.983C307.104 489.044 306.95 488.235 306.643 487.557C306.337 486.875 305.878 486.352 305.268 485.989C304.659 485.621 303.899 485.438 302.99 485.438H300.74V494.574Z" fill="white"/>
<path d="M133.409 671.824V660.188H134.818V665.369H141.023V660.188H142.432V671.824H141.023V666.619H134.818V671.824H133.409ZM155.071 666.006C155.071 667.233 154.849 668.294 154.406 669.188C153.963 670.082 153.355 670.771 152.582 671.256C151.81 671.741 150.927 671.983 149.935 671.983C148.942 671.983 148.06 671.741 147.287 671.256C146.514 670.771 145.906 670.082 145.463 669.188C145.02 668.294 144.798 667.233 144.798 666.006C144.798 664.779 145.02 663.718 145.463 662.824C145.906 661.93 146.514 661.241 147.287 660.756C148.06 660.271 148.942 660.029 149.935 660.029C150.927 660.029 151.81 660.271 152.582 660.756C153.355 661.241 153.963 661.93 154.406 662.824C154.849 663.718 155.071 664.779 155.071 666.006ZM153.707 666.006C153.707 664.998 153.539 664.148 153.202 663.455C152.868 662.761 152.416 662.237 151.844 661.881C151.276 661.525 150.639 661.347 149.935 661.347C149.23 661.347 148.592 661.525 148.02 661.881C147.452 662.237 146.999 662.761 146.662 663.455C146.329 664.148 146.162 664.998 146.162 666.006C146.162 667.013 146.329 667.864 146.662 668.557C146.999 669.25 147.452 669.775 148.02 670.131C148.592 670.487 149.23 670.665 149.935 670.665C150.639 670.665 151.276 670.487 151.844 670.131C152.416 669.775 152.868 669.25 153.202 668.557C153.539 667.864 153.707 667.013 153.707 666.006ZM159.554 671.824L156.372 660.188H157.804L160.236 669.665H160.349L162.827 660.188H164.418L166.895 669.665H167.009L169.44 660.188H170.872L167.69 671.824H166.236L163.668 662.551H163.577L161.009 671.824H159.554ZM178.537 660.188V671.824H177.128V660.188H178.537ZM180.726 661.438V660.188H189.453V661.438H185.794V671.824H184.385V661.438H180.726ZM198.241 671.824L195.06 660.188H196.491L198.923 669.665H199.037L201.514 660.188H203.105L205.582 669.665H205.696L208.128 660.188H209.56L206.378 671.824H204.923L202.355 662.551H202.264L199.696 671.824H198.241ZM220.587 666.006C220.587 667.233 220.365 668.294 219.922 669.188C219.479 670.082 218.871 670.771 218.098 671.256C217.325 671.741 216.443 671.983 215.45 671.983C214.458 671.983 213.575 671.741 212.803 671.256C212.03 670.771 211.422 670.082 210.979 669.188C210.536 668.294 210.314 667.233 210.314 666.006C210.314 664.779 210.536 663.718 210.979 662.824C211.422 661.93 212.03 661.241 212.803 660.756C213.575 660.271 214.458 660.029 215.45 660.029C216.443 660.029 217.325 660.271 218.098 660.756C218.871 661.241 219.479 661.93 219.922 662.824C220.365 663.718 220.587 664.779 220.587 666.006ZM219.223 666.006C219.223 664.998 219.054 664.148 218.717 663.455C218.384 662.761 217.931 662.237 217.359 661.881C216.791 661.525 216.155 661.347 215.45 661.347C214.746 661.347 214.107 661.525 213.536 661.881C212.967 662.237 212.515 662.761 212.178 663.455C211.844 664.148 211.678 664.998 211.678 666.006C211.678 667.013 211.844 667.864 212.178 668.557C212.515 669.25 212.967 669.775 213.536 670.131C214.107 670.487 214.746 670.665 215.45 670.665C216.155 670.665 216.791 670.487 217.359 670.131C217.931 669.775 218.384 669.25 218.717 668.557C219.054 667.864 219.223 667.013 219.223 666.006ZM222.956 671.824V660.188H226.888C227.797 660.188 228.543 660.343 229.126 660.654C229.71 660.96 230.142 661.383 230.422 661.921C230.702 662.458 230.842 663.07 230.842 663.756C230.842 664.441 230.702 665.049 230.422 665.58C230.142 666.11 229.712 666.527 229.132 666.83C228.553 667.129 227.812 667.279 226.911 667.279H223.729V666.006H226.865C227.486 666.006 227.986 665.915 228.365 665.733C228.748 665.551 229.024 665.294 229.195 664.96C229.369 664.623 229.456 664.222 229.456 663.756C229.456 663.29 229.369 662.883 229.195 662.534C229.02 662.186 228.742 661.917 228.359 661.727C227.977 661.534 227.471 661.438 226.842 661.438H224.365V671.824H222.956ZM228.433 666.597L231.297 671.824H229.661L226.842 666.597H228.433ZM233.19 671.824V660.188H234.599V665.96H234.736L239.963 660.188H241.804L236.918 665.438L241.804 671.824H240.099L236.054 666.415L234.599 668.051V671.824H233.19ZM249.991 663.097C249.923 662.521 249.647 662.074 249.162 661.756C248.677 661.438 248.082 661.279 247.378 661.279C246.863 661.279 246.412 661.362 246.026 661.529C245.643 661.695 245.344 661.924 245.128 662.216C244.916 662.508 244.81 662.839 244.81 663.21C244.81 663.521 244.884 663.788 245.031 664.011C245.183 664.231 245.376 664.415 245.611 664.563C245.846 664.707 246.092 664.826 246.349 664.921C246.607 665.011 246.844 665.085 247.06 665.142L248.241 665.46C248.545 665.54 248.882 665.65 249.253 665.79C249.628 665.93 249.986 666.121 250.327 666.364C250.671 666.602 250.955 666.909 251.179 667.284C251.402 667.659 251.514 668.119 251.514 668.665C251.514 669.294 251.349 669.862 251.02 670.369C250.694 670.877 250.217 671.28 249.588 671.58C248.963 671.879 248.204 672.029 247.31 672.029C246.476 672.029 245.755 671.894 245.145 671.625C244.539 671.356 244.062 670.981 243.713 670.5C243.368 670.019 243.173 669.46 243.128 668.824H244.582C244.62 669.263 244.768 669.627 245.026 669.915C245.287 670.199 245.616 670.411 246.014 670.551C246.416 670.688 246.848 670.756 247.31 670.756C247.848 670.756 248.33 670.669 248.759 670.494C249.187 670.316 249.526 670.07 249.776 669.756C250.026 669.438 250.151 669.066 250.151 668.642C250.151 668.256 250.043 667.941 249.827 667.699C249.611 667.457 249.327 667.26 248.974 667.108C248.622 666.957 248.241 666.824 247.832 666.71L246.401 666.301C245.491 666.04 244.772 665.667 244.241 665.182C243.711 664.697 243.446 664.063 243.446 663.279C243.446 662.627 243.622 662.059 243.974 661.574C244.33 661.085 244.808 660.707 245.406 660.438C246.009 660.165 246.681 660.029 247.423 660.029C248.173 660.029 248.84 660.163 249.423 660.432C250.007 660.697 250.469 661.061 250.81 661.523C251.154 661.985 251.336 662.51 251.355 663.097H249.991ZM255.399 668.551V668.483C255.407 667.76 255.482 667.184 255.626 666.756C255.77 666.328 255.975 665.981 256.24 665.716C256.505 665.451 256.823 665.207 257.195 664.983C257.418 664.847 257.619 664.686 257.797 664.5C257.975 664.311 258.115 664.093 258.217 663.847C258.323 663.6 258.376 663.328 258.376 663.029C258.376 662.657 258.289 662.335 258.115 662.063C257.941 661.79 257.708 661.58 257.416 661.432C257.125 661.284 256.801 661.21 256.445 661.21C256.134 661.21 255.835 661.275 255.547 661.404C255.259 661.532 255.018 661.735 254.825 662.011C254.632 662.288 254.52 662.65 254.49 663.097H253.058C253.089 662.453 253.255 661.902 253.558 661.443C253.865 660.985 254.268 660.635 254.768 660.392C255.272 660.15 255.831 660.029 256.445 660.029C257.111 660.029 257.691 660.161 258.183 660.426C258.679 660.691 259.062 661.055 259.331 661.517C259.604 661.979 259.74 662.506 259.74 663.097C259.74 663.513 259.676 663.89 259.547 664.227C259.422 664.565 259.24 664.866 259.001 665.131C258.767 665.396 258.482 665.631 258.149 665.835C257.816 666.044 257.549 666.263 257.348 666.494C257.147 666.722 257.001 666.993 256.911 667.307C256.82 667.621 256.77 668.013 256.763 668.483V668.551H255.399ZM256.126 671.915C255.846 671.915 255.606 671.815 255.405 671.614C255.204 671.413 255.104 671.172 255.104 670.892C255.104 670.612 255.204 670.371 255.405 670.171C255.606 669.97 255.846 669.869 256.126 669.869C256.407 669.869 256.647 669.97 256.848 670.171C257.049 670.371 257.149 670.612 257.149 670.892C257.149 671.078 257.102 671.248 257.007 671.404C256.916 671.559 256.793 671.684 256.638 671.779C256.486 671.869 256.316 671.915 256.126 671.915Z" fill="black"/>
<path d="M132 675.006H260.536V676.097H132V675.006Z" fill="black"/>
</svg>
