<svg width="292" height="38" viewBox="0 0 292 38" fill="none" xmlns="http://www.w3.org/2000/svg">
<path d="M269.833 0.867102C276.904 0.890719 283.975 0.819277 291.046 0.896033C291.272 0.901937 291.292 0.925554 291.301 1.15051C291.304 4.31344 291.301 7.47637 291.302 10.6393C291.302 11.0485 291.301 11.0491 290.889 11.0491C286.206 11.0491 281.523 11.0491 276.84 11.0491C276.354 11.0491 276.393 11.0308 276.392 11.496C276.388 12.0705 276.401 12.645 276.386 13.2189C272.579 13.6794 268.171 13.2218 264.167 13.3789C263.927 13.3783 263.823 13.3086 263.816 13.0766C263.804 12.58 263.804 12.0817 263.811 11.5858C263.822 11.5397 263.915 11.6602 263.895 11.5433C263.943 11.0231 263.816 11.029 263.339 11.0497C258.622 11.0426 253.904 11.0632 249.188 11.042C248.637 8.09455 249.177 4.47049 248.996 1.30461C248.996 0.897804 248.999 0.901347 249.419 0.894261C256.223 0.824591 263.027 0.884815 269.833 0.867102Z" fill="white"/>
<path d="M28.3223 0.662364C31.8696 0.619263 35.46 0.580886 38.9093 1.41103C44.6701 2.79736 48.933 6.93273 50.3028 12.7473C50.369 12.9421 50.5467 13.4174 50.2107 13.3891C46.0441 13.3731 41.8721 13.3796 37.7078 13.3832C37.1646 13.5107 36.5293 11.9992 35.7434 11.7282C35.1654 11.3403 34.5195 11.2435 33.8718 11.084C29.2375 10.9896 24.5725 11.0823 19.9282 11.051C19.1211 10.8857 19.6265 12.3517 19.493 12.8524C19.4936 13.1128 19.5231 13.4511 19.1594 13.3844C15.3098 13.3737 11.4596 13.3844 7.60945 13.3802C7.29062 13.379 6.8106 13.4635 6.91511 12.977C6.94168 9.01931 6.80175 4.62828 6.88322 0.675354L28.3223 0.662364Z" fill="white"/>
<path d="M210.976 13.3786C208.87 13.3791 206.765 13.378 204.659 13.3791C204.123 13.3207 204.695 12.2095 204.637 11.8523C205.702 6.02888 210.922 2.24836 216.456 1.07931C224.899 -0.656554 237.071 -0.902173 243.954 4.99091C245.802 6.63939 246.99 8.85527 247.66 11.2117C247.586 11.7803 248.324 13.0916 247.803 13.3762C243.584 13.3809 239.364 13.3768 235.145 13.3774C234.447 13.0928 234.135 12.0217 233.354 11.7011C229.959 9.71671 224.053 9.91922 220.381 11.0505C219.314 11.4508 218.291 12.1032 217.69 13.0969C217.57 13.3012 217.409 13.3856 217.164 13.3845C215.101 13.3762 213.039 13.3797 210.976 13.3797C210.976 13.3791 210.976 13.3786 210.976 13.3786Z" fill="white"/>
<path d="M95.7387 13.4068C87.5377 13.5314 79.2451 13.2817 71.0074 13.3803C70.097 13.4736 70.4565 11.7164 70.3184 11.1219C70.6496 1.48251 82.6424 0.223127 90.1438 0.0778809C97.3199 0.146371 107.133 -0.435202 111.934 5.89716C113.06 7.46357 113.593 9.3246 113.886 11.2028C109.921 11.6863 105.259 11.2033 101.064 11.3722C100.465 11.2966 99.8646 9.91798 99.028 9.61627C96.0233 8.02447 92.3922 8.16618 89.0911 8.40176C87.6935 8.61727 86.27 8.7383 84.9823 9.37892C83.8209 9.7444 82.6282 11.7052 84.2608 12.259C87.9698 13.4523 91.9741 12.8495 95.7387 13.4068Z" fill="white"/>
<path d="M141.649 13.3784C133.395 13.5862 125.05 13.2544 116.757 13.3802C116.196 13.3979 116.38 12.5022 116.216 12.1261C115.482 1.74517 128.466 0.102599 136.295 0.0754395C143.718 0.165775 154.278 -0.437053 158.465 6.98937C158.816 7.5615 160.185 11.2304 159.507 11.3686C155.382 11.3745 151.258 11.368 147.133 11.3698C146.823 11.4005 146.589 11.3485 146.413 11.0598C143.786 7.62467 138.119 8.14366 134.255 8.52331C132.528 8.74059 130.148 9.03049 129.389 10.8437C129.176 11.5439 129.591 12.2218 130.334 12.3251C133.993 13.3955 137.922 12.9291 141.649 13.3784Z" fill="white"/>
<path d="M181.883 0.877781C187.709 0.881914 193.534 0.864201 199.36 0.868925C199.729 0.961032 200.624 0.666407 200.651 1.14525C200.655 3.63981 200.653 6.13438 200.652 8.62894C200.652 9.07236 200.725 9.09597 200.192 9.09597C192.063 9.09833 183.935 9.08948 175.806 9.09892C175.328 9.31974 175.77 11.9165 175.627 12.6084C175.614 12.8127 175.655 13.1499 175.924 13.1428C184.113 13.1463 192.302 13.1369 200.491 13.1457C201.068 13.5 199.926 13.4876 199.707 13.4657C187.62 13.2414 174.786 13.9127 163.066 13.1062C163.122 9.18985 163.071 5.27117 163.087 1.35426C163.087 0.847669 163.092 0.903169 163.556 0.893723C169.665 0.825233 175.774 0.884866 181.883 0.867153C181.883 0.870696 181.883 0.874238 181.883 0.877781Z" fill="white"/>
<path d="M28.1914 26.9279C35.2204 26.9368 42.2507 26.9108 49.2798 26.9374C49.5472 26.9994 49.2378 27.428 49.1876 27.5792C47.5256 31.0297 44.6378 33.9062 41.048 35.2926C39.9492 35.7555 38.7837 36.033 37.6046 36.1611C27.4994 36.6754 17.2909 36.2048 7.15318 36.3559C6.96838 36.3429 6.92764 36.301 6.91465 36.1233C6.9117 33.2089 6.91583 30.294 6.91524 27.379C6.91524 26.9457 6.93118 26.9285 7.36101 26.9279C14.3039 26.9279 21.2479 26.9279 28.1914 26.9279Z" fill="white"/>
<path d="M77.4654 26.928C79.6394 26.928 81.8133 26.9298 83.9873 26.9262C84.9243 27.0236 85.6175 27.888 86.5592 28.1124C90.012 29.0783 95.1872 29.1014 98.5744 27.9494C99.3597 27.8384 99.8527 27.1098 100.568 26.9298C104.907 26.9286 109.247 26.9233 113.586 26.9315C113.797 26.9445 113.844 26.9965 113.804 27.209C113.512 29.2147 112.562 31.1035 111.041 32.4585C104.305 38.1491 90.9561 37.2788 82.5838 36.4817C77.6467 35.7431 72.1261 33.3566 70.7882 28.0492C70.8544 27.7274 70.261 27.0443 70.6601 26.9339C72.9274 26.9162 75.197 26.9339 77.4654 26.928Z" fill="white"/>
<path d="M123.376 26.9281C125.737 27.0851 128.305 26.6092 130.572 27.12C131.225 27.7039 132.058 27.992 132.884 28.2441C136.317 29.0412 141.269 29.105 144.577 27.8804C145.35 27.8314 145.771 26.9936 146.494 26.9263C150.696 26.9322 154.897 26.9257 159.099 26.9287C160.443 26.634 158.926 29.6281 158.696 30.1837C158.09 31.289 157.252 32.262 156.239 33.013C149.302 37.8121 139.801 37.0545 131.704 36.8373C126.97 36.4429 121.597 35.5106 118.443 31.5842C117.861 30.9896 115.92 27.3237 116.622 26.9316C118.872 26.9222 121.124 26.931 123.376 26.9281Z" fill="white"/>
<path d="M226.211 26.9276C233.171 26.933 240.13 26.917 247.09 26.9335C247.638 26.917 246.542 28.549 246.484 28.8353C244.551 32.6094 240.616 34.7745 236.664 35.8573C229.618 37.4934 221.977 37.5619 214.989 35.5969C211.25 34.5418 207.678 32.2374 205.862 28.7048C205.719 28.3677 204.869 26.9135 205.331 26.9141C212.291 26.9507 219.251 26.9158 226.211 26.9276Z" fill="white"/>
<path d="M181.854 36.3584C175.668 36.1612 169.01 36.7392 163.048 36.1571C163.123 33.2079 163.108 30.2398 163.058 27.2876C163.022 27.0001 163.093 26.9334 163.377 26.9275C167.26 26.9275 171.145 26.9275 175.029 26.928C176.17 26.6936 175.172 27.9991 175.868 28.0487C183.677 27.9944 191.491 28.0434 199.301 28.0292C199.686 28.1178 200.623 27.8255 200.653 28.2902C200.654 30.845 200.652 33.3997 200.653 35.9539C200.653 36.3578 200.652 36.3584 200.235 36.3584C194.108 36.3584 187.981 36.3584 181.854 36.3584Z" fill="white"/>
<path d="M174.931 14.7949C181.108 14.9779 187.728 14.4418 193.69 14.9815C193.702 17.1596 193.691 19.3371 193.693 21.5146C193.692 21.9178 193.761 21.9562 193.258 21.9562C185.154 21.9556 177.051 21.9539 168.947 21.9562C168.396 21.8281 168.75 23.9879 168.716 24.4024C168.737 24.6728 168.694 24.8918 168.38 24.88C164.676 24.8865 160.972 24.8818 157.268 24.8812C156.845 24.8127 156.009 25.0778 156.137 24.3965C156.137 21.3357 156.136 18.2755 156.137 15.2147C156.137 14.799 156.138 14.7984 156.549 14.7984C162.677 14.7984 168.804 14.7984 174.931 14.7984C174.931 14.7967 174.931 14.7961 174.931 14.7949Z" fill="white"/>
<path d="M146.137 24.881C143.938 24.8692 141.738 24.9058 139.538 24.8644C139.358 24.858 139.3 24.7446 139.423 24.5899C140.133 23.6304 139.386 22.7985 138.415 22.5883C133.351 21.587 128.144 21.9572 123.039 21.2947C119.792 20.9109 116.457 20.3943 113.493 18.9111C111.85 18.0952 110.413 16.834 109.659 15.1418C109.485 14.4587 111.027 14.9263 111.427 14.7959C123.436 15.3526 135.994 13.1503 147.564 16.9863C150.654 18.117 153.219 20.8885 152.846 24.3543C152.822 24.8361 152.783 24.8804 152.299 24.881C150.245 24.8828 148.192 24.8816 146.138 24.8816C146.137 24.8816 146.137 24.8816 146.137 24.881Z" fill="white"/>
<path d="M63.707 14.9007C73.4538 14.8139 83.3985 14.4337 93.1382 15.1263C95.935 15.3772 98.7414 15.8808 101.369 16.8787C104.614 17.9385 107.395 20.7755 106.96 24.383C106.984 24.8512 106.706 24.9032 106.301 24.8813C102.125 24.8819 97.949 24.8819 93.7729 24.8819C93.4582 24.8819 93.4169 24.8938 93.591 24.5554C94.9886 21.9304 89.6576 22.29 88.2175 22.0414C81.3077 21.2957 66.9444 22.3543 63.707 14.9007Z" fill="white"/>
<path d="M21.5389 24.8823C14.4514 24.8681 7.3603 24.9118 0.27455 24.8652C-0.0501867 24.9071 0.0330641 24.4306 0 24.221C0.00118086 21.2293 0.00118069 18.2376 0.00236155 15.2465C0.00236155 14.8078 0.0112181 14.7977 0.447546 14.7977C4.34851 14.796 8.24948 14.7966 12.1505 14.7966C12.4941 14.8036 12.559 14.783 12.5484 15.1479C12.549 17.9849 12.5484 20.8225 12.549 23.6595C12.549 24.061 12.5496 24.0592 12.9381 24.0592C17.5606 24.048 22.1842 24.0787 26.8061 24.0439C31.3648 23.5721 31.9865 18.0876 30.5831 14.8231C34.8448 14.7682 39.1254 14.7836 43.3919 14.8149C43.8087 15.0463 43.6959 16.2378 43.7857 16.7166C43.9469 18.7713 43.7981 20.8319 43.2696 22.8276C42.9963 23.4015 42.9396 24.7796 42.2376 24.8835C35.339 24.8805 28.4386 24.8835 21.5389 24.8823Z" fill="white"/>
<path d="M208.988 24.8811C204.895 24.8528 201.722 24.9361 198.346 24.8504C197.676 24.0492 197.778 22.6723 197.494 21.6491C197.402 20.8639 196.913 14.5581 197.822 14.799C201.955 14.7978 206.088 14.7966 210.221 14.7966C210.532 14.7966 210.553 14.8208 210.424 15.0965C210.051 16.0088 209.92 17.0084 209.939 17.9861C209.862 19.6765 210.137 21.5464 211.438 22.7526C214.386 25.6097 225.873 25.8134 227.943 21.7401C228.137 21.3752 228.244 20.8101 228.782 20.917C232.769 20.917 236.756 20.9176 240.743 20.9182C241.672 20.8001 240.815 22.3299 240.903 22.8536C240.875 23.4523 240.615 23.9925 240.503 24.5741C240.479 24.8835 240.167 24.8906 239.918 24.8817C229.907 24.8959 218.791 24.8451 208.988 24.8811Z" fill="white"/>
<path d="M67.0006 7.13689C67.0006 9.07409 67.0006 11.0113 67.0006 12.9485C67.0006 13.3777 67.0006 13.3783 66.5743 13.3783C62.6308 13.3748 58.6867 13.3889 54.7433 13.3754C54.1717 13.3476 54.5809 12.2636 54.4947 11.8692C54.4693 8.35671 54.5478 4.83716 54.4664 1.32824C54.4551 1.10446 54.4398 0.818106 54.7503 0.847627C58.6513 0.843494 62.5517 0.847627 66.4527 0.846446C66.6587 0.873015 67.023 0.746073 66.9994 1.06904C67.0041 3.09126 66.9982 5.11407 67.0006 7.13689Z" fill="white"/>
<path d="M53.8033 14.7954C55.7281 14.7954 57.6529 14.7948 59.5771 14.7954C60.0353 14.7954 60.0358 14.7972 60.0358 15.2418C59.8463 18.3711 60.4066 21.9662 59.8345 24.8758C56.028 24.8935 52.2215 24.877 48.415 24.8812C47.7579 24.867 47.4756 24.955 47.4443 24.165C47.4485 21.2848 47.4485 18.4047 47.4443 15.5246C47.5087 15.3138 47.4697 14.8586 47.6941 14.8031C49.7305 14.7883 51.7669 14.8025 53.8033 14.7978C53.8033 14.7966 53.8033 14.796 53.8033 14.7954Z" fill="white"/>
<path d="M263.206 14.7951C265.13 14.7951 267.055 14.7945 268.979 14.7957C269.578 14.7963 269.489 14.801 269.489 15.3182C269.492 18.4203 269.49 21.5225 269.492 24.6246C269.489 24.8218 269.478 24.8395 269.278 24.8661C266.187 24.9103 263.093 24.8684 260.001 24.8826C259.044 24.7675 257.736 25.1306 256.946 24.7031C256.91 21.5077 256.944 18.3099 256.932 15.1145C256.883 14.8311 257.083 14.762 257.331 14.7969C259.289 14.7969 261.248 14.7969 263.206 14.7969C263.206 14.7963 263.206 14.7957 263.206 14.7951Z" fill="white"/>
<path d="M270.15 36.3584C268.165 36.3578 266.181 36.3602 264.196 36.3578C263.755 36.3944 263.834 35.7491 263.805 35.4539C264.076 23.5012 261.157 27.6383 275.908 26.928C276.39 26.928 276.391 26.9292 276.391 27.4063C276.392 30.2604 276.392 33.1152 276.392 35.9693C276.392 36.3454 276.381 36.3584 276.001 36.3584C274.051 36.359 272.101 36.3584 270.15 36.3584Z" fill="white"/>
<path d="M60.7473 26.9286C62.6798 26.9286 64.6129 26.928 66.5454 26.9292C67.0449 26.9292 66.9994 26.9392 66.9994 27.3785C67 30.1978 67 33.0171 66.9994 35.8364C66.9994 36.3011 66.9959 36.3011 66.5206 36.3011C62.6042 36.2964 58.6856 36.31 54.7716 36.2905C54.1741 36.3011 54.5591 35.3824 54.4929 35.014C54.4971 32.6658 54.4923 30.3177 54.4935 27.9701C54.572 27.659 54.2621 27.0727 54.6388 26.9351C56.674 26.9139 58.7104 26.9339 60.7462 26.9274C60.7473 26.928 60.7473 26.9286 60.7473 26.9286Z" fill="white"/>
<path d="M116.53 24.8819C114.425 24.8819 112.32 24.883 110.215 24.8801C109.34 24.9893 109.312 24.5004 109.308 23.7636C109.694 23.3668 110.633 23.7069 111.199 23.5977C114.909 23.7707 118.916 23.2611 122.484 23.7825C122.507 24.0812 123.624 24.834 123.128 24.8824C120.928 24.8848 118.729 24.8824 116.53 24.8836C116.53 24.8824 116.53 24.8819 116.53 24.8819Z" fill="white"/>
<path d="M77.4025 24.8227C73.1355 24.9886 68.7935 24.8269 64.501 24.8806C64.197 24.821 63.5989 25.0046 63.5316 24.5966C63.5634 24.3114 63.2718 23.7293 63.6095 23.6118C64.811 23.5752 66.0155 23.6076 67.2182 23.5964C70.2005 23.5964 73.1821 23.5994 76.1644 23.5923C76.681 23.5964 77.0583 24.449 77.4025 24.8227Z" fill="white"/>
<path d="M234.592 14.7947C236.628 14.7947 238.665 14.7947 240.702 14.7947C241.236 14.6624 241.414 15.5505 240.863 15.4843C236.807 15.4837 232.751 15.4826 228.695 15.4861C228.331 15.5339 228.234 15.2564 228.074 14.9907C227.972 14.7628 228.293 14.8 228.43 14.7982C230.484 14.7977 232.538 14.7977 234.591 14.7977C234.592 14.7965 234.592 14.7959 234.592 14.7947Z" fill="white"/>
</svg>
